<?xml version="1.0" standalone="no"?>
<!DOCTYPE svg PUBLIC "-//W3C//DTD SVG 1.1//EN" "http://www.w3.org/Graphics/SVG/1.1/DTD/svg11.dtd" >
<svg xmlns="http://www.w3.org/2000/svg">
<metadata>Generated by IcoMoon</metadata>
<defs>
<font id="travooo" horiz-adv-x="1024">
<font-face units-per-em="1024" ascent="960" descent="-64" />
<missing-glyph horiz-adv-x="1024" />
<glyph unicode="&#x20;" horiz-adv-x="512" d="" />
<glyph unicode="&#xe900;" glyph-name="about-city-icon" d="M598.528 385.536c-4.864 0-9.728 1.536-13.568 4.608-6.656 4.864-9.984 13.056-8.704 20.992l16.896 124.416c1.792 12.288 13.056 20.992 25.344 19.456 12.288-1.792 20.992-13.056 19.456-25.344l-11.52-84.48 66.816 29.184c11.52 5.12 24.832-0.256 29.696-11.776 5.12-11.52-0.256-24.832-11.776-29.696l-103.68-45.312c-2.816-1.28-5.888-2.048-8.96-2.048zM615.68 61.44c-1.792 0-3.584 0.256-5.376 0.512-12.032 2.816-19.712 15.104-16.64 27.392l45.312 189.44c0.512 1.792 1.024 3.584 2.048 5.376l38.912 73.216v175.36c0 12.544 10.24 22.528 22.528 22.528 12.544 0 22.528-10.24 22.528-22.528v-180.992c0-3.584-1.024-7.424-2.56-10.496l-40.192-75.52-44.544-186.624c-2.56-10.752-11.776-17.664-22.016-17.664zM792.832 61.44c-10.24 0-19.456 6.912-22.016 17.408l-44.544 186.368-43.52 75.264c-6.144 10.752-2.56 24.576 8.192 30.976 10.752 6.144 24.576 2.56 30.976-8.192l45.312-78.080c1.024-1.792 1.792-3.84 2.304-6.144l45.312-189.44c2.816-12.032-4.608-24.32-16.64-27.392-1.792-0.512-3.584-0.768-5.376-0.768zM702.72 509.952c-56.832 0-103.168 46.336-103.168 103.168s46.336 103.168 103.168 103.168 103.168-46.336 103.168-103.168-46.080-103.168-103.168-103.168zM702.72 671.232c-32 0-58.112-26.112-58.112-58.112s26.112-58.112 58.112-58.112 58.112 26.112 58.112 58.112-26.112 58.112-58.112 58.112zM845.824 272.384c-8.192 0-15.872 4.352-19.968 12.032l-43.008 80.384-94.208 70.656c-9.984 7.424-12.032 21.76-4.608 31.744s21.76 12.032 31.744 4.608l98.048-73.472c2.56-2.048 4.864-4.608 6.4-7.424l45.312-84.736c5.888-11.008 1.792-24.832-9.216-30.72-3.328-2.048-6.912-3.072-10.496-3.072zM316.928 789.248h-140.8c-12.544 0-22.528 10.24-22.528 22.528s10.24 22.528 22.528 22.528h140.8c12.544 0 22.528-10.24 22.528-22.528s-9.984-22.528-22.528-22.528zM502.016 686.080h-325.888c-12.544 0-22.528 10.24-22.528 22.528 0 12.544 10.24 22.528 22.528 22.528h325.632c12.544 0 22.528-10.24 22.528-22.528 0.256-12.288-9.984-22.528-22.272-22.528zM502.016 583.168h-325.888c-12.544 0-22.528 10.24-22.528 22.528 0 12.544 10.24 22.528 22.528 22.528h325.632c12.544 0 22.528-10.24 22.528-22.528 0.256-12.544-9.984-22.528-22.272-22.528zM502.016 480h-325.888c-12.544 0-22.528 10.24-22.528 22.528s10.24 22.528 22.528 22.528h325.632c12.544 0 22.528-10.24 22.528-22.528s-9.984-22.528-22.272-22.528z" />
<glyph unicode="&#xe901;" glyph-name="about-icon" d="M474.201 957.938c-254.626-22.336-448.086-214.078-470.765-467.329-21.648-239.162 132.639-465.611 363.554-532.274 93.122-27.146 196.897-27.146 290.019 0 148.446 42.953 273.525 156.693 329.192 299.297 119.238 305.138-67.694 639.485-387.608 693.434-31.613 5.498-98.62 8.934-124.392 6.872zM604.779 881.31c174.561-40.204 304.107-171.812 342.25-347.404 8.934-40.891 8.934-130.921 0-171.812-38.486-177.997-171.468-310.98-349.122-349.122-40.891-8.934-130.921-8.934-171.812 0-177.654 38.142-310.636 171.125-349.122 349.122-8.934 40.891-8.934 130.921 0 171.812 34.019 156.693 141.917 280.397 290.706 332.628 25.772 8.934 61.852 17.525 94.497 22.679 24.397 3.78 114.083-1.374 142.604-7.903zM488.977 694.035l-9.621-8.247v-347.060l8.247-8.934c6.872-7.216 11.683-8.934 24.397-8.934s17.525 1.718 24.397 8.934l8.247 8.934v347.060l-9.621 8.247c-6.529 5.498-13.745 8.247-23.023 8.247s-16.494-2.749-23.023-8.247zM495.162 254.196c-12.714-7.216-17.181-18.899-17.525-46.046 0-24.397 0.344-25.772 11.683-37.111 15.807-15.807 29.552-15.807 45.358 0 10.996 10.996 11.683 13.058 11.683 36.081 0 28.177-4.467 40.204-17.525 47.077-11.683 5.842-23.023 5.842-33.675 0z" />
<glyph unicode="&#xe902;" glyph-name="angle-down" d="M797.143 539.429q0-7.429-5.714-13.143l-266.286-266.286q-5.714-5.714-13.143-5.714t-13.143 5.714l-266.286 266.286q-5.714 5.714-5.714 13.143t5.714 13.143l28.571 28.571q5.714 5.714 13.143 5.714t13.143-5.714l224.571-224.571 224.571 224.571q5.714 5.714 13.143 5.714t13.143-5.714l28.571-28.571q5.714-5.714 5.714-13.143z" />
<glyph unicode="&#xe903;" glyph-name="angle-left" d="M687.429 649.143q0-7.429-5.714-13.143l-224.571-224.571 224.571-224.571q5.714-5.714 5.714-13.143t-5.714-13.143l-28.571-28.571q-5.714-5.714-13.143-5.714t-13.143 5.714l-266.286 266.286q-5.714 5.714-5.714 13.143t5.714 13.143l266.286 266.286q5.714 5.714 13.143 5.714t13.143-5.714l28.571-28.571q5.714-5.714 5.714-13.143z" />
<glyph unicode="&#xe904;" glyph-name="angle-right" d="M669.143 411.429q0-7.429-5.714-13.143l-266.286-266.286q-5.714-5.714-13.143-5.714t-13.143 5.714l-28.571 28.571q-5.714 5.714-5.714 13.143t5.714 13.143l224.571 224.571-224.571 224.571q-5.714 5.714-5.714 13.143t5.714 13.143l28.571 28.571q5.714 5.714 13.143 5.714t13.143-5.714l266.286-266.286q5.714-5.714 5.714-13.143z" />
<glyph unicode="&#xe905;" glyph-name="angle-up" d="M797.143 283.429q0-7.429-5.714-13.143l-28.571-28.571q-5.714-5.714-13.143-5.714t-13.143 5.714l-224.571 224.571-224.571-224.571q-5.714-5.714-13.143-5.714t-13.143 5.714l-28.571 28.571q-5.714 5.714-5.714 13.143t5.714 13.143l266.286 266.286q5.714 5.714 13.143 5.714t13.143-5.714l266.286-266.286q5.714-5.714 5.714-13.143z" />
<glyph unicode="&#xe906;" glyph-name="average-flight-price-icon" d="M583.424 334.592l-113.152 49.408c-11.008 4.864-16.128 17.664-11.264 28.416 4.608 11.008 17.664 16.128 28.416 11.264l85.248-37.12 94.208 99.072c8.192 8.704 22.016 8.96 30.72 0.768s8.96-22.016 0.768-30.72l-114.944-121.088zM561.92 28.16c-9.728 0-18.688 6.656-21.248 16.64l-42.752 178.944-40.96 77.312v178.688c0 12.032 9.728 21.504 21.504 21.504s21.504-9.728 21.504-21.504v-167.936l39.168-75.264 43.52-181.504c2.56-11.52-4.352-23.296-16.128-26.112-1.28-0.512-3.072-0.768-4.608-0.768zM391.936 28.16c-1.792 0-3.328 0.256-5.12 0.768-11.52 2.56-18.944 14.592-16.128 26.112l44.032 184.832 45.056 77.824c6.144 10.496 19.2 13.824 29.696 7.936 10.496-6.144 13.824-19.2 7.936-29.696l-41.728-72.192-42.752-178.432c-2.304-10.496-11.264-17.152-20.992-17.152zM478.464 457.984c-54.528 0-99.072 44.288-99.072 99.072s44.288 99.072 99.072 99.072 99.072-44.288 99.072-99.072-44.8-99.072-99.072-99.072zM478.464 612.608c-30.72 0-55.552-25.088-55.552-55.552s25.088-55.296 55.552-55.296 55.552 25.088 55.552 55.552-25.088 55.296-55.552 55.296zM297.984 288.256c-5.12 0-10.24 1.792-14.592 5.632-8.96 7.936-9.728 21.504-1.792 30.464l77.824 87.296 116.736 13.568c11.776 1.28 22.784-7.168 24.064-18.944s-7.168-22.784-18.944-24.064l-100.352-11.52-66.816-75.008c-4.096-5.12-10.24-7.424-16.128-7.424zM236.032 91.648c-5.632 0-11.264 2.304-15.36 6.4l-134.656 134.4c-4.096 4.096-6.4 9.472-6.4 15.36s2.304 11.264 6.4 15.36l119.552 119.552c8.448 8.448 22.272 8.448 30.72 0l134.656-134.656c4.096-4.096 6.4-9.472 6.4-15.36s-2.304-11.264-6.4-15.36l-119.552-119.552c-4.608-4.096-9.984-6.144-15.36-6.144zM131.84 247.808l104.192-103.936 88.832 88.832-103.936 104.192-89.088-89.088zM902.144 440.832c-0.512 0-0.768 0-1.28 0l-265.984 15.872c-5.888 0.512-11.264 2.816-14.848 7.424-3.84 4.352-5.888 9.984-5.376 15.616l21.76 370.432c0.768 12.032 11.008 21.248 23.040 20.224l265.984-15.872c5.888-0.512 11.264-2.816 14.848-7.424 3.84-4.352 5.888-9.984 5.376-15.616l-21.76-370.432c-0.768-11.264-10.496-20.224-21.76-20.224zM659.2 498.944l222.464-13.056 19.456 327.168-222.464 13.056-19.456-327.168zM780.288 628.736c-0.512 0-0.768 0-1.28 0-19.712 1.024-38.4 9.216-51.968 22.016-14.592 14.080-21.76 32-20.736 51.2 1.024 18.944 10.496 36.352 26.624 48.384 14.848 11.264 34.304 16.896 54.272 15.872 42.24-2.56 75.008-35.328 72.704-73.216-0.768-12.032-11.264-20.992-23.040-20.224-12.032 0.768-21.248 11.008-20.224 23.040 0.768 13.824-13.824 26.624-31.744 27.392-9.472 0.512-18.688-2.048-25.344-7.168-3.328-2.56-9.216-7.936-9.472-16.384-0.512-8.192 4.352-14.592 7.68-17.408 6.144-5.888 14.848-9.472 24.32-9.984 12.032-0.768 21.248-11.008 20.224-23.040-1.28-11.776-10.752-20.48-22.016-20.48zM778.496 534.272c-1.792 0-3.328 0-5.12 0.256-42.24 2.56-75.008 35.328-72.704 73.216 0.768 12.032 11.264 20.992 23.040 20.224 12.032-0.768 21.248-11.008 20.224-23.040-0.768-13.824 13.824-26.624 31.744-27.392 9.472-0.768 18.688 2.048 25.344 7.168 3.328 2.56 9.216 7.936 9.472 16.384 0.512 8.192-4.352 14.592-7.68 17.408-6.144 5.888-14.848 9.472-24.32 9.984-12.032 0.768-21.248 11.008-20.224 23.040 0.768 12.032 11.264 20.992 23.040 20.224 19.712-1.024 38.4-9.216 51.968-22.016 14.592-14.080 21.76-32 20.736-51.2-1.024-18.944-10.496-36.352-26.624-48.384-13.824-10.24-30.976-15.872-48.896-15.872zM773.376 510.72c-0.512 0-0.768 0-1.28 0-12.032 0.768-21.248 11.008-20.224 23.040l14.592 244.736c0.768 12.032 11.008 20.992 23.040 20.224s21.248-11.008 20.224-23.040l-14.592-244.736c-1.024-11.264-10.496-20.224-21.76-20.224z" />
<glyph unicode="&#xe907;" glyph-name="bars" d="M950.857 192v-73.143q0-14.857-10.857-25.714t-25.714-10.857h-804.571q-14.857 0-25.714 10.857t-10.857 25.714v73.143q0 14.857 10.857 25.714t25.714 10.857h804.571q14.857 0 25.714-10.857t10.857-25.714zM950.857 484.571v-73.143q0-14.857-10.857-25.714t-25.714-10.857h-804.571q-14.857 0-25.714 10.857t-10.857 25.714v73.143q0 14.857 10.857 25.714t25.714 10.857h804.571q14.857 0 25.714-10.857t10.857-25.714zM950.857 777.143v-73.143q0-14.857-10.857-25.714t-25.714-10.857h-804.571q-14.857 0-25.714 10.857t-10.857 25.714v73.143q0 14.857 10.857 25.714t25.714 10.857h804.571q14.857 0 25.714-10.857t10.857-25.714z" />
<glyph unicode="&#xe908;" glyph-name="bell-icon" horiz-adv-x="812" d="M361.668 941.481c-12.528-12.528-18.519-23.421-18.519-34.315 0-14.162-2.723-16.885-22.877-22.877-80.068-23.966-157.413-102.4-184.647-188.46-4.357-14.706-7.626-77.345-9.804-187.915-3.813-194.996 0-181.379-74.077-260.357-41.396-44.119-47.932-53.379-50.111-74.077-3.268-28.868 8.715-53.923 32.681-68.63 15.796-9.804 27.779-10.894 130.723-10.894h112.749v-20.698c0-78.979 54.468-137.26 128-137.26s128 58.281 128 137.26v20.698h113.294c102.4 0 114.383 1.089 130.179 10.894 23.966 14.706 35.949 39.762 32.681 68.63-2.179 20.698-8.715 29.957-50.111 74.077-74.077 78.979-70.264 65.362-74.077 257.634-2.723 149.787-3.813 166.128-14.706 195.54-32.136 87.149-95.319 153.055-173.753 180.834-25.6 9.26-28.868 11.983-28.868 25.6 0 10.894-5.991 21.787-18.519 34.315-15.796 15.796-22.332 18.519-44.119 18.519s-28.323-2.723-44.119-18.519z" />
<glyph unicode="&#xe909;" glyph-name="bookmark-icon" horiz-adv-x="745" d="M367.069 328.127l-287.831-268.868v740.233c0 29.122 23.704 52.148 52.148 52.148h471.365c29.122 0 52.148-23.704 52.148-52.148v-740.233l-287.831 268.868z" />
<glyph unicode="&#xe90a;" glyph-name="budget-icon" horiz-adv-x="1448" d="M968.611-54.883c-146.384 0-304.121 42.143-304.121 134.515 0 21.158 17.201 38.359 38.359 38.359s38.359-17.201 38.359-38.359c4.472-15.481 81.019-57.625 227.231-57.625s222.758 42.143 227.403 58.141c0 21.158 17.201 38.187 38.359 38.187s38.359-17.545 38.359-38.703c0-92.372-157.565-134.515-303.949-134.515zM968.611 105.262c-146.384 0-304.121 42.143-304.121 134.343 0 21.158 17.201 38.359 38.359 38.359s38.359-17.201 38.359-38.359c4.472-15.481 81.019-57.625 227.231-57.625s222.758 42.143 227.403 58.141c0 21.158 17.201 38.187 38.359 38.187s38.359-17.545 38.359-38.703c0-92.2-157.565-134.343-303.949-134.343zM968.611 265.407c-146.384 0-304.121 42.143-304.121 134.343 0 21.158 17.201 38.359 38.359 38.359s38.359-17.201 38.359-38.359c4.472-15.481 81.019-57.625 227.231-57.625s222.758 42.143 227.403 58.141c0 21.158 17.201 38.187 38.359 38.187s38.359-17.545 38.359-38.703c0-92.2-157.565-134.343-303.949-134.343zM968.611 425.552c-146.384 0-304.121 42.143-304.121 134.343s157.565 134.343 304.121 134.343c146.384 0 304.121-42.143 304.121-134.343s-157.737-134.343-304.121-134.343zM968.611 617.52c-146.212 0-222.758-42.143-227.231-58.141 4.472-14.965 81.191-57.109 227.231-57.109 144.492 0 221.038 41.111 227.231 57.625-6.193 16.513-82.739 57.625-227.231 57.625zM1195.842 559.379v0zM401.309 349.694c-106.821 0-190.42 65.881-190.42 149.824 0 21.158 17.201 38.359 38.359 38.359s38.359-17.201 38.359-38.359c0-39.563 51.948-72.934 113.529-72.934s113.529 33.371 113.529 72.934c0 39.563-51.948 72.934-113.529 72.934-106.821 0-190.42 65.881-190.42 149.824s83.599 149.824 190.42 149.824 190.592-65.709 190.592-149.824c0-21.158-17.201-38.359-38.359-38.359s-38.359 17.201-38.359 38.359c0 39.563-51.948 72.934-113.529 72.934s-113.529-33.371-113.529-72.934 51.948-72.934 113.529-72.934c106.821 0 190.42-65.881 190.42-149.824-0.172-83.943-83.771-149.824-190.592-149.824zM401.309 278.136c-21.158 0-38.359 17.201-38.359 38.359v596.889c0 21.158 17.201 38.359 38.359 38.359s38.359-17.201 38.359-38.359v-596.889c0-21.158-17.201-38.359-38.359-38.359z" />
<glyph unicode="&#xe90b;" glyph-name="camera" horiz-adv-x="1170" d="M585.143 576q68 0 116.286-48.286t48.286-116.286-48.286-116.286-116.286-48.286-116.286 48.286-48.286 116.286 48.286 116.286 116.286 48.286zM987.429 813.714q60.571 0 103.429-42.857t42.857-103.429v-512q0-60.571-42.857-103.429t-103.429-42.857h-804.571q-60.571 0-103.429 42.857t-42.857 103.429v512q0 60.571 42.857 103.429t103.429 42.857h128l29.143 77.714q10.857 28 39.714 48.286t59.143 20.286h292.571q30.286 0 59.143-20.286t39.714-48.286l29.143-77.714h128zM585.143 155.429q105.714 0 180.857 75.143t75.143 180.857-75.143 180.857-180.857 75.143-180.857-75.143-75.143-180.857 75.143-180.857 180.857-75.143z" />
<glyph unicode="&#xe90c;" glyph-name="car-icon" horiz-adv-x="1365" d="M1302.613 513.707c-24.747 8.747-196.693 45.867-196.693 45.867s-318.72 181.12-356.907 181.12h-300.587c-64 0-117.547-48.853-179.627-105.387-30.933-29.013-63.36-56.32-97.067-81.92l-132.267-17.707c-19.627-6.187-32.853-24.32-33.067-44.8v-151.68c0-26.027 21.12-47.36 47.147-47.36 0.213 0 0.213 0 0.427 0h91.093c7.467-82.133 80-142.507 162.133-135.040 71.68 6.613 128.64 63.36 135.040 135.040h434.773c7.253-82.133 79.787-142.72 161.92-135.467 71.893 6.4 129.067 63.36 135.467 135.467h74.88c39.253-6.613 78.080 13.653 95.573 49.28 17.92 60.587 5.12 157.227-42.24 172.587zM293.333 227.627c-42.667 0.213-77.013 34.773-76.8 77.227 0.213 42.667 34.773 77.013 77.227 76.8 42.667-0.213 77.013-34.773 76.8-77.227 0 0 0 0 0 0-0.213-42.453-34.773-76.8-77.227-76.8zM580.267 559.573h-259.2c18.773 14.72 36.053 30.507 52.053 45.227 30.72 37.547 73.813 62.933 121.6 71.253h85.547v-116.48zM643.413 676.053h75.307c35.627 0 180.693-84.053 235.093-116.48h-310.187l-0.213 116.48zM1025.28 227.627c-42.667 0.213-77.013 34.773-76.8 77.227 0.213 42.667 34.773 77.013 77.227 76.8 42.667-0.213 77.013-34.773 76.8-77.227 0 0 0 0 0 0-0.213-42.453-34.56-76.8-77.013-76.8h-0.213z" />
<glyph unicode="&#xe90d;" glyph-name="caret-down" d="M804.571 557.714q0-14.857-10.857-25.714l-256-256q-10.857-10.857-25.714-10.857t-25.714 10.857l-256 256q-10.857 10.857-10.857 25.714t10.857 25.714 25.714 10.857h512q14.857 0 25.714-10.857t10.857-25.714z" />
<glyph unicode="&#xe90e;" glyph-name="chevron-up" d="M961.714 199.429l-94.857-94.286q-10.857-10.857-25.714-10.857t-25.714 10.857l-303.429 303.429-303.429-303.429q-10.857-10.857-25.714-10.857t-25.714 10.857l-94.857 94.286q-10.857 10.857-10.857 26t10.857 26l424 423.429q10.857 10.857 25.714 10.857t25.714-10.857l424-423.429q10.857-10.857 10.857-26t-10.857-26z" />
<glyph unicode="&#xe90f;" glyph-name="circle-question-icon" d="M409.6 952.832c-156.672-32.768-288.256-134.656-358.4-276.992-40.448-81.408-48.64-120.832-48.64-227.84s8.192-146.432 48.64-227.84c49.664-100.864 132.096-183.296 232.96-232.96 81.408-40.448 120.832-48.64 227.84-48.64s146.432 8.192 227.84 48.64c100.864 49.664 183.296 132.096 232.96 232.96 40.448 81.408 48.64 120.832 48.64 227.84s-8.192 146.432-48.64 227.84c-64 129.536-187.904 231.936-325.12 269.312-52.224 13.824-186.368 18.432-238.080 7.68zM617.984 687.616c11.264-7.68 26.112-22.528 32.768-33.28 11.776-18.432 12.288-24.064 12.288-103.936s-0.512-85.504-12.288-103.936c-20.48-33.28-45.568-46.080-95.744-48.64l-43.008-2.56v-100.864h-102.4v56.32c0 66.048 6.144 82.944 32.256 92.672 12.288 4.096 19.456 11.264 23.552 23.552 8.192 22.528 28.16 32.256 67.072 32.256h30.72v30.72c0 36.352-7.68 54.784-26.112 64.512-29.184 14.848-61.44 3.072-71.68-26.112l-6.656-17.92h-100.352v32.256c0 17.408 2.56 40.448 5.632 51.2 6.656 24.064 38.912 57.856 61.952 64.512 9.216 3.072 51.712 4.608 94.208 4.096 74.24-1.024 77.824-1.536 97.792-14.848zM485.888 236.032c34.304-17.92 33.28-73.216-2.048-89.088-46.592-20.992-91.648 26.112-67.072 70.144 13.312 24.064 43.008 32.256 69.12 18.944z" />
<glyph unicode="&#xe910;" glyph-name="circle-star-icon" d="M384 946.56c-183.040-47.36-324.48-190.080-371.2-373.12-17.92-69.76-17.92-181.12 0-250.88 46.72-184.32 189.44-327.040 373.76-373.76 69.76-17.92 181.12-17.92 250.88 0 184.32 46.72 327.040 189.44 373.76 373.76 17.92 69.76 17.92 181.12 0 250.88-37.76 147.2-138.88 272.64-272 336-77.44 37.76-138.24 50.56-229.76 49.92-55.040 0-91.52-3.84-125.44-12.8zM553.6 707.2c20.48-59.52 37.76-109.44 38.4-110.72 1.28-1.28 54.4-3.84 119.040-6.4l117.76-4.48-93.44-76.16c-93.44-75.52-94.080-76.16-88.32-96 41.6-143.36 57.6-203.52 55.68-208.64-1.28-3.84-43.52 23.68-94.72 60.8s-94.080 67.2-96 67.2c-1.92 0-44.8-30.080-96-67.2-53.12-39.040-93.44-64-94.72-59.52-0.64 4.48 12.8 57.6 30.080 117.12l31.36 108.8-13.44 11.52c-7.68 6.4-49.92 40.96-94.080 76.8l-80 65.28 96 3.84c53.12 2.56 106.24 4.48 118.4 5.12l23.040 0.64 37.76 115.2c21.12 63.36 39.68 112.64 42.24 110.080 1.92-2.56 20.48-53.12 40.96-113.28z" />
<glyph unicode="&#xe911;" glyph-name="clock-icon" horiz-adv-x="1448" d="M700.958-45.422c-266.45 0-483.188 216.738-483.188 483.188s216.738 483.188 483.188 483.188 483.188-216.738 483.188-483.188-216.738-483.188-483.188-483.188zM700.958 833.57c-218.286 0-395.804-177.519-395.804-395.804s177.519-395.804 395.804-395.804c218.286 0 395.804 177.519 395.804 395.804s-177.519 395.804-395.804 395.804zM700.958 394.074h-209.169c-24.082 0-43.692 19.61-43.692 43.692s19.61 43.692 43.692 43.692h165.306v246.84c0 24.082 19.61 43.692 43.692 43.692s43.692-19.61 43.692-43.692v-290.532c0.172-24.254-19.438-43.692-43.52-43.692z" />
<glyph unicode="&#xe912;" glyph-name="close-icon" d="M235.225 716.818c-14.881-14.881-27.11-29.32-27.11-31.457 0-2.652 54.22-58.567 120.228-124.574l120.228-120.228-120.228-120.228c-66.007-66.007-120.228-122.364-120.228-124.574 0-5.673 53.336-59.009 59.009-59.009 2.652 0 58.567 54.22 124.574 120.228l120.228 120.228 120.228-120.228c66.007-66.007 122.364-120.228 124.574-120.228 5.673 0 59.009 53.336 59.009 59.009 0 2.652-54.22 58.567-120.228 124.574l-120.154 120.228 120.228 120.228c66.007 66.007 120.228 122.364 120.228 124.574 0 5.673-53.336 59.009-59.009 59.009-2.652 0-58.567-54.22-124.574-120.228l-120.302-120.154-120.228 120.154c-66.007 66.007-122.364 120.228-124.574 120.228-2.578 0-17.018-12.229-31.899-27.552z" />
<glyph unicode="&#xe913;" glyph-name="comment-icon" horiz-adv-x="949" d="M181.54 812.571c-12.274-6.646-29.16-22.040-37.908-33.772l-15.326-22.040-1.56-223.246c-1.017-123.355 0-231.383 1.56-240.606 4.069-21.497 35.331-56.286 61.44-68.086 17.428-8.206 34.789-9.697 114.2-9.697h93.177v-81.92c0-51.743 2.034-81.92 5.086-81.92s78.868 36.891 168.926 81.92 168.926 81.92 175.097 81.92c33.772 0.543 87.549 45.029 93.72 77.851 1.56 9.223 2.577 117.251 1.56 240.606l-1.56 223.246-15.326 22.040c-8.206 11.8-25.566 27.126-37.908 33.772l-22.514 11.8h-560.148l-22.514-11.868z" />
<glyph unicode="&#xe914;" glyph-name="comment-plus-icon" horiz-adv-x="948" d="M53.855 950.139c-21.618-10.619-36.409-26.169-46.649-48.924-6.827-14.412-7.206-34.513-7.206-358.4s0.379-343.988 7.206-358.4c10.24-22.756 25.031-38.305 46.649-48.924 19.721-9.861 19.721-9.861 119.087-9.861 98.228 0 99.745 0 105.434-8.344 3.034-4.551 44.373-47.028 91.781-94.815l86.092-86.471h37.926l92.919 94.815 92.539 94.815h97.47c97.090 0 97.47 0 117.191 9.861 21.618 10.619 36.409 26.169 46.649 48.924 6.827 14.412 7.206 34.513 7.206 358.779v343.23l-9.861 19.721c-10.619 21.618-26.169 36.409-48.924 46.649-14.412 6.827-36.409 7.206-415.668 7.206h-400.119l-19.721-9.861zM865.090 873.15c6.827-8.344 7.206-19.342 7.206-330.335s-0.379-321.991-7.206-330.335l-7.206-9.102-214.661-2.276-169.908-168.391-163.84 166.874-109.606 1.896c-109.606 1.896-109.606 1.896-116.812 10.999-6.827 8.344-7.206 19.342-7.206 329.197 0 219.212 1.138 322.75 4.172 327.68 2.276 4.172 7.585 9.102 12.136 10.999s173.321 3.034 386.844 2.655l378.88-0.759 7.206-9.102zM446.009 760.51l-9.861-10.24v-169.529h-82.679c-91.781 0-95.194-0.759-103.159-24.652-3.413-9.861-3.413-16.687 0-26.548 7.964-23.893 11.378-24.652 103.159-24.652h82.679v-169.529l9.861-10.24c14.412-14.033 41.719-14.033 56.13 0l9.861 10.24v169.529h83.437c83.437 0 83.816 0 92.919 9.102 17.067 17.067 17.067 40.581 0 57.647-9.102 9.102-9.481 9.102-92.919 9.102h-83.437v169.529l-9.861 10.24c-7.964 7.964-13.653 9.861-28.065 9.861s-20.101-1.896-28.065-9.861z" />
<glyph unicode="&#xe915;" glyph-name="day-duration-icon" horiz-adv-x="834" d="M727.419 950.519c-14.412-14.412-14.791-25.79-3.034-80.782l10.619-50.062-15.929 9.861c-42.856 26.548-100.124 49.304-155.496 61.44-38.684 8.344-139.567 9.102-178.631 1.138-182.803-36.030-323.887-171.046-372.433-356.124-13.274-50.821-16.687-149.428-6.827-204.421 36.788-205.179 196.077-362.572 395.947-392.154 45.132-6.447 141.464-2.655 181.286 7.585 40.96 10.24 89.884 29.961 125.914 51.2s90.264 64.853 102.021 81.92c20.48 30.341 1.896 64.474-35.271 64.474-10.24 0-18.584-4.93-43.615-26.927-54.613-47.028-102.021-72.439-166.495-89.505-31.479-8.344-44.373-9.861-93.298-9.861-49.304 0-61.819 1.138-93.677 9.861-72.439 19.342-128.948 51.959-181.286 104.676-73.576 73.956-111.881 160.806-116.433 264.344-4.172 92.919 17.067 169.529 69.784 248.794 20.48 31.479 64.095 75.852 97.090 99.366 31.858 22.756 87.23 48.924 125.914 59.164 37.547 10.24 120.984 14.412 159.668 7.964 49.304-8.344 111.123-32.237 147.153-56.51 12.516-8.723 17.067-6.827-48.545-21.618-54.613-12.516-62.957-18.963-62.957-48.166 0-20.859 10.24-34.892 28.065-39.443 9.481-2.276 191.905 35.65 215.799 44.753 14.791 5.689 21.618 17.067 21.618 36.030 0 15.17-33.754 181.665-42.098 208.593-4.93 15.55-18.204 23.893-38.684 23.893-12.895 0-18.963-2.276-26.169-9.481zM256 465.446c-33.375-14.791-46.27-58.027-27.307-91.022 23.893-42.477 87.609-40.96 108.468 3.034 10.24 20.859 9.861 38.305-0.379 59.164-14.791 29.203-50.821 42.098-80.782 28.824zM447.526 466.584c-23.893-9.481-37.926-32.237-37.926-61.061 0-73.576 102.021-85.713 121.363-14.412 13.274 48.545-36.788 94.056-83.437 75.473zM631.087 463.929c-39.443-18.584-46.649-74.335-13.274-104.296 16.687-15.17 35.65-19.721 56.889-14.033 30.341 7.964 45.89 29.582 45.89 63.716 0 45.511-47.407 74.335-89.505 54.613z" />
<glyph unicode="&#xe916;" glyph-name="distance-icon" horiz-adv-x="1448" d="M1046.534 609.091c-94.264 0-170.982 76.718-170.982 170.982s76.718 170.982 170.982 170.982c94.264 0 170.982-76.718 170.982-170.982s-76.718-170.982-170.982-170.982zM1046.534 857.308c-42.487 0-77.062-34.575-77.062-77.062s34.575-77.062 77.062-77.062c42.487 0 77.062 34.575 77.062 77.062s-34.575 77.062-77.062 77.062zM435.712-55.399c-94.264 0-170.982 76.718-170.982 170.982s76.718 170.982 170.982 170.982 170.982-76.718 170.982-170.982-76.718-170.982-170.982-170.982zM435.712 192.645c-42.487 0-77.062-34.575-77.062-77.062s34.575-77.062 77.062-77.062c42.487 0 77.062 34.575 77.062 77.062s-34.747 77.062-77.062 77.062zM1001.81 58.13h-308.421c-25.974 0-46.96 20.986-46.96 46.96s20.986 46.96 46.96 46.96h308.421c67.258 0 121.786 54.7 121.786 121.786 0 67.258-54.7 121.786-121.786 121.786h-521.375c-119.034 0-215.706 96.844-215.706 215.706s96.672 215.878 215.706 215.878h317.366c25.974 0 46.96-20.986 46.96-46.96s-20.986-46.96-46.96-46.96h-317.366c-67.258 0-121.786-54.7-121.786-121.786s54.7-121.786 121.786-121.786h521.375c119.034 0 215.706-96.844 215.706-215.706s-96.844-215.878-215.706-215.878z" />
<glyph unicode="&#xe917;" glyph-name="emergency-number-icon" d="M623.616 289.024l-110.848 48.384c-10.496 4.608-15.36 16.896-10.752 27.392s16.896 15.36 27.392 10.752l80.384-35.072 57.088 78.592 57.6 21.248c11.008 3.84 22.784-1.536 26.88-12.544 3.84-11.008-1.536-22.784-12.544-26.88l-45.824-16.896-69.376-94.976zM600.832-5.12c-9.472 0-17.92 6.4-20.224 15.872l-41.216 172.288-39.68 74.24v172.032c0 11.52 9.216 20.992 20.992 20.992s20.992-9.216 20.992-20.992v-161.792l37.632-72.448 41.728-174.848c2.816-11.264-4.352-22.528-15.36-25.344-1.536 0.256-3.328 0-4.864 0zM437.248-5.12c-1.536 0-3.072 0.256-4.864 0.768-11.264 2.816-18.176 13.824-15.36 25.344l42.496 177.92 43.264 74.752c5.632 9.984 18.432 13.312 28.416 7.68s13.312-18.688 7.68-28.416l-40.192-69.632-40.96-172.288c-2.304-9.728-11.008-16.128-20.48-16.128zM520.448 408.832c-52.48 0-95.232 42.752-95.232 95.232s42.752 95.232 95.232 95.232 95.232-42.752 95.232-95.232-42.752-95.232-95.232-95.232zM520.448 557.568c-29.44 0-53.504-23.808-53.504-53.504 0-29.44 23.808-53.504 53.504-53.504 29.44 0 53.504 23.808 53.504 53.504 0 29.44-24.064 53.504-53.504 53.504zM409.856 291.584l-79.616 95.744-44.288 11.776c-11.264 3.072-17.664 14.336-14.848 25.344s14.336 17.664 25.344 14.848l57.344-15.36 69.12-82.688 90.624 34.816c10.752 4.096 22.784-1.28 27.136-12.032 4.096-10.752-1.28-22.784-12.032-27.136l-118.784-45.312zM200.704 675.584c-11.52 0-20.992 9.216-20.992 20.992v152.832c0 11.52 9.216 20.992 20.992 20.992 11.52 0 20.992-9.216 20.992-20.992v-153.088c0-11.52-9.216-20.736-20.992-20.736zM306.176 675.584c-11.52 0-20.992 9.216-20.992 20.992v152.832c0 11.52 9.216 20.992 20.992 20.992s20.992-9.216 20.992-20.992v-153.088c0-11.52-9.216-20.736-20.992-20.736zM384 675.584c-11.52 0-20.992 9.216-20.992 20.992v152.832c0 11.52 9.216 20.992 20.992 20.992s20.992-9.216 20.992-20.992v-153.088c0-11.52-9.216-20.736-20.992-20.736zM555.776 675.584c-11.52 0-20.992 9.216-20.992 20.992v152.832c0 11.52 9.216 20.992 20.992 20.992 11.52 0 20.992-9.216 20.992-20.992v-153.088c0-11.52-9.472-20.736-20.992-20.736zM718.080 675.584c-11.52 0-20.992 9.216-20.992 20.992v152.832c0 11.52 9.216 20.992 20.992 20.992s20.992-9.216 20.992-20.992v-153.088c0-11.52-9.472-20.736-20.992-20.736zM306.176 752.128h-105.472c-11.52 0-20.992 9.216-20.992 20.992 0 11.52 9.216 20.992 20.992 20.992h105.472c11.52 0 20.992-9.216 20.992-20.992s-9.216-20.992-20.992-20.992zM475.648 828.672h-91.392c-11.52 0-20.992 9.216-20.992 20.992s9.216 20.992 20.992 20.992h91.392c11.52 0 20.992-9.216 20.992-20.992s-9.472-20.992-20.992-20.992zM475.648 675.584h-91.392c-11.52 0-20.992 9.216-20.992 20.992s9.216 20.992 20.992 20.992h91.392c11.52 0 20.992-9.216 20.992-20.992-0.256-11.776-9.472-20.992-20.992-20.992zM647.424 675.584h-91.392c-11.52 0-20.992 9.216-20.992 20.992s9.216 20.992 20.992 20.992h91.392c11.52 0 20.992-9.216 20.992-20.992-0.256-11.776-9.728-20.992-20.992-20.992zM475.648 752.128h-91.392c-11.52 0-20.992 9.216-20.992 20.992 0 11.52 9.216 20.992 20.992 20.992h91.392c11.52 0 20.992-9.216 20.992-20.992s-9.472-20.992-20.992-20.992zM771.584 721.92c-40.96 0-74.24 33.28-74.24 74.24s33.28 74.24 74.24 74.24c40.96 0 74.24-33.28 74.24-74.24-0.256-40.704-33.28-74.24-74.24-74.24zM771.584 828.672c-17.92 0-32.512-14.592-32.512-32.512s14.592-32.512 32.512-32.512c17.92 0 32.512 14.592 32.512 32.512s-14.592 32.512-32.512 32.512z" />
<glyph unicode="&#xe918;" glyph-name="event-icon" horiz-adv-x="967" d="M184.32 958.566c-10.035-3.686-10.24-4.506-10.24-53.248v-45.67h-36.25c-40.96 0-50.176-1.638-73.933-13.312-19.456-9.626-39.731-29.696-49.971-49.152-15.155-29.286-14.131 4.301-13.517-403.456l0.614-366.592 4.506-12.083c10.445-27.648 31.949-51.814 57.958-65.536 27.443-14.541-3.277-13.517 419.84-13.517 424.141 0 392.192-1.024 420.659 13.926 19.046 9.83 40.96 31.539 49.971 49.562 13.517 27.034 12.698-0.41 12.698 398.541 0 403.046 1.229 370.074-13.926 399.155-10.24 19.456-30.515 39.526-49.971 49.152-23.757 11.674-32.973 13.312-73.728 13.312h-36.454v44.851c0 56.32 1.024 54.067-27.443 55.091l-19.661 0.819v-100.762h-524.288v100.352l-16.794-0.205c-9.421 0-18.432-0.614-20.070-1.229zM174.080 768.512c0-43.008 0.205-46.285 3.891-49.971 5.53-5.53 18.637-8.806 31.539-7.987l10.65 0.614 0.614 51.814 0.41 51.61h524.288l0.41-51.61 0.614-51.814 10.65-0.614c12.902-0.819 26.010 2.458 31.539 7.987 3.686 3.686 3.891 6.963 3.891 50.176v46.285l33.382-0.819c28.262-0.819 34.816-1.638 45.056-5.53 16.589-6.554 34.406-23.347 42.803-40.755l6.758-13.722 0.614-79.258 0.614-79.462h-876.954l0.614 79.462 0.614 79.258 5.53 11.674c6.349 13.517 21.504 30.515 33.382 37.478 14.131 8.397 28.262 11.059 60.006 11.059l29.082 0.205v-46.080zM921.19 296.038l-0.614-254.566-6.349-13.312c-7.987-16.998-21.709-30.72-39.322-39.322l-13.722-6.758h-755.712l-13.722 6.758c-17.613 8.602-31.334 22.323-39.322 39.322l-6.349 13.312-0.614 254.566-0.41 254.362h876.544l-0.41-254.362zM196.813 461.107c-25.395-6.758-46.49-24.781-58.163-49.357-6.144-13.107-6.554-15.36-6.554-36.454s0.41-23.347 6.554-36.454c7.782-16.179 23.347-33.382 37.069-40.96 44.646-24.371 98.918-8.602 122.061 35.021 36.25 69.427-25.805 148.48-100.966 128.205zM243.098 410.522c10.854-7.578 19.046-22.528 19.046-35.226s-8.192-27.648-18.842-35.226c-11.264-7.578-30.106-9.011-41.779-3.072-32.358 16.589-32.154 59.392 0.205 77.005 9.83 5.325 31.13 3.686 41.37-3.482zM461.824 461.517c-25.6-6.349-46.899-23.552-58.778-47.718-6.554-13.312-6.758-14.746-6.758-38.502s0.205-25.19 6.758-38.502c32.973-66.765 127.59-66.765 160.563 0 6.554 13.312 6.758 14.746 6.758 38.502s-0.205 25.19-6.758 38.502c-18.842 38.093-61.030 57.754-101.786 47.718zM501.555 413.389c14.131-7.373 24.781-23.552 24.781-38.093 0-22.118-20.48-41.984-43.008-41.984s-43.008 19.866-43.008 41.984c0 14.336 10.445 30.515 24.371 37.888 9.83 5.325 26.624 5.325 36.864 0.205zM722.944 461.107c-42.803-11.469-70.861-55.501-63.693-99.738 5.939-35.226 30.925-63.283 64.717-71.885 42.189-11.059 84.992 9.216 104.038 49.357 6.144 13.107 6.554 15.36 6.554 36.454s-0.41 23.347-6.554 36.454c-19.046 40.141-62.669 60.826-105.062 49.357zM765.542 413.389c31.744-16.384 31.539-60.006-0.41-76.39-11.674-5.939-30.515-4.506-41.779 3.072-10.65 7.578-18.842 22.733-18.842 35.021 0 15.974 11.059 32.768 25.6 39.322 9.216 4.096 26.419 3.482 35.43-1.024zM200.704 242.381c-15.974-3.482-29.082-10.445-41.984-22.118-31.949-29.082-36.864-81.101-11.264-116.941 10.65-14.95 27.853-27.034 45.67-32.563 11.469-3.482 17.613-4.096 32.563-3.277 15.77 1.024 20.48 2.253 33.382 8.602 26.214 12.902 43.418 36.454 48.333 66.355 7.782 47.104-25.395 92.979-73.114 100.762-14.746 2.458-19.251 2.458-33.587-0.819zM236.544 194.253c37.478-16.998 32.154-69.222-7.987-80.282-27.443-7.578-57.958 23.142-50.586 50.79 7.168 26.419 34.816 40.346 58.573 29.491zM463.667 242.176c-16.794-3.686-28.058-9.626-41.165-21.914-20.685-19.661-28.058-38.912-26.829-68.813 0.614-16.179 1.843-22.118 6.349-31.949 15.155-32.768 45.67-52.429 81.306-52.429s66.15 19.661 81.306 52.429c4.506 9.83 5.734 15.77 6.349 31.949 1.229 29.901-6.144 49.152-26.829 68.813-13.312 12.493-24.371 18.227-42.189 22.118-16.384 3.482-21.914 3.277-38.298-0.205zM500.941 194.253c10.24-4.71 20.685-16.998 23.552-27.853 9.626-35.635-30.31-66.15-62.464-47.309-10.65 6.144-19.456 19.456-21.094 31.539-3.277 23.962 17.613 47.514 42.394 47.514 5.12 0 12.902-1.843 17.613-3.891zM730.522 243.2c-15.565-2.662-34.406-12.698-46.49-24.576-42.803-43.008-30.72-115.712 23.552-142.541 29.082-14.336 65.331-11.469 91.75 7.373 14.95 10.65 27.034 27.853 32.563 45.67 3.482 11.469 4.096 17.613 3.277 32.563-1.024 15.77-2.253 20.48-8.602 33.382-12.493 25.19-35.635 42.803-63.488 47.923-13.517 2.458-18.227 2.458-32.563 0.205zM765.542 193.843c10.24-5.12 19.866-17.203 23.142-29.082 7.373-27.648-23.142-58.368-50.586-50.79-18.842 5.12-31.334 19.251-33.178 36.864-3.072 33.178 30.925 57.344 60.621 43.008z" />
<glyph unicode="&#xe919;" glyph-name="event-program-icon" d="M594.688 413.44c-5.888 0-11.776 2.304-16.128 6.912l-71.168 76.544c-8.192 8.96-7.68 22.784 1.024 30.976 8.96 8.192 22.784 7.68 30.976-1.024l60.672-65.28 86.016 37.632c11.008 4.864 24.064-0.256 28.928-11.264s-0.256-24.064-11.264-28.928l-100.352-43.776c-2.816-1.28-5.632-1.792-8.704-1.792zM611.072 99.84c-1.792 0-3.328 0.256-5.12 0.512-11.776 2.816-18.944 14.592-16.128 26.368l43.776 183.296c0.512 1.792 1.024 3.584 2.048 5.12l37.632 70.912v169.728c0 12.032 9.728 22.016 22.016 22.016 12.032 0 22.016-9.728 22.016-22.016v-175.104c0-3.584-0.768-7.168-2.56-10.24l-38.912-73.216-43.52-180.48c-2.304-10.24-11.264-16.896-21.248-16.896zM782.592 99.84c-9.984 0-18.944 6.656-21.248 16.896l-43.008 180.224-42.24 72.96c-6.144 10.496-2.56 23.808 7.936 29.952s23.808 2.56 29.952-7.936l43.776-75.776c1.024-1.792 1.792-3.84 2.304-5.888l43.776-183.296c2.816-11.776-4.352-23.552-16.128-26.368-1.792-0.512-3.328-0.768-5.12-0.768zM695.552 534.016c-55.040 0-99.84 44.8-99.84 99.84s44.8 99.84 99.84 99.84 99.84-44.8 99.84-99.84-44.8-99.84-99.84-99.84zM695.552 689.92c-30.976 0-56.064-25.088-56.064-56.064s25.088-56.064 56.064-56.064 56.064 25.088 56.064 56.064-25.088 56.064-56.064 56.064zM819.2 289.536c-8.448 0-16.384 4.864-19.968 12.8l-41.984 92.416-76.8 68.096c-8.96 7.936-9.984 21.76-1.792 30.976 7.936 8.96 21.76 9.984 30.976 1.792l80.384-71.168c2.304-2.048 4.096-4.608 5.376-7.424l43.776-96.768c4.864-11.008 0-24.064-11.008-28.928-2.816-1.28-5.888-1.792-8.96-1.792zM451.072 653.568h-247.808c-12.032 0-22.016 9.728-22.016 22.016v85.76c0 12.032 9.728 22.016 22.016 22.016h248.064c12.032 0 22.016-9.728 22.016-22.016v-86.016c-0.256-12.032-9.984-21.76-22.272-21.76zM225.024 697.344h204.032v42.24h-204.032v-42.24zM451.072 487.424h-247.808c-12.032 0-22.016 9.728-22.016 22.016v86.016c0 12.032 9.728 22.016 22.016 22.016h248.064c12.032 0 22.016-9.728 22.016-22.016v-86.016c-0.256-12.288-9.984-22.016-22.272-22.016zM225.024 531.2h204.032v42.24h-204.032v-42.24zM451.072 321.024h-247.808c-12.032 0-22.016 9.728-22.016 22.016v86.016c0 12.032 9.728 22.016 22.016 22.016h248.064c12.032 0 22.016-9.728 22.016-22.016v-86.016c-0.256-12.288-9.984-22.016-22.272-22.016zM225.024 364.8h204.032v42.24h-204.032v-42.24z" />
<glyph unicode="&#xe91a;" glyph-name="flag-icon-o" horiz-adv-x="845" d="M688.412 955.945c-6.59-3.042-18.587-14.025-53.228-48.834-35.147-35.316-47.651-46.807-58.973-54.073-26.698-17.067-46.976-25.516-76.547-31.768-22.136-4.731-59.818-5.069-78.912-0.845-52.045 11.828-51.538 11.828-86.178 11.828-27.712 0-35.654-0.676-50.355-3.717-36.33-7.942-69.112-21.46-96.317-39.71l-14.025-9.294-4.055 8.111c-5.745 11.49-18.418 23.319-31.261 29.402-14.87 6.928-33.457 8.111-50.186 3.042-17.743-5.407-40.723-20.615-60.663-40.048-20.615-20.108-27.712-32.444-27.712-48.158 0-7.097 25.684-101.724 106.286-391.857 116.763-419.57 107.469-389.83 123.691-398.954 6.759-3.886 9.125-4.224 26.867-4.055 16.898 0 22.474 0.845 43.089 6.421 13.011 3.38 28.050 8.618 33.288 11.49 20.108 10.646 33.119 31.599 34.64 55.086 0.676 12.673-0.338 17.405-39.034 166.78l-39.71 153.769 6.252 5.576c11.49 10.308 39.203 27.712 54.073 34.133 32.275 13.856 51.369 17.743 88.206 17.574 27.374 0 31.261-0.338 51.538-5.407 30.416-7.435 43.427-8.956 72.66-8.956 45.117 0 78.574 8.28 119.298 29.064 30.247 15.546 44.779 27.712 100.71 83.306 46.469 46.3 51.538 51.876 56.438 62.352 4.393 9.463 5.407 14.363 6.083 26.191 0.676 14.701 0.676 14.87-43.089 184.861-32.95 127.578-44.948 172.187-48.496 177.933-4.731 8.111-15.715 17.067-25.009 20.615-3.042 1.014-11.152 2.028-18.081 2.028-9.97 0.169-14.532-0.676-21.291-3.886zM754.989 746.075c32.106-124.536 42.413-166.949 41.737-171.343-0.845-5.069-8.787-13.687-52.045-56.776-53.228-53.059-62.69-60.832-90.572-74.857-44.441-22.474-96.317-27.881-146.672-15.715-31.768 7.773-47.145 9.294-81.109 8.28-23.657-0.676-33.795-1.859-47.82-5.069-49.341-11.659-88.882-33.119-124.029-67.253l-18.587-17.912 42.582-166.104 42.751-165.935-3.549-7.266c-4.055-8.449-7.942-10.308-32.613-16.729-24.84-6.421-29.402-6.928-30.585-3.211-12.673 43.089-205.476 741.471-205.476 744.005 0 9.632 43.765 43.258 58.635 44.948 8.111 1.014 16.391-3.717 19.939-11.49 1.352-3.042 6.421-21.122 11.152-40.217s8.956-34.978 9.463-35.485c0.338-0.507 10.815 9.632 22.981 22.136 31.937 33.119 57.959 50.862 92.092 63.028 33.964 12.166 78.912 15.377 111.863 8.111 8.787-1.859 21.46-4.731 27.881-6.083 66.070-14.532 138.73-1.69 195.168 34.64 21.967 14.025 33.626 24.333 73.336 65.056 20.277 20.953 37.851 37.682 38.865 37.344s21.122-75.026 44.61-166.104z" />
<glyph unicode="&#xe91b;" glyph-name="flag-icon" horiz-adv-x="804" d="M694.965 959.395c-9.677 2.419-19.96 0.605-27.823-5.444l-77.42-79.839c-64.113-58.065-153.63-79.839-237.099-57.46-90.727 24.194-186.897-3.024-251.615-70.767l-8.468 33.871c-6.653 24.799-32.662 39.92-58.065 33.266-24.799-6.653-39.315-32.057-33.266-56.855l203.227-786.297c6.653-24.799 31.452-39.92 56.855-33.266 0 0 0 0 0.605 0 24.799 6.653 40.525 32.057 33.871 56.855l-85.888 332.059c64.718 67.138 160.888 94.356 251.615 70.767 83.468-22.984 172.985-1.21 236.494 57.46l88.912 88.912c14.516 12.097 21.17 32.057 16.331 50.202l-88.912 346.575c-3.024 9.677-10.282 16.936-19.355 19.96z" />
<glyph unicode="&#xe91c;" glyph-name="fullscreen-icon" d="M382.509 490.462l-130.544-130.544-148.090 496.208 496.91-148.090-130.544-130.544 156.513-156.513 130.544 130.544 148.090-496.91-496.91 148.090 130.544 130.544-156.513 157.215z" />
<glyph unicode="&#xe91d;" glyph-name="gallery-icon" horiz-adv-x="1230" d="M156.214 948.315c-16.913-17.22-23.986-30.751-23.986-47.356v-14.76l485.247-0.923c266.609-0.615 489.552-2.153 495.395-3.69 14.145-3.383 34.748-24.601 39.668-40.591 2.768-10.148 3.69-98.095 3.69-392.995v-379.772h13.838c16.605 0 32.903 8.303 48.586 24.908l11.378 12.608v822.89l-31.981 31.366-1030.458-0.615-11.378-11.070zM33.826 821.314c-5.843-3.383-15.99-11.685-22.141-18.45l-11.685-12.608v-822.89l31.366-31.366h1028.92l11.378 10.148c6.15 5.228 14.76 15.375 18.758 22.448l7.38 12.608v797.059l-6.458 11.685c-3.383 6.458-10.763 15.375-15.99 20.295-21.526 18.758 18.758 17.528-529.22 17.22-494.165 0-501.852-0.308-512.308-6.15z" />
<glyph unicode="&#xe91e;" glyph-name="gallery-o-icon" horiz-adv-x="1243" d="M34.011 950.491c-8.777-5.12-19.749-16.091-24.869-24.869l-9.143-15.726v-740.937l9.143-15.726c5.486-9.509 15.726-19.749 25.234-25.234 14.994-8.777 17.554-9.143 81.92-9.143h66.56v-66.56c0-64.366 0.366-66.926 9.143-81.92 5.486-9.509 15.726-19.749 25.234-25.234l15.726-9.143h960.366l15.726 9.143c9.509 5.486 19.749 15.726 25.234 25.234l9.143 15.726v740.937l-9.143 15.726c-5.486 9.509-15.726 19.749-25.234 25.234-14.994 8.777-17.554 9.143-81.92 9.143h-66.56v66.56c0 64.366-0.366 66.926-9.143 81.92-5.486 9.509-15.726 19.749-25.234 25.234l-15.726 9.143h-961.097l-15.36-9.509zM959.269 882.834c28.16-7.68 26.331 15.726 26.331-343.406s1.829-335.726-26.331-343.406c-19.383-5.486-838.583-5.486-857.966 0-28.16 7.68-26.331-15.726-26.331 343.406 0 299.154 0.366 321.097 6.583 330.24 3.291 5.12 11.703 11.337 18.286 13.166 16.823 4.754 841.509 5.12 859.429 0zM1153.097 695.954c5.851-4.023 10.971-12.069 13.531-20.846 2.56-9.874 3.657-115.2 2.926-326.583-1.097-349.989 0.731-327.68-27.429-335.36-19.383-5.486-838.583-5.486-857.966 0-21.577 5.851-25.966 16.457-27.794 64.366l-1.097 41.326h755.2l15.726 9.143c9.509 5.486 19.749 15.726 25.234 25.234l9.143 15.726v535.771l41.326-1.097c31.451-1.097 43.52-2.926 51.2-7.68z" />
<glyph unicode="&#xe91f;" glyph-name="get-direction-icon" horiz-adv-x="1030" d="M469.44 840.192c-22.144-6.912-38.912-21.632-178.624-160.96-89.088-88.576-158.464-161.408-164.864-172.736-14.272-27.584-14.272-71.872 0-100.864 14.784-29.504 299.712-313.984 330.24-329.28 29.504-14.784 75.776-14.784 105.344 0 30.528 15.232 315.456 299.712 330.24 329.28 14.272 29.056 14.272 73.344 0 100.864-6.4 11.328-75.328 84.16-164.864 172.736-145.216 144.704-155.52 154.048-180.608 161.408-32.576 9.408-44.864 9.408-76.864-0.448zM624.448 589.184l78.72-52.16v-52.224l-79.232-51.648c-43.328-28.544-79.744-52.16-81.216-52.16-0.96 0-1.984 23.104-1.984 51.648v51.648h-118.144v-167.232h-54.144v221.44h172.352v51.648c0 28.544 0.96 51.648 2.432 51.648 1.472 0.064 37.888-23.552 81.216-52.608z" />
<glyph unicode="&#xe920;" glyph-name="half-star-icon" horiz-adv-x="1049" d="M516.129 950.916c-2.477-6.606-31.381-91.665-65.239-189.11l-61.11-177.548-151.123-4.955c-83.406-3.303-171.768-5.781-194.89-6.606-23.948 0-43.768-3.303-43.768-6.606 0.826-4.129 59.458-52.026 130.477-107.355 71.019-56.155 140.387-109.832 152.774-119.742l23.123-18.994-54.503-187.458c-29.729-102.4-53.677-189.11-53.677-192.413 0-10.735 21.471 2.477 137.084 84.232 62.761 44.594 131.303 93.316 151.948 107.355l37.987 25.6 156.077-110.658c148.645-104.052 169.29-117.265 169.29-105.703 0 2.477-23.948 89.187-53.677 191.587l-54.503 187.458 23.123 18.994c12.387 9.91 81.755 63.587 152.774 119.742 71.019 55.329 129.652 103.226 130.477 107.355 0 3.303-19.819 6.606-42.942 6.606-23.948 0.826-112.31 3.303-195.716 6.606l-151.123 4.955-63.587 183.329c-34.684 100.748-65.239 185.806-68.542 189.11s-8.258 0.826-10.735-5.781zM586.323 533.884c18.994-30.555 43.768-38.813 132.129-43.768l86.71-4.955-63.587-49.548c-38.813-28.903-69.368-60.284-77.626-77.626-14.865-30.555-13.213-43.768 20.645-159.381l15.69-54.503-66.89 47.897c-37.161 26.426-75.148 49.548-84.232 51.2-15.69 2.477-16.516 9.91-18.168 221.316l-1.652 218.839 23.123-66.065c13.213-37.161 28.077-74.323 33.858-83.406z" />
<glyph unicode="&#xe921;" glyph-name="heart-fill-icon" d="M229.35 814.643c-17.715-5.581-54.093-31.667-80.179-57.779-57.805-57.805-72.704-104.422-67.123-207.898 8.371-138.88 85.76-239.565 303.872-391.526l123.034-85.76 123.034 85.76c148.198 102.554 224.666 177.101 267.546 259.123 27.955 52.198 33.562 71.782 36.352 140.749 3.738 67.123 0.922 86.707-16.794 127.718-25.165 57.805-85.76 114.662-137.958 130.509-85.76 26.086-195.763 5.606-250.752-46.618l-21.427-19.558-20.531 19.584c-55.885 52.224-173.338 72.704-259.072 45.696z" />
<glyph unicode="&#xe922;" glyph-name="heart-icon" horiz-adv-x="1202" d="M362.51 827.697c-77.112-13.461-143.408-62.57-178.863-132.423-18.437-35.984-25.888-68.411-25.888-110.957 0-56.2 12.932-109.9 39.181-161.845 31.201-62.209 100.14-143.769 170.883-202.42 61.344-50.863 134.899-100.693 196.94-133.288 21.273-11.346 21.466-11.346 36.177-11.346h14.711l22.331 11.706c61.512 32.427 133.841 81.367 196.219 132.759 11.514 9.567 36.681 32.98 55.839 52.113 84.372 84.732 129.923 160.066 148.023 244.967 6.202 29.783 7.98 86.151 3.534 110.621-18.966 101.39-96.968 179.921-198.166 199.584-24.807 4.783-67.185 4.615-92.713-0.168-33.677-6.562-64.349-19.494-93.242-39.349-16.85-11.346-42.018-34.037-50.335-45.383l-5.312-7.091-16.49 17.547c-21.802 23.052-42.186 38.1-70.382 52.113-23.941 11.875-44.494 18.605-69.829 23.052-18.605 3.365-63.459 3.197-82.617-0.192zM433.061 784.285c43.772-6.37 84.901-27.114 115.404-57.955 16.129-16.297 28.004-32.98 41.825-58.507 5.312-9.928 10.096-18.076 10.625-18.076s6.033 9.399 12.403 20.744c14.879 26.778 28.004 44.325 45.022 60.454 40.768 38.46 90.237 56.897 147.302 54.782 31.201-1.058 52.113-6.202 79.588-19.494 54.782-26.417 93.41-73.555 109.371-133.649 4.783-17.716 6.37-57.257 3.365-81.535-5.144-41.128-22.163-91.295-42.907-126.389-12.043-20.384-35.816-53.171-57.257-79.228-59.205-71.44-161.316-151.917-269.076-212.348-13.125-7.259-25.696-13.293-27.643-13.293-9.567 0-94.131 51.416-142.879 86.679-83.675 60.454-144.466 120.356-192.853 189.488-43.604 62.402-65.238 129.923-62.738 196.219 1.418 39.181 12.235 72.497 34.205 105.813 23.052 34.566 61.873 63.82 103.337 77.641 29.446 9.879 63.675 13.076 92.905 8.654z" />
<glyph unicode="&#xe923;" glyph-name="home-icon" horiz-adv-x="943" d="M66.947 954.72c-28.099-9.806-51.483-28.853-61.478-50.351l-5.469-11.315v-282.119c0-274.198 0.189-282.307 3.583-292.679 6.412-18.481 20.555-35.453 37.905-45.26 19.613-11.315-3.394-10.749 427.138-10.749 434.116 0 404.131-0.754 427.327 11.503 20.744 11.126 36.396 30.173 43.374 52.614 3.583 12.069 3.583 18.104 3.206 293.434l-0.566 280.987-7.166 14.332c-8.298 16.784-21.876 30.362-38.659 38.659l-10.749 5.28-803.359 0.943-15.087-5.28zM859.934 612.066v-264.958h-776.958v529.915h776.958v-264.958zM31.493 179.271c-8.486-6.789-11.692-18.858-11.692-44.694 0-20.178 0.377-23.573 3.96-28.099 2.074-3.017 6.412-6.035 9.618-6.789 3.394-0.943 203.103-1.32 444.11-1.131l438.076 0.566 7.543 3.96c4.149 2.074 10.372 7.543 13.766 11.881 5.092 6.789 6.035 9.618 6.035 17.727-0.189 17.727-12.824 36.773-30.55 45.825l-8.863 4.526h-433.55c-431.476 0-433.55 0-438.453-3.772zM24.327 15.393c-4.337-3.394-4.526-4.715-4.337-26.024 0-25.459 3.017-39.791 9.618-47.9l4.715-5.469h547.076l5.846 6.223c8.298 8.863 14.521 27.344 15.652 46.768 1.32 19.235-1.32 25.081-12.446 28.099-4.337 1.131-102.777 1.886-284.193 1.886-270.804 0-277.593 0-281.93-3.583z" />
<glyph unicode="&#xe924;" glyph-name="light-icon" horiz-adv-x="712" d="M447.139 91.81h-172.841c-15.219 26.814-15.219 59.425 0 86.239h172.478c15.219-26.814 15.219-59.425 0.362-86.239zM634.112 559.966c0-148.563-136.968-165.956-153.636-327.926 0-15.581-18.48-10.508-33.336-10.508h-172.841c-14.856 0-33.336-5.073-33.336 10.508v0c-16.668 161.97-154.361 179.363-154.361 327.926-0.362 151.1 121.749 273.936 272.849 274.661 151.1 0.362 273.936-121.749 274.661-272.849 0-0.725 0-1.087 0-1.812zM404.020 48.691h-86.964c-14.856 0-57.976 42.757-42.757 42.757h172.478c15.219 0.362-27.539-42.757-42.757-42.757v0z" />
<glyph unicode="&#xe925;" glyph-name="long-arrow-left" d="M1024 502.857v-109.714q0-8-5.143-13.143t-13.143-5.143h-713.143v-128q0-12-10.857-16.571t-20 2.857l-219.429 200q-5.714 5.714-5.714 13.143 0 8 5.714 13.714l219.429 202.286q9.143 8 20 3.429 10.857-5.143 10.857-16.571v-128h713.143q8 0 13.143-5.143t5.143-13.143z" />
<glyph unicode="&#xe926;" glyph-name="long-arrow-right" d="M987.429 449.714q0-8-5.714-13.714l-219.429-202.286q-9.143-8-20-3.429-10.857 5.143-10.857 16.571v128h-713.143q-8 0-13.143 5.143t-5.143 13.143v109.714q0 8 5.143 13.143t13.143 5.143h713.143v128q0 12 10.857 16.571t20-2.857l219.429-200q5.714-5.714 5.714-13.143z" />
<glyph unicode="&#xe927;" glyph-name="map-marker-icon" horiz-adv-x="1448" d="M722.975-56.087c-76.546 0-333.535 358.305-336.116 362.090-48.336 68.978-73.794 150.168-73.794 234.799 0 226.027 183.883 410.082 409.91 410.082s410.082-183.883 410.082-410.082c0-88.415-27.694-172.53-79.987-243.4-10.665-14.449-261.805-353.489-330.095-353.489zM709.042 25.447v0 0zM722.975 866.252c-179.411 0-325.451-146.040-325.451-325.451 0-67.086 20.298-131.591 58.657-186.291 70.526-100.8 213.814-274.018 265.762-318.742 51.432 46.272 193.516 217.942 263.010 312.034 41.627 56.249 63.473 122.99 63.473 193.172 0 179.239-145.868 325.279-325.451 325.279zM722.975 337.653c-111.981 0-203.149 91.167-203.149 203.149s91.167 202.977 203.149 202.977 203.149-91.167 203.149-202.977-91.167-203.149-203.149-203.149zM722.975 659.147c-65.365 0-118.518-53.152-118.518-118.518s53.152-118.518 118.518-118.518 118.518 53.152 118.518 118.518c0 65.365-53.152 118.518-118.518 118.518z" />
<glyph unicode="&#xe928;" glyph-name="national-holiday-icon" d="M632.32 378.368h-225.621l-92.16 92.16c-8.363 8.363-8.363 21.845 0 30.208s21.845 8.363 30.208 0l79.701-79.701h190.123l81.067 81.067c8.363 8.363 21.845 8.363 30.208 0s8.363-21.845 0-30.208l-93.525-93.525zM415.744 0c-1.536 0-3.072 0.171-4.437 0.512-11.605 2.56-18.944 13.824-16.384 25.429l37.717 176.299 121.856 41.472-50.347 149.333c-3.755 11.264 2.219 23.381 13.483 27.136s23.381-2.219 27.136-13.483l64-189.781-139.264-47.445-32.768-152.576c-2.219-10.069-11.093-16.896-20.992-16.896zM596.821-48.64c-11.435 0-20.821 9.045-21.333 20.48l-10.069 240.128c-0.512 11.776 8.704 21.845 20.48 22.357 11.605 0.512 21.845-8.704 22.357-20.48l10.069-240.128c0.512-11.776-8.704-21.845-20.48-22.357-0.341 0-0.683 0-1.024 0zM511.829 449.877c-53.931 0-97.621 43.861-97.621 97.621s43.861 97.621 97.621 97.621c53.76 0 97.621-43.861 97.621-97.621 0-53.931-43.861-97.621-97.621-97.621zM511.829 602.283c-30.208 0-54.784-24.576-54.784-54.784s24.576-54.784 54.784-54.784c30.208 0 54.784 24.576 54.784 54.784s-24.576 54.784-54.784 54.784zM331.093 700.416c-5.461 0-10.923 2.048-15.189 6.315-8.363 8.363-8.363 21.845 0 30.208l20.992 20.992c8.363 8.363 21.845 8.363 30.208 0s8.363-21.845 0-30.208l-20.992-20.992c-4.096-4.267-9.557-6.315-15.019-6.315zM244.565 613.717c-5.461 0-10.923 2.048-15.189 6.315-8.363 8.363-8.363 21.845 0 30.208l20.992 20.992c8.363 8.363 21.845 8.363 30.208 0s8.363-21.845 0-30.208l-20.992-20.992c-4.096-4.267-9.557-6.315-15.019-6.315zM352.085 613.717c-5.461 0-10.923 2.048-15.189 6.315l-20.992 20.992c-8.363 8.363-8.363 21.845 0 30.208s21.845 8.363 30.208 0l20.992-20.992c8.363-8.363 8.363-21.845 0-30.208-3.925-4.267-9.387-6.315-15.019-6.315zM265.557 700.416c-5.461 0-10.923 2.048-15.189 6.315l-20.992 20.992c-8.363 8.363-8.363 21.845 0 30.208s21.845 8.363 30.208 0l20.992-20.992c8.363-8.363 8.363-21.845 0-30.208-4.096-4.267-9.557-6.315-15.019-6.315zM757.931 710.656c-5.461 0-10.923 2.048-15.189 6.315-8.363 8.363-8.363 21.845 0 30.208l20.992 20.992c8.363 8.363 21.845 8.363 30.208 0s8.363-21.845 0-30.208l-20.821-20.992c-4.267-4.267-9.728-6.315-15.189-6.315zM671.232 624.128c-5.461 0-10.923 2.048-15.189 6.315-8.363 8.363-8.363 21.845 0 30.208l20.992 20.992c8.363 8.363 21.845 8.363 30.208 0s8.363-21.845 0-30.208l-20.992-20.992c-3.925-4.267-9.387-6.315-15.019-6.315zM778.923 624.128c-5.461 0-10.923 2.048-15.189 6.315l-20.992 20.992c-8.363 8.363-8.363 21.845 0 30.208s21.845 8.363 30.208 0l20.992-20.992c8.363-8.363 8.363-21.845 0-30.208-4.096-4.267-9.557-6.315-15.019-6.315zM692.395 710.656c-5.461 0-10.923 2.048-15.189 6.315l-20.992 20.992c-8.363 8.363-8.363 21.845 0 30.208s21.845 8.363 30.208 0l20.992-20.992c8.363-8.363 8.363-21.845 0-30.208-4.096-4.267-9.557-6.315-15.019-6.315zM581.12 825.685h-29.696c-11.776 0-21.333 9.557-21.333 21.333s9.557 21.333 21.333 21.333h29.696c11.776 0 21.333-9.557 21.333-21.333s-9.557-21.333-21.333-21.333zM458.581 825.685h-29.696c-11.776 0-21.333 9.557-21.333 21.333s9.557 21.333 21.333 21.333h29.696c11.776 0 21.333-9.557 21.333-21.333s-9.557-21.333-21.333-21.333zM505.003 749.568c-11.776 0-21.333 9.557-21.333 21.333v29.867c0 11.776 9.557 21.333 21.333 21.333s21.333-9.557 21.333-21.333v-29.696c0-11.947-9.557-21.504-21.333-21.504zM505.003 872.107c-11.776 0-21.333 9.557-21.333 21.333v29.867c0 11.776 9.557 21.333 21.333 21.333s21.333-9.557 21.333-21.333v-29.867c0-11.776-9.557-21.333-21.333-21.333z" />
<glyph unicode="&#xe929;" glyph-name="ok-icon" d="M405.281 180.215l-322.653 341.96 90.28 92.253 230.661-241.124 424.085 452.217 93.854-90.559z" />
<glyph unicode="&#xe92a;" glyph-name="open-video-in-window" horiz-adv-x="1144" d="M542.118 899.765v-60.235h388.518l-557.176-557.176 46.381-46.984 46.984-46.381 557.176 557.176v-388.518h120.471v602.353h-602.353v-60.235zM97.581 820.856c-42.165-20.48-63.247-42.767-83.727-87.341l-14.456-31.322 1.807-321.054c1.807-362.616-0.602-343.944 49.995-393.939 51.2-51.2 22.287-48.188 460.8-48.188s409.6-3.012 460.8 48.188c42.165 42.165 48.188 60.235 49.995 161.431l1.807 88.546h-119.868l-1.807-68.066c-3.012-78.908-10.24-96.376-45.779-106.014-14.456-4.216-141.553-6.626-351.172-6.626-300.574 0-330.089 1.205-349.365 10.842-36.141 17.468-36.744 24.094-34.936 331.896 1.807 256 2.409 275.878 13.252 290.936 16.264 24.696 42.165 28.913 171.068 28.913h115.652v120.471h-287.322l-36.744-18.673z" />
<glyph unicode="&#xe92b;" glyph-name="photos-icon" d="M76.701 955.651c-23.327-6.721-49.816-28.071-62.468-51.002l-12.256-21.745v-869.807l12.256-21.745c13.047-23.722 39.141-44.281 64.049-51.398 20.164-5.535 847.271-5.535 867.435 0 24.908 7.117 51.002 27.676 64.049 51.398l12.256 21.745v869.807l-12.256 21.745c-13.047 23.722-39.141 44.281-64.049 51.398-18.582 5.14-851.225 4.744-869.016-0.395zM951.648 887.648l15.024-14.629 1.186-256.198 0.791-255.802-103.586 103.981c-96.469 95.679-105.168 103.586-117.819 103.586-13.047 0-23.722-9.884-164.868-151.030l-151.425-151.425-81.841 81.841c-81.050 80.259-92.911 90.144-106.354 90.144-3.954 0-47.839-40.327-97.26-89.748l-90.144-90.144 0.791 307.2 1.186 307.2 11.861 12.256c6.721 7.117 15.419 14.233 19.768 15.815 4.349 1.977 196.893 3.163 427.787 2.768l420.275-0.791 14.629-15.024zM859.132 391.463l109.912-109.912-2.372-258.57-15.024-14.629-14.629-15.024h-850.039l-14.629 15.024-15.024 14.629-1.186 78.283-1.186 77.887 95.283 94.888 94.888 94.888 81.841-81.841c45.467-44.676 86.19-83.422 90.934-85.795 5.14-2.372 13.047-3.558 18.187-2.372 5.14 1.581 76.701 69.98 159.333 152.612 82.236 82.236 150.635 149.844 151.821 149.844s51.398-49.421 111.889-109.912zM280.71 806.202c-35.583-11.466-68.794-41.118-84.213-74.724-11.861-25.699-11.861-77.887 0-104.377 11.070-24.513 37.955-52.979 62.468-65.631 17.396-9.489 24.117-10.675 59.305-10.675s41.514 1.186 59.7 10.675c26.49 13.838 54.561 45.467 63.654 71.561 9.884 28.862 9.093 73.934-1.977 98.446-11.070 24.908-37.56 52.979-62.073 65.631-15.815 7.907-26.49 10.28-53.375 11.070-18.582 0.791-37.955 0-43.49-1.977zM362.551 740.176c41.909-33.606 42.304-87.376 0.395-121.378-25.699-20.559-67.608-19.768-92.911 2.372-35.188 30.839-37.56 77.492-5.931 111.098 16.21 17.001 31.234 22.536 58.91 20.954 20.559-0.791 27.28-3.163 39.537-13.047z" />
<glyph unicode="&#xe92c;" glyph-name="plane-icon" d="M958.464 447.59c-1.638 52.019-45.056 93.184-97.075 91.75l-190.054-6.144-203.776 377.856h-98.509c-10.65 0-19.456-8.602-19.456-19.456 0 0 0 0 0 0l105.882-365.568-193.536-7.578c-15.77 0-31.334-2.458-46.285-7.578l-73.114 123.904h-61.44c-8.192 0-14.746-6.554-14.746-14.746l53.248-163.226v-19.661l-53.658-163.021c0-8.192 6.554-14.746 14.746-14.746v0h61.235l74.547 125.952c14.541-4.915 29.696-7.373 45.056-7.373l194.355-7.987-107.52-367.821c0-10.854 8.806-19.456 19.456-19.456h98.509l206.029 379.904 188.621-6.554c52.429-1.434 95.846 39.526 97.485 91.546z" />
<glyph unicode="&#xe92d;" glyph-name="popularity-icon" horiz-adv-x="812" d="M347.418 873.031c-71.362-18.503-127.753-75.176-148.621-148.303-8.51-30.261-9.11-84.286-1.483-113.064 16.137-60.204 58.439-113.064 111.898-139.229 32.026-15.572 54.025-20.551 92.796-20.551s60.804 4.979 92.796 20.551c53.46 26.13 95.762 78.989 111.898 139.229 7.627 28.778 7.062 82.838-1.483 113.064-21.151 74.010-77.824 130.119-149.786 148.621-29.308 7.309-78.919 7.309-108.014-0.318zM438.766 810.178c24.682-6.462 46.115-19.385 66.383-39.654 79.59-79.872 46.716-212.356-61.97-248.761-10.558-3.531-24.682-5.297-41.101-5.297-81.073 0-146.856 66.948-146.856 149.504 0 65.218 43.75 123.939 107.202 143.925 15.854 4.979 58.121 5.261 76.341 0.282zM363.873 401.355c-4.096-0.6-15.289-2.648-24.964-4.414-65.218-11.158-135.698-49.929-182.095-100.458-56.991-61.087-87.817-133.332-91.63-213.522l-1.766-36.723 8.227-9.675 7.945-9.393h644.979l7.945 9.393 8.227 9.675-1.766 36.723c-7.062 151.552-116.595 279.905-267.864 313.097-19.703 4.414-91.948 7.945-107.238 5.297zM453.455 332.924c94.879-19.385 171.82-85.169 205.577-174.751 7.062-18.785 16.137-55.508 16.137-65.218 0-3.531-37.888-4.096-273.126-4.096s-273.126 0.6-273.126 4.096c0 9.675 9.11 46.398 16.137 65.218 47.316 125.705 180.648 201.163 308.401 174.751z" />
<glyph unicode="&#xe92e;" glyph-name="public-event-icon" d="M592.896 365.056c-4.352 0-8.704 1.28-12.544 4.096l-84.48 60.928c-9.728 6.912-11.776 20.48-4.864 29.952 6.912 9.728 20.224 11.776 29.952 4.864l72.192-51.968 71.68 48.896c9.728 6.656 23.296 4.096 29.952-5.632s4.096-23.296-5.632-29.952l-84.224-57.344c-3.584-2.56-7.936-3.84-12.032-3.84zM594.432 71.68c-1.536 0-3.328 0.256-5.12 0.512-11.52 2.816-18.688 14.336-15.872 25.856l43.008 179.968c0.512 1.792 1.024 3.584 1.792 5.12l36.864 69.632v166.4c0 11.776 9.728 21.504 21.504 21.504s21.504-9.728 21.504-21.504v-171.776c0-3.584-0.768-6.912-2.56-9.984l-38.144-71.936-42.496-177.152c-1.792-9.984-10.752-16.64-20.48-16.64zM762.88 71.68c-9.728 0-18.432 6.656-20.992 16.384l-42.24 176.896-41.472 71.424c-5.888 10.24-2.304 23.296 7.936 29.44 10.24 5.888 23.296 2.304 29.44-7.936l43.008-74.24c1.024-1.792 1.792-3.84 2.304-5.632l43.008-179.968c2.816-11.52-4.352-23.040-15.872-25.856-1.792-0.256-3.584-0.512-5.12-0.512zM677.376 497.664c-54.016 0-98.048 44.032-98.048 98.048s44.032 98.048 98.048 98.048 98.048-44.032 98.048-98.048c0-54.016-44.032-98.048-98.048-98.048zM677.376 650.752c-30.464 0-55.040-24.576-55.040-55.040s24.576-55.040 55.040-55.040c30.464 0 55.040 24.576 55.040 55.040 0 30.208-24.576 55.040-55.040 55.040zM813.056 272.128c-7.68 0-15.104 4.096-18.944 11.264l-40.704 76.288-89.344 67.072c-9.472 7.168-11.52 20.48-4.352 30.208 7.168 9.472 20.736 11.52 30.208 4.352l93.184-69.888c2.56-1.792 4.608-4.352 6.144-7.168l43.008-80.384c5.632-10.496 1.536-23.552-8.96-29.184-3.328-1.792-6.912-2.56-10.24-2.56zM529.664 496.384h-320.256c-11.776 0-21.504 9.728-21.504 21.504v269.312c0 11.776 9.728 21.504 21.504 21.504h320.256c11.776 0 21.504-9.728 21.504-21.504v-269.312c0-11.776-9.728-21.504-21.504-21.504zM230.912 539.392h277.248v226.304h-277.248v-226.304zM293.632 676.608h-5.632c-11.776 0-21.504 9.728-21.504 21.504s9.728 21.504 21.504 21.504h5.632c11.776 0 21.504-9.728 21.504-21.504-0.256-11.776-9.728-21.504-21.504-21.504zM376.576 676.608h-5.632c-11.776 0-21.504 9.728-21.504 21.504s9.728 21.504 21.504 21.504h5.632c11.776 0 21.504-9.728 21.504-21.504s-9.728-21.504-21.504-21.504zM459.52 676.608h-5.632c-11.776 0-21.504 9.728-21.504 21.504s9.728 21.504 21.504 21.504h5.632c11.776 0 21.504-9.728 21.504-21.504s-9.472-21.504-21.504-21.504zM293.632 619.264h-5.632c-11.776 0-21.504 9.728-21.504 21.504s9.728 21.504 21.504 21.504h5.632c11.776 0 21.504-9.728 21.504-21.504-0.256-12.032-9.728-21.504-21.504-21.504zM376.576 619.264h-5.632c-11.776 0-21.504 9.728-21.504 21.504s9.728 21.504 21.504 21.504h5.632c11.776 0 21.504-9.728 21.504-21.504 0-12.032-9.728-21.504-21.504-21.504zM459.52 619.264h-5.632c-11.776 0-21.504 9.728-21.504 21.504s9.728 21.504 21.504 21.504h5.632c11.776 0 21.504-9.728 21.504-21.504 0-12.032-9.472-21.504-21.504-21.504zM293.632 561.664h-5.632c-11.776 0-21.504 9.728-21.504 21.504s9.728 21.504 21.504 21.504h5.632c11.776 0 21.504-9.728 21.504-21.504-0.256-11.776-9.728-21.504-21.504-21.504zM376.576 561.664h-5.632c-11.776 0-21.504 9.728-21.504 21.504s9.728 21.504 21.504 21.504h5.632c11.776 0 21.504-9.728 21.504-21.504s-9.728-21.504-21.504-21.504zM459.52 561.664h-5.632c-11.776 0-21.504 9.728-21.504 21.504s9.728 21.504 21.504 21.504h5.632c11.776 0 21.504-9.728 21.504-21.504s-9.472-21.504-21.504-21.504zM290.816 743.936c-11.776 0-21.504 9.728-21.504 21.504v52.736c0 11.776 9.728 21.504 21.504 21.504s21.504-9.728 21.504-21.504v-52.736c-0.256-11.776-9.728-21.504-21.504-21.504zM448.256 743.936c-11.776 0-21.504 9.728-21.504 21.504v52.736c0 11.776 9.728 21.504 21.504 21.504s21.504-9.728 21.504-21.504v-52.736c0-11.776-9.728-21.504-21.504-21.504z" />
<glyph unicode="&#xe92f;" glyph-name="QA-icon" horiz-adv-x="1197" d="M13.063 951.993c-4.635-4.635-9.692-14.749-10.956-22.334s-1.686-181.623-1.264-386.002l1.264-372.517 23.598-20.227h256.632v-93.551c0-67.002 1.686-96.922 5.478-104.507 6.321-12.221 22.756-18.963 37.083-15.592 5.478 1.264 58.574 50.147 118.413 108.3l107.878 105.35h619.878l23.598 20.227 1.264 372.517c0.421 204.379 0 378.416-1.264 386.002s-6.321 17.699-10.956 22.334c-8.007 8.007-18.963 8.007-585.323 8.007s-577.317 0-585.323-8.007zM1129.35 555.457v-337.119h-603.865l-38.347-36.662c-21.070-20.227-60.681-58.574-87.651-85.544l-49.725-48.461v75.009c0 74.166 0 75.009-10.535 85.123l-10.114 10.535h-261.689v674.239h1061.926v-337.119zM200.586 702.525c-18.12-21.491-13.485-48.461 10.114-60.681 10.535-5.478 61.103-6.321 387.687-6.321s377.152 0.843 387.687 6.321c23.598 12.221 28.234 39.19 10.114 60.681l-10.956 13.063h-773.689l-10.956-13.063zM201.85 513.738c-8.849-9.271-12.221-16.435-12.221-27.812s3.371-18.542 12.221-27.812l12.221-12.221h768.632l12.221 12.221c8.849 9.271 12.221 16.435 12.221 27.812s-3.371 18.542-12.221 27.812l-12.221 12.221h-768.632l-12.221-12.221z" />
<glyph unicode="&#xe930;" glyph-name="review-icon" horiz-adv-x="1252" d="M605.677 953.553c-3.034-3.793-18.963-46.649-34.892-94.815l-28.824-88.367h-93.677c-100.883 0-109.606-1.517-116.053-19.342-7.206-20.48-1.896-26.169 79.265-84.575 51.959-37.167 77.748-58.027 76.231-61.44-10.619-27.307-55.372-171.804-55.372-178.252 0-16.308 14.033-26.169 34.513-24.652 3.413 0 40.581 25.031 82.679 55.372l76.231 54.613 76.231-54.613c42.098-30.341 79.265-55.372 82.679-55.372 20.48-1.517 34.513 8.344 34.513 24.652 0 6.447-44.753 150.945-55.372 178.252-1.517 3.413 24.273 24.273 76.231 61.44 81.161 58.406 86.471 64.095 79.265 84.575-6.447 17.825-15.17 19.342-116.053 19.342h-93.677l-28.824 88.367c-15.929 48.166-31.858 91.022-34.892 94.815-3.793 3.793-11.757 6.447-20.101 6.447s-16.308-2.655-20.101-6.447zM645.879 780.231c9.861-29.961 21.239-57.268 24.652-60.302 5.689-5.31 18.204-6.447 69.784-7.206l62.957-1.138-49.683-36.030c-48.545-35.271-50.062-36.788-51.2-51.2-0.759-10.24 4.551-31.858 16.308-65.991 9.102-28.065 16.687-51.579 15.929-51.959-0.379-0.379-21.997 14.412-47.787 32.996-26.169 18.584-51.2 34.892-55.751 36.030-10.619 2.655-21.239-3.034-71.68-39.443-22.756-16.687-42.098-29.961-42.477-29.582s7.585 25.79 17.446 56.889c13.274 40.201 17.825 58.785 15.929 65.991-1.896 7.585-16.687 20.48-52.338 46.27l-49.683 36.030 62.957 1.138c51.579 0.759 64.095 1.896 69.784 7.206 3.413 3.034 14.791 30.341 24.652 60.302s18.963 54.613 20.101 54.613c1.138 0 10.24-24.652 20.101-54.613zM285.203 494.27c-4.551-0.759-10.999-4.93-13.653-9.481-3.034-4.551-17.825-47.028-32.996-94.436l-27.686-86.471h-94.056c-99.366 0-111.502-1.896-115.295-17.446-6.068-24.273-3.793-26.927 78.507-86.471l78.127-56.13-29.582-89.884c-17.825-53.476-28.824-92.539-27.686-97.090 4.172-13.653 13.653-20.859 27.307-20.859 10.999 0 25.79 8.723 85.713 51.959 39.822 28.444 74.335 53.096 76.61 54.613 2.276 1.896 33.754-18.584 79.644-51.579 64.095-46.649 77.369-54.993 89.505-54.993 14.412 0 23.514 6.068 27.686 18.584 1.138 4.551-9.481 43.615-26.548 95.953-15.55 48.545-28.444 90.264-28.065 92.16 0 2.276 33.754 27.686 74.714 57.268s76.99 57.647 80.024 62.957c4.551 7.964 4.551 11.757 0.759 21.239-2.655 6.447-7.585 12.895-10.999 14.791-3.793 1.517-49.683 3.793-102.779 4.93l-96.332 1.896-29.582 88.367c-16.308 48.924-31.479 91.022-33.754 93.677-4.551 5.689-17.067 8.344-29.582 6.447zM337.541 253.061c2.655-2.655 28.065-4.93 69.025-6.068l65.233-1.896-47.028-34.133c-50.821-36.409-56.51-41.719-56.889-52.717 0-3.793 7.585-31.099 17.067-60.302s16.687-53.855 15.55-54.613c-0.759-0.759-23.135 14.033-49.683 32.996-26.927 18.963-51.959 34.133-56.889 34.133s-29.582-15.17-56.889-34.513c-26.169-18.963-48.545-33.754-49.683-32.996-0.759 1.138 6.068 24.652 15.55 52.338 9.481 28.065 17.067 55.751 17.067 61.44 0 13.274-3.793 17.067-58.406 56.13l-45.132 32.237 64.474 1.896c41.719 1.138 66.37 3.413 69.784 6.447 3.034 2.655 14.033 30.72 24.273 62.957l18.963 58.785 19.721-58.785c10.619-32.616 21.239-60.681 23.893-63.336zM949.286 494.27c-4.551-0.759-10.24-3.413-12.516-6.447-2.276-2.655-17.446-44.753-33.754-93.677l-29.582-88.367-96.332-1.896c-53.096-1.138-98.987-3.413-102.779-4.93-3.413-1.896-8.344-8.344-10.999-14.791-3.793-9.481-3.793-13.274 0.759-21.239 3.034-5.31 39.064-33.375 80.024-62.957s74.714-54.993 74.714-57.268c0.379-1.896-12.516-43.615-28.065-92.16-17.067-52.338-27.686-91.401-26.548-95.953 4.172-12.516 13.274-18.584 27.686-18.584 12.136 0 25.41 8.344 89.505 54.993 45.89 32.996 77.369 53.476 79.644 51.579 2.276-1.517 36.788-26.169 76.61-54.613 59.923-43.236 74.714-51.959 85.713-51.959 13.653 0 23.135 7.206 27.307 20.859 1.138 4.551-9.861 43.615-27.686 97.090l-29.582 89.884 78.127 56.13c82.299 59.544 84.575 62.199 78.507 86.471-3.793 15.55-15.929 17.446-115.295 17.446h-94.056l-27.686 86.471c-15.17 47.407-29.961 89.884-32.616 94.056-5.31 8.344-16.687 12.136-31.099 9.861zM999.727 254.578c4.551-4.551 19.721-6.068 70.542-7.585l64.853-1.896-45.132-32.237c-54.613-39.064-58.406-42.856-58.406-56.13 0-5.689 7.585-33.375 17.067-61.44 9.481-27.686 16.308-51.2 15.55-52.338-1.138-0.759-23.514 14.033-49.683 32.996-27.307 19.342-51.959 34.513-56.889 34.513s-29.961-15.17-56.889-34.133c-26.548-18.963-48.924-33.754-49.683-32.996-1.138 0.759 6.068 25.41 15.55 54.613s17.067 56.51 17.067 60.302c-0.379 10.999-6.068 16.308-56.889 52.717l-47.028 34.133 65.612 1.896c56.13 1.517 65.991 2.655 70.163 8.344 2.655 3.793 12.895 32.237 23.135 63.336l18.204 56.51 18.963-57.268c10.24-31.858 20.859-60.302 23.893-63.336z" />
<glyph unicode="&#xe931;" glyph-name="safety-big-icon" horiz-adv-x="901" d="M421.437 863.252c-15.032-8.684-59.064-21.34-88.064-25.027-34.693-4.342-63.406-0.328-97.731 13.353-20.357 7.987-25.682 9.011-34.038 6.349-6.349-2.335-31.703-26.337-65.372-61.727l-55.050-58.040v-16.015c0-8.684 2.99-30.679 6.349-49.029 16.998-87.081 21.668-184.156 11.346-231.178-7.004-32.358-7.004-81.756 0.328-111.78 28.672-119.767 130.785-217.17 294.257-281.231 48.374-19.005 63.037-19.333 105.759-2.662 159.457 62.382 255.549 148.48 294.257 263.209 12.329 36.372 15.032 85.729 6.676 127.099-10.322 51.692-6.349 144.466 9.994 232.858 2.662 14.336 4.997 36.045 4.997 48.374v22.364l-53.043 56.402c-64.717 69.059-66.724 69.714-99.738 55.378-47.022-20.685-97.731-20.029-159.13 2.007-38.093 13.64-68.772 17.285-81.797 9.298zM536.535 773.181c38.707-7.332 94.74-5.325 122.757 4.014l19.333 6.676 32.358-33.014c17.695-18.35 33.382-35.021 34.693-37.356 0.983-2.007-1.352-24.699-5.652-50.381-16.671-97.731-18.678-185.836-6.349-243.22 9.667-43.704-0.328-92.733-29.041-141.107-18.678-31.007-66.724-78.725-105.759-104.776-35.717-24.003-92.406-53.043-129.434-66.396l-20.357-7.332-29.696 11.674c-115.057 44.319-201.482 112.722-236.831 187.474-21.668 45.711-26.337 83.722-16.015 131.768 4.014 17.695 5.325 41.37 5.325 80.077 0 58.368-2.99 89.088-14.336 157.45l-7.332 42.353 34.038 36.372 34.038 36.7 20.685-6.676c32.686-10.322 86.057-11.674 128.451-2.99 18.678 4.014 45.056 11.346 57.713 16.671l23.675 9.339 28.672-11.018c16.015-5.98 42.721-13.312 59.064-16.302zM438.108 729.108c-14.008-4.997-19.702-16.671-41.697-86.057l-23.020-71.393-156.14-1.966-7.987-9.339c-4.342-4.997-9.011-13.025-9.994-17.695-4.342-16.998 4.342-26.706 65.044-71.721 32.358-24.003 59.064-45.056 59.72-46.694 0.655-1.352-8.684-34.038-20.685-72.049-12.001-38.38-22.036-72.049-22.036-75.080 0-10.322 7.987-23.020 16.998-28.017 19.333-9.994 25.682-7.004 90.071 40.018l60.703 44.687 18.678-13.681c10.322-7.332 35.348-26.010 55.706-41.042s40.018-29.041 44.032-31.007c17.367-9.339 39.035-0.328 47.022 19.333 3.686 8.684 2.007 16.998-18.022 80.732-12.329 39.363-23.020 72.376-23.675 73.728-0.655 0.983 25.354 22.036 57.713 46.367 32.686 24.371 60.375 45.711 62.054 47.718 10.322 15.032 6.021 40.018-8.684 48.701-9.667 6.021-17.367 6.676-84.746 6.676h-74.056l-23.675 73.4c-22.036 68.403-24.371 74.056-34.365 80.077-10.609 6.636-19.292 7.987-28.959 4.301zM482.468 509.932c7.66-5.652 16.015-7.332 43.049-8.684l33.71-1.679-27.034-19.333c-38.052-27.361-39.035-31.007-22.692-83.067 4.342-14.336 7.332-26.010 6.349-26.010s-11.674 7.332-24.003 16.343c-40.714 30.024-45.384 30.024-83.067 1.679-13.353-10.322-25.354-18.022-26.010-16.998-0.983 0.655 2.99 16.015 8.684 33.382 9.667 30.024 9.994 32.686 5.325 43.704-2.99 7.66-13.353 18.022-30.679 31.007l-26.010 19.333 34.038 2.007c46.039 2.335 49.029 4.669 63.734 50.053l11.346 34.693 12.001-34.693c8.929-26.378 14.254-36.372 21.258-41.738z" />
<glyph unicode="&#xe932;" glyph-name="safety-icon" d="M546.304 403.968c-5.632 0-11.264 2.048-15.616 6.144l-130.816 121.344c-9.216 8.704-9.984 23.296-1.28 32.512s23.296 9.984 32.512 1.28l121.856-113.152 104.448 23.552c12.288 2.816 24.832-4.864 27.392-17.408 2.816-12.288-5.12-24.832-17.408-27.392l-116.224-26.368c-1.536-0.256-3.328-0.512-4.864-0.512zM587.52 69.12c-12.8 0-23.040 10.24-23.040 23.040v177.408c0 5.12 1.792 9.984 4.864 14.080l68.096 88.576v145.408c0 12.8 10.24 23.040 23.040 23.040s23.040-10.24 23.040-23.040v-153.344c0-5.12-1.792-9.984-4.864-14.080l-68.096-88.576v-169.472c0-12.8-10.24-23.040-23.040-23.040zM737.28 69.12c-11.008 0-20.992 7.936-22.784 19.456l-29.952 188.416-43.776 75.776c-6.4 11.008-2.56 25.088 8.448 31.488s25.088 2.56 31.488-8.448l46.080-79.616c1.536-2.56 2.304-5.12 2.816-7.936l30.72-192.768c2.048-12.544-6.656-24.32-19.2-26.368-1.536 0-2.816 0-3.84 0zM660.992 494.592c-57.856 0-104.96 47.104-104.96 104.96s47.104 104.96 104.96 104.96 104.96-47.104 104.96-104.96c0-57.856-47.104-104.96-104.96-104.96zM660.992 658.688c-32.512 0-58.88-26.368-58.88-58.88s26.368-58.88 58.88-58.88c32.512 0 58.88 26.368 58.88 58.88s-26.368 58.88-58.88 58.88zM869.632 304.128c-5.12 0-10.24 1.792-14.592 5.12l-113.664 92.672-86.272 29.44c-12.032 4.096-18.432 17.152-14.336 29.184s17.152 18.432 29.184 14.336l90.112-30.72c2.56-0.768 4.864-2.304 7.168-3.84l117.248-95.232c9.984-7.936 11.264-22.528 3.328-32.256-4.864-5.888-11.52-8.704-18.176-8.704zM310.272 453.888c-3.328 0-6.4 0.768-9.472 2.048-130.304 58.368-172.032 140.544-172.032 337.664 0 9.216 5.632 17.664 14.336 21.248s18.432 1.536 25.088-4.864c19.2-19.2 39.424-28.928 60.416-28.928 0 0 0.256 0 0.256 0 36.096 0.256 64.768 28.416 65.024 28.672 4.352 4.352 10.24 6.912 16.384 6.912v0c6.144 0 12.032-2.56 16.384-6.912 0 0 17.152-16.896 41.472-24.832 30.208-9.728 57.856-1.536 84.224 24.832 6.656 6.656 16.384 8.448 25.088 4.864s14.336-12.032 14.336-21.248c0-197.12-41.728-279.296-172.032-337.664-3.072-1.28-6.144-1.792-9.472-1.792zM175.872 747.52c6.656-154.624 48.896-205.056 134.4-245.504 85.504 40.448 128 90.88 134.4 245.504-16.896-8.448-35.072-12.544-53.248-12.544-35.072 0.256-64.256 16.384-81.152 28.672-17.152-12.288-46.080-28.416-81.152-28.672-18.432 0.256-36.352 4.096-53.248 12.544z" />
<glyph unicode="&#xe933;" glyph-name="search-icon" d="M926.832 114.902l-216.734 216.734c40.755 56.059 64.866 125.021 64.866 199.494 0 187.392-152.464 339.875-339.912 339.875-187.392 0-339.875-152.464-339.875-339.875 0-187.429 152.464-339.875 339.875-339.875 71.047 0 137.030 21.895 191.656 59.318l217.889-217.889 82.237 82.218zM194.877 531.13c0 132.45 107.762 240.212 240.212 240.212s240.212-107.762 240.212-240.212-107.762-240.212-240.212-240.212c-132.487-0.019-240.212 107.743-240.212 240.212z" />
<glyph unicode="&#xe934;" glyph-name="set-location-icon" horiz-adv-x="863" d="M385.079 958.791c-95.493-10.188-185.114-52.322-254.532-119.668-72.353-70.109-116.56-159.73-128.13-260.058-3.454-29.183-2.418-87.549 1.727-112.934 11.915-70.627 35.227-128.13 74.253-183.042 73.39-103.436 265.756-299.947 333.793-341.046 8.289-5.008 11.742-6.044 19.686-6.044 8.461 0 10.879 0.863 21.585 7.943 63.029 42.307 231.393 210.844 313.762 313.935 51.286 64.41 82.196 134.346 93.421 211.88 3.281 21.585 3.799 93.766 1.036 115.006-12.951 96.874-55.776 183.042-125.021 251.769-68.036 67.346-152.132 108.271-248.488 120.877-18.822 2.418-85.132 3.281-103.091 1.381zM451.562 716.519c23.657-2.763 41.271-7.943 62.165-18.132 117.941-57.33 142.462-210.844 48.178-301.329-56.812-54.567-137.454-67.864-207.736-34.364-37.645 17.786-65.101 44.034-85.65 81.333-38.335 70.281-24.521 160.594 33.673 218.96 29.183 29.183 69.418 48.523 110.516 53.359 18.304 2.072 21.412 2.072 38.853 0.173z" />
<glyph unicode="&#xe935;" glyph-name="share-fill-icon" horiz-adv-x="861" d="M538.713 841.35c-60.475-30.275-95.499-94.312-87.782-160.13l3.562-31.462-53.946-35.024-54.539-35.617-26.119 11.872c-112.714 49.939-233.146-24.264-233.146-143.434 0-119.838 120.431-193.373 233.071-143.508l26.713 11.872 53.946-35.024 53.946-34.43-3.562-32.056c-7.717-66.412 27.307-130.523 87.782-160.723 24.932-12.466 39.179-15.434 72.348-15.434 49.79 0.594 77.097 9.498 109.152 35.024 35.617 27.9 54.539 70.567 54.539 121.619 0 49.197-11.872 80.065-42.147 109.746-44.522 44.522-116.276 59.882-178.532 38.586l-27.307-8.904-58.694 37.398-58.101 37.992v76.577l57.507 37.398 58.101 37.992 27.9-9.498c62.85-21.37 134.678-5.936 179.126 38.586 30.275 29.681 42.147 60.475 42.147 109.746 0 50.977-18.996 93.718-54.539 121.619-32.056 25.526-59.288 34.43-109.152 35.024-33.094-0.371-47.341-3.339-72.274-15.805z" />
<glyph unicode="&#xe936;" glyph-name="share-icon" d="M758.17 327.987c-46.694 0-90.522-21.709-118.989-58.573l-230.81 129.024c5.53 15.974 8.397 32.768 8.397 49.562 0 16.998-2.867 33.792-8.602 49.766l230.605 128.819c50.586-65.741 144.794-78.029 210.534-27.648 65.741 50.586 78.029 144.794 27.648 210.534-50.586 65.741-144.794 78.029-210.534 27.648-37.069-28.467-58.778-72.499-58.573-119.194 0-16.998 2.867-33.792 8.602-49.766l-230.4-128.819c-50.586 65.741-144.794 78.234-210.534 27.648-65.741-50.381-78.234-144.794-27.648-210.534s144.794-78.234 210.534-27.648c10.65 8.192 20.070 17.613 28.058 28.262l230.605-129.024c-27.648-78.234 13.517-164.045 91.75-191.488 78.234-27.648 164.045 13.517 191.488 91.75 27.648 78.234-13.517 164.045-91.75 191.488-16.179 5.325-33.178 8.192-50.381 8.192zM758.17 820.736c56.934 0 103.219-46.080 103.219-103.014s-46.080-103.219-103.014-103.219-103.219 46.080-103.219 103.014c0 0 0 0 0 0.205 0 56.73 46.285 103.014 103.014 103.014v0zM266.854 344.781c-56.934 0-103.219 46.080-103.219 103.014s46.080 103.219 103.014 103.219 103.219-46.080 103.219-103.014c0 0 0 0 0 0 0.205-57.139-46.080-103.219-103.014-103.219zM758.17 74.854c-56.934 0-103.219 46.080-103.219 103.014s46.080 103.219 103.219 103.219 103.219-46.080 103.219-103.014c0 0 0 0 0 0 0-57.139-46.080-103.219-103.219-103.219v0z" />
<glyph unicode="&#xe937;" glyph-name="socket-plugin-icon" d="M673.28 222.976c-8.96 0-17.408 5.376-21.248 13.824l-47.36 107.52-69.12 42.496c-11.008 6.912-14.336 20.992-7.68 32 6.912 11.008 20.992 14.336 32 7.68l81.408-50.176 52.992-120.832c5.376-11.52-0.256-25.344-11.776-30.464-3.072-1.28-6.144-2.048-9.216-2.048zM636.672 5.12c-10.496 0-19.968 7.168-22.528 17.664l-45.824 191.232-43.776 82.688v191.232c0 12.8 10.24 23.296 23.296 23.296 12.8 0 23.296-10.24 23.296-23.296v-179.456l41.984-80.384 46.592-194.048c3.072-12.544-4.608-25.088-17.152-27.904-2.56-0.768-4.352-1.024-5.888-1.024zM454.912 5.12c-1.792 0-3.584 0.256-5.376 0.768-12.544 3.072-20.224 15.616-17.152 27.904l47.104 197.376 48.128 83.2c6.4 11.264 20.736 14.848 31.488 8.448 11.264-6.4 14.848-20.736 8.448-31.488l-44.8-77.056-45.312-191.232c-2.56-10.752-11.776-17.92-22.528-17.92zM547.072 464.64c-58.368 0-105.728 47.36-105.728 105.728s47.36 105.728 105.728 105.728 105.728-47.36 105.728-105.728-47.36-105.728-105.728-105.728zM547.072 629.76c-32.768 0-59.392-26.624-59.392-59.392s26.624-59.392 59.392-59.392c32.768 0 59.392 26.624 59.392 59.392s-26.368 59.392-59.392 59.392zM433.664 338.176l-114.944 22.784c-12.544 2.304-20.736 14.592-18.176 27.136 2.304 12.544 14.592 20.736 27.136 18.176l101.632-20.224 109.568 41.984c12.032 4.608 25.344-1.28 29.952-13.312s-1.28-25.344-13.312-29.952l-121.856-46.592zM272.384 555.008c-63.744 0-115.712 51.968-115.712 115.712v65.536h231.424v-65.536c-0.256-63.744-51.968-115.712-115.712-115.712zM203.008 689.92v-19.2c0-38.144 31.232-69.376 69.376-69.376s69.376 31.232 69.376 69.376v19.2h-138.752zM326.656 711.168c-12.8 0-23.296 10.24-23.296 23.296v102.4c0 12.8 10.24 23.296 23.296 23.296 12.8 0 23.296-10.24 23.296-23.296v-102.656c0-12.544-10.24-23.040-23.296-23.040zM213.504 711.168c-12.8 0-23.296 10.24-23.296 23.296v102.4c0 13.056 10.24 23.296 23.296 23.296s23.296-10.24 23.296-23.296v-102.656c0-12.544-10.496-23.040-23.296-23.040zM271.36 114.944c-5.376 0-11.008 2.048-15.616 5.888-9.472 8.448-10.24 23.296-1.792 32.768 72.192 80.384 65.024 187.136 25.856 256.768-37.12 66.304-31.232 165.376-30.976 169.472 0.768 12.8 12.032 22.272 24.576 21.76 12.8-0.768 22.272-11.776 21.76-24.576 0-0.768-5.376-89.6 25.088-143.872 47.104-84.224 55.808-212.736-31.744-310.272-4.608-5.376-10.752-7.936-17.152-7.936zM763.392 649.216c-12.8 0-23.296 10.24-23.296 23.296 0 12.8 10.24 23.296 23.296 23.296 30.464 0 55.296 24.832 55.296 55.296s-24.832 55.296-55.296 55.296c-30.464 0-55.296-24.832-55.296-55.296 0-12.8-10.24-23.296-23.296-23.296-12.8 0-23.296 10.24-23.296 23.296 0 55.808 45.568 101.632 101.632 101.632s101.632-45.568 101.632-101.632-45.312-101.888-101.376-101.888zM763.392 591.872c-12.8 0-23.296 10.24-23.296 23.296v57.344c0 12.8 10.24 23.296 23.296 23.296 12.8 0 23.296-10.24 23.296-23.296v-57.344c-0.256-13.056-10.496-23.296-23.296-23.296zM763.392 487.936c-12.8 0-23.296 10.24-23.296 23.296v17.664c0 12.8 10.24 23.296 23.296 23.296 12.8 0 23.296-10.24 23.296-23.296v-17.664c-0.256-13.056-10.496-23.296-23.296-23.296z" />
<glyph unicode="&#xe938;" glyph-name="star-circle-icon" d="M409.6 952.832c-156.672-32.768-288.256-134.656-358.4-276.992-40.448-81.408-48.64-120.832-48.64-227.84s8.192-146.432 48.64-227.84c49.664-100.864 132.096-183.296 232.96-232.96 81.408-40.448 120.832-48.64 227.84-48.64s146.432 8.192 227.84 48.64c100.864 49.664 183.296 132.096 232.96 232.96 40.448 81.408 48.64 120.832 48.64 227.84s-8.192 146.432-48.64 227.84c-64 129.536-187.904 231.936-325.12 269.312-52.224 13.824-186.368 18.432-238.080 7.68zM534.528 664.576c11.264-44.544 22.016-88.576 24.576-97.28l4.608-16.896 100.352-1.024 100.352-1.536-72.704-48.128c-39.936-26.624-73.728-49.664-74.752-51.712-1.024-1.536 9.216-47.104 22.528-101.376 13.824-54.272 23.552-98.304 21.504-98.304-1.536 0-35.84 32.768-75.776 72.704l-73.216 73.216-73.216-73.216c-39.936-39.936-74.24-72.704-75.776-72.704-2.048 0 7.68 44.032 21.504 98.304 13.312 54.272 23.552 99.84 22.528 101.376-1.024 2.048-34.816 25.088-74.752 51.712l-72.704 48.128 100.352 1.536 100.352 1.024 4.608 16.896c2.56 8.704 13.312 52.736 24.576 97.28 10.752 44.032 20.992 80.384 22.528 80.384s11.776-36.352 22.528-80.384z" />
<glyph unicode="&#xe939;" glyph-name="star-icon" horiz-adv-x="1077" d="M538.368 960l134.592-380.967 403.857-10.515-320.627-245.081 114.937-387.438-332.76 228.904-332.84-228.904 115.018 387.438-320.627 245.081 403.857 10.515z" />
<glyph unicode="&#xe93a;" glyph-name="story-icon" d="M152.781 918.426h335.667c30.925 0 55.91-24.986 55.91-55.91v-279.757c0-30.925-24.986-55.91-55.91-55.91h-335.667c-30.925 0-55.91 24.986-55.91 55.91v279.757c-0.205 30.925 24.986 55.91 55.91 55.91zM544.358 359.117h335.667c30.925 0 55.91-24.986 55.91-55.91v-279.757c0-30.925-24.986-55.91-55.91-55.91h-335.667c-30.925 0-55.91 24.986-55.91 55.91v279.552c0 30.925 24.986 56.115 55.91 56.115zM600.269 863.13v55.91h335.667v-55.91h-335.667zM600.269 751.104v56.115h335.667v-56.115h-335.667zM600.269 639.283v55.91h335.667v-55.91h-335.667zM96.666 303.616v55.91h335.667v-55.91h-335.667zM96.666 191.795v55.91h335.667v-55.91h-335.667zM96.666 79.77v55.91h335.667v-55.91h-335.667zM96.666 415.437v55.91h839.27v-55.91h-839.27zM600.269 527.462v55.91h335.667v-55.91h-335.667zM96.666-32.051v55.91h335.667v-55.91h-335.667z" />
<glyph unicode="&#xe93b;" glyph-name="subway-icon" horiz-adv-x="862" d="M425.746 873.025c-194.132 0-352.706-22.104-352.706-176.353v-419.018c0.961-84.573 69.676-153.288 154.249-154.249l-65.832-66.313v-22.104h528.578v22.104l-65.832 66.313c84.573 0.961 153.288 69.676 154.249 154.249v419.018c0 154.249-158.573 176.353-352.706 176.353zM227.769 211.341c-36.52 0-66.313 29.312-66.313 65.832s29.312 66.313 65.832 66.313c36.52 0 66.313-29.312 66.313-65.832 0 0 0 0 0 0-0.481-36.039-29.793-65.351-65.832-66.313v0zM382.018 476.111h-220.081v220.561h220.081v-220.561zM624.203 211.341c-36.52 0-66.313 29.312-66.313 65.832s29.312 66.313 65.832 66.313c36.52 0 66.313-29.312 66.313-65.832 0 0 0 0 0 0-0.481-36.039-29.793-65.351-65.832-66.313v0zM690.035 476.111h-220.081v220.561h220.081v-220.561z" />
<glyph unicode="&#xe93c;" glyph-name="talk-icon" d="M97.674 948.972c-34.658-14.966-80.345-65.378-90.585-98.462-4.726-18.117-7.089-125.243-5.514-297.748l2.363-268.603 23.631-33.871c15.754-22.055 38.597-40.96 64.591-54.351l40.96-19.692v-119.729l0.788-120.517h39.385c37.022 0 49.625 6.302 222.917 115.791l182.745 116.578 161.477 3.938c153.6 3.938 163.052 4.726 196.923 23.631 18.905 11.028 45.686 35.446 59.077 53.563l23.631 34.658v571.865l-24.418 33.871c-14.178 18.905-40.172 42.535-59.077 51.988-33.083 18.117-33.871 18.117-423.778 18.117-309.563-0.788-395.422-3.151-415.114-11.028z" />
<glyph unicode="&#xe93d;" glyph-name="today-icon" d="M453.387 957.587c-85.851-11.033-163.771-40.339-234.451-88.609-39.995-26.893-101.021-87.919-127.914-127.914-39.305-57.923-65.853-118.949-81.368-188.251-6.896-31.030-7.93-45.166-7.93-104.813s1.034-73.783 7.93-104.813c23.1-102.4 67.922-185.147 140.326-257.207 72.404-72.749 156.531-118.26 257.896-140.326 51.028-11.033 157.22-11.033 208.248 0 101.366 22.066 185.492 67.577 257.896 140.326 72.404 72.059 117.226 154.807 140.326 257.207 6.896 31.030 7.93 44.822 7.93 104.813-0.345 57.923-1.379 74.473-7.93 104.124-24.479 112.399-84.816 214.454-168.598 285.479l-22.066 18.963h96.884v68.956h-258.586v-262.034h65.508v86.54c0 99.297-3.793 92.057 35.857 66.198 33.099-22.066 96.539-85.851 118.949-119.984 33.444-51.372 59.302-115.502 69.646-174.114 5.861-33.099 5.861-115.157 0-148.256-24.479-137.568-113.778-258.586-238.244-322.026-129.638-66.198-273.756-66.198-403.394 0-128.948 65.853-218.246 189.974-239.278 333.059-6.896 46.201-6.896 79.989 0 126.19 32.409 219.626 223.073 383.397 445.802 383.397h31.375v9.654c0 5.172 1.034 19.653 2.413 32.754l2.069 23.1-44.477-0.345c-24.479-0.345-48.959-1.379-54.82-2.069zM405.118 556.606c-27.238-5.861-60.337-23.445-60.337-32.409 0-2.413 6.896-10.688 15.17-18.963l15.17-14.826 11.723 8.62c14.481 11.033 33.099 16.205 44.132 12.067 10.343-3.793 13.791-8.62 13.791-20.342 0-13.791-12.067-26.203-38.271-39.65-45.856-22.756-61.716-45.856-61.716-88.264v-19.997h158.599v48.269h-90.333l4.827 7.93c2.758 4.137 13.446 12.412 23.79 18.618 51.372 29.996 59.992 40.684 59.992 74.818 0 21.032-1.379 26.893-8.62 37.581-4.827 7.24-14.826 15.86-22.411 19.653-16.205 7.93-46.201 11.033-65.508 6.896zM569.923 494.201l-49.304-62.405v-44.132h82.747v-44.822h51.717v44.822h24.135v44.822h-24.135v124.121h-36.202l-48.959-62.405z" />
<glyph unicode="&#xe93e;" glyph-name="travel-mates-icon" horiz-adv-x="1073" d="M566.742 958.497c-15.457-2.361-47.658-10.304-59.894-15.027-62.256-23.4-119.359-71.916-142.759-121.506l-7.943-16.53-6.655 3.435c-5.367 2.791-10.948 3.22-26.19 2.576-61.397-3.435-115.281-45.511-135.675-105.835-10.519-31.557-9.66-76.639 2.576-123.438 6.655-25.546 27.049-67.408 41.432-85.226 10.734-13.31 10.734-13.525 6.011-15.886-2.576-1.503-17.389-6.226-32.631-10.734-68.481-19.535-108.84-44.867-135.031-84.153-15.457-23.4-16.959-27.049-45.511-111.846-26.19-78.356-27.908-86.729-20.179-99.609 7.943-12.881 10.948-13.31 95.745-13.31 71.916 0 76.424-0.215 75.351-3.649-15.886-51.093-53.025-183.977-53.025-190.202 0-11.807 6.655-21.682 17.818-26.405 8.587-3.649 27.478-3.864 361.083-4.723 402.516-0.859 545.489 0.859 556.652 6.87 9.016 4.723 15.457 15.242 15.457 25.332 0 7.943-23.829 92.525-28.981 102.615-1.503 3.005-7.728 22.756-13.739 44.008-18.033 62.47-38.212 99.18-73.848 133.957-33.919 33.275-69.555 53.669-117.427 66.764-29.196 7.943-37.783 5.367-62.041-17.818-26.62-25.332-48.302-38.212-80.288-47.443-28.766-8.372-55.816-10.519-116.139-9.231-44.008 0.859-57.318 1.932-72.99 5.582-37.139 8.587-66.549 24.688-91.237 49.805-18.247 18.247-25.761 22.112-42.076 22.112-25.761-0.429-74.063-19.321-106.049-41.862-18.033-12.451-41.432-34.348-50.663-46.799l-6.44-8.802h-70.199c-38.856 0-70.413 0.215-70.413 0.644 0 4.294 37.997 112.060 42.291 120.433 3.22 6.011 12.236 17.389 19.965 25.117 11.163 11.378 18.462 16.315 36.495 25.117 20.179 9.66 68.052 26.19 76.424 26.19 1.717 0 8.158-2.576 14.169-5.582 37.783-19.106 79 4.079 79 44.652 0 22.112-7.728 34.133-31.772 49.59-39.071 24.688-66.979 85.655-66.979 146.408 0 41.003 19.321 72.131 55.171 89.305 16.53 7.943 38.642 11.163 36.495 5.582-0.644-1.932-3.005-14.383-4.938-27.693-8.372-57.104 2.576-143.618 26.19-207.591 10.734-28.766 32.631-70.628 49.805-94.672 17.818-25.117 51.737-59.465 74.063-74.707 20.609-14.169 50.878-28.552 73.419-35.207 15.027-4.294 21.897-4.938 53.669-4.938 42.935 0 56.889 3.005 92.31 20.179 58.821 28.766 108.626 81.791 144.047 154.137 35.851 73.634 53.239 171.74 42.506 242.797-8.587 58.392-33.919 109.914-75.136 152.634-42.076 43.794-95.53 72.56-154.137 82.865-17.389 3.005-72.131 4.079-87.158 1.717zM628.998 899.891c78.142-9.66 146.623-59.465 177.966-129.664 7.084-15.671 14.169-37.568 12.451-39.071-0.429-0.429-12.881-1.503-27.478-2.147-24.688-1.288-27.908-0.859-44.223 4.294-12.236 3.864-22.541 9.231-34.348 17.603-16.959 12.236-27.049 15.671-37.997 12.881-3.005-0.644-14.383-10.304-25.546-21.468-17.603-17.603-22.756-21.468-42.506-31.128-39.715-19.321-85.441-27.693-140.397-25.332-16.53 0.859-38.856 2.791-49.59 4.508-13.525 2.361-21.682 2.791-26.62 1.288l-7.084-1.932 1.503 14.383c1.932 18.891 9.016 46.584 14.813 57.533 2.576 4.723 9.875 18.677 16.315 30.699 29.41 56.030 93.598 98.536 162.294 107.338 21.253 2.576 29.84 2.576 50.449 0.215zM704.134 686.289c22.326-11.163 42.72-16.315 70.843-17.603 17.603-0.859 28.552-0.215 38.212 2.147l13.31 3.005v-10.304c0-17.818-6.226-58.821-12.881-84.367-34.777-135.031-133.743-229.488-226.268-215.963-39.286 5.582-72.99 24.044-106.479 57.748-41.862 42.291-71.701 100.468-86.514 167.876-3.005 13.525-6.011 29.41-6.87 35.421l-1.288 10.734 15.671-2.576c33.919-6.011 77.927-8.158 112.060-5.367 71.701 5.582 126.873 25.332 166.588 60.109 4.079 3.435 7.728 6.44 8.158 6.655 0.215 0 7.299-3.435 15.457-7.514zM384.054 244.703c32.631-30.699 73.419-49.59 125.8-58.821 26.405-4.723 110.987-6.44 146.194-3.22 63.758 6.011 109.055 24.473 153.493 62.9 14.813 12.666 15.027 12.666 22.97 10.090 52.595-16.745 96.818-54.098 120.218-101.541 5.152-10.304 14.383-36.495 22.112-62.685 7.299-24.688 14.169-46.799 15.457-49.161s4.938-13.095 7.943-23.829l5.796-19.535-30.269-1.288c-16.745-0.859-199.648-1.503-406.595-1.503-357.434 0-376.325 0.215-375.252 3.864 0.644 1.932 9.446 32.631 19.535 68.052 18.891 65.047 26.405 84.797 40.359 106.694 16.101 25.332 48.087 53.883 76.639 68.267 9.016 4.723 35.421 14.598 39.5 14.813 1.073 0.215 8.158-5.796 16.101-13.095z" />
<glyph unicode="&#xe93f;" glyph-name="trending-destination-icon" d="M603.264 681.114v-58.266h95.002l94.413-0.589-119.475-115.968c-65.843-64.102-121.216-115.379-123.546-114.816-2.33 0.589-44.877 39.629-94.413 87.424-49.536 47.206-92.083 85.658-94.413 85.658-9.907 0-340.352-314.112-340.352-323.43 0-7.578 82.765-84.506 90.342-84.506 2.33 0 59.443 53.043 126.464 117.709l121.805 117.146 53.606-52.454c63.514-61.773 134.63-124.134 141.619-124.134 2.918 0 79.846 72.269 171.341 159.693l166.093 159.693 1.741-101.402 1.178-101.402h116.531v407.962h-407.962v-58.317z" />
<glyph unicode="&#xe940;" glyph-name="trending-icon" horiz-adv-x="1055" d="M447.511 954.528c-195.811-32.44-352.537-160.635-417.808-341.594-34.785-96.537-35.957-218.87-3.908-319.316 50.809-156.727 173.924-278.669 334.95-332.214 63.316-20.715 108.653-26.577 189.557-24.232 60.58 1.563 75.041 3.127 115.298 13.679 191.511 50.027 332.605 189.166 380.678 375.597 8.989 35.566 9.38 42.211 7.817 131.322-1.173 88.721-1.954 95.756-11.725 128.977-5.863 19.542-21.105 56.281-34.003 82.076-71.524 144.611-203.627 245.838-367.389 281.405-39.866 8.598-152.037 11.334-193.466 4.299zM496.366 836.885c0-51.2 0.391-53.545 9.771-62.534 13.679-14.070 34.394-13.289 49.246 1.563l11.334 11.334v51.2c0 28.14 1.563 51.2 3.518 51.2 12.507 0 75.823-13.289 102.791-21.887 38.693-12.116 100.446-42.992 131.322-65.661 102.009-75.041 165.325-182.522 182.131-307.982l1.954-14.852h-54.718c-52.763 0-55.108-0.391-64.098-9.771-5.863-5.863-9.771-14.070-9.771-21.105 0-30.095 11.725-35.566 77.386-35.566h50.418l-3.518-24.232c-15.243-112.171-80.122-220.434-174.705-291.566-53.545-40.256-125.46-71.915-191.902-84.421-55.108-10.553-50.809-14.070-50.809 40.647 0 63.316-5.472 74.26-37.521 74.26-9.38 0-16.806-3.127-23.060-9.771-9.38-8.989-9.771-11.334-9.771-60.58v-50.809h-10.162c-21.496 0-91.066 16.806-124.678 30.095-154.773 60.971-263.817 197.374-285.313 356.055l-2.736 20.324h51.2c28.922 0 55.108 1.954 60.189 4.299 19.542 8.989 24.232 37.13 8.598 52.373-8.989 9.38-11.334 9.771-64.489 9.771-63.316 0-58.235-4.69-48.464 46.901 15.634 84.031 55.108 158.29 118.034 223.56 75.432 78.168 187.994 132.104 291.176 139.53 5.863 0.391 6.644-4.69 6.644-52.373zM329.478 659.053c-13.289-5.472-21.887-21.496-19.151-36.348 1.563-9.771 16.024-25.795 65.27-73.087l63.316-60.971-5.081-14.852c-15.634-47.682 17.588-106.308 68.006-119.988 13.679-3.908 43.383-3.127 65.27 1.173 4.299 0.782 31.658-22.669 71.524-60.58 57.844-55.108 66.052-61.362 78.168-61.362 19.933 0 35.176 14.461 35.176 32.831 0 13.289-4.69 18.76-63.316 77.777l-63.707 63.707 4.299 19.151c12.898 57.063-26.968 110.608-86.766 117.643-11.725 1.563-28.14 0.391-37.911-2.345l-17.197-4.69-51.2 50.418c-79.34 78.168-83.249 80.904-106.699 71.524zM553.038 465.588c12.898-12.507 12.116-23.45-1.563-37.521-12.507-12.116-19.542-13.679-32.831-6.644-19.542 10.162-23.45 26.968-10.162 43.774 10.944 13.679 31.267 14.070 44.556 0.391z" />
<glyph unicode="&#xe941;" glyph-name="trip-plans-icon" d="M807.064 951.656c-44.373-17.825-79.265-52.338-94.436-94.056l-7.964-22.376-220.729-1.138c-219.97-1.138-220.35-1.138-245.001-9.861-89.126-32.237-143.739-108.468-144.119-201.387 0-70.542 35.65-135.775 95.953-175.218 33.754-21.997 65.233-31.099 117.57-33.375l45.132-2.276 6.827-19.721c25.031-71.68 102.021-116.812 177.114-103.538 59.923 10.24 106.951 48.924 126.293 103.538l7.206 19.721h40.96c38.305 0 42.856-0.759 66.37-12.136 30.72-14.412 55.372-38.684 70.163-68.646 9.481-19.342 10.619-25.79 10.619-59.544 0-34.513-1.138-39.822-10.999-59.923-14.033-27.307-44.753-56.889-73.197-70.163l-21.997-10.24-433.873-2.276-2.655 10.619c-8.723 36.788-45.511 81.541-81.92 99.366-72.818 36.409-155.876 17.446-204.8-47.028-22.376-29.582-30.72-59.544-28.824-103.917 1.138-32.616 2.655-40.201 14.033-62.957 16.687-33.754 42.856-59.923 75.473-75.093 21.618-10.24 30.72-12.136 62.199-13.274 31.099-1.517 40.96-0.379 61.061 6.827 45.511 15.929 81.92 51.579 97.849 94.815l7.964 22.376 220.729 1.138c219.97 1.138 220.35 1.138 245.001 9.861 89.126 32.237 143.739 108.468 144.119 201.387 0 70.542-35.65 135.775-95.953 175.218-33.754 21.997-65.233 31.099-117.57 33.375l-45.132 2.276-6.827 19.721c-19.342 55.372-67.508 94.436-128.19 103.538-75.852 11.757-150.187-31.858-175.218-103.538l-7.206-19.721h-40.96c-38.305 0-42.856 0.759-66.37 12.136-30.72 14.412-55.372 38.684-70.163 68.646-9.481 19.342-10.619 25.79-10.619 59.544 0 34.513 1.138 39.822 10.999 59.923 14.033 27.307 44.753 56.889 73.197 70.163l21.997 10.24 433.873 2.276 2.655-10.619c8.344-36.030 46.649-82.299 83.437-100.883 86.85-43.994 194.56 0 225.659 91.401 6.447 20.101 7.964 30.72 6.447 61.061-1.138 32.616-2.655 39.822-14.412 63.336-15.929 32.616-41.339 58.027-74.714 74.335-23.135 11.378-28.824 12.516-65.612 13.274-33.754 1.138-42.856 0-61.44-7.206zM902.637 891.354c65.233-29.582 80.782-111.881 30.341-161.944-55.372-55.751-149.807-25.79-166.495 52.717-16.308 74.714 65.991 141.084 136.154 109.227zM555.236 537.126c73.576-35.65 73.576-141.843 0-178.631-20.48-9.861-65.991-9.861-86.471 0-33.754 17.067-55.372 51.579-55.372 89.126 0 42.477 25.79 79.265 66.37 94.436 16.687 6.447 58.027 3.413 75.473-4.93zM203.662 184.036c61.061-29.203 74.335-110.744 26.169-157.772-18.963-18.584-37.547-26.927-64.095-28.824-72.818-5.689-126.673 71.68-95.953 137.671 25.41 54.993 79.644 74.714 133.879 48.924z" />
<glyph unicode="&#xe942;" glyph-name="phone" d="M704 320c-64-64-64-128-128-128s-128 64-192 128-128 128-128 192 64 64 128 128-128 256-192 256-192-192-192-192c0-128 131.5-387.5 256-512s384-256 512-256c0 0 192 128 192 192s-192 256-256 192z" />
<glyph unicode="&#xe943;" glyph-name="user-plus-icon" d="M647.859 731.981c-60.826-28.134-96.205-101.197-91.674-188.8 2.278-50.381 12.698-80.768 40.397-117.094 9.984-13.158 23.603-38.118 30.848-55.373 11.341-28.134 12.262-31.77 5.888-40.397-8.166-12.262-32.666-24.499-82.15-41.754-49.92-17.69-71.706-30.413-94.848-55.373-15.437-16.794-37.658-61.261-37.658-75.776 0-2.714 108.928-4.531 294.989-4.531 251.418 0 294.989 0.896 294.989 6.349 0 3.635-4.096 16.333-9.523 28.595-22.246 53.094-46.746 72.602-123.443 100.736-53.555 19.507-74.419 30.413-83.046 43.571-4.992 7.706-3.635 13.158 9.088 40.832 8.166 17.69 22.246 42.65 31.309 55.373 45.824 67.174 51.277 156.109 14.515 231.45-16.794 35.405-40.832 60.365-70.349 73.523-30.848 14.106-98.483 13.184-129.331-1.331zM146.381 586.291v-70.349h-136.141v-90.778h136.141v-136.115h90.778v136.141h140.698v90.778h-140.698v140.672h-90.778v-70.349z" />
<glyph unicode="&#xe944;" glyph-name="user-rating-icon" horiz-adv-x="1237" d="M596.864 882.347c-4.395-3.285-15.317-31.403-31.019-79.232l-24.107-74.453-81.024-1.835c-87.979-1.835-92.715-3.285-97.835-23.723-4.395-18.261 4.395-28.117 66.432-73.003 33.237-24.107 61.312-44.885 62.421-46.72 0.725-1.451-8.405-33.579-20.437-71.552-12.416-37.973-22.272-74.837-22.272-81.749 0-21.888 24.107-34.688 44.885-24.107 4.395 2.56 33.963 22.997 65.707 45.995l57.301 41.984 57.685-41.984c31.403-22.997 60.971-43.435 65.323-45.995 20.821-10.581 44.885 2.176 44.885 24.107 0 6.955-9.856 43.819-22.272 81.749-12.032 37.973-21.163 70.101-20.437 71.893 1.109 1.451 29.184 22.272 62.421 46.379 62.037 44.885 70.827 54.741 66.432 73.003-5.12 20.437-9.856 21.888-97.835 23.723l-81.024 1.835-24.107 74.453c-15.701 47.829-26.667 75.947-31.019 79.232-3.669 2.901-12.757 5.12-20.096 5.12-7.211 0-16.341-2.176-20.011-5.12zM630.827 712.619c6.571-20.096 14.592-38.315 17.877-41.259 3.669-2.901 20.821-5.461 49.28-6.571l43.819-1.835-22.272-15.701c-38.699-27.008-47.829-36.523-47.829-49.664 0-6.571 4.736-26.283 10.965-44.16 5.845-17.877 10.581-32.853 9.856-33.237-0.725-0.725-12.416 6.955-26.667 17.152-13.867 10.24-30.677 20.821-36.864 23.723-14.976 6.571-25.173 2.56-60.971-23.723-14.251-10.24-25.899-17.877-26.667-17.152-0.725 0.384 4.011 15.317 9.856 33.237 6.187 17.877 10.965 37.589 10.965 44.16 0 13.141-9.131 22.613-47.829 49.664l-22.272 15.701 43.819 1.835c28.459 1.109 45.611 3.669 49.28 6.571 3.285 2.901 11.307 21.163 17.877 41.259 6.571 19.712 12.757 36.139 13.867 36.139s7.339-16.427 13.909-36.139zM319.829 488.491c-5.461-5.461-16.043-32.469-31.403-80.299l-23.381-71.893h-73.387c-76.288 0-93.824-2.56-100.395-14.592-4.011-7.68-4.736-25.557-1.451-34.304 1.109-2.901 29.952-25.557 63.872-50.005s61.696-46.72 61.696-49.28c0-2.901-9.856-35.029-21.888-71.893-12.032-37.248-21.888-71.552-21.888-76.288 0-5.12 3.285-13.525 7.68-18.987 5.845-7.68 10.581-9.472 22.613-9.472 13.867 0.384 21.888 5.12 77.013 45.269l61.696 44.8 62.037-44.885c50.731-37.248 64.256-45.269 74.453-45.269 16.811 0 24.832 4.736 29.952 17.877 4.011 9.472 2.176 18.261-19.712 86.144-13.525 42.709-22.997 76.672-20.821 78.123 26.667 17.536 118.997 87.253 123.008 93.099 8.021 10.965 6.571 25.899-3.285 37.589l-8.747 10.24-162.432 3.669-24.107 73.728c-16.043 49.664-26.667 75.563-31.403 79.232-10.923 8.32-29.867 7.253-39.723-2.603zM372.736 279.296c5.845-5.461 15.317-6.955 48.171-8.747l40.875-1.835-31.403-22.613c-17.536-12.757-32.853-25.557-33.963-28.843-4.011-10.581-2.176-21.888 8.747-54.4 5.845-17.877 10.24-32.853 9.472-33.963-1.109-0.725-15.317 8.747-31.744 20.821-39.808 29.184-44.16 29.184-86.144-1.109-17.536-12.757-32.469-22.997-32.853-22.613-0.725 0.725 4.011 15.701 9.856 33.579 6.955 20.096 10.965 37.973 10.24 47.104-1.109 13.867-2.901 16.043-32.853 38.315l-31.744 23.723 39.040 1.835c21.547 1.109 42.709 4.011 47.104 6.571 5.461 2.901 11.691 16.043 21.163 44.885l13.525 40.533 12.416-37.973c6.955-21.547 15.701-41.259 20.096-45.269zM874.325 491.051c-4.736-3.669-15.317-29.568-31.403-79.232l-24.107-73.728-162.432-3.669-8.747-10.24c-9.856-11.691-11.307-26.667-3.285-37.589 4.011-5.845 96-75.563 123.008-93.099 1.835-1.109-7.296-35.755-20.821-77.739-21.888-68.608-24.107-76.672-20.096-86.528 5.461-13.141 13.525-17.877 30.293-17.877 10.24 0 23.723 8.021 74.453 45.269l62.080 44.928 61.696-44.885c55.125-40.149 63.147-44.885 77.013-45.269 12.032 0 16.811 1.835 22.613 9.472 4.395 5.461 7.68 13.867 7.68 18.987 0 4.736-9.856 39.040-21.888 76.288-12.032 36.864-21.888 68.992-21.888 71.893 0 2.56 27.733 24.832 61.696 49.28s62.805 47.104 63.872 50.005c3.285 8.747 2.56 26.667-1.451 34.304-6.571 12.032-24.107 14.592-100.395 14.592h-73.387l-23.381 71.893c-15.317 47.829-25.899 74.837-31.403 80.299-9.813 9.941-28.8 11.008-39.723 2.645zM907.179 321.664c9.472-28.459 15.701-41.6 21.163-44.544 4.395-2.56 25.557-5.461 47.104-6.571l39.040-1.835-31.744-23.723c-29.952-22.272-31.744-24.448-32.853-38.315-0.725-9.131 3.285-27.008 10.24-47.104 5.845-17.877 10.581-32.853 9.856-33.579-0.384-0.384-15.317 9.856-32.853 22.613-41.984 30.293-46.379 30.293-86.144 1.109-16.427-12.032-30.677-21.547-31.744-20.821-0.725 1.109 3.669 16.043 9.472 33.963 10.965 32.469 12.757 43.819 8.747 54.4-1.109 3.285-16.427 16.043-33.963 28.843l-31.403 22.613 41.6 1.835c50.389 2.56 52.181 4.011 67.883 55.851 6.187 19.328 11.307 35.413 11.691 35.413s6.571-18.261 13.909-40.149z" />
<glyph unicode="&#xe945;" glyph-name="view-plan-icon" d="M963.789 497.357h-299.213c-27.443 0-49.766 22.323-49.766 49.766s22.323 49.971 49.766 49.971h299.213c27.443 0 49.971-22.323 49.971-49.971 0-27.443-22.323-49.766-49.971-49.766zM465.101 497.357h-398.95c-27.443 0-49.766 22.323-49.766 49.766s22.323 49.971 49.766 49.971h398.95c27.443 0 49.971-22.323 49.971-49.971 0-27.443-22.323-49.766-49.971-49.766zM963.789 297.677h-498.688c-27.443 0-49.766 22.323-49.766 49.971s22.323 49.971 49.766 49.971h498.688c27.443 0 49.971-22.323 49.971-49.971s-22.323-49.971-49.971-49.971zM963.789 98.202h-498.688c-27.443 0-49.766 22.323-49.766 49.971 0 27.443 22.323 49.971 49.766 49.971h498.688c27.443 0 49.971-22.323 49.971-49.971 0-27.443-22.323-49.971-49.971-49.971zM265.83 297.677c-27.443 0-49.766 22.323-49.766 49.971v398.95c0 27.443 22.323 49.766 49.766 49.766s49.971-22.323 49.971-49.766v-398.95c-0.205-27.443-22.528-49.971-49.971-49.971z" />
</font>
</defs>
</svg>
