<?xml version="1.0" standalone="no"?>
<!DOCTYPE svg PUBLIC "-//W3C//DTD SVG 20010904//EN"
 "http://www.w3.org/TR/2001/REC-SVG-20010904/DTD/svg10.dtd">
<svg version="1.0" xmlns="http://www.w3.org/2000/svg"
 width="298.000000pt" height="298.000000pt" viewBox="0 0 298.000000 298.000000"
 preserveAspectRatio="xMidYMid meet">
<metadata>
Created by potrace 1.15, written by Peter Selinger 2001-2017
</metadata>
<g transform="translate(0.000000,298.000000) scale(0.100000,-0.100000)"
fill="#000000" stroke="none">
<path d="M1380 2974 c-741 -65 -1304 -623 -1370 -1360 -63 -696 386 -1355
1058 -1549 271 -79 573 -79 844 0 432 125 796 456 958 871 347 888 -197 1861
-1128 2018 -92 16 -287 26 -362 20z m380 -223 c508 -117 885 -500 996 -1011
26 -119 26 -381 0 -500 -112 -518 -499 -905 -1016 -1016 -119 -26 -381 -26
-500 0 -517 111 -904 498 -1016 1016 -26 119 -26 381 0 500 99 456 413 816
846 968 75 26 180 51 275 66 71 11 332 -4 415 -23z"/>
<path d="M1423 2206 l-28 -24 0 -505 0 -505 24 -26 c20 -21 34 -26 71 -26 37
0 51 5 71 26 l24 26 0 505 0 505 -28 24 c-19 16 -40 24 -67 24 -27 0 -48 -8
-67 -24z"/>
<path d="M1441 926 c-37 -21 -50 -55 -51 -134 0 -71 1 -75 34 -108 46 -46 86
-46 132 0 32 32 34 38 34 105 0 82 -13 117 -51 137 -34 17 -67 17 -98 0z"/>
</g>
</svg>
