<?xml version="1.0" encoding="utf-8"?>
<!-- Generator: Adobe Illustrator 21.0.0, SVG Export Plug-In . SVG Version: 6.00 Build 0)  -->
<svg version="1.1" id="Layer_1" xmlns="http://www.w3.org/2000/svg" xmlns:xlink="http://www.w3.org/1999/xlink" x="0px" y="0px"
	 viewBox="0 0 400 400" style="enable-background:new 0 0 400 400;" xml:space="preserve">
<style type="text/css">
	.st0{fill:#262424;}
</style>
<g>
	<path class="st0" d="M233.8,224.4c-1.9,0-3.8-0.6-5.3-1.8c-2.6-1.9-3.9-5.1-3.4-8.2l6.6-48.6c0.7-4.8,5.1-8.2,9.9-7.6
		c4.8,0.7,8.2,5.1,7.6,9.9l-4.5,33l26.1-11.4c4.5-2,9.7,0.1,11.6,4.6c2,4.5-0.1,9.7-4.6,11.6l-40.5,17.7
		C236.2,224.1,235,224.4,233.8,224.4z"/>
</g>
<g>
	<path class="st0" d="M240.5,351c-0.7,0-1.4-0.1-2.1-0.2c-4.7-1.1-7.7-5.9-6.5-10.7l17.7-74c0.2-0.7,0.4-1.4,0.8-2.1l15.2-28.6
		v-68.5c0-4.9,4-8.8,8.8-8.8c4.9,0,8.8,4,8.8,8.8v70.7c0,1.4-0.4,2.9-1,4.1l-15.7,29.5l-17.4,72.9C248.1,348.3,244.5,351,240.5,351z
		"/>
</g>
<g>
	<path class="st0" d="M309.7,351c-4,0-7.6-2.7-8.6-6.8l-17.4-72.8l-17-29.4c-2.4-4.2-1-9.6,3.2-12.1c4.2-2.4,9.6-1,12.1,3.2
		l17.7,30.5c0.4,0.7,0.7,1.5,0.9,2.4l17.7,74c1.1,4.7-1.8,9.5-6.5,10.7C311.1,350.9,310.4,351,309.7,351z"/>
</g>
<g>
	<path class="st0" d="M274.5,175.8c-22.2,0-40.3-18.1-40.3-40.3s18.1-40.3,40.3-40.3s40.3,18.1,40.3,40.3S296.8,175.8,274.5,175.8z
		 M274.5,112.8c-12.5,0-22.7,10.2-22.7,22.7s10.2,22.7,22.7,22.7s22.7-10.2,22.7-22.7S287,112.8,274.5,112.8z"/>
</g>
<g>
	<path class="st0" d="M330.4,268.6c-3.2,0-6.2-1.7-7.8-4.7l-16.8-31.4L269,204.9c-3.9-2.9-4.7-8.5-1.8-12.4
		c2.9-3.9,8.5-4.7,12.4-1.8l38.3,28.7c1,0.8,1.9,1.8,2.5,2.9l17.7,33.1c2.3,4.3,0.7,9.7-3.6,12C333.2,268.2,331.8,268.6,330.4,268.6
		z"/>
</g>
<g>
	<path class="st0" d="M123.8,66.7h-55c-4.9,0-8.8-4-8.8-8.8s4-8.8,8.8-8.8h55c4.9,0,8.8,4,8.8,8.8S128.7,66.7,123.8,66.7z"/>
</g>
<g>
	<path class="st0" d="M196.1,107H68.8c-4.9,0-8.8-4-8.8-8.8c0-4.9,4-8.8,8.8-8.8h127.2c4.9,0,8.8,4,8.8,8.8
		C204.9,103,200.9,107,196.1,107z"/>
</g>
<g>
	<path class="st0" d="M196.1,147.2H68.8c-4.9,0-8.8-4-8.8-8.8c0-4.9,4-8.8,8.8-8.8h127.2c4.9,0,8.8,4,8.8,8.8
		C204.9,143.3,200.9,147.2,196.1,147.2z"/>
</g>
<g>
	<path class="st0" d="M196.1,187.5H68.8c-4.9,0-8.8-4-8.8-8.8s4-8.8,8.8-8.8h127.2c4.9,0,8.8,4,8.8,8.8S200.9,187.5,196.1,187.5z"/>
</g>
</svg>
