<?xml version="1.0" encoding="utf-8"?>
<!-- Generator: Adobe Illustrator 21.0.0, SVG Export Plug-In . SVG Version: 6.00 Build 0)  -->
<svg version="1.1" id="Layer_1" xmlns="http://www.w3.org/2000/svg" xmlns:xlink="http://www.w3.org/1999/xlink" x="0px" y="0px"
	 width="200px" height="150px" viewBox="0 0 200 150" style="enable-background:new 0 0 200 150;" xml:space="preserve">
<g transform="translate(0.000000,170.000000) scale(0.100000,-0.100000)">
	<path d="M679.3,1360.6c-10.9-10.9-17.3-55.4-11.4-77.1l4-14.8l541.6-1.5l541.2-1l13.3,10.4c24.2,18.8,11.4,70.2-21.7,87
		c-9.9,4.9-127,6.4-534.7,6.4C707.5,1370,688.2,1369.5,679.3,1360.6z"/>
	<path d="M199.5,1216.8v-148.3h148.3H496v148.3v148.3H347.7H199.5V1216.8z M397.1,1216.8v-49.4h-49.4h-49.4v49.4v49.4h49.4h49.4
		V1216.8z"/>
	<path d="M677.9,1168.9c-15.3-4-16.8-50.4-3-86.5l4.9-13.8h335.6H1351l10.4,20.8c11.9,23.2,14.8,64.7,5.4,74.1
		c-4.9,4.9-74.1,6.4-343.5,6.9C838,1170.8,682.8,1170.3,677.9,1168.9z"/>
	<path d="M679.3,817c-10.9-10.9-17.3-55.4-11.4-77.1l4-14.8l541.6-1.5l541.2-1l13.3,10.4c24.2,18.8,11.4,70.2-21.7,87
		c-9.9,4.9-127,6.4-534.7,6.4C707.5,826.4,688.2,825.9,679.3,817z"/>
	<path d="M199.5,675.6V529.9h148.3H496v145.8v145.8H347.7H199.5V675.6z M397.1,673.2v-49.4h-49.4h-49.4v49.4v49.4h49.4h49.4V673.2z"
		/>
	<path d="M677.9,625.2c-10.9-3-14.8-21.3-10.9-52.4c5.9-47.9-32.1-43,349.9-43h337.5l8.9,19.8c10.4,23.7,12.4,61.3,3.5,70.2
		c-4.9,4.9-74.1,6.4-343.5,6.9C838,627.2,682.8,626.7,677.9,625.2z"/>
</g>
</svg>
