<?xml version="1.0" standalone="no"?>
<!DOCTYPE svg PUBLIC "-//W3C//DTD SVG 20010904//EN"
 "http://www.w3.org/TR/2001/REC-SVG-20010904/DTD/svg10.dtd">
<svg version="1.0" xmlns="http://www.w3.org/2000/svg"
 width="170.000000pt" height="210.000000pt" viewBox="0 0 170.000000 210.000000"
 preserveAspectRatio="xMidYMid meet">
<metadata>
Created by potrace 1.15, written by Peter Selinger 2001-2017
</metadata>
<g transform="translate(0.000000,210.000000) scale(0.100000,-0.100000)"
fill="#000000" stroke="none">
<path d="M648 2050 c-296 -73 -523 -300 -599 -599 -18 -72 -20 -104 -16 -220
5 -152 20 -218 73 -329 64 -133 395 -552 599 -760 142 -144 144 -144 253 -34
133 134 419 475 556 661 62 85 112 190 137 292 18 70 20 102 16 218 -5 147
-20 217 -67 319 -107 229 -307 393 -553 452 -110 26 -291 26 -399 0z m322
-281 c176 -40 332 -200 369 -377 51 -248 -111 -501 -364 -567 -265 -69 -554
103 -614 365 -69 298 168 589 479 589 47 1 105 -4 130 -10z"/>
<path d="M740 1500 l0 -100 -100 0 -100 0 0 -105 0 -105 100 0 100 0 0 -95 0
-95 110 0 110 0 0 95 0 95 100 0 100 0 0 105 0 105 -100 0 -100 0 0 100 0 100
-110 0 -110 0 0 -100z"/>
</g>
</svg>
