<?xml version="1.0" encoding="utf-8"?>
<!-- Generator: Adobe Illustrator 21.0.0, SVG Export Plug-In . SVG Version: 6.00 Build 0)  -->
<svg version="1.1" id="Layer_1" xmlns="http://www.w3.org/2000/svg" xmlns:xlink="http://www.w3.org/1999/xlink" x="0px" y="0px"
	 width="100px" height="96px" viewBox="0 0 100 96" style="enable-background:new 0 0 100 96;" xml:space="preserve">
<g transform="translate(0.000000,96.000000) scale(0.100000,-0.100000)">
	<path d="M128.8,839.3l-24.6-20.7V562.9V306.4l20.7-19.1c19.9-19.1,23-19.1,186.7-21.4l166-2.4v-83.4V97.5H514
		c22.2,0,40.5,4.8,46.1,11.1c4.8,5.6,53.2,42.9,108,81.8c92.9,67.5,102.5,72.3,146.1,75.5c38.9,3.2,50.8,7.9,65.9,25.4l18.3,21.4
		v256.5v256.5l-18.3,16.7C861.9,860,860.3,860,507.7,860H153.4L128.8,839.3z M827,566.1V343.7h-35.7c-19.9,0-35.7-3.2-35.7-7.9
		c0-4-4.8-5.6-10.3-3.2c-5.6,1.6-50-24.6-99.3-59.6l-89-64.3v67.5v67.5H366.3H175.7v222.4v222.4h325.7H827V566.1z"/>
</g>
</svg>
