<?xml version="1.0" encoding="utf-8"?>
<!-- Generator: Adobe Illustrator 21.0.0, SVG Export Plug-In . SVG Version: 6.00 Build 0)  -->
<svg version="1.1" id="Layer_1" xmlns="http://www.w3.org/2000/svg" xmlns:xlink="http://www.w3.org/1999/xlink" x="0px" y="0px"
	 width="187px" height="191px" viewBox="0 0 187 191" style="enable-background:new 0 0 187 191;" xml:space="preserve">
<g transform="translate(0.000000,191.000000) scale(0.100000,-0.100000)">
	<path d="M222.4,1740.4c-23-12.8-44.4-32.4-56.3-53.8c-18.8-33.3-19.6-37.5-19.6-375.5c0-320.9,0.9-343.1,15.4-355.9
		c13.7-11.9,36.7-14.5,145.1-14.5h129.7V589.1c0-214.2,3.4-364.4,8.5-384c5.1-17.1,20.5-41,35-52.9l26.5-22.2h431
		c390.9,0,433.5,1.7,455.7,14.5c49.5,29.9,50.4,34.1,50.4,432.7v363.5h130.6c99.8,0,134.8,2.6,147.6,11.9
		c15.4,11.9,16.2,25.6,16.2,356.7v344.8l-23.9,35.8c-12.8,19.6-38.4,43.5-57.2,52.9c-32.4,17.1-47.8,17.1-715.2,17.1H260
		L222.4,1740.4z M1616,1634.5c14.5-12.8,15.4-33.3,15.4-298.7v-284.2h-93.9h-93.9v46.9v46.9h33.3c53.8,0,61.4,13.7,58.9,109.2
		c-2.6,77.7-3.4,82.8-23.9,93c-17.1,8.5-141.7,10.2-582.9,8.5c-653.7-1.7-586.3,10.2-586.3-107.5c0-86.2,10.2-103.3,61.4-103.3h32.4
		v-46.9v-46.9h-93.9h-93.9v279.9c0,239,1.7,282.5,13.7,298.7l12.8,18.8h662.2C1541.8,1649.1,1601.5,1648.2,1616,1634.5z
		 M888.9,744.5V240.9H718.2H547.6v503.5V1248h170.7h170.7V744.5z M1332.7,744.5V240.9h-46.9h-46.9v503.5V1248h46.9h46.9V744.5z"/>
	<path d="M641.4,1499.7v-55.5h298.7h298.7v55.5v55.5H940.1H641.4V1499.7z"/>
</g>
</svg>
