<?xml version="1.0" encoding="utf-8"?>
<!-- Generator: Adobe Illustrator 21.0.0, SVG Export Plug-In . SVG Version: 6.00 Build 0)  -->
<svg version="1.1" id="Layer_1" xmlns="http://www.w3.org/2000/svg" xmlns:xlink="http://www.w3.org/1999/xlink" x="0px" y="0px"
	 viewBox="0 0 400 400" style="enable-background:new 0 0 400 400;" xml:space="preserve">
<style type="text/css">
	.st0{fill:#262424;}
</style>
<g>
	<path class="st0" d="M227.9,244.3L183.7,225c-4.3-1.9-6.3-6.9-4.4-11.1c1.8-4.3,6.9-6.3,11.1-4.4l33.3,14.5l36.8-38.7
		c3.2-3.4,8.6-3.5,12-0.3c3.4,3.2,3.5,8.6,0.3,12L227.9,244.3z"/>
</g>
<g>
	<path class="st0" d="M219.5,364c-3.8,0-7.3-2.6-8.3-6.5l-16.7-69.9l-16-30.2v-69.8c0-4.7,3.8-8.4,8.4-8.4c4.6,0,8.4,3.8,8.4,8.4
		v65.6l15.3,29.4l17,70.9c1,4.5-1.7,9.1-6.3,10.2C220.8,363.9,220.1,364,219.5,364z"/>
</g>
<g>
	<path class="st0" d="M153.1,364c-0.7,0-1.3-0.1-2-0.3c-4.5-1-7.4-5.7-6.3-10.2l17.2-72.2l17.6-30.4c2.4-4.1,7.5-5.4,11.6-3.1
		c4.1,2.4,5.4,7.5,3.1,11.6l-16.3,28.2l-16.7,69.7C160.4,361.4,156.9,364,153.1,364z"/>
</g>
<g>
	<path class="st0" d="M186.9,196.1c-21.3,0-38.7-17.3-38.7-38.7s17.3-38.7,38.7-38.7s38.7,17.3,38.7,38.7S208.1,196.1,186.9,196.1z
		 M186.9,135.7c-12,0-21.7,9.8-21.7,21.7S175,179,186.9,179s21.7-9.8,21.7-21.7S198.8,135.7,186.9,135.7z"/>
</g>
<g>
	<path class="st0" d="M116.4,262.4c-2,0-4-0.7-5.7-2.2c-3.5-3.1-3.8-8.4-0.7-11.9l30.4-34.1l45.6-5.3c4.6-0.5,8.9,2.8,9.4,7.4
		s-2.8,8.9-7.4,9.4l-39.2,4.5l-26.1,29.3C121.1,261.5,118.7,262.4,116.4,262.4z"/>
</g>
<g>
	<path class="st0" d="M92.2,339.2c-2.2,0-4.4-0.9-6-2.5l-52.6-52.5c-1.6-1.6-2.5-3.7-2.5-6s0.9-4.4,2.5-6l46.7-46.7
		c3.3-3.3,8.7-3.3,12,0l52.6,52.6c1.6,1.6,2.5,3.7,2.5,6c0,2.3-0.9,4.4-2.5,6l-46.7,46.7C96.4,338.4,94.3,339.2,92.2,339.2z
		 M51.5,278.2l40.7,40.6l34.7-34.7l-40.6-40.7L51.5,278.2z"/>
</g>
<g>
	<path class="st0" d="M352.4,202.8c-0.2,0-0.3,0-0.5,0L248,196.6c-2.3-0.2-4.4-1.1-5.8-2.9c-1.5-1.7-2.3-3.9-2.1-6.1l8.5-144.7
		c0.3-4.7,4.3-8.3,9-7.9l103.9,6.2c2.3,0.2,4.4,1.1,5.8,2.9c1.5,1.7,2.3,3.9,2.1,6.1l-8.5,144.7
		C360.6,199.3,356.8,202.8,352.4,202.8z M257.5,180.1l86.9,5.1l7.6-127.8l-86.9-5.1L257.5,180.1z"/>
</g>
<g>
	<path class="st0" d="M304.8,129.4c-0.2,0-0.3,0-0.5,0c-7.7-0.4-15-3.6-20.3-8.6c-5.7-5.5-8.5-12.5-8.1-20
		c0.4-7.4,4.1-14.2,10.4-18.9c5.8-4.4,13.4-6.6,21.2-6.2c16.5,1,29.3,13.8,28.4,28.6c-0.3,4.7-4.4,8.2-9,7.9c-4.7-0.3-8.3-4.3-7.9-9
		c0.3-5.4-5.4-10.4-12.4-10.7c-3.7-0.2-7.3,0.8-9.9,2.8c-1.3,1-3.6,3.1-3.7,6.4c-0.2,3.2,1.7,5.7,3,6.8c2.4,2.3,5.8,3.7,9.5,3.9
		c4.7,0.3,8.3,4.3,7.9,9C312.9,126,309.2,129.4,304.8,129.4z"/>
</g>
<g>
	<path class="st0" d="M304.1,166.3c-0.7,0-1.3,0-2-0.1c-16.5-1-29.3-13.8-28.4-28.6c0.3-4.7,4.4-8.2,9-7.9c4.7,0.3,8.3,4.3,7.9,9
		c-0.3,5.4,5.4,10.4,12.4,10.7c3.7,0.3,7.3-0.8,9.9-2.8c1.3-1,3.6-3.1,3.7-6.4c0.2-3.2-1.7-5.7-3-6.8c-2.4-2.3-5.8-3.7-9.5-3.9
		c-4.7-0.3-8.3-4.3-7.9-9c0.3-4.7,4.4-8.2,9-7.9c7.7,0.4,15,3.6,20.3,8.6c5.7,5.5,8.5,12.5,8.1,20c-0.4,7.4-4.1,14.2-10.4,18.9
		C317.8,164.1,311.1,166.3,304.1,166.3z"/>
</g>
<g>
	<path class="st0" d="M302.1,175.5c-0.2,0-0.3,0-0.5,0c-4.7-0.3-8.3-4.3-7.9-9l5.7-95.6c0.3-4.7,4.3-8.2,9-7.9
		c4.7,0.3,8.3,4.3,7.9,9l-5.7,95.6C310.2,172,306.5,175.5,302.1,175.5z"/>
</g>
</svg>
