<?xml version="1.0" standalone="no"?>
<!DOCTYPE svg PUBLIC "-//W3C//DTD SVG 20010904//EN"
 "http://www.w3.org/TR/2001/REC-SVG-20010904/DTD/svg10.dtd">
<svg version="1.0" xmlns="http://www.w3.org/2000/svg"
 width="149.000000pt" height="188.000000pt" viewBox="0 0 149.000000 188.000000"
 preserveAspectRatio="xMidYMid meet">
<metadata>
Created by potrace 1.15, written by Peter Selinger 2001-2017
</metadata>
<g transform="translate(0.000000,188.000000) scale(0.100000,-0.100000)"
fill="#000000" stroke="none">
<path d="M664 1846 c-23 -23 -34 -43 -34 -63 0 -26 -5 -31 -42 -42 -147 -44
-289 -188 -339 -346 -8 -27 -14 -142 -18 -345 -7 -358 0 -333 -136 -478 -76
-81 -88 -98 -92 -136 -6 -53 16 -99 60 -126 29 -18 51 -20 240 -20 l207 0 0
-38 c0 -145 100 -252 235 -252 135 0 235 107 235 252 l0 38 208 0 c188 0 210
2 239 20 44 27 66 73 60 126 -4 38 -16 55 -92 136 -136 145 -129 120 -136 473
-5 275 -7 305 -27 359 -59 160 -175 281 -319 332 -47 17 -53 22 -53 47 0 20
-11 40 -34 63 -29 29 -41 34 -81 34 -40 0 -52 -5 -81 -34z"/>
</g>
</svg>
