<?xml version="1.0" standalone="no"?>
<!DOCTYPE svg PUBLIC "-//W3C//DTD SVG 20010904//EN"
 "http://www.w3.org/TR/2001/REC-SVG-20010904/DTD/svg10.dtd">
<svg version="1.0" xmlns="http://www.w3.org/2000/svg"
 width="240.000000pt" height="180.000000pt" viewBox="0 0 240.000000 180.000000"
 preserveAspectRatio="xMidYMid meet">
<metadata>
Created by potrace 1.15, written by Peter Selinger 2001-2017
</metadata>
<g transform="translate(0.000000,180.000000) scale(0.100000,-0.100000)"
fill="#000000" stroke="none">
<path d="M780 1789 c-354 -28 -664 -102 -748 -178 l-32 -30 0 -766 0 -766 25
-24 24 -25 1151 0 1151 0 24 25 25 24 0 329 c0 301 -2 332 -18 352 -13 17 -74
37 -272 91 -204 55 -259 73 -280 94 -25 25 -25 27 -30 230 -5 204 -5 205 -31
231 -18 18 -47 30 -94 40 -38 8 -75 20 -83 27 -30 25 -42 75 -42 184 0 115 -8
137 -57 162 -26 13 -548 13 -713 0z m-382 -463 l37 -34 0 -124 0 -123 -105 0
-105 0 -3 111 c-2 101 -1 113 20 144 46 68 100 77 156 26z m547 -6 l30 -30 0
-123 0 -122 -105 0 -105 0 0 122 c0 116 1 123 25 148 50 54 104 55 155 5z
m531 9 c37 -35 45 -68 42 -179 l-3 -105 -105 0 -105 0 0 123 0 124 39 35 c33
30 43 34 74 30 19 -4 45 -16 58 -28z m-1088 -685 c41 -28 52 -66 52 -177 0
-67 -4 -107 -12 -115 -16 -16 -180 -16 -196 0 -17 17 -16 199 2 242 8 18 24
41 37 50 30 20 88 21 117 0z m540 0 c41 -28 52 -66 52 -177 0 -67 -4 -107 -12
-115 -16 -16 -180 -16 -196 0 -18 18 -16 211 3 248 20 40 53 60 95 60 20 0 46
-7 58 -16z m541 0 c13 -9 29 -32 37 -50 18 -43 19 -225 2 -242 -16 -16 -180
-16 -196 0 -8 8 -12 48 -12 115 0 111 11 149 52 177 29 21 87 20 117 0z m520
0 c13 -9 29 -32 37 -50 18 -43 19 -225 2 -242 -16 -16 -180 -16 -196 0 -13 13
-17 162 -6 217 10 51 55 91 101 91 21 0 49 -7 62 -16z"/>
</g>
</svg>
