<?xml version="1.0" encoding="utf-8"?>
<!-- Generator: Adobe Illustrator 21.0.0, SVG Export Plug-In . SVG Version: 6.00 Build 0)  -->
<svg version="1.1" id="Layer_1" xmlns="http://www.w3.org/2000/svg" xmlns:xlink="http://www.w3.org/1999/xlink" x="0px" y="0px"
	 viewBox="0 0 841.9 595.3" style="enable-background:new 0 0 841.9 595.3;" xml:space="preserve">
<g>
	<path d="M563.1,590c-85.1,0-176.8-24.5-176.8-78.2c0-12.3,10-22.3,22.3-22.3c12.3,0,22.3,10,22.3,22.3c2.6,9,47.1,33.5,132.1,33.5
		c85,0,129.5-24.5,132.2-33.8c0-12.3,10-22.2,22.3-22.2c12.3,0,22.3,10.2,22.3,22.5C739.8,565.5,648.2,590,563.1,590z"/>
</g>
<g>
	<path d="M563.1,496.9c-85.1,0-176.8-24.5-176.8-78.1c0-12.3,10-22.3,22.3-22.3c12.3,0,22.3,10,22.3,22.3
		c2.6,9,47.1,33.5,132.1,33.5c85,0,129.5-24.5,132.2-33.8c0-12.3,10-22.2,22.3-22.2c12.3,0,22.3,10.2,22.3,22.5
		C739.8,472.4,648.2,496.9,563.1,496.9z"/>
</g>
<g>
	<path d="M563.1,403.8c-85.1,0-176.8-24.5-176.8-78.1c0-12.3,10-22.3,22.3-22.3c12.3,0,22.3,10,22.3,22.3
		c2.6,9,47.1,33.5,132.1,33.5c85,0,129.5-24.5,132.2-33.8c0-12.3,10-22.2,22.3-22.2c12.3,0,22.3,10.2,22.3,22.5
		C739.8,379.3,648.2,403.8,563.1,403.8z"/>
</g>
<g>
	<path d="M563.1,310.7c-85.1,0-176.8-24.5-176.8-78.1s91.6-78.1,176.8-78.1c85.1,0,176.8,24.5,176.8,78.1S648.2,310.7,563.1,310.7z
		 M563.1,199.1c-85,0-129.5,24.5-132.1,33.8c2.6,8.7,47.2,33.2,132.1,33.2c84,0,128.5-23.9,132.1-33.5
		C691.6,223,647.1,199.1,563.1,199.1z M695.2,232.9h0.2H695.2z"/>
</g>
<g>
	<path d="M233.3,354.8c-62.1,0-110.7-38.3-110.7-87.1c0-12.3,10-22.3,22.3-22.3s22.3,10,22.3,22.3c0,23,30.2,42.4,66,42.4
		s66-19.4,66-42.4c0-23-30.2-42.4-66-42.4c-62.1,0-110.7-38.3-110.7-87.1c0-48.8,48.6-87.1,110.7-87.1S344,89.3,344,138.2
		c0,12.3-10,22.3-22.3,22.3c-12.3,0-22.3-10-22.3-22.3c0-23-30.2-42.4-66-42.4s-66,19.4-66,42.4s30.2,42.4,66,42.4
		c62.1,0,110.7,38.3,110.7,87.1C344,316.5,295.4,354.8,233.3,354.8z"/>
</g>
<g>
	<path d="M233.3,396.4c-12.3,0-22.3-10-22.3-22.3v-347c0-12.3,10-22.3,22.3-22.3c12.3,0,22.3,10,22.3,22.3v347
		C255.6,386.4,245.6,396.4,233.3,396.4z"/>
</g>
</svg>
