<?xml version="1.0" standalone="no"?>
<!DOCTYPE svg PUBLIC "-//W3C//DTD SVG 20010904//EN"
 "http://www.w3.org/TR/2001/REC-SVG-20010904/DTD/svg10.dtd">
<svg version="1.0" xmlns="http://www.w3.org/2000/svg"
 width="187.000000pt" height="235.000000pt" viewBox="0 0 187.000000 235.000000"
 preserveAspectRatio="xMidYMid meet">
<metadata>
Created by potrace 1.15, written by Peter Selinger 2001-2017
</metadata>
<g transform="translate(0.000000,235.000000) scale(0.100000,-0.100000)"
fill="#000000" stroke="none">
<path d="M350 2230 l0 -120 -175 0 -175 0 0 -1055 0 -1055 355 0 355 0 0 120
0 120 225 0 225 0 0 -120 0 -120 355 0 355 0 0 1055 0 1055 -175 0 -175 0 0
120 0 120 -585 0 -585 0 0 -120z m460 -590 l0 -110 -110 0 -110 0 0 110 0 110
110 0 110 0 0 -110z m470 0 l0 -110 -110 0 -110 0 0 110 0 110 110 0 110 0 0
-110z m-470 -465 l0 -115 -110 0 -110 0 0 115 0 115 110 0 110 0 0 -115z m470
0 l0 -115 -110 0 -110 0 0 115 0 115 110 0 110 0 0 -115z m-470 -465 l0 -110
-110 0 -110 0 0 110 0 110 110 0 110 0 0 -110z m470 0 l0 -110 -110 0 -110 0
0 110 0 110 110 0 110 0 0 -110z"/>
</g>
</svg>
