<?xml version="1.0" standalone="no"?>
<!DOCTYPE svg PUBLIC "-//W3C//DTD SVG 20010904//EN"
 "http://www.w3.org/TR/2001/REC-SVG-20010904/DTD/svg10.dtd">
<svg version="1.0" xmlns="http://www.w3.org/2000/svg"
 width="180.000000pt" height="200.000000pt" viewBox="0 0 180.000000 200.000000"
 preserveAspectRatio="xMidYMid meet">
<metadata>
Created by potrace 1.15, written by Peter Selinger 2001-2017
</metadata>
<g transform="translate(0.000000,200.000000) scale(0.100000,-0.100000)"
fill="#000000" stroke="none">
<path d="M567 1990 c-196 -24 -323 -65 -379 -119 -43 -43 -61 -99 -82 -250 -8
-57 -16 -104 -18 -105 -75 -34 -87 -60 -87 -196 -1 -111 11 -162 43 -188 l24
-18 4 -404 c6 -420 10 -459 48 -480 10 -6 41 -10 69 -10 l51 0 0 -76 c0 -41 5
-84 10 -95 25 -47 134 -65 190 -32 39 23 50 52 50 133 l0 70 440 0 440 0 0
-76 c0 -41 5 -84 10 -95 16 -29 64 -49 119 -49 42 0 56 5 83 29 31 28 33 34
36 109 l4 80 45 5 c82 9 77 -16 82 464 l3 427 24 19 c24 19 24 20 22 185 l-3
167 -36 18 c-35 17 -37 20 -44 85 -10 90 -40 207 -65 246 -37 60 -153 106
-360 142 -109 19 -607 28 -723 14z m783 -245 l0 -65 -445 0 -445 0 0 65 0 65
445 0 445 0 0 -65z m150 -465 l0 -320 -600 0 -600 0 0 320 0 320 600 0 600 0
0 -320z m-972 -660 c67 -41 78 -135 23 -191 -61 -60 -153 -43 -191 36 -54 111
63 219 168 155z m883 -3 c48 -32 68 -91 48 -142 -31 -82 -128 -108 -188 -51
-45 43 -56 84 -35 134 30 76 110 103 175 59z"/>
</g>
</svg>
