<?xml version="1.0" encoding="utf-8"?>
<!-- Generator: Adobe Illustrator 21.0.0, SVG Export Plug-In . SVG Version: 6.00 Build 0)  -->
<svg version="1.1" id="Layer_1" xmlns="http://www.w3.org/2000/svg" xmlns:xlink="http://www.w3.org/1999/xlink" x="0px" y="0px"
	 viewBox="0 0 640 480" style="enable-background:new 0 0 640 480;" xml:space="preserve">
<path id="Forma_1" d="M610.6,209.2c-11.6-4.1-92.2-21.5-92.2-21.5s-149.4-84.9-167.3-84.9H210.2c-30,0-55.1,22.9-84.2,49.4
	c-14.5,13.6-29.7,26.4-45.5,38.4l-62,8.3c-9.2,2.9-15.4,11.4-15.5,21V291c0,12.2,9.9,22.2,22.1,22.2c0.1,0,0.1,0,0.2,0h42.7
	c3.5,38.5,37.5,66.8,76,63.3c33.6-3.1,60.3-29.7,63.3-63.3h203.8c3.4,38.5,37.4,66.9,75.9,63.5c33.7-3,60.5-29.7,63.5-63.5h35.1
	c18.4,3.1,36.6-6.4,44.8-23.1C638.8,261.7,632.8,216.4,610.6,209.2z M137.5,343.3c-20-0.1-36.1-16.3-36-36.2
	c0.1-20,16.3-36.1,36.2-36c20,0.1,36.1,16.3,36,36.2c0,0,0,0,0,0C173.6,327.2,157.4,343.3,137.5,343.3z M272,187.7H150.5
	c8.8-6.9,16.9-14.3,24.4-21.2c14.4-17.6,34.6-29.5,57-33.4H272L272,187.7L272,187.7L272,187.7z M301.6,133.1h35.3
	c16.7,0,84.7,39.4,110.2,54.6H301.7L301.6,133.1L301.6,133.1L301.6,133.1z M480.6,343.3c-20-0.1-36.1-16.3-36-36.2
	c0.1-20,16.3-36.1,36.2-36c20,0.1,36.1,16.3,36,36.2c0,0,0,0,0,0c-0.1,19.9-16.2,36-36.1,36H480.6z"/>
</svg>
