<?xml version="1.0" encoding="utf-8"?>
<!-- Generator: Adobe Illustrator 21.0.0, SVG Export Plug-In . SVG Version: 6.00 Build 0)  -->
<svg version="1.1" id="Layer_1" xmlns="http://www.w3.org/2000/svg" xmlns:xlink="http://www.w3.org/1999/xlink" x="0px" y="0px"
	 width="320px" height="280px" viewBox="0 0 320 280" style="enable-background:new 0 0 320 280;" xml:space="preserve">
<g transform="translate(0.000000,280.000000) scale(0.100000,-0.100000)">
	<path d="M1557.5,2555.2c-17.4-3.3-42.3-14.1-54.7-23.2c-24.9-17.4-52.2-64.6-689.6-1160.3C221.5,353.9,273.7,447.6,269.5,392.1
		c-4.1-58,7.5-89.5,45.6-122.7l28.2-24.9h1250.6h1249.8l26.5,21.5c36.5,31.5,49.7,62.2,49.7,117.7v48.1L2315.8,1472
		c-523,900.1-608.3,1042.6-635.7,1061.7C1642.8,2558.5,1603.9,2566,1557.5,2555.2z M2171.6,1389.9L2746,406.2l-576-2.5
		c-316.6-0.8-835.4-0.8-1152,0l-576,2.5l574.4,983.8c314.9,541.2,575.2,984.6,577.7,984.6
		C1596.4,2374.5,1856.7,1931.1,2171.6,1389.9z"/>
	<path d="M1532.6,1789.4l-21.5-22.4v-370.5v-370.5l21.5-22.4c31.5-30.7,91.2-30.7,122.7,0l21.5,22.4v370.5V1767l-21.5,22.4
		c-17.4,17.4-29.8,21.5-61.3,21.5S1550,1806.8,1532.6,1789.4z"/>
	<path d="M1532.6,794.9c-20.7-20.7-21.5-26.5-21.5-102.8s0.8-82.1,21.5-102.8c31.5-30.7,91.2-30.7,122.7,0
		c20.7,20.7,21.5,26.5,21.5,102.8s-0.8,82.1-21.5,102.8c-17.4,17.4-29.8,21.5-61.3,21.5S1550,812.3,1532.6,794.9z"/>
</g>
</svg>
