<?xml version="1.0" standalone="no"?>
<!DOCTYPE svg PUBLIC "-//W3C//DTD SVG 20010904//EN"
 "http://www.w3.org/TR/2001/REC-SVG-20010904/DTD/svg10.dtd">
<svg version="1.0" xmlns="http://www.w3.org/2000/svg"
 width="207.000000pt" height="209.000000pt" viewBox="0 0 207.000000 209.000000"
 preserveAspectRatio="xMidYMid meet">
<metadata>
Created by potrace 1.15, written by Peter Selinger 2001-2017
</metadata>
<g transform="translate(0.000000,209.000000) scale(0.100000,-0.100000)"
fill="#000000" stroke="none">
<path d="M854 2074 c-398 -66 -724 -376 -827 -784 -30 -120 -30 -379 1 -490
74 -274 222 -485 440 -628 105 -69 206 -113 329 -144 126 -31 350 -31 476 0
384 96 661 373 769 772 31 111 31 370 1 490 -137 542 -643 876 -1189 784z
m421 -159 c304 -89 528 -313 622 -622 24 -79 26 -105 27 -243 1 -133 -3 -166
-22 -235 -73 -255 -248 -468 -477 -580 -141 -69 -224 -88 -390 -88 -166 0
-249 19 -390 88 -230 112 -407 329 -477 580 -32 118 -32 347 0 459 102 354
372 601 729 666 91 17 279 4 378 -25z"/>
<path d="M1168 1087 l-328 -332 -133 139 c-93 97 -138 138 -149 134 -8 -4 -32
-27 -53 -53 l-38 -46 169 -170 c154 -155 172 -169 204 -169 33 0 58 23 400
365 l365 365 -50 50 c-27 27 -52 50 -55 49 -3 0 -152 -150 -332 -332z"/>
</g>
</svg>
