<?xml version="1.0" standalone="no"?>
<!DOCTYPE svg PUBLIC "-//W3C//DTD SVG 20010904//EN"
 "http://www.w3.org/TR/2001/REC-SVG-20010904/DTD/svg10.dtd">
<svg version="1.0" xmlns="http://www.w3.org/2000/svg"
 width="211.000000pt" height="211.000000pt" viewBox="0 0 211.000000 211.000000"
 preserveAspectRatio="xMidYMid meet">
<metadata>
Created by potrace 1.15, written by Peter Selinger 2001-2017
</metadata>
<g transform="translate(0.000000,211.000000) scale(0.100000,-0.100000)"
fill="#000000" stroke="none">
<path d="M867 2095 c-409 -78 -727 -372 -835 -774 -23 -85 -26 -115 -26 -266
0 -151 3 -181 26 -266 100 -372 385 -657 756 -757 87 -23 115 -26 267 -26 152
0 180 3 267 26 371 100 656 385 756 757 23 85 26 115 26 266 0 151 -3 181 -26
266 -100 372 -388 660 -754 755 -126 33 -337 41 -457 19z m-144 -469 c55 -23
81 -65 112 -180 27 -103 27 -107 11 -149 -9 -24 -32 -58 -50 -76 -34 -33 -34
-34 -20 -73 60 -170 202 -312 372 -372 39 -14 40 -14 73 20 18 18 52 41 76 50
42 16 46 16 151 -11 91 -24 113 -34 144 -65 39 -38 55 -90 43 -137 -3 -14 -35
-56 -70 -92 l-64 -66 -98 1 c-478 5 -900 424 -930 921 l-6 91 54 58 c88 93
131 110 202 80z"/>
</g>
</svg>
