<?xml version="1.0" standalone="no"?>
<!DOCTYPE svg PUBLIC "-//W3C//DTD SVG 20010904//EN"
 "http://www.w3.org/TR/2001/REC-SVG-20010904/DTD/svg10.dtd">
<svg version="1.0" xmlns="http://www.w3.org/2000/svg"
 width="200.000000pt" height="200.000000pt" viewBox="0 0 200.000000 200.000000"
 preserveAspectRatio="xMidYMid meet">
<metadata>
Created by potrace 1.15, written by Peter Selinger 2001-2017
</metadata>
<g transform="translate(0.000000,200.000000) scale(0.100000,-0.100000)"
fill="#000000" stroke="none">
<path d="M800 1986 c-306 -64 -563 -263 -700 -541 -79 -159 -95 -236 -95 -445
0 -209 16 -286 95 -445 97 -197 258 -358 455 -455 159 -79 236 -95 445 -95
209 0 286 16 445 95 197 97 358 258 455 455 79 159 95 236 95 445 0 209 -16
286 -95 445 -125 253 -367 453 -635 526 -102 27 -364 36 -465 15z m407 -518
c22 -15 51 -44 64 -65 23 -36 24 -47 24 -203 0 -156 -1 -167 -24 -203 -40 -65
-89 -90 -187 -95 l-84 -5 0 -98 0 -99 -100 0 -100 0 0 110 c0 129 12 162 63
181 24 8 38 22 46 46 16 44 55 63 131 63 l60 0 0 60 c0 71 -15 107 -51 126
-57 29 -120 6 -140 -51 l-13 -35 -98 0 -98 0 0 63 c0 34 5 79 11 100 13 47 76
113 121 126 18 6 101 9 184 8 145 -2 152 -3 191 -29z m-258 -882 c67 -35 65
-143 -4 -174 -91 -41 -179 51 -131 137 26 47 84 63 135 37z"/>
</g>
</svg>
