<?xml version="1.0" standalone="no"?>
<!DOCTYPE svg PUBLIC "-//W3C//DTD SVG 20010904//EN"
 "http://www.w3.org/TR/2001/REC-SVG-20010904/DTD/svg10.dtd">
<svg version="1.0" xmlns="http://www.w3.org/2000/svg"
 width="160.000000pt" height="160.000000pt" viewBox="0 0 160.000000 160.000000"
 preserveAspectRatio="xMidYMid meet">
<metadata>
Created by potrace 1.15, written by Peter Selinger 2001-2017
</metadata>
<g transform="translate(0.000000,160.000000) scale(0.100000,-0.100000)"
fill="#000000" stroke="none">
<path d="M600 1579 c-286 -74 -507 -297 -580 -583 -28 -109 -28 -283 0 -392
73 -288 296 -511 584 -584 109 -28 283 -28 392 0 288 73 511 296 584 584 28
109 28 283 0 392 -59 230 -217 426 -425 525 -121 59 -216 79 -359 78 -86 0
-143 -6 -196 -20z m265 -374 c32 -93 59 -171 60 -173 2 -2 85 -6 186 -10 l184
-7 -146 -119 c-146 -118 -147 -119 -138 -150 65 -224 90 -318 87 -326 -2 -6
-68 37 -148 95 -80 58 -147 105 -150 105 -3 0 -70 -47 -150 -105 -83 -61 -146
-100 -148 -93 -1 7 20 90 47 183 l49 170 -21 18 c-12 10 -78 64 -147 120
l-125 102 150 6 c83 4 166 7 185 8 l36 1 59 180 c33 99 62 176 66 172 3 -4 32
-83 64 -177z"/>
</g>
</svg>
