<?xml version="1.0" standalone="no"?>
<!DOCTYPE svg PUBLIC "-//W3C//DTD SVG 20010904//EN"
 "http://www.w3.org/TR/2001/REC-SVG-20010904/DTD/svg10.dtd">
<svg version="1.0" xmlns="http://www.w3.org/2000/svg"
 width="200.000000pt" height="190.000000pt" viewBox="0 0 200.000000 190.000000"
 preserveAspectRatio="xMidYMid meet">
<metadata>
Created by potrace 1.15, written by Peter Selinger 2001-2017
</metadata>
<g transform="translate(0.000000,190.000000) scale(0.100000,-0.100000)"
fill="#000000" stroke="none">
<path d="M12 1888 c-17 -17 -17 -1859 0 -1876 17 -17 1959 -17 1976 0 9 9 12
145 12 549 0 475 -2 539 -16 553 -14 14 -70 16 -465 16 l-449 0 0 363 c0 312
-2 366 -16 385 l-15 22 -508 0 c-381 0 -510 -3 -519 -12z m918 -938 l0 -820
-165 0 -165 0 0 95 c0 107 -14 135 -69 135 -52 0 -71 -38 -71 -141 l0 -89
-165 0 -165 0 0 820 0 820 400 0 400 0 0 -820z m940 -385 l0 -435 -165 0 -165
0 0 89 c0 103 -19 141 -71 141 -55 0 -69 -28 -69 -135 l0 -95 -165 0 -165 0 0
435 0 435 400 0 400 0 0 -435z"/>
<path d="M332 1504 c-19 -13 -22 -24 -22 -88 0 -83 15 -106 67 -106 48 0 63
26 63 108 0 62 -3 73 -22 86 -12 9 -32 16 -43 16 -11 0 -31 -7 -43 -16z"/>
<path d="M640 1500 c-26 -26 -28 -133 -4 -168 18 -26 74 -30 98 -7 20 20 30
76 23 123 -11 65 -75 94 -117 52z"/>
<path d="M327 1112 c-13 -14 -17 -38 -17 -90 0 -62 3 -73 22 -86 12 -9 32 -16
43 -16 11 0 31 7 43 16 19 13 22 24 22 88 0 58 -4 76 -18 89 -25 22 -75 21
-95 -1z"/>
<path d="M637 1112 c-26 -28 -24 -145 3 -172 42 -42 106 -13 117 52 7 47 -3
103 -23 123 -21 21 -77 19 -97 -3z"/>
<path d="M350 743 c-30 -11 -40 -37 -40 -104 0 -78 14 -99 65 -99 51 0 65 21
65 99 0 38 -5 74 -12 84 -14 18 -55 29 -78 20z"/>
<path d="M646 729 c-23 -18 -26 -27 -26 -88 0 -79 16 -101 72 -101 51 0 63 20
63 102 0 61 -3 72 -24 89 -30 24 -52 24 -85 -2z"/>
<path d="M1272 734 c-20 -13 -22 -24 -22 -94 0 -87 9 -100 68 -100 46 0 62 27
62 103 0 59 -3 68 -26 86 -32 25 -52 26 -82 5z"/>
<path d="M1600 743 c-30 -11 -40 -37 -40 -104 0 -78 14 -99 65 -99 51 0 65 21
65 99 0 38 -5 74 -12 84 -14 18 -55 29 -78 20z"/>
</g>
</svg>
