<?xml version="1.0" encoding="utf-8"?>
<!-- Generator: Adobe Illustrator 21.0.0, SVG Export Plug-In . SVG Version: 6.00 Build 0)  -->
<svg version="1.1" id="Layer_1" xmlns="http://www.w3.org/2000/svg" xmlns:xlink="http://www.w3.org/1999/xlink" x="0px" y="0px"
	 viewBox="0 0 841.9 595.3" style="enable-background:new 0 0 841.9 595.3;" xml:space="preserve">
<g>
	<path d="M407.5,584.5c-154.9,0-280.9-126-280.9-280.9s126-280.9,280.9-280.9s280.9,126,280.9,280.9S562.4,584.5,407.5,584.5z
		 M407.5,73.5c-126.9,0-230.1,103.2-230.1,230.1c0,126.9,103.2,230.1,230.1,230.1c126.9,0,230.1-103.2,230.1-230.1
		C637.6,176.7,534.4,73.5,407.5,73.5z"/>
</g>
<g>
	<path d="M407.5,329H285.9c-14,0-25.4-11.4-25.4-25.4c0-14,11.4-25.4,25.4-25.4h96.1V134.7c0-14,11.4-25.4,25.4-25.4
		c14,0,25.4,11.4,25.4,25.4v168.9C432.9,317.7,421.5,329,407.5,329z"/>
</g>
</svg>
