<?xml version="1.0" encoding="utf-8"?>
<!-- Generator: Adobe Illustrator 21.0.0, SVG Export Plug-In . SVG Version: 6.00 Build 0)  -->
<svg version="1.1" id="Layer_1" xmlns="http://www.w3.org/2000/svg" xmlns:xlink="http://www.w3.org/1999/xlink" x="0px" y="0px"
	 viewBox="0 0 139 139" style="enable-background:new 0 0 139 139;" xml:space="preserve">
<g id="Layer_2">
	<g transform="translate(0.000000,139.000000) scale(0.100000,-0.100000)">
		<path d="M319.3,1059.9c-20.2-20.2-36.8-39.8-36.8-42.7c0-3.6,73.6-79.5,163.2-169.1l163.2-163.2L445.7,521.7
			c-89.6-89.6-163.2-166.1-163.2-169.1c0-7.7,72.4-80.1,80.1-80.1c3.6,0,79.5,73.6,169.1,163.2l163.2,163.2l163.2-163.2
			c89.6-89.6,166.1-163.2,169.1-163.2c7.7,0,80.1,72.4,80.1,80.1c0,3.6-73.6,79.5-163.2,169.1L781,684.9l163.2,163.2
			c89.6,89.6,163.2,166.1,163.2,169.1c0,7.7-72.4,80.1-80.1,80.1c-3.6,0-79.5-73.6-169.1-163.2L694.9,771L531.7,934.1
			c-89.6,89.6-166.1,163.2-169.1,163.2C359.1,1097.3,339.5,1080.7,319.3,1059.9z"/>
	</g>
</g>
</svg>
