<?xml version="1.0" standalone="no"?>
<!DOCTYPE svg PUBLIC "-//W3C//DTD SVG 20010904//EN"
 "http://www.w3.org/TR/2001/REC-SVG-20010904/DTD/svg10.dtd">
<svg version="1.0" xmlns="http://www.w3.org/2000/svg"
 width="180.000000pt" height="180.000000pt" viewBox="0 0 180.000000 180.000000"
 preserveAspectRatio="xMidYMid meet">
<metadata>
Created by potrace 1.15, written by Peter Selinger 2001-2017
</metadata>
<g transform="translate(0.000000,180.000000) scale(0.100000,-0.100000)"
fill="#000000" stroke="none">
<path d="M274 1790 c-107 -22 -193 -91 -240 -193 l-29 -62 4 -510 c4 -589 2
-577 95 -671 84 -83 126 -94 361 -94 l194 0 62 -92 c34 -51 75 -110 92 -131
l29 -38 71 3 71 3 87 125 87 125 213 5 c208 5 216 6 264 32 58 30 130 103 151
153 11 28 14 130 14 578 l0 543 -26 51 c-31 63 -89 117 -163 152 l-56 26 -620
2 c-341 1 -638 -2 -661 -7z m807 -316 c105 -34 179 -138 179 -251 0 -110 -40
-175 -154 -252 -79 -54 -106 -93 -106 -155 l0 -36 -61 0 -62 0 6 57 c9 88 41
139 132 208 97 74 115 102 115 176 0 101 -63 159 -170 159 -110 0 -175 -69
-175 -184 l0 -58 -54 6 c-29 4 -58 9 -62 12 -16 10 -9 102 11 156 20 54 80
122 130 149 72 38 178 43 271 13z m-106 -826 c82 -37 55 -158 -35 -158 -87 0
-117 114 -41 155 32 18 43 18 76 3z"/>
</g>
</svg>
