<?xml version="1.0" standalone="no"?>
<!DOCTYPE svg PUBLIC "-//W3C//DTD SVG 20010904//EN"
 "http://www.w3.org/TR/2001/REC-SVG-20010904/DTD/svg10.dtd">
<svg version="1.0" xmlns="http://www.w3.org/2000/svg"
 width="160.000000pt" height="160.000000pt" viewBox="0 0 160.000000 160.000000"
 preserveAspectRatio="xMidYMid meet">
<metadata>
Created by potrace 1.15, written by Peter Selinger 2001-2017
</metadata>
<g transform="translate(0.000000,160.000000) scale(0.100000,-0.100000)"
fill="#000000" stroke="none">
<path d="M105 1583 c-44 -23 -65 -44 -86 -86 -19 -35 -19 -60 -17 -505 l3
-468 24 -36 c32 -47 81 -79 130 -85 l41 -6 0 -198 c0 -110 2 -199 5 -199 3 0
118 90 255 200 l249 199 384 3 383 3 36 24 c19 13 46 40 59 59 l24 36 3 468
c2 418 1 471 -14 500 -23 46 -44 67 -86 89 -35 18 -69 19 -700 19 -585 -1
-667 -3 -693 -17z m330 -497 c39 -17 55 -42 55 -89 0 -70 -83 -111 -145 -71
-56 37 -48 125 15 156 42 21 33 21 75 4z m400 0 c39 -17 55 -42 55 -89 0 -70
-83 -111 -145 -71 -56 37 -48 125 15 156 42 21 33 21 75 4z m400 0 c39 -17 55
-42 55 -89 0 -70 -83 -111 -145 -71 -56 37 -48 125 15 156 42 21 33 21 75 4z"/>
</g>
</svg>
