<?xml version="1.0" standalone="no"?>
<!DOCTYPE svg PUBLIC "-//W3C//DTD SVG 20010904//EN"
 "http://www.w3.org/TR/2001/REC-SVG-20010904/DTD/svg10.dtd">
<svg version="1.0" xmlns="http://www.w3.org/2000/svg"
 width="250.000000pt" height="270.000000pt" viewBox="0 0 250.000000 270.000000"
 preserveAspectRatio="xMidYMid meet">
<metadata>
Created by potrace 1.15, written by Peter Selinger 2001-2017
</metadata>
<g transform="translate(0.000000,270.000000) scale(0.100000,-0.100000)"
fill="#000000" stroke="none">
<path d="M142 2674 c-57 -28 -96 -69 -123 -129 -18 -38 -19 -91 -19 -945 0
-854 1 -907 19 -945 27 -60 66 -101 123 -129 52 -26 52 -26 314 -26 259 0 263
0 278 -22 8 -12 117 -124 242 -250 l227 -228 50 0 50 0 245 250 244 250 257 0
c256 0 257 0 309 26 57 28 96 69 123 129 18 38 19 91 19 946 l0 905 -26 52
c-28 57 -69 96 -129 123 -38 18 -96 19 -1096 19 l-1055 0 -52 -26z m2139 -203
c18 -22 19 -51 19 -871 0 -820 -1 -849 -19 -871 l-19 -24 -283 -3 -283 -3
-224 -222 -224 -222 -216 220 -216 220 -289 5 c-289 5 -289 5 -308 29 -18 22
-19 51 -19 868 0 578 3 851 11 864 6 11 20 24 32 29 12 5 457 8 1020 7 l999
-2 19 -24z"/>
<path d="M1176 2174 l-26 -27 0 -223 0 -224 -218 0 c-242 0 -251 -2 -272 -65
-9 -26 -9 -44 0 -70 21 -63 30 -65 272 -65 l218 0 0 -224 0 -223 26 -27 c38
-37 110 -37 148 0 l26 27 0 223 0 224 220 0 c220 0 221 0 245 24 45 45 45 107
0 152 -24 24 -25 24 -245 24 l-220 0 0 224 0 223 -26 27 c-21 21 -36 26 -74
26 -38 0 -53 -5 -74 -26z"/>
</g>
</svg>
