<?xml version="1.0" encoding="utf-8"?>
<!-- Generator: Adobe Illustrator 21.0.0, SVG Export Plug-In . SVG Version: 6.00 Build 0)  -->
<svg version="1.1" id="Layer_1" xmlns="http://www.w3.org/2000/svg" xmlns:xlink="http://www.w3.org/1999/xlink" x="0px" y="0px"
	 viewBox="0 0 140 151" style="enable-background:new 0 0 140 151;" xml:space="preserve">
<g transform="translate(0.000000,151.000000) scale(0.100000,-0.100000)">
	<path d="M267.7,1292.6c-18.1-9.8-43-32.5-55.9-49.8l-22.6-32.5l-2.3-329.2c-1.5-181.9,0-341.2,2.3-354.8c6-31.7,52.1-83,90.6-100.4
		c25.7-12.1,51.3-14.3,168.4-14.3h137.4V290.8c0-76.3,3-120.8,7.5-120.8s116.3,54.4,249.1,120.8s249.1,120.8,258.2,120.8
		c49.8,0.8,129.1,66.4,138.2,114.8c2.3,13.6,3.8,172.9,2.3,354.8l-2.3,329.2l-22.6,32.5c-12.1,17.4-37.7,40-55.9,49.8l-33.2,17.4
		h-413h-413L267.7,1292.6z"/>
</g>
</svg>
