<?xml version="1.0" standalone="no"?>
<!DOCTYPE svg PUBLIC "-//W3C//DTD SVG 20010904//EN"
 "http://www.w3.org/TR/2001/REC-SVG-20010904/DTD/svg10.dtd">
<svg version="1.0" xmlns="http://www.w3.org/2000/svg"
 width="140.000000pt" height="151.000000pt" viewBox="0 0 140.000000 151.000000"
 preserveAspectRatio="xMidYMid meet">
<metadata>
Created by potrace 1.15, written by Peter Selinger 2001-2017
</metadata>
<g transform="translate(0.000000,151.000000) scale(0.100000,-0.100000)"
fill="#000000" stroke="none">
<path d="M109 1487 c-24 -13 -57 -43 -74 -66 l-30 -43 -3 -436 c-2 -241 0
-452 3 -470 8 -42 69 -110 120 -133 34 -16 68 -19 223 -19 l182 0 0 -160 c0
-101 4 -160 10 -160 6 0 154 72 330 160 176 88 330 160 342 160 66 1 171 88
183 152 3 18 5 229 3 470 l-3 436 -30 43 c-16 23 -50 53 -74 66 l-44 23 -547
0 -547 0 -44 -23z"/>
</g>
</svg>
