<?xml version="1.0" standalone="no"?>
<!DOCTYPE svg PUBLIC "-//W3C//DTD SVG 20010904//EN"
 "http://www.w3.org/TR/2001/REC-SVG-20010904/DTD/svg10.dtd">
<svg version="1.0" xmlns="http://www.w3.org/2000/svg"
 width="280.000000pt" height="190.000000pt" viewBox="0 0 280.000000 190.000000"
 preserveAspectRatio="xMidYMid meet">
<metadata>
Created by potrace 1.15, written by Peter Selinger 2001-2017
</metadata>
<g transform="translate(0.000000,190.000000) scale(0.100000,-0.100000)"
fill="#000000" stroke="none">
<path d="M175 1876 c-63 -30 -117 -86 -146 -151 -19 -42 -23 -69 -23 -163 -1
-101 1 -115 18 -128 17 -12 218 -14 1382 -14 749 0 1369 3 1378 6 14 5 16 28
16 145 0 118 -3 146 -19 177 -26 50 -87 107 -141 131 -44 20 -60 21 -1230 21
l-1185 0 -50 -24z"/>
<path d="M19 1173 c-11 -13 -14 -101 -14 -477 0 -429 1 -464 19 -510 25 -65
88 -133 151 -162 l50 -24 1185 0 c1170 0 1186 1 1230 21 54 24 115 81 141 131
18 36 19 61 17 535 l-3 498 -1381 3 c-1276 2 -1383 1 -1395 -15z m2062 -369
c25 -12 33 -13 57 -1 46 24 95 28 147 12 202 -60 228 -331 43 -426 -61 -31
-117 -35 -172 -10 -45 20 -49 20 -74 3 -38 -25 -135 -22 -188 6 -114 59 -157
197 -99 312 55 108 186 156 286 104z m-1161 -114 c24 -24 25 -38 4 -68 -15
-22 -18 -22 -274 -22 l-260 0 -15 24 c-17 26 -8 69 17 79 7 3 124 6 261 6 234
1 248 0 267 -19z m354 -242 c21 -30 20 -44 -4 -68 -19 -19 -33 -20 -443 -20
-460 0 -459 0 -459 55 0 55 -1 55 463 55 l428 0 15 -22z"/>
</g>
</svg>
