<?xml version="1.0" standalone="no"?>
<!DOCTYPE svg PUBLIC "-//W3C//DTD SVG 20010904//EN"
 "http://www.w3.org/TR/2001/REC-SVG-20010904/DTD/svg10.dtd">
<svg version="1.0" xmlns="http://www.w3.org/2000/svg"
 width="210.000000pt" height="200.000000pt" viewBox="0 0 210.000000 200.000000"
 preserveAspectRatio="xMidYMid meet">
<metadata>
Created by potrace 1.15, written by Peter Selinger 2001-2017
</metadata>
<g transform="translate(0.000000,200.000000) scale(0.100000,-0.100000)"
fill="#000000" stroke="none">
<path d="M336 1962 l-36 -38 106 -104 c58 -58 182 -185 276 -283 l171 -178
-26 -27 -27 -26 -32 30 c-18 17 -132 122 -253 234 -121 112 -237 219 -257 239
l-38 35 -35 -34 c-19 -19 -35 -37 -35 -41 0 -5 118 -139 261 -299 l261 -292
-27 -28 -27 -28 -278 281 -278 282 -31 -29 c-17 -17 -31 -35 -31 -41 0 -14
233 -334 335 -460 40 -49 104 -120 142 -156 66 -64 170 -139 193 -139 17 0
207 188 257 255 25 33 68 106 96 162 l50 103 -29 42 c-66 98 -247 257 -570
500 l-101 77 -37 -37z"/>
<path d="M1745 1950 c-291 -63 -559 -337 -625 -639 -31 -140 -56 -201 -119
-284 -20 -27 -196 -192 -391 -367 -195 -175 -367 -331 -382 -346 -58 -62 -74
-154 -39 -230 31 -69 60 -84 160 -84 74 0 91 3 118 22 18 13 161 174 319 358
157 184 316 365 352 402 84 86 167 130 317 168 182 47 313 124 436 258 134
146 209 313 208 462 0 135 -38 209 -131 256 -56 28 -155 39 -223 24z"/>
<path d="M1264 802 c-21 -16 -64 -51 -94 -79 l-55 -51 60 -63 c33 -35 156
-180 274 -321 141 -169 224 -262 246 -272 48 -23 152 -21 192 4 42 25 73 87
73 144 0 96 -10 108 -324 380 -160 139 -297 260 -305 269 -18 22 -21 22 -67
-11z"/>
</g>
</svg>
