<?xml version="1.0" standalone="no"?>
<!DOCTYPE svg PUBLIC "-//W3C//DTD SVG 20010904//EN"
 "http://www.w3.org/TR/2001/REC-SVG-20010904/DTD/svg10.dtd">
<svg version="1.0" xmlns="http://www.w3.org/2000/svg"
 width="272.000000pt" height="256.000000pt" viewBox="0 0 272.000000 256.000000"
 preserveAspectRatio="xMidYMid meet">
<metadata>
Created by potrace 1.15, written by Peter Selinger 2001-2017
</metadata>
<g transform="translate(0.000000,256.000000) scale(0.100000,-0.100000)"
fill="#000000" stroke="none">
<path d="M1803 2530 c-153 -88 -156 -315 -7 -410 118 -74 284 -29 343 93 15
31 21 63 21 113 0 61 -4 77 -32 124 -45 74 -112 110 -207 110 -55 0 -75 -5
-118 -30z"/>
<path d="M1454 2166 c-48 -21 -689 -641 -709 -687 -21 -46 -17 -134 8 -173 10
-14 106 -105 215 -201 l197 -176 5 -332 c6 -375 8 -385 83 -435 32 -22 52 -27
102 -27 78 0 132 32 164 97 20 43 21 57 21 426 0 324 -2 388 -16 421 -11 29
-56 75 -175 181 -87 78 -159 145 -159 149 0 4 69 74 154 155 l155 147 84 -129
c115 -176 110 -173 346 -183 204 -8 242 -3 292 38 41 34 59 79 59 143 0 57
-15 93 -57 132 -40 38 -73 48 -157 48 -40 0 -94 3 -120 6 l-46 7 -110 167
c-115 175 -147 212 -193 229 -38 15 -105 13 -143 -3z"/>
<path d="M460 1120 c-211 -37 -390 -201 -445 -410 -24 -91 -20 -238 10 -327
81 -239 281 -383 534 -383 165 0 281 48 398 165 123 122 169 248 161 430 -6
121 -36 206 -104 302 -122 171 -343 260 -554 223z m228 -270 c68 -30 144 -111
168 -182 54 -158 -19 -326 -171 -394 -73 -33 -124 -38 -194 -20 -104 27 -181
91 -224 185 -29 66 -29 179 1 246 38 83 121 156 212 186 43 14 151 3 208 -21z"/>
<path d="M2040 1114 c-199 -42 -359 -190 -419 -388 -25 -83 -28 -224 -6 -309
34 -130 128 -260 242 -333 175 -113 430 -113 606 0 115 73 208 201 242 332 19
74 19 222 0 294 -54 203 -222 361 -430 405 -86 18 -150 18 -235 -1z m247 -264
c62 -26 135 -101 166 -168 15 -33 21 -67 21 -117 0 -230 -234 -386 -439 -291
-98 45 -154 112 -181 217 -27 105 -1 199 77 284 94 101 229 130 356 75z"/>
</g>
</svg>
