<?xml version="1.0" standalone="no"?>
<!DOCTYPE svg PUBLIC "-//W3C//DTD SVG 20010904//EN"
 "http://www.w3.org/TR/2001/REC-SVG-20010904/DTD/svg10.dtd">
<svg version="1.0" xmlns="http://www.w3.org/2000/svg"
 width="220.000000pt" height="270.000000pt" viewBox="0 0 220.000000 270.000000"
 preserveAspectRatio="xMidYMid meet">
<metadata>
Created by potrace 1.15, written by Peter Selinger 2001-2017
</metadata>
<g transform="translate(0.000000,270.000000) scale(0.100000,-0.100000)"
fill="#000000" stroke="none">
<path d="M1918 2675 c-38 -38 -39 -68 -8 -213 l28 -132 -42 26 c-113 70 -264
130 -410 162 -102 22 -368 24 -471 3 -482 -95 -854 -451 -982 -939 -35 -134
-44 -394 -18 -539 97 -541 517 -956 1044 -1034 119 -17 373 -7 478 20 108 27
237 79 332 135 95 56 238 171 269 216 54 80 5 170 -93 170 -27 0 -49 -13 -115
-71 -144 -124 -269 -191 -439 -236 -83 -22 -117 -26 -246 -26 -130 0 -163 3
-247 26 -191 51 -340 137 -478 276 -194 195 -295 424 -307 697 -11 245 45 447
184 656 54 83 169 200 256 262 84 60 230 129 332 156 99 27 319 38 421 21 130
-22 293 -85 388 -149 33 -23 45 -18 -128 -57 -144 -33 -166 -50 -166 -127 0
-55 27 -92 74 -104 25 -6 506 94 569 118 39 15 57 45 57 95 0 40 -89 479 -111
550 -13 41 -48 63 -102 63 -34 0 -50 -6 -69 -25z"/>
<path d="M675 1396 c-88 -39 -122 -153 -72 -240 63 -112 231 -108 286 8 27 55
26 101 -1 156 -39 77 -134 111 -213 76z"/>
<path d="M1180 1399 c-63 -25 -100 -85 -100 -161 0 -194 269 -226 320 -38 35
128 -97 248 -220 199z"/>
<path d="M1664 1392 c-104 -49 -123 -196 -35 -275 44 -40 94 -52 150 -37 80
21 121 78 121 168 0 120 -125 196 -236 144z"/>
</g>
</svg>
