<?xml version="1.0" encoding="utf-8"?>
<!-- Generator: Adobe Illustrator 21.0.0, SVG Export Plug-In . SVG Version: 6.00 Build 0)  -->
<svg version="1.1" id="Layer_1" xmlns="http://www.w3.org/2000/svg" xmlns:xlink="http://www.w3.org/1999/xlink" x="0px" y="0px"
	 viewBox="0 0 841.9 595.3" style="enable-background:new 0 0 841.9 595.3;" xml:space="preserve">
<g>
	<path d="M608.4,204c-54.8,0-99.4-44.6-99.4-99.4s44.6-99.4,99.4-99.4c54.8,0,99.4,44.6,99.4,99.4S663.2,204,608.4,204z M608.4,59.7
		c-24.7,0-44.8,20.1-44.8,44.8s20.1,44.8,44.8,44.8c24.7,0,44.8-20.1,44.8-44.8S633.1,59.7,608.4,59.7z"/>
</g>
<g>
	<path d="M253.3,590.3c-54.8,0-99.4-44.6-99.4-99.4s44.6-99.4,99.4-99.4s99.4,44.6,99.4,99.4S308.1,590.3,253.3,590.3z M253.3,446.1
		c-24.7,0-44.8,20.1-44.8,44.8c0,24.7,20.1,44.8,44.8,44.8c24.7,0,44.8-20.1,44.8-44.8C298.1,466.2,277.9,446.1,253.3,446.1z"/>
</g>
<g>
	<path d="M582.4,524.3H403.1c-15.1,0-27.3-12.2-27.3-27.3c0-15.1,12.2-27.3,27.3-27.3h179.3c39.1,0,70.8-31.8,70.8-70.8
		c0-39.1-31.8-70.8-70.8-70.8H279.3c-69.2,0-125.4-56.3-125.4-125.4S210.1,77.2,279.3,77.2h184.5c15.1,0,27.3,12.2,27.3,27.3
		s-12.2,27.3-27.3,27.3H279.3c-39.1,0-70.8,31.8-70.8,70.8s31.8,70.8,70.8,70.8h303.1c69.2,0,125.4,56.3,125.4,125.4
		S651.5,524.3,582.4,524.3z"/>
</g>
</svg>
