<?xml version="1.0" standalone="no"?>
<!DOCTYPE svg PUBLIC "-//W3C//DTD SVG 20010904//EN"
 "http://www.w3.org/TR/2001/REC-SVG-20010904/DTD/svg10.dtd">
<svg version="1.0" xmlns="http://www.w3.org/2000/svg"
 width="300.000000pt" height="278.000000pt" viewBox="0 0 300.000000 278.000000"
 preserveAspectRatio="xMidYMid meet">
<metadata>
Created by potrace 1.15, written by Peter Selinger 2001-2017
</metadata>
<g transform="translate(0.000000,278.000000) scale(0.100000,-0.100000)"
fill="#000000" stroke="none">
<path d="M1448 2764 c-44 -23 -52 -49 -56 -191 -6 -172 3 -239 33 -269 44 -44
106 -44 151 1 24 24 24 27 24 215 0 112 -4 199 -10 211 -13 23 -61 49 -92 49
-13 -1 -35 -7 -50 -16z"/>
<path d="M446 2309 c-20 -23 -26 -42 -26 -75 0 -43 4 -50 82 -132 46 -48 90
-92 98 -98 41 -30 117 -20 142 19 44 67 28 111 -85 227 -86 89 -87 90 -136 90
-43 0 -53 -4 -75 -31z"/>
<path d="M2343 2250 c-113 -116 -129 -160 -85 -227 25 -39 101 -49 142 -19 8
6 52 50 98 98 78 82 82 89 82 132 0 33 -6 52 -26 75 -22 27 -32 31 -75 31 -49
0 -50 -1 -136 -90z"/>
<path d="M1327 2184 c-339 -61 -624 -325 -733 -679 l-28 -90 -4 -382 -3 -383
-110 0 c-109 0 -111 0 -140 -29 l-29 -29 0 -262 c0 -288 2 -298 62 -319 43
-15 2273 -15 2316 0 60 21 62 31 62 319 l0 262 -29 29 c-29 29 -31 29 -140 29
l-110 0 -3 383 -4 382 -28 90 c-148 482 -600 766 -1079 679z m347 -224 c263
-67 485 -300 542 -569 10 -49 14 -154 14 -403 l0 -338 -731 0 -730 0 4 368 c4
394 3 391 62 527 80 187 285 362 487 415 100 26 250 26 352 0z m836 -1630 l0
-110 -1010 0 -1010 0 0 110 0 110 1010 0 1010 0 0 -110z"/>
<path d="M26 1299 c-38 -45 -37 -110 3 -150 l29 -29 179 0 c199 0 213 4 239
66 18 42 9 87 -24 119 -25 25 -25 25 -212 25 l-188 0 -26 -31z"/>
<path d="M2548 1305 c-33 -32 -42 -77 -24 -119 26 -62 40 -66 239 -66 l179 0
29 29 c40 40 41 105 3 150 l-26 31 -188 0 c-187 0 -187 0 -212 -25z"/>
</g>
</svg>
