<?xml version="1.0" standalone="no"?>
<!DOCTYPE svg PUBLIC "-//W3C//DTD SVG 20010904//EN"
 "http://www.w3.org/TR/2001/REC-SVG-20010904/DTD/svg10.dtd">
<svg version="1.0" xmlns="http://www.w3.org/2000/svg"
 width="370.000000pt" height="288.000000pt" viewBox="0 0 370.000000 288.000000"
 preserveAspectRatio="xMidYMid meet">
<metadata>
Created by potrace 1.15, written by Peter Selinger 2001-2017
</metadata>
<g transform="translate(0.000000,288.000000) scale(0.100000,-0.100000)"
fill="#000000" stroke="none">
<path d="M812 2868 c-26 -13 -41 -45 -227 -459 l-128 -287 -136 -4 c-156 -5
-190 -17 -255 -88 -66 -74 -66 -70 -66 -469 l0 -359 28 -53 c31 -60 93 -113
150 -129 24 -6 272 -10 693 -10 705 0 699 0 769 51 38 29 78 86 90 130 5 19
37 212 70 429 43 272 60 410 56 444 -7 59 -43 124 -93 166 -64 52 -111 60
-349 60 l-212 0 -4 173 c-3 163 -5 175 -30 222 -34 65 -100 130 -165 161 -59
29 -155 40 -191 22z m147 -204 c54 -45 56 -54 61 -287 l5 -219 28 -24 28 -24
264 0 c284 0 306 -3 325 -50 16 -38 -101 -802 -129 -840 l-18 -25 -462 -3
-461 -2 0 405 0 404 136 303 c75 167 145 322 155 346 10 23 23 42 28 42 5 0
23 -12 40 -26z m-539 -1099 l0 -375 -97 0 c-86 0 -99 3 -120 22 l-23 21 0 329
0 329 25 24 c22 23 32 25 120 25 l95 0 0 -375z"/>
<path d="M2158 1816 c-75 -20 -141 -80 -168 -152 -17 -45 -130 -770 -130 -836
0 -32 6 -73 14 -92 21 -51 76 -107 131 -132 48 -23 60 -24 278 -24 l227 0 0
-155 c0 -131 3 -162 20 -209 43 -113 164 -202 290 -213 55 -5 61 -4 87 23 18
18 87 159 183 371 l155 342 111 1 c140 0 200 17 261 73 83 76 83 74 83 472 0
318 -2 354 -19 390 -24 53 -75 103 -131 129 -44 21 -59 21 -695 23 -501 1
-661 -1 -697 -11z m942 -567 l0 -400 -146 -322 c-81 -177 -151 -326 -156 -332
-12 -13 -55 12 -82 48 -19 26 -21 45 -26 244 l-5 215 -28 24 -28 24 -262 0
c-191 0 -269 4 -287 13 -53 27 -53 31 14 456 57 359 64 396 85 412 22 18 50
19 472 19 l449 0 0 -401z m393 387 c32 -24 37 -76 37 -351 0 -149 -4 -285 -10
-304 -15 -52 -33 -60 -142 -61 l-98 0 0 365 0 365 98 0 c66 -1 103 -5 115 -14z"/>
</g>
</svg>
