<?xml version="1.0" encoding="utf-8"?>
<!-- Generator: Adobe Illustrator 21.0.0, SVG Export Plug-In . SVG Version: 6.00 Build 0)  -->
<svg version="1.1" id="Layer_1" xmlns="http://www.w3.org/2000/svg" xmlns:xlink="http://www.w3.org/1999/xlink" x="0px" y="0px"
	 viewBox="0 0 400 400" style="enable-background:new 0 0 400 400;" xml:space="preserve">
<style type="text/css">
	.st0{fill:#262424;}
</style>
<g>
	<path class="st0" d="M232.3,213.5c-2.3,0-4.6-0.9-6.3-2.7l-27.8-29.9c-3.2-3.5-3-8.9,0.4-12.1c3.5-3.2,8.9-3,12.1,0.4l23.7,25.5
		l33.6-14.7c4.3-1.9,9.4,0.1,11.3,4.4c1.9,4.3-0.1,9.4-4.4,11.3l-39.2,17.1C234.6,213.3,233.5,213.5,232.3,213.5z"/>
</g>
<g>
	<path class="st0" d="M238.7,336c-0.7,0-1.3-0.1-2-0.2c-4.6-1.1-7.4-5.7-6.3-10.3l17.1-71.6c0.2-0.7,0.4-1.4,0.8-2l14.7-27.7v-66.3
		c0-4.7,3.8-8.6,8.6-8.6c4.7,0,8.6,3.8,8.6,8.6v68.4c0,1.4-0.3,2.8-1,4l-15.2,28.6L247,329.4C246.1,333.4,242.6,336,238.7,336z"/>
</g>
<g>
	<path class="st0" d="M305.7,336c-3.9,0-7.4-2.6-8.3-6.6L280.6,259l-16.5-28.5c-2.4-4.1-1-9.3,3.1-11.7c4.1-2.4,9.3-1,11.7,3.1
		l17.1,29.6c0.4,0.7,0.7,1.5,0.9,2.3l17.1,71.6c1.1,4.6-1.7,9.2-6.3,10.3C307,335.9,306.4,336,305.7,336z"/>
</g>
<g>
	<path class="st0" d="M271.7,166.4c-21.5,0-39-17.5-39-39s17.5-39,39-39s39,17.5,39,39S293.2,166.4,271.7,166.4z M271.7,105.5
		c-12.1,0-21.9,9.8-21.9,21.9s9.8,21.9,21.9,21.9s21.9-9.8,21.9-21.9S283.8,105.5,271.7,105.5z"/>
</g>
<g>
	<path class="st0" d="M320,261.9c-3.3,0-6.4-1.9-7.8-5l-16.4-36.1l-30-26.6c-3.5-3.1-3.9-8.5-0.7-12.1c3.1-3.5,8.5-3.9,12.1-0.7
		l31.4,27.8c0.9,0.8,1.6,1.8,2.1,2.9l17.1,37.8c1.9,4.3,0,9.4-4.3,11.3C322.4,261.7,321.2,261.9,320,261.9z"/>
</g>
<g>
	<path class="st0" d="M176.2,119.7H79.4c-4.7,0-8.6-3.8-8.6-8.6V77.6c0-4.7,3.8-8.6,8.6-8.6h96.9c4.7,0,8.6,3.8,8.6,8.6v33.6
		C184.8,115.9,181,119.7,176.2,119.7z M87.9,102.6h79.7V86.1H87.9V102.6z"/>
</g>
<g>
	<path class="st0" d="M176.2,184.6H79.4c-4.7,0-8.6-3.8-8.6-8.6v-33.6c0-4.7,3.8-8.6,8.6-8.6h96.9c4.7,0,8.6,3.8,8.6,8.6v33.6
		C184.8,180.8,181,184.6,176.2,184.6z M87.9,167.5h79.7v-16.5H87.9V167.5z"/>
</g>
<g>
	<path class="st0" d="M176.2,249.6H79.4c-4.7,0-8.6-3.8-8.6-8.6v-33.6c0-4.7,3.8-8.6,8.6-8.6h96.9c4.7,0,8.6,3.8,8.6,8.6V241
		C184.8,245.8,181,249.6,176.2,249.6z M87.9,232.5h79.7V216H87.9V232.5z"/>
</g>
</svg>
