<?xml version="1.0" standalone="no"?>
<!DOCTYPE svg PUBLIC "-//W3C//DTD SVG 20010904//EN"
 "http://www.w3.org/TR/2001/REC-SVG-20010904/DTD/svg10.dtd">
<svg version="1.0" xmlns="http://www.w3.org/2000/svg"
 width="472.000000pt" height="500.000000pt" viewBox="0 0 472.000000 500.000000"
 preserveAspectRatio="xMidYMid meet">
<metadata>
Created by potrace 1.15, written by Peter Selinger 2001-2017
</metadata>
<g transform="translate(0.000000,500.000000) scale(0.100000,-0.100000)"
fill="#000000" stroke="none">
<path d="M900 4993 c-49 -18 -50 -22 -50 -260 l0 -223 -177 0 c-200 0 -245 -8
-361 -65 -95 -47 -194 -145 -244 -240 -74 -143 -69 21 -66 -1970 l3 -1790 22
-59 c51 -135 156 -253 283 -320 134 -71 -16 -66 2050 -66 2071 0 1915 -5 2054
68 93 48 200 154 244 242 66 132 62 -2 62 1946 0 1968 6 1807 -68 1949 -50 95
-149 193 -244 240 -116 57 -161 65 -360 65 l-178 0 0 219 c0 275 5 264 -134
269 l-96 4 0 -246 0 -246 -1280 0 -1280 0 0 245 0 245 -82 -1 c-46 0 -90 -3
-98 -6z m-50 -928 c0 -210 1 -226 19 -244 27 -27 91 -43 154 -39 l52 3 3 253
2 252 1280 0 1280 0 2 -252 3 -253 52 -3 c63 -4 127 12 154 39 18 18 19 34 19
245 l0 226 163 -4 c138 -4 170 -8 220 -27 81 -32 168 -114 209 -199 l33 -67 3
-387 3 -388 -2141 0 -2141 0 3 388 3 387 27 57 c31 66 105 149 163 183 69 41
138 54 293 54 l142 1 0 -225z m3648 -2307 l-3 -1243 -31 -65 c-39 -83 -106
-150 -192 -192 l-67 -33 -1845 0 -1845 0 -67 33 c-86 42 -153 109 -192 192
l-31 65 -3 1243 -2 1242 2140 0 2140 0 -2 -1242z"/>
<path d="M961 2564 c-124 -33 -227 -121 -284 -241 -30 -64 -32 -75 -32 -178 0
-103 2 -114 32 -178 38 -79 114 -163 181 -200 218 -119 483 -42 596 171 177
339 -126 725 -493 626z m226 -247 c53 -37 93 -110 93 -172 0 -62 -40 -135 -92
-172 -55 -37 -147 -44 -204 -15 -158 81 -157 290 1 376 48 26 152 18 202 -17z"/>
<path d="M2255 2566 c-125 -31 -229 -115 -287 -233 -32 -65 -33 -72 -33 -188
0 -116 1 -123 33 -188 161 -326 623 -326 784 0 32 65 33 72 33 188 0 116 -1
123 -33 188 -92 186 -298 282 -497 233z m194 -235 c69 -36 121 -115 121 -186
0 -108 -100 -205 -210 -205 -110 0 -210 97 -210 205 0 70 51 149 119 185 48
26 130 26 180 1z"/>
<path d="M3530 2564 c-209 -56 -346 -271 -311 -487 29 -172 151 -309 316 -351
206 -54 415 45 508 241 30 64 32 75 32 178 0 103 -2 114 -32 178 -93 196 -306
297 -513 241z m208 -233 c155 -80 154 -293 -2 -373 -57 -29 -149 -22 -204 15
-52 37 -92 111 -92 171 0 78 54 160 125 192 45 20 129 17 173 -5z"/>
<path d="M980 1496 c-78 -17 -142 -51 -205 -108 -156 -142 -180 -396 -55 -571
52 -73 136 -132 223 -159 56 -17 86 -20 159 -16 77 5 100 11 163 42 128 63
212 178 236 324 38 230 -124 454 -357 492 -72 12 -94 12 -164 -4z m175 -235
c183 -83 157 -338 -39 -392 -134 -37 -283 113 -247 248 35 129 170 197 286
144z"/>
<path d="M2264 1495 c-82 -18 -137 -47 -201 -107 -101 -96 -137 -190 -131
-336 3 -79 9 -108 31 -156 74 -160 223 -256 397 -256 174 0 323 96 397 256 22
48 28 77 31 156 6 146 -30 240 -131 336 -65 61 -119 89 -206 108 -80 17 -107
16 -187 -1z m182 -234 c50 -23 101 -83 115 -136 47 -174 -148 -323 -305 -231
-52 30 -95 95 -103 154 -16 117 86 232 207 232 25 0 63 -9 86 -19z"/>
<path d="M3567 1500 c-76 -13 -168 -62 -227 -120 -209 -210 -150 -565 115
-696 142 -70 319 -56 448 36 73 52 132 136 159 223 17 56 20 86 16 159 -5 77
-11 100 -42 163 -61 123 -174 209 -310 234 -66 12 -89 12 -159 1z m171 -241
c50 -25 97 -84 113 -142 36 -135 -113 -285 -247 -248 -92 25 -153 94 -162 180
-15 162 151 280 296 210z"/>
</g>
</svg>
