<?xml version="1.0" standalone="no"?>
<!DOCTYPE svg PUBLIC "-//W3C//DTD SVG 20010904//EN"
 "http://www.w3.org/TR/2001/REC-SVG-20010904/DTD/svg10.dtd">
<svg version="1.0" xmlns="http://www.w3.org/2000/svg"
 width="500.000000pt" height="606.000000pt" viewBox="0 0 500.000000 606.000000"
 preserveAspectRatio="xMidYMid meet">
<metadata>
Created by potrace 1.15, written by Peter Selinger 2001-2017
</metadata>
<g transform="translate(0.000000,606.000000) scale(0.100000,-0.100000)"
fill="#000000" stroke="none">
<path d="M4074 6036 c-39 -18 -110 -83 -315 -289 -208 -209 -282 -277 -349
-320 -158 -101 -278 -151 -453 -188 -131 -28 -354 -30 -467 -5 -308 70 -305
70 -510 70 -164 0 -211 -4 -298 -22 -215 -47 -409 -127 -570 -235 l-83 -55
-24 48 c-34 68 -109 138 -185 174 -88 41 -198 48 -297 18 -105 -32 -241 -122
-359 -237 -122 -119 -164 -192 -164 -285 0 -42 152 -602 629 -2319 691 -2483
636 -2307 732 -2361 40 -23 54 -25 159 -24 100 0 133 5 255 38 77 20 166 51
197 68 119 63 196 187 205 326 4 75 -2 103 -231 987 l-235 910 37 33 c68 61
232 164 320 202 191 82 304 105 522 104 162 0 185 -2 305 -32 180 -44 257 -53
430 -53 267 0 465 49 706 172 179 92 265 164 596 493 275 274 305 307 334 369
26 56 32 85 36 155 4 87 4 88 -255 1094 -195 755 -266 1019 -287 1053 -28 48
-93 101 -148 122 -18 6 -66 12 -107 12 -59 1 -86 -4 -126 -23z m394 -1242
c190 -737 251 -988 247 -1014 -5 -30 -52 -81 -308 -336 -315 -314 -371 -360
-536 -443 -263 -133 -570 -165 -868 -93 -188 46 -279 55 -480 49 -140 -4 -200
-11 -283 -30 -292 -69 -526 -196 -734 -398 l-110 -106 252 -983 253 -982 -21
-43 c-24 -50 -47 -61 -193 -99 -147 -38 -174 -41 -181 -19 -75 255 -1216 4388
-1216 4403 0 57 259 256 347 266 48 6 97 -22 118 -68 8 -18 38 -125 66 -238
28 -113 53 -207 56 -210 2 -3 64 57 136 131 189 196 343 301 545 373 201 72
467 91 662 48 52 -11 127 -28 165 -36 391 -86 821 -10 1155 205 130 83 199
144 434 385 120 124 224 223 230 221 6 -2 125 -444 264 -983z"/>
</g>
</svg>
