<?xml version="1.0" encoding="utf-8"?>
<!-- Generator: Adobe Illustrator 21.0.0, SVG Export Plug-In . SVG Version: 6.00 Build 0)  -->
<svg version="1.1" id="Layer_1" xmlns="http://www.w3.org/2000/svg" xmlns:xlink="http://www.w3.org/1999/xlink" x="0px" y="0px"
	 viewBox="0 0 133 169.3" style="enable-background:new 0 0 133 169.3;" xml:space="preserve">
<g id="Layer_2">
	<path id="flag" d="M114.9,0.1c-1.6-0.4-3.3-0.1-4.6,0.9L97.5,14.2c-10.6,9.6-25.4,13.2-39.2,9.5c-15-4-30.9,0.5-41.6,11.7l-1.4-5.6
		c-1.1-4.1-5.4-6.6-9.6-5.5c-4.1,1.1-6.5,5.3-5.5,9.4l33.6,130c1.1,4.1,5.2,6.6,9.4,5.5c0,0,0,0,0.1,0c4.1-1.1,6.7-5.3,5.6-9.4
		l-14.2-54.9c10.7-11.1,26.6-15.6,41.6-11.7c13.8,3.8,28.6,0.2,39.1-9.5L130.1,69c2.4-2,3.5-5.3,2.7-8.3L118.1,3.4
		C117.6,1.8,116.4,0.6,114.9,0.1z"/>
</g>
</svg>
