<?xml version="1.0" standalone="no"?>
<!DOCTYPE svg PUBLIC "-//W3C//DTD SVG 20010904//EN"
 "http://www.w3.org/TR/2001/REC-SVG-20010904/DTD/svg10.dtd">
<svg version="1.0" xmlns="http://www.w3.org/2000/svg"
 width="290.000000pt" height="292.000000pt" viewBox="0 0 290.000000 292.000000"
 preserveAspectRatio="xMidYMid meet">
<metadata>
Created by potrace 1.15, written by Peter Selinger 2001-2017
</metadata>
<g transform="translate(0.000000,292.000000) scale(0.100000,-0.100000)"
fill="#000000" stroke="none">
<path d="M2393 2905 c-123 -34 -157 -62 -414 -338 -160 -172 -207 -218 -223
-214 -12 2 -333 98 -714 212 l-693 208 -150 -149 c-83 -82 -157 -161 -165
-176 -8 -15 -14 -49 -14 -76 0 -93 -9 -86 582 -413 l537 -296 -197 -214 c-109
-118 -209 -230 -223 -248 l-26 -32 -234 60 -234 61 -98 -98 c-54 -53 -105
-110 -114 -126 -23 -45 -13 -130 20 -163 14 -15 146 -87 294 -162 l268 -136
146 -283 c163 -316 168 -322 258 -322 l54 0 116 115 116 114 -62 241 c-33 132
-58 240 -54 240 4 0 115 99 246 221 l239 220 17 -33 c10 -18 143 -262 297
-542 179 -326 290 -517 306 -529 32 -23 91 -32 142 -22 32 5 64 33 191 158 84
83 153 158 153 166 0 9 -95 333 -210 720 -116 388 -210 710 -210 716 0 5 101
105 225 220 133 124 242 233 264 267 81 120 95 295 33 421 -42 85 -129 167
-209 197 -75 28 -190 35 -260 15z m185 -191 c81 -33 135 -114 135 -202 0 -98
-28 -133 -326 -413 -148 -138 -266 -256 -264 -263 2 -6 100 -332 217 -725
l213 -713 -86 -86 c-48 -47 -88 -84 -90 -82 -3 3 -155 278 -338 613 -183 334
-335 607 -338 607 -3 0 -149 -132 -323 -293 -221 -205 -335 -303 -376 -325
l-59 -32 54 -207 c87 -336 82 -298 42 -339 l-34 -35 -118 238 c-66 131 -133
253 -150 271 -18 19 -72 54 -122 79 -49 25 -159 81 -244 125 l-153 81 33 33
34 34 245 -65 c135 -36 250 -65 255 -65 6 0 25 28 42 63 24 48 95 132 319 376
159 172 290 316 291 320 2 3 -270 156 -603 340 l-606 334 89 88 88 88 715
-215 714 -214 22 22 c12 13 124 133 249 268 126 135 242 254 259 266 66 45
148 56 214 28z"/>
</g>
</svg>
