<?xml version="1.0" standalone="no"?>
<!DOCTYPE svg PUBLIC "-//W3C//DTD SVG 20010904//EN"
 "http://www.w3.org/TR/2001/REC-SVG-20010904/DTD/svg10.dtd">
<svg version="1.0" xmlns="http://www.w3.org/2000/svg"
 width="228.000000pt" height="212.000000pt" viewBox="0 0 228.000000 212.000000"
 preserveAspectRatio="xMidYMid meet">
<metadata>
Created by potrace 1.15, written by Peter Selinger 2001-2017
</metadata>
<g transform="translate(0.000000,212.000000) scale(0.100000,-0.100000)"
fill="#000000" stroke="none">
<path d="M1258 2106 c-63 -23 -122 -63 -170 -114 -56 -59 -95 -130 -76 -136 7
-3 36 -12 63 -20 253 -81 450 -382 432 -661 -6 -104 -32 -173 -99 -271 -49
-72 -118 -234 -118 -278 0 -30 70 -94 143 -129 40 -19 115 -51 167 -71 l95
-36 293 0 c251 0 292 2 292 15 0 8 -11 43 -24 79 -63 166 -137 226 -391 316
-66 23 -133 49 -150 57 -42 21 -85 64 -85 84 0 34 69 181 111 237 93 122 129
234 129 398 0 235 -104 436 -267 512 -52 24 -71 27 -183 29 -85 2 -137 -1
-162 -11z"/>
<path d="M763 1720 c-168 -36 -306 -195 -347 -402 -40 -195 -1 -379 110 -520
24 -31 57 -85 74 -119 l29 -63 -19 -32 c-27 -42 -25 -47 10 -39 62 14 24 -43
-56 -83 -22 -11 -99 -42 -170 -67 -71 -26 -152 -60 -180 -76 -57 -32 -133
-108 -159 -159 -18 -35 -55 -137 -55 -152 0 -4 394 -8 874 -8 l875 0 -18 53
c-30 87 -70 156 -116 202 -49 50 -165 108 -305 154 -113 37 -197 83 -212 116
-9 21 -5 37 23 102 18 43 58 114 87 157 97 142 127 234 126 396 -1 185 -52
319 -163 431 -83 83 -146 109 -276 114 -49 2 -109 0 -132 -5z"/>
</g>
</svg>
