<?xml version="1.0" standalone="no"?>
<!DOCTYPE svg PUBLIC "-//W3C//DTD SVG 20010904//EN"
 "http://www.w3.org/TR/2001/REC-SVG-20010904/DTD/svg10.dtd">
<svg version="1.0" xmlns="http://www.w3.org/2000/svg"
 width="400.000000pt" height="333.000000pt" viewBox="0 0 400.000000 333.000000"
 preserveAspectRatio="xMidYMid meet">
<metadata>
Created by potrace 1.15, written by Peter Selinger 2001-2017
</metadata>
<g transform="translate(0.000000,333.000000) scale(0.100000,-0.100000)"
fill="#000000" stroke="none">
<path d="M508 3292 c-55 -56 -78 -100 -78 -154 l0 -48 1578 -3 c867 -2 1592
-7 1611 -12 46 -11 113 -80 129 -132 9 -33 12 -319 12 -1278 l0 -1235 45 0
c54 0 107 27 158 81 l37 41 0 1338 0 1338 -52 51 -52 51 -1675 -1 -1676 -1
-37 -36z"/>
<path d="M110 2879 c-19 -11 -52 -38 -72 -60 l-38 -41 0 -1338 0 -1338 51 -51
51 -51 1673 0 1673 0 37 33 c20 17 48 50 61 73 l24 41 0 1296 0 1296 -21 38
c-11 21 -35 50 -52 66 -70 61 61 57 -1721 56 -1607 0 -1632 -1 -1666 -20z"/>
</g>
</svg>
