<?xml version="1.0" standalone="no"?>
<!DOCTYPE svg PUBLIC "-//W3C//DTD SVG 20010904//EN"
 "http://www.w3.org/TR/2001/REC-SVG-20010904/DTD/svg10.dtd">
<svg version="1.0" xmlns="http://www.w3.org/2000/svg"
 width="340.000000pt" height="280.000000pt" viewBox="0 0 340.000000 280.000000"
 preserveAspectRatio="xMidYMid meet">
<metadata>
Created by potrace 1.15, written by Peter Selinger 2001-2017
</metadata>
<g transform="translate(0.000000,280.000000) scale(0.100000,-0.100000)"
fill="#000000" stroke="none">
<path d="M93 2774 c-24 -14 -54 -44 -68 -68 l-25 -43 0 -1013 0 -1013 25 -43
c15 -26 43 -54 69 -69 41 -24 48 -25 224 -25 l182 0 0 -182 c0 -176 1 -183 25
-224 15 -26 43 -54 69 -69 l43 -25 1313 0 1313 0 43 25 c26 15 54 43 69 69
l25 43 0 1013 0 1013 -25 43 c-15 26 -43 54 -69 69 -41 24 -48 25 -224 25
l-182 0 0 182 c0 176 -1 183 -25 224 -15 26 -43 54 -69 69 l-43 25 -1314 0
-1314 0 -42 -26z m2530 -185 c77 -21 72 43 72 -939 0 -982 5 -918 -72 -939
-53 -15 -2293 -15 -2346 0 -77 21 -72 -43 -72 939 0 818 1 878 18 903 9 14 32
31 50 36 46 13 2301 14 2350 0z m530 -511 c16 -11 30 -33 37 -57 7 -27 10
-315 8 -893 -3 -957 2 -896 -75 -917 -53 -15 -2293 -15 -2346 0 -59 16 -71 45
-76 176 l-3 113 1033 0 1032 0 43 25 c26 15 54 43 69 69 l25 43 0 732 0 733
113 -3 c86 -3 119 -8 140 -21z"/>
</g>
</svg>
