<?xml version="1.0" encoding="utf-8"?>
<!-- Generator: Adobe Illustrator 21.0.0, SVG Export Plug-In . SVG Version: 6.00 Build 0)  -->
<svg version="1.1" id="Layer_1" xmlns="http://www.w3.org/2000/svg" xmlns:xlink="http://www.w3.org/1999/xlink" x="0px" y="0px"
	 viewBox="0 0 161 160" style="enable-background:new 0 0 161 160;" xml:space="preserve">
<g id="Layer_2">
	<g transform="translate(0.000000,160.000000) scale(0.100000,-0.100000)">
		<path d="M733.5,1412.8c-34.6-10.8-60.8-33.8-279.1-251.5c-139.2-138.4-247.6-252.2-257.6-269.9c-22.3-43.1-22.3-112.3,0-157.6
			c23.1-46.1,468.3-490.6,516-514.5c46.1-23.1,118.4-23.1,164.6,0c47.7,23.8,492.9,468.3,516,514.5c22.3,45.4,22.3,114.6,0,157.6
			c-10,17.7-117.7,131.5-257.6,269.9c-226.9,226.1-243,240.7-282.2,252.2C802.7,1428.2,783.5,1428.2,733.5,1412.8z M975.7,1020.6
			l123-81.5v-40.8v-40.8l-123.8-80.7c-67.7-44.6-124.6-81.5-126.9-81.5c-1.5,0-3.1,36.1-3.1,80.7v80.7h-92.3h-92.3V726.1V595.4
			h-42.3h-42.3v173v173h134.6H845v80.7c0,44.6,1.5,80.7,3.8,80.7C851.1,1102.9,908,1066,975.7,1020.6z"/>
	</g>
</g>
</svg>
