<?xml version="1.0" standalone="no"?>
<!DOCTYPE svg PUBLIC "-//W3C//DTD SVG 20010904//EN"
 "http://www.w3.org/TR/2001/REC-SVG-20010904/DTD/svg10.dtd">
<svg version="1.0" xmlns="http://www.w3.org/2000/svg"
 width="127.000000pt" height="124.000000pt" viewBox="0 0 127.000000 124.000000"
 preserveAspectRatio="xMidYMid meet">
<metadata>
Created by potrace 1.15, written by Peter Selinger 2001-2017
</metadata>
<g transform="translate(0.000000,124.000000) scale(0.100000,-0.100000)"
fill="#000000" stroke="none">
<path d="M625 1229 c-3 -8 -38 -111 -79 -229 l-74 -215 -183 -6 c-101 -4 -208
-7 -236 -8 -29 0 -53 -4 -53 -8 1 -5 72 -63 158 -130 86 -68 170 -133 185
-145 l28 -23 -66 -227 c-36 -124 -65 -229 -65 -233 0 -13 26 3 166 102 76 54
159 113 184 130 l46 31 189 -134 c180 -126 205 -142 205 -128 0 3 -29 108 -65
232 l-66 227 28 23 c15 12 99 77 185 145 86 67 157 125 158 130 0 4 -24 8 -52
8 -29 1 -136 4 -237 8 l-183 6 -77 222 c-42 122 -79 225 -83 229 -4 4 -10 1
-13 -7z m85 -505 c23 -37 53 -47 160 -53 l105 -6 -77 -60 c-47 -35 -84 -73
-94 -94 -18 -37 -16 -53 25 -193 l19 -66 -81 58 c-45 32 -91 60 -102 62 -19 3
-20 12 -22 268 l-2 265 28 -80 c16 -45 34 -90 41 -101z"/>
</g>
</svg>
