<?xml version="1.0" standalone="no"?>
<!DOCTYPE svg PUBLIC "-//W3C//DTD SVG 20010904//EN"
 "http://www.w3.org/TR/2001/REC-SVG-20010904/DTD/svg10.dtd">
<svg version="1.0" xmlns="http://www.w3.org/2000/svg"
 width="319.000000pt" height="297.000000pt" viewBox="0 0 319.000000 297.000000"
 preserveAspectRatio="xMidYMid meet">
<metadata>
Created by potrace 1.15, written by Peter Selinger 2001-2017
</metadata>
<g transform="translate(0.000000,297.000000) scale(0.100000,-0.100000)"
fill="#000000" stroke="none">
<path d="M1170 2964 c-59 -11 -159 -48 -210 -77 -30 -17 -89 -65 -131 -107
-126 -127 -201 -306 -215 -514 -11 -170 38 -386 127 -558 41 -77 41 -78 21
-95 -21 -19 -702 -798 -740 -847 -23 -30 -30 -93 -13 -125 6 -10 154 -158 330
-329 l319 -312 45 0 c29 0 53 7 69 19 14 11 98 115 187 230 105 138 170 212
184 215 12 3 281 37 597 76 544 66 578 72 635 100 33 16 74 44 92 62 17 18
180 215 362 437 240 293 334 416 346 449 24 73 20 168 -11 230 -44 88 -150
162 -232 162 -23 0 -24 2 -18 43 60 400 -80 735 -369 878 -202 99 -427 89
-672 -32 l-102 -50 -73 40 c-40 22 -116 54 -168 72 -82 28 -111 32 -215 35
-66 1 -131 0 -145 -2z m235 -229 c73 -19 190 -73 271 -126 83 -54 106 -52 218
16 270 162 491 162 655 -2 136 -136 186 -359 132 -587 -38 -159 -79 -227 -277
-462 -99 -116 -192 -226 -207 -244 -28 -33 -37 -36 -275 -92 -136 -32 -250
-58 -253 -58 -4 0 -14 11 -22 24 l-16 24 181 73 c99 40 199 86 221 103 22 17
54 56 71 86 28 50 31 63 31 140 0 77 -3 90 -31 140 -51 90 -152 150 -254 150
-20 0 -218 -45 -441 -100 -222 -55 -407 -100 -410 -100 -13 0 -98 177 -124
260 -36 112 -45 282 -21 384 36 151 122 275 234 334 100 53 206 65 317 37z
m1544 -1001 c12 -15 21 -35 21 -45 0 -22 -661 -834 -693 -850 -11 -7 -299 -47
-639 -89 -434 -55 -625 -82 -641 -93 -13 -9 -86 -97 -162 -196 l-138 -180
-213 206 c-118 113 -214 209 -214 214 0 12 641 740 671 762 33 24 897 238 928
230 12 -3 29 -19 37 -35 12 -24 13 -33 2 -55 -11 -23 -51 -42 -273 -130 -290
-116 -315 -132 -315 -203 0 -43 29 -83 176 -238 77 -80 80 -82 125 -82 38 0
476 96 640 140 34 9 69 46 305 328 147 174 274 323 282 330 28 22 78 15 101
-14z"/>
</g>
</svg>
