<?xml version="1.0" standalone="no"?>
<!DOCTYPE svg PUBLIC "-//W3C//DTD SVG 20010904//EN"
 "http://www.w3.org/TR/2001/REC-SVG-20010904/DTD/svg10.dtd">
<svg version="1.0" xmlns="http://www.w3.org/2000/svg"
 width="220.000000pt" height="200.000000pt" viewBox="0 0 220.000000 200.000000"
 preserveAspectRatio="xMidYMid meet">
<metadata>
Created by potrace 1.15, written by Peter Selinger 2001-2017
</metadata>
<g transform="translate(0.000000,200.000000) scale(0.100000,-0.100000)"
fill="#000000" stroke="none">
<path d="M515 1990 c-226 -30 -430 -217 -490 -450 -20 -76 -23 -227 -6 -318
12 -61 54 -200 73 -234 8 -16 30 -18 253 -18 l243 0 56 103 c30 57 64 111 75
122 39 34 60 11 172 -194 57 -105 108 -190 112 -188 4 1 78 153 164 337 85
184 160 341 165 348 6 6 23 12 38 12 15 0 32 -6 38 -12 5 -7 48 -121 95 -253
47 -132 88 -248 92 -258 7 -16 29 -17 266 -17 236 0 259 2 267 18 6 9 23 55
38 102 28 82 29 92 29 281 l0 196 -43 87 c-76 153 -208 268 -362 317 -98 31
-240 29 -347 -5 -123 -40 -258 -145 -322 -253 -11 -17 -11 -17 -22 0 -32 54
-103 128 -168 174 -116 84 -271 122 -416 103z"/>
<path d="M1332 1110 c-66 -151 -275 -587 -289 -602 -20 -23 -45 -23 -65 0 -9
9 -53 85 -98 167 -45 83 -94 170 -107 194 l-25 44 -30 -52 c-16 -28 -30 -52
-31 -53 -1 -1 -111 -5 -245 -8 l-243 -5 65 -81 c138 -172 390 -406 668 -617
122 -94 128 -97 178 -97 50 0 56 3 178 97 278 211 530 445 668 617 l65 81
-259 3 c-233 2 -261 4 -275 20 -9 10 -39 82 -67 161 -66 190 -64 186 -88 131z"/>
</g>
</svg>
