<?xml version="1.0" encoding="utf-8"?>
<!-- Generator: Adobe Illustrator 21.0.0, SVG Export Plug-In . SVG Version: 6.00 Build 0)  -->
<svg version="1.1" id="Layer_1" xmlns="http://www.w3.org/2000/svg" xmlns:xlink="http://www.w3.org/1999/xlink" x="0px" y="0px"
	 viewBox="0 0 500 426" style="enable-background:new 0 0 500 426;" xml:space="preserve">
<g transform="translate(0.000000,426.000000) scale(0.100000,-0.100000)">
	<path d="M1508.1,3709.6c-320.8-56-596.6-260.3-744.1-550.9c-76.7-149.7-107.7-284.6-107.7-461.6c0-233.8,53.8-457.2,163-673.3
		c129.8-258.8,416.6-598.1,710.9-842.1c255.2-211.6,561.2-418.9,819.3-554.5C2438,580,2438.8,580,2500,580h61.2l92.9,48.7
		c255.9,134.9,556.8,338.5,816.3,552.3c47.9,39.8,152.6,137.2,232.3,216.8c351,352.5,540.5,665.9,615.8,1019.1
		c25.8,123.9,33.2,358.4,14.7,460.2c-78.9,421.8-403.4,748.5-824.4,830.3c-103.2,19.9-279.5,19.2-385.7-0.7
		c-140.1-27.3-267.7-81.1-387.9-163.7c-70.1-47.2-174.8-141.6-209.4-188.8l-22.1-29.5l-68.6,73c-90.7,95.9-175.5,158.5-292.8,216.8
		c-99.6,49.4-185.1,77.4-290.5,95.9C1774.4,3724.4,1587.8,3723.7,1508.1,3709.6z M1801.6,3529c182.1-26.5,353.2-112.8,480.1-241.1
		c67.1-67.8,116.5-137.2,174-243.4c22.1-41.3,42-75.2,44.2-75.2c2.2,0,25.1,39.1,51.6,86.3c61.9,111.4,116.5,184.4,187.3,251.5
		c169.6,160,375.4,236.7,612.8,227.9c129.8-4.4,216.8-25.8,331.1-81.1c227.9-109.9,388.6-306,455-556c19.9-73.7,26.5-238.2,14-339.2
		c-21.4-171.1-92.2-379.8-178.5-525.8c-50.1-84.8-149-221.2-238.2-329.6c-246.3-297.2-671.1-632-1119.4-883.4
		c-54.6-30.2-106.9-55.3-115-55.3c-39.8,0-391.6,213.9-594.4,360.6c-348.1,251.5-601,500.7-802.3,788.3
		c-181.4,259.6-271.4,540.5-261,816.3c5.9,163,50.9,301.6,142.3,440.2c95.9,143.8,257.4,265.5,429.9,323
		C1537.6,3534.1,1680,3547.4,1801.6,3529z"/>
</g>
</svg>
