<?xml version="1.0" encoding="utf-8"?>
<!-- Generator: Adobe Illustrator 21.0.0, SVG Export Plug-In . SVG Version: 6.00 Build 0)  -->
<svg version="1.1" id="Layer_1" xmlns="http://www.w3.org/2000/svg" xmlns:xlink="http://www.w3.org/1999/xlink" x="0px" y="0px"
	 viewBox="0 0 400 400" style="enable-background:new 0 0 400 400;" xml:space="preserve">
<g transform="translate(0.000000,100.000000) scale(0.100000,-0.100000)">
	<path d="M895.9,432.2c-69.2-21.8-211.3-123.7-313.2-225.7c-225.8-225.8-284-407.9-262.2-812.1c32.7-542.5,335-935.8,1187-1529.4
		l480.6-335l480.6,335c578.9,400.6,877.6,691.8,1045.1,1012.2c109.2,203.9,131.1,280.4,142,549.8c14.6,262.2,3.6,338.7-65.6,498.9
		c-98.3,225.8-335,447.9-538.9,509.8c-335,101.9-764.7,21.9-979.5-182.1l-83.7-76.4l-80.2,76.5
		C1689.6,457.7,1230.8,537.7,895.9,432.2z"/>
</g>
</svg>
