<?xml version="1.0" standalone="no"?>
<!DOCTYPE svg PUBLIC "-//W3C//DTD SVG 20010904//EN"
 "http://www.w3.org/TR/2001/REC-SVG-20010904/DTD/svg10.dtd">
<svg version="1.0" xmlns="http://www.w3.org/2000/svg"
 width="500.000000pt" height="543.000000pt" viewBox="0 0 500.000000 543.000000"
 preserveAspectRatio="xMidYMid meet">
<metadata>
Created by potrace 1.15, written by Peter Selinger 2001-2017
</metadata>
<g transform="translate(0.000000,543.000000) scale(0.100000,-0.100000)"
fill="#000000" stroke="none">
<path d="M355 5402 c-149 -52 -273 -153 -326 -267 l-29 -60 0 -1496 c0 -1454
1 -1497 19 -1552 34 -98 109 -188 201 -240 104 -60 -18 -57 2265 -57 2302 0
2143 -4 2266 61 110 59 193 160 230 279 19 64 19 96 17 1556 l-3 1490 -38 76
c-44 89 -116 161 -205 205 l-57 28 -2130 2 -2130 3 -80 -28z m4205 -1817 l0
-1405 -2060 0 -2060 0 0 1405 0 1405 2060 0 2060 0 0 -1405z"/>
<path d="M167 1290 c-45 -36 -62 -100 -62 -237 0 -107 2 -125 21 -149 11 -16
34 -32 51 -36 18 -5 1077 -7 2355 -6 l2323 3 40 21 c22 11 55 40 73 63 27 36
32 51 32 94 -1 94 -68 195 -162 243 l-47 24 -2299 0 c-2288 0 -2299 0 -2325
-20z"/>
<path d="M129 421 c-23 -18 -24 -25 -23 -138 0 -135 16 -211 51 -254 l25 -29
1450 0 1451 0 31 33 c44 47 77 145 83 248 7 102 -7 133 -66 149 -23 6 -545 10
-1507 10 -1436 0 -1472 0 -1495 -19z"/>
</g>
</svg>
