<?xml version="1.0" standalone="no"?>
<!DOCTYPE svg PUBLIC "-//W3C//DTD SVG 20010904//EN"
 "http://www.w3.org/TR/2001/REC-SVG-20010904/DTD/svg10.dtd">
<svg version="1.0" xmlns="http://www.w3.org/2000/svg"
 width="200.000000pt" height="220.000000pt" viewBox="0 0 200.000000 220.000000"
 preserveAspectRatio="xMidYMid meet">
<metadata>
Created by potrace 1.15, written by Peter Selinger 2001-2017
</metadata>
<g transform="translate(0.000000,220.000000) scale(0.100000,-0.100000)"
fill="#000000" stroke="none">
<path d="M563 2189 c-41 -12 -126 -115 -148 -178 -9 -26 -15 -79 -15 -125 0
-103 23 -155 114 -256 61 -70 86 -116 86 -164 0 -11 12 -33 27 -48 22 -23 35
-28 73 -28 38 0 51 5 74 29 27 28 28 34 24 103 -5 94 -29 144 -118 242 -67 73
-70 79 -70 125 0 43 5 55 45 103 39 48 45 61 45 102 0 36 -5 52 -25 71 -13 14
-31 25 -39 25 -8 0 -20 2 -28 4 -7 2 -27 0 -45 -5z"/>
<path d="M1024 2186 c-41 -18 -101 -88 -133 -156 -21 -46 -26 -69 -26 -140 0
-107 27 -169 112 -261 68 -73 83 -97 83 -134 0 -34 25 -82 49 -95 11 -5 38
-10 61 -10 33 0 48 6 72 31 29 29 30 33 26 97 -7 92 -33 145 -116 236 -100
110 -105 153 -26 246 36 42 44 59 44 91 0 74 -78 125 -146 95z"/>
<path d="M132 1189 c-20 -6 -41 -23 -53 -42 -19 -30 -20 -44 -16 -277 4 -215
7 -254 26 -320 29 -97 88 -210 150 -285 l50 -60 -113 -5 c-144 -7 -175 -26
-176 -111 0 -35 5 -51 23 -67 l23 -22 791 0 792 0 20 26 c25 32 27 90 5 123
-27 38 -74 51 -184 51 l-102 0 50 55 c27 30 66 86 88 124 l39 69 85 5 c157 9
262 73 331 199 33 61 34 67 34 173 0 106 -1 112 -34 173 -42 77 -94 125 -180
166 l-66 31 -775 2 c-478 1 -788 -2 -808 -8z m1579 -224 c75 -39 104 -155 56
-226 -25 -38 -97 -79 -139 -79 l-28 0 0 166 0 167 41 -7 c23 -4 54 -13 70 -21z"/>
</g>
</svg>
