<?xml version="1.0" encoding="utf-8"?>
<!-- Generator: Adobe Illustrator 21.0.0, SVG Export Plug-In . SVG Version: 6.00 Build 0)  -->
<svg version="1.1" id="Layer_1" xmlns="http://www.w3.org/2000/svg" xmlns:xlink="http://www.w3.org/1999/xlink" x="0px" y="0px"
	 width="144px" height="178px" viewBox="0 0 144 178" style="enable-background:new 0 0 144 178;" xml:space="preserve">
<g id="Layer_2">
	<g transform="translate(0.000000,178.000000) scale(0.100000,-0.100000)">
		<g>
			<path d="M285.4,1737.7c-3.8-2.9-6.7-40.4-6.7-81.7v-75H166.2c-62.5,0-119.2-3.8-125.9-7.7c-9.6-6.7-11.5-167.2-9.6-771.8
				l2.9-763.1l258.5-2.9c182.6-1.9,262.4,1,271,8.7c9.6,7.7,13.5,33.6,13.5,81.7V197h144.2h144.2v-71.1c0-48.1,3.8-74,13.5-81.7
				c8.7-7.7,88.4-10.6,271-8.7l258.5,2.9l2.9,763.1c1.9,604.5,0,765.1-9.6,771.8c-6.7,3.8-63.4,7.7-124.9,7.7h-112.5l-2.9,79.8
				l-2.9,78.8l-433.5,2.9C486.2,1743.5,288.3,1741.6,285.4,1737.7z M1134,1633.9v-81.7H1259h124.9V807.4V62.5h-245.1H893.8v81.7
				v81.7h-173h-173v-81.7V62.5H302.7H57.6v744.9v744.9h124.9h124.9v81.7v81.7h413.3H1134V1633.9z"/>
			<path d="M389.9,10c-28.1,0-60.5,0.2-98.1,0.6L8.6,13.7l-3,787.8c-2.5,776.5,0.6,778.6,20.3,792.4l1.9,1.2
				c17.8,10.2,110.4,11,138.3,11h87.5v50c0,78.4,6.6,92.8,13.7,99.3c8,9.7,18.3,10.2,149,11.6c81.6,0.9,191,1.1,308.3,0.6l457.5-3
				l5.8-158.4h88.3c27.7,0,119.5-0.8,137.4-11l1.9-1.2c19.7-13.8,22.8-15.9,20.3-792.3l-3-787.8l-283.2-3.2
				c-264.9-2.8-276.5,4.9-287.6,14.6c-16.4,13.6-22.2,40.2-22.2,100.7V172H601.6v-46.1c0-60.5-5.8-87.1-22.2-100.7
				C569.9,16.8,560,10,389.9,10z M918.8,87.5h440.2v1439.7H1109v163.4H332.5v-163.4H82.6V87.5h440.2v163.4h396V87.5z"/>
		</g>
		<g>
			<path d="M461.3,1220.6v-91.3h91.3h91.3v91.3v91.3h-91.3h-91.3V1220.6z M615,1220.6v-62.5h-62.5h-62.5v62.5v62.5h62.5H615V1220.6z
				"/>
			<path d="M668.9,1104.3H436.3V1337h232.6V1104.3z M515.1,1183.2H590v74.9h-74.9V1183.2z"/>
		</g>
		<g>
			<path d="M797.6,1220.6v-91.3H889h91.3v91.3v91.3H889h-91.3V1220.6z M951.4,1220.6v-62.5H889h-62.5v62.5v62.5H889h62.5V1220.6z"/>
			<path d="M1005.3,1104.3H772.6V1337h232.6V1104.3z M851.5,1183.2h74.9v74.9h-74.9V1183.2z"/>
		</g>
		<g>
			<path d="M461.3,889.1v-86.5h91.3h91.3v86.5v86.5h-91.3h-91.3V889.1z M615,889.1v-57.7h-62.5h-62.5v57.7v57.7h62.5H615V889.1z"/>
			<path d="M668.9,777.6H436.3v223h232.6V777.6z M515.1,856.4H590v65.3h-74.9V856.4z"/>
		</g>
		<g>
			<path d="M797.6,889.1v-86.5H889h91.3v86.5v86.5H889h-91.3V889.1z M951.4,889.1v-57.7H889h-62.5v57.7v57.7H889h62.5V889.1z"/>
			<path d="M1005.3,777.6H772.6v223h232.6V777.6z M851.5,856.4h74.9v65.3h-74.9V856.4z"/>
		</g>
		<g>
			<path d="M461.3,557.5v-91.3h91.3h91.3v91.3v91.3h-91.3h-91.3V557.5z M615,557.5V495h-62.5h-62.5v62.5v62.5h62.5H615V557.5z"/>
			<path d="M668.9,441.2H436.3v232.6h232.6V441.2z M515.1,520H590v75h-74.9V520z"/>
		</g>
		<g>
			<path d="M797.6,557.5v-91.3H889h91.3v91.3v91.3H889h-91.3V557.5z M951.4,557.5V495H889h-62.5v62.5v62.5H889h62.5V557.5z"/>
			<path d="M1005.3,441.2H772.6v232.6h232.6V441.2z M851.5,520h74.9v75h-74.9V520z"/>
		</g>
	</g>
</g>
</svg>
