<?xml version="1.0" encoding="utf-8"?>
<!-- Generator: Adobe Illustrator 21.0.0, SVG Export Plug-In . SVG Version: 6.00 Build 0)  -->
<svg version="1.1" id="Layer_1" xmlns="http://www.w3.org/2000/svg" xmlns:xlink="http://www.w3.org/1999/xlink" x="0px" y="0px"
	 width="154px" height="145px" viewBox="0 0 154 145" style="enable-background:new 0 0 154 145;" xml:space="preserve">
<g transform="translate(0.000000,145.000000) scale(0.100000,-0.100000)">
	<path d="M248.5,1375c-95.1-27.4-171.8-121.6-181.9-221.2c-2.7-31.1-4.6-245.9-2.7-477.1l2.7-420.4l25.6-53
		C123.3,141.2,180,93.7,247.6,73.6c68.5-20.1,967.9-20.1,1036.4,0c63.1,18.3,121.6,65.8,153.5,124.3l27.4,49.4v475.3v475.3
		l-22.8,43.9c-24.7,50.3-64,87.7-121.6,117.9l-38.4,21l-502.7,1.8C492.6,1383.3,265,1380.5,248.5,1375z M511.8,1141.1
		c14.6-12.8,16.5-31.1,16.5-164.5v-149h237.6h237.6v148.1c0,184.6-1.8,181,107.8,181c121.6,0,111.5,41.1,111.5-435V316.7l-20.1-13.7
		c-14.6-10.1-42-14.6-91.4-14.6c-106.9,0-107.8,0.9-107.8,182.8v146.2H765.8H528.2V467.5c0-145.3-0.9-150.8-20.1-164.5
		c-28.3-20.1-150.8-20.1-179.1,0l-20.1,13.7v403.1c0,362.8,1.8,404.9,15.5,420.4C345.4,1163,486.2,1164.8,511.8,1141.1z"/>
</g>
</svg>
