<?xml version="1.0" encoding="utf-8"?>
<!-- Generator: Adobe Illustrator 21.0.0, SVG Export Plug-In . SVG Version: 6.00 Build 0)  -->
<svg version="1.1" id="Layer_1" xmlns="http://www.w3.org/2000/svg" xmlns:xlink="http://www.w3.org/1999/xlink" x="0px" y="0px"
	 width="144px" height="145px" viewBox="0 0 144 145" style="enable-background:new 0 0 144 145;" xml:space="preserve">
<g transform="translate(0.000000,145.000000) scale(0.100000,-0.100000)">
	<path d="M199.6,1299.8c-32-85-37-185.1-13.5-257.4c14.3-42.9,34.5-64.8,251.5-283.5L674,520.8l27.8,26.9
		c27.8,26.9,27.8,26.9,43.7,10.9c8.4-9.3,97.6-109.4,198.5-222.9c100.1-113.6,194.3-212.8,208.6-220.4c48-26.9,103.5-14.3,139.6,32
		c20.2,25.2,23.6,88.3,6.7,118.6c-5.9,9.3-242.3,250.7-525.8,535.9C320.7,1256.9,255.1,1320,232.4,1320
		C213.9,1320,205.5,1315,199.6,1299.8z"/>
	<path d="M921.4,1187.1c-136.3-136.3-159-169.1-169.9-241.4c-5-34.5-4.2-34.5,77.4-116.1l81.6-80.8l46.3,10.1
		c25.2,6.7,55.5,16,67.3,21.9c26.1,13.5,286,270.9,286,283.5c0,4.2-11.8,19.3-25.2,32.8l-25.2,24.4l-96.7-95.9l-95.9-95.9
		l-21.9,20.2l-21.9,20.2l93.4,93.4c50.5,51.3,92.5,96.7,92.5,101.8s-11.8,19.3-25.2,32.8l-25.2,24.4l-96.7-95.9l-95.9-95.9
		l-21.9,20.2l-21.9,20.2l97.6,97.6l96.7,97.6l-27.8,26.9c-15.1,15.1-29.4,26.9-32,26.9S993.7,1260.3,921.4,1187.1z"/>
	<path d="M293.8,451C163.4,320.6,112.9,265.1,107,243.2c-23.6-81.6,57.2-161.5,137.1-135.4c17.7,5.9,88.3,70.7,207.8,190.1
		l180.9,180.9l-75.7,75.7c-41.2,41.2-77.4,75.7-79.9,75.7C474.7,630.2,392.2,549.4,293.8,451z"/>
</g>
</svg>
