<?xml version="1.0" encoding="utf-8"?>
<!-- Generator: Adobe Illustrator 21.0.0, SVG Export Plug-In . SVG Version: 6.00 Build 0)  -->
<svg version="1.1" id="Layer_1" xmlns="http://www.w3.org/2000/svg" xmlns:xlink="http://www.w3.org/1999/xlink" x="0px" y="0px"
	 width="211px" height="189px" viewBox="0 0 211 189" style="enable-background:new 0 0 211 189;" xml:space="preserve">
<g transform="translate(0.000000,189.000000) scale(0.100000,-0.100000)">
	<path d="M935.8,1875c-291.5-68-485-390-405.7-677c39.2-143,180.1-405,354-657c90.9-133,118.6-154,188.1-148
		c62.4,5,79.4,21,173.9,158c162.3,237,303.1,496,344.2,636c25,83,25,207,0.9,295c-47.3,172-192.6,324-365.6,382
		C1156.9,1888,1013.4,1893,935.8,1875z M1129.3,1550c18.7-6,50.8-25,71.3-43c103.4-89,110.6-231,17.8-329c-49.9-53-94.5-72-162.3-71
		c-118.6,1-214,102-214,226C842.2,1487,984.8,1595,1129.3,1550z"/>
	<path d="M498.9,691C252,620,120,511,120,377c0-53,40.1-132,88.3-172c99.9-81,266.6-144,482.3-182c148-26,592.9-26,740,0
		c362,63,556.4,180,568.8,340c8,114-74.9,211-242.5,282c-60.6,26-228.2,75-255,75c-11.6,0-92.7-113-103.4-145
		c-2.7-7,28.5-19,91.8-33c198.8-44,354-124,337-173c-12.5-36-133.7-101-249.6-133c-316.5-89-772.1-84-1065.4,11
		c-99.9,32-171.2,69-199.7,102c-21.4,25-22.3,28-8.9,49c29.4,48,189,117,342.4,148c92.7,19,91.8,14,30.3,110
		c-29.4,46-46.4,64-59.7,64C605.9,719,553.3,706,498.9,691z"/>
</g>
</svg>
