<?xml version="1.0" standalone="no"?>
<!DOCTYPE svg PUBLIC "-//W3C//DTD SVG 20010904//EN"
 "http://www.w3.org/TR/2001/REC-SVG-20010904/DTD/svg10.dtd">
<svg version="1.0" xmlns="http://www.w3.org/2000/svg"
 width="123.000000pt" height="169.000000pt" viewBox="0 0 123.000000 169.000000"
 preserveAspectRatio="xMidYMid meet">
<metadata>
Created by potrace 1.15, written by Peter Selinger 2001-2017
</metadata>
<g transform="translate(0.000000,169.000000) scale(0.100000,-0.100000)"
fill="#000000" stroke="none">
<path d="M539 1680 c-245 -32 -448 -213 -515 -461 -27 -99 -23 -259 10 -383
61 -235 237 -517 469 -753 113 -115 114 -114 247 23 222 231 371 471 446 719
23 78 27 108 27 220 1 115 -2 139 -26 211 -94 284 -370 462 -658 424z m156
-362 c28 -53 52 -99 56 -102 3 -3 49 -12 103 -20 53 -8 104 -20 112 -27 31
-25 16 -59 -61 -139 l-75 -77 17 -107 c12 -77 14 -112 7 -124 -20 -31 -58 -25
-144 22 -45 26 -87 46 -93 46 -6 0 -48 -20 -94 -45 -143 -77 -164 -62 -137
100 l17 105 -77 80 c-77 81 -88 106 -61 134 19 19 31 22 136 36 l87 12 43 94
c67 150 92 152 164 12z"/>
</g>
</svg>
