<?xml version="1.0" encoding="utf-8"?>
<!-- Generator: Adobe Illustrator 21.0.0, SVG Export Plug-In . SVG Version: 6.00 Build 0)  -->
<svg version="1.1" id="Layer_1" xmlns="http://www.w3.org/2000/svg" xmlns:xlink="http://www.w3.org/1999/xlink" x="0px" y="0px"
	 width="158px" height="113px" viewBox="0 0 158 113" style="enable-background:new 0 0 158 113;" xml:space="preserve">
<g transform="translate(0.000000,113.000000) scale(0.100000,-0.100000)">
	<path d="M291.7,981.2c-35.7-10.6-66.9-33.4-88.2-63.8L183,887.7l-2.3-312.4c-1.5-209,0-321.5,6.1-340.5
		c10.6-36.5,40.3-71.4,76.8-89.7c27.4-14.4,46.4-15.2,329.8-15.2c281.2,0,302.5,0.8,329.1,14.4c34.2,17.5,66.1,50.2,76.8,79
		c4.6,12.2,8.4,54.7,8.4,94.2v73.7l104.9-104.1c62.3-60.8,114-105.6,126.2-108.7c11.4-2.3,36.5-3,56.2-0.8c28.1,3,40.3,9.1,60,31.2
		l25.1,27.4v315.4c0,359.5,1.5,351.1-57.8,377.7c-63.1,27.4-80.6,19-203.7-97.3l-107.2-101.1l-3.8,78.3c-3,69.2-6.1,81.3-25.1,109.4
		c-11.4,17.5-35,39.5-53.2,48.6c-31.2,17.5-36.5,17.5-324.5,19C443.7,987.3,303.1,985,291.7,981.2z M553.1,752.4
		c35-19,220.4-161.1,231-177.8c9.1-13.7,9.9-22,3.8-32.7C774.3,516.8,555.4,358,533.4,358c-41,0-42.6,8.4-42.6,201.4
		c0,174.8,0,177.8,16.7,189.2C528,763.1,532.6,763.1,553.1,752.4z"/>
</g>
</svg>
