<?xml version="1.0" encoding="utf-8"?>
<!-- Generator: Adobe Illustrator 21.0.0, SVG Export Plug-In . SVG Version: 6.00 Build 0)  -->
<svg version="1.1" id="Layer_1" xmlns="http://www.w3.org/2000/svg" xmlns:xlink="http://www.w3.org/1999/xlink" x="0px" y="0px"
	 width="156px" height="141px" viewBox="0 0 156 141" style="enable-background:new 0 0 156 141;" xml:space="preserve">
<g transform="translate(0.000000,141.000000) scale(0.100000,-0.100000)">
	<path d="M138.5,1315.8c-15.3-9-36.1-28-46.9-41.5C71.7,1249,71.7,1249,71.7,701v-548l20.8-30.7c43.3-65.9,11.7-63.2,692.4-60.5
		c678.9,2.7,638.3-0.9,677.1,64.1c17.2,28,18.1,49.7,18.1,576.9v547.1l-23.5,28.9c-47.8,56.9-16.2,54.2-682.5,54.2
		C195.4,1333,165.6,1332.1,138.5,1315.8z M1369.9,714.6c0.9-272.6,0-505.5-2.7-517.3l-4.5-19.9H776.7c-525.4,0-585.9,1.8-591.3,14.4
		c-7.2,19.9-7.2,1010.2,0.9,1017.4c2.7,3.6,269.9,5.4,593.1,4.5l587.7-2.7L1369.9,714.6z"/>
	<path d="M373.2,1108.2c-96.6-44.2-124.6-171.5-55.1-251c34.3-38.8,73.1-56.9,123.7-56.9c172.4,0,224.8,236.5,68.6,307.8
		C463.5,1129.9,420.2,1129.9,373.2,1108.2z"/>
	<path d="M843.5,782.3L681.1,576.5l-65,64.1l-65,64.1L415.6,573.8l-134.5-130l-0.9-83.1l-0.9-84h496.5h496.5v187.8l-0.9,186.9
		L1146,821.1c-69.5,93-129.1,168.8-133.6,168.8C1008.8,989,932.9,896,843.5,782.3z"/>
</g>
</svg>
