<?xml version="1.0" encoding="utf-8"?>
<!-- Generator: Adobe Illustrator 21.0.0, SVG Export Plug-In . SVG Version: 6.00 Build 0)  -->
<svg version="1.1" id="Layer_1" xmlns="http://www.w3.org/2000/svg" xmlns:xlink="http://www.w3.org/1999/xlink" x="0px" y="0px"
	 width="222px" height="163px" viewBox="0 0 222 163" style="enable-background:new 0 0 222 163;" xml:space="preserve">
<g transform="translate(0.000000,163.000000) scale(0.100000,-0.100000)">
	<path d="M879.4,1468.8c-228.5-47.5-407-144.3-581.3-311.1c-92.6-90.1-113.4-123.4-102.6-166.8c11.7-47.5,66.7-78.4,112.6-64.2
		c10,3.3,52.5,40,94.2,82.6c198.5,200.2,444.5,305.2,714.7,305.2s516.3-105.1,714.7-305.2c81.7-81.7,96.7-90.9,139.3-83.4
		c52.5,10,81.7,63.4,63.4,116.8c-11.7,36.7-163.5,184.3-251,244.4c-129.3,88.4-289.4,155.1-445.4,186
		C1209.7,1497.1,1006.2,1495.5,879.4,1468.8z"/>
	<path d="M978.6,1144.3c-129.3-25-219.3-60-321.9-125.9C585.8,971.7,472.4,865,458.2,829.9c-30.9-73.4,50-151.8,118.4-115.1
		c9.2,5,40,32.5,67.6,60.9C775.1,907.5,934.4,975,1117.1,975S1459,907.5,1590,775.7c27.5-28.4,58.4-55.9,67.6-60.9
		c68.4-36.7,149.3,41.7,118.4,115.1c-14.2,35-127.6,141.8-198.5,188.5c-136.8,87.6-269.4,128.4-435.4,134.3
		C1075.4,1154.4,1016.2,1151.9,978.6,1144.3z"/>
	<path d="M979.5,798.2c-100.1-28.4-226.9-115.1-258.5-176.8c-33.4-63.4,6.7-132.6,75.9-132.6c28.4,0,46.7,10.8,91.7,54.2
		c20.9,20,62.6,49.2,93.4,64.2c50.9,25,61.7,27.5,135.1,27.5c73.4,0,84.2-2.5,135.1-27.5c30.9-15,72.6-44.2,93.4-64.2
		c45-44.2,63.4-54.2,92.6-54.2c68.4,0,107.6,70.1,75.1,132.6c-32.5,63.4-166.8,153.5-267.7,179.3
		C1176.3,818.2,1045.4,817.4,979.5,798.2z"/>
	<path d="M1062.9,470.5c-127.6-45-157.6-221-51.7-301.9c115.1-87.6,276.1-8.3,276.1,136.8C1287.2,424.6,1172.1,508.8,1062.9,470.5z"
		/>
</g>
</svg>
