<?xml version="1.0" standalone="no"?>
<!DOCTYPE svg PUBLIC "-//W3C//DTD SVG 20010904//EN"
 "http://www.w3.org/TR/2001/REC-SVG-20010904/DTD/svg10.dtd">
<svg version="1.0" xmlns="http://www.w3.org/2000/svg"
 width="220.000000pt" height="200.000000pt" viewBox="0 0 220.000000 200.000000"
 preserveAspectRatio="xMidYMid meet">
<metadata>
Created by potrace 1.15, written by Peter Selinger 2001-2017
</metadata>
<g transform="translate(0.000000,200.000000) scale(0.100000,-0.100000)"
fill="#000000" stroke="none">
<path d="M658 1710 l-438 -289 0 -56 0 -55 -110 0 -110 0 0 -80 0 -80 150 0
150 0 0 -380 0 -380 -115 0 c-85 0 -115 -3 -115 -12 0 -7 -15 -95 -34 -195
l-33 -183 1099 0 1098 0 0 38 c0 20 -12 108 -27 194 l-27 158 -113 0 -113 0 0
380 0 380 140 0 140 0 0 80 0 80 -105 0 -105 0 0 59 0 58 -435 287 c-239 157
-440 286 -447 286 -7 0 -210 -131 -450 -290z m509 33 c97 -46 96 -181 -2 -227
-68 -33 -143 -4 -178 67 -30 61 0 133 67 163 42 18 71 17 113 -3z m-417 -973
l0 -380 -90 0 -90 0 0 380 0 380 90 0 90 0 0 -380z m450 0 l0 -380 -90 0 -90
0 0 380 0 380 90 0 90 0 0 -380z m450 0 l0 -380 -90 0 -90 0 0 380 0 380 90 0
90 0 0 -380z"/>
</g>
</svg>
