<?xml version="1.0" encoding="utf-8"?>
<!-- Generator: Adobe Illustrator 21.0.0, SVG Export Plug-In . SVG Version: 6.00 Build 0)  -->
<svg version="1.1" id="Layer_1" xmlns="http://www.w3.org/2000/svg" xmlns:xlink="http://www.w3.org/1999/xlink" x="0px" y="0px"
	 viewBox="0 0 196.4 282.6" style="enable-background:new 0 0 196.4 282.6;" xml:space="preserve">
<g id="Layer_2">
	<path id="Forma_1" d="M123.4,239.6H75.7c-4.2-7.4-4.2-16.4,0-23.8h47.6C127.5,223.2,127.5,232.2,123.4,239.6z M175,110.4
		c0,41-37.8,45.8-42.4,90.5c0,4.3-5.1,2.9-9.2,2.9H75.7c-4.1,0-9.2,1.4-9.2-2.9l0,0c-4.6-44.7-42.6-49.5-42.6-90.5
		c-0.1-41.7,33.6-75.6,75.3-75.8c41.7-0.1,75.6,33.6,75.8,75.3C175,110.1,175,110.2,175,110.4z M111.5,251.5h-24
		c-4.1,0-16-11.8-11.8-11.8h47.6C127.5,239.6,115.7,251.5,111.5,251.5L111.5,251.5z"/>
</g>
</svg>
