<?xml version="1.0" standalone="no"?>
<!DOCTYPE svg PUBLIC "-//W3C//DTD SVG 20010904//EN"
 "http://www.w3.org/TR/2001/REC-SVG-20010904/DTD/svg10.dtd">
<svg version="1.0" xmlns="http://www.w3.org/2000/svg"
 width="250.000000pt" height="169.000000pt" viewBox="0 0 250.000000 169.000000"
 preserveAspectRatio="xMidYMid meet">
<metadata>
Created by potrace 1.15, written by Peter Selinger 2001-2017
</metadata>
<g transform="translate(0.000000,169.000000) scale(0.100000,-0.100000)"
fill="#000000" stroke="none">
<path d="M1922 1674 c-21 -14 -22 -22 -22 -149 l0 -135 -27 -6 c-213 -48 -350
-105 -510 -210 -160 -106 -363 -327 -363 -395 0 -66 69 -88 143 -45 66 39 254
112 345 135 111 29 262 51 345 51 l67 0 0 -129 c0 -150 6 -164 70 -159 35 3
59 23 284 246 234 231 246 244 246 280 0 36 -12 50 -248 285 -213 212 -252
247 -278 247 -16 0 -40 -7 -52 -16z m265 -655 l-142 -136 -5 68 c-8 108 -10
109 -189 109 -151 0 -317 -21 -426 -54 -27 -8 -51 -14 -53 -12 -5 6 155 110
213 139 79 39 218 85 323 107 122 24 132 35 132 133 l0 72 145 -145 144 -144
-142 -137z"/>
<path d="M74 1461 c-17 -10 -40 -31 -52 -46 l-22 -28 0 -648 0 -647 26 -32
c54 -63 0 -60 942 -60 l859 0 34 23 c64 42 69 65 69 315 l0 222 -70 0 -70 0
-2 -207 -3 -208 -820 0 -820 0 0 595 0 595 677 3 678 2 0 70 0 70 -697 0
c-666 0 -699 -1 -729 -19z"/>
</g>
</svg>
