<?xml version="1.0" standalone="no"?>
<!DOCTYPE svg PUBLIC "-//W3C//DTD SVG 20010904//EN"
 "http://www.w3.org/TR/2001/REC-SVG-20010904/DTD/svg10.dtd">
<svg version="1.0" xmlns="http://www.w3.org/2000/svg"
 width="210.000000pt" height="210.000000pt" viewBox="0 0 210.000000 210.000000"
 preserveAspectRatio="xMidYMid meet">
<metadata>
Created by potrace 1.15, written by Peter Selinger 2001-2017
</metadata>
<g transform="translate(0.000000,210.000000) scale(0.100000,-0.100000)"
fill="#000000" stroke="none">
<path d="M932 2074 c-93 -47 -137 -128 -130 -244 5 -87 42 -151 112 -195 45
-27 57 -30 136 -30 79 0 91 3 136 30 30 19 60 49 79 79 27 45 30 57 30 136 0
79 -3 91 -30 136 -46 74 -109 108 -204 112 -66 3 -83 0 -129 -24z"/>
<path d="M397 1856 c-55 -20 -103 -61 -134 -114 -24 -40 -28 -58 -28 -122 0
-61 5 -85 26 -125 67 -130 242 -173 367 -90 155 102 142 349 -22 434 -59 30
-153 38 -209 17z"/>
<path d="M1521 1853 c-165 -58 -213 -291 -86 -418 131 -130 362 -78 420 95 70
210 -124 397 -334 323z"/>
<path d="M132 1274 c-93 -47 -137 -128 -130 -244 5 -87 42 -151 112 -195 45
-27 57 -30 136 -30 79 0 91 3 136 30 30 19 60 49 79 79 27 45 30 57 30 136 0
79 -3 91 -30 136 -46 74 -109 108 -204 112 -66 3 -83 0 -129 -24z"/>
<path d="M1732 1274 c-93 -47 -137 -128 -130 -244 5 -87 42 -151 112 -195 45
-27 57 -30 136 -30 79 0 91 3 136 30 30 19 60 49 79 79 27 45 30 57 30 136 0
79 -3 91 -30 136 -46 74 -109 108 -204 112 -66 3 -83 0 -129 -24z"/>
<path d="M397 724 c-125 -40 -199 -197 -153 -327 81 -225 416 -219 482 9 60
207 -124 384 -329 318z"/>
<path d="M1541 729 c-211 -61 -243 -367 -48 -468 166 -85 358 17 374 198 17
183 -149 320 -326 270z"/>
<path d="M932 474 c-93 -47 -137 -128 -130 -244 5 -87 42 -151 112 -195 45
-27 57 -30 136 -30 79 0 91 3 136 30 30 19 60 49 79 79 27 45 30 57 30 136 0
79 -3 91 -30 136 -46 74 -109 108 -204 112 -66 3 -83 0 -129 -24z"/>
</g>
</svg>
