<?xml version="1.0" standalone="no"?>
<!DOCTYPE svg PUBLIC "-//W3C//DTD SVG 20010904//EN"
 "http://www.w3.org/TR/2001/REC-SVG-20010904/DTD/svg10.dtd">
<svg version="1.0" xmlns="http://www.w3.org/2000/svg"
 width="173.000000pt" height="240.000000pt" viewBox="0 0 173.000000 240.000000"
 preserveAspectRatio="xMidYMid meet">
<metadata>
Created by potrace 1.15, written by Peter Selinger 2001-2017
</metadata>
<g transform="translate(0.000000,240.000000) scale(0.100000,-0.100000)"
fill="#000000" stroke="none">
<path d="M765 2389 c-291 -45 -518 -263 -596 -572 -18 -69 -22 -124 -26 -347
l-6 -265 -43 -28 c-29 -19 -51 -44 -68 -79 l-26 -52 0 -430 c0 -273 4 -445 11
-469 6 -21 26 -56 46 -78 64 -71 49 -70 839 -67 629 3 702 5 729 20 40 22 81
66 94 101 7 19 11 188 11 488 0 440 -1 461 -20 499 -19 38 -81 90 -107 90 -10
0 -13 54 -13 248 0 271 -7 337 -49 459 -78 228 -272 411 -494 467 -77 20 -208
27 -282 15z m280 -314 c71 -34 159 -119 198 -192 55 -103 67 -181 67 -440 l0
-233 -446 0 -446 0 5 243 c5 264 12 308 68 418 36 73 106 151 167 186 73 43
119 53 227 50 86 -3 108 -7 160 -32z m-107 -1351 c113 -73 60 -254 -75 -254
-85 0 -155 88 -134 168 11 41 51 85 91 101 30 12 86 5 118 -15z"/>
</g>
</svg>
