<?xml version="1.0" encoding="utf-8"?>
<!-- Generator: Adobe Illustrator 21.0.0, SVG Export Plug-In . SVG Version: 6.00 Build 0)  -->
<svg version="1.1" id="Layer_1" xmlns="http://www.w3.org/2000/svg" xmlns:xlink="http://www.w3.org/1999/xlink" x="0px" y="0px"
	 viewBox="0 0 841.9 595.3" style="enable-background:new 0 0 841.9 595.3;" xml:space="preserve">
<g>
	<path d="M420.3,590.7c-44.5,0-193.9-208.3-195.4-210.5c-28.1-40.1-42.9-87.3-42.9-136.5C182,112.3,288.9,5.3,420.3,5.3
		s238.4,106.9,238.4,238.4c0,51.4-16.1,100.3-46.5,141.5C606,393.6,460,590.7,420.3,590.7z M412.2,543.3L412.2,543.3L412.2,543.3z
		 M420.3,54.5c-104.3,0-189.2,84.9-189.2,189.2c0,39,11.8,76.5,34.1,108.3c41,58.6,124.3,159.3,154.5,185.3
		c29.9-26.9,112.5-126.7,152.9-181.4c24.2-32.7,36.9-71.5,36.9-112.3C609.5,139.4,524.7,54.5,420.3,54.5z"/>
</g>
<g>
	<path d="M420.3,361.8c-65.1,0-118.1-53-118.1-118.1s53-118,118.1-118s118.1,53,118.1,118S485.4,361.8,420.3,361.8z M420.3,174.9
		c-38,0-68.9,30.9-68.9,68.9c0,38,30.9,68.9,68.9,68.9s68.9-30.9,68.9-68.9C489.2,205.8,458.3,174.9,420.3,174.9z"/>
</g>
</svg>
