<?xml version="1.0" standalone="no"?>
<!DOCTYPE svg PUBLIC "-//W3C//DTD SVG 20010904//EN"
 "http://www.w3.org/TR/2001/REC-SVG-20010904/DTD/svg10.dtd">
<svg version="1.0" xmlns="http://www.w3.org/2000/svg"
 width="200.000000pt" height="200.000000pt" viewBox="0 0 200.000000 200.000000"
 preserveAspectRatio="xMidYMid meet">
<metadata>
Created by potrace 1.15, written by Peter Selinger 2001-2017
</metadata>
<g transform="translate(0.000000,200.000000) scale(0.100000,-0.100000)"
fill="#000000" stroke="none">
<path d="M1655 1988 c-11 -6 -58 -48 -105 -94 l-85 -83 -605 -4 c-443 -2 -615
-6 -642 -15 -108 -36 -187 -130 -207 -246 -18 -100 -14 -814 4 -901 19 -87 62
-153 131 -197 l52 -33 3 -167 c4 -150 6 -169 25 -195 28 -38 68 -56 107 -49
21 4 113 70 269 196 l238 190 327 0 c371 0 435 8 514 61 25 18 60 53 78 78 54
80 61 139 61 555 l0 370 90 92 90 91 0 80 0 79 -104 102 -103 102 -59 0 c-32
0 -68 -6 -79 -12z m182 -161 c95 -95 100 -113 51 -164 l-32 -33 -108 107 -108
107 32 33 c50 51 69 45 165 -50z m-724 -369 l-242 -243 -34 -190 c-24 -130
-32 -195 -26 -207 13 -25 46 -23 244 13 l170 31 243 242 243 241 -3 -345 -3
-345 -28 -47 c-18 -31 -44 -57 -75 -75 l-47 -28 -379 -3 -378 -3 -242 -194
-241 -193 -3 199 -2 199 -27 0 c-44 0 -110 46 -140 98 l-28 47 0 445 c0 431 1
446 21 484 27 53 80 94 135 105 24 5 278 9 564 10 l520 1 -242 -242z m450 227
c59 -10 121 -77 136 -146 l12 -53 -253 -253 -253 -253 -107 107 -108 108 252
252 c158 158 258 251 268 249 8 -2 32 -7 53 -11z m-533 -670 c50 -51 69 -76
59 -79 -16 -6 -173 -35 -175 -32 -4 4 31 186 36 186 3 0 39 -34 80 -75z"/>
</g>
</svg>
