<?xml version="1.0" standalone="no"?>
<!DOCTYPE svg PUBLIC "-//W3C//DTD SVG 20010904//EN"
 "http://www.w3.org/TR/2001/REC-SVG-20010904/DTD/svg10.dtd">
<svg version="1.0" xmlns="http://www.w3.org/2000/svg"
 width="220.000000pt" height="220.000000pt" viewBox="0 0 220.000000 220.000000"
 preserveAspectRatio="xMidYMid meet">
<metadata>
Created by potrace 1.15, written by Peter Selinger 2001-2017
</metadata>
<g transform="translate(0.000000,220.000000) scale(0.100000,-0.100000)"
fill="#000000" stroke="none">
<path d="M400 2100 l0 -100 -153 0 -154 0 -23 -50 c-18 -39 -29 -50 -47 -50
l-23 0 0 -200 0 -200 105 0 105 0 0 150 0 150 95 0 95 0 0 -100 c0 -55 2 -100
5 -100 2 0 95 67 205 150 l201 149 -200 151 c-110 82 -203 150 -206 150 -3 0
-5 -45 -5 -100z"/>
<path d="M1261 1880 c-250 -67 -443 -248 -527 -495 -39 -114 -46 -304 -15
-426 37 -148 79 -221 260 -454 134 -174 269 -333 358 -422 109 -112 113 -111
229 10 104 107 235 263 399 473 192 246 241 375 233 612 -5 147 -31 239 -100
357 -52 88 -182 218 -268 268 -114 66 -205 90 -360 94 -111 2 -148 -1 -209
-17z m307 -459 c167 -85 204 -300 73 -431 -85 -85 -201 -104 -310 -49 -170 85
-202 298 -64 432 80 77 205 97 301 48z"/>
<path d="M380 1377 c-93 -32 -156 -71 -226 -143 -105 -106 -154 -231 -154
-397 0 -176 46 -272 263 -542 153 -191 253 -295 285 -295 31 0 85 53 235 234
l106 127 -105 142 c-58 78 -113 153 -122 166 -16 22 -21 23 -51 13 -95 -33
-203 20 -245 120 -21 49 -20 94 3 143 20 45 79 102 116 111 24 6 24 7 25 127
0 67 4 140 10 162 5 22 10 43 10 48 0 15 -87 6 -150 -16z"/>
</g>
</svg>
