<?xml version="1.0" standalone="no"?>
<!DOCTYPE svg PUBLIC "-//W3C//DTD SVG 20010904//EN"
 "http://www.w3.org/TR/2001/REC-SVG-20010904/DTD/svg10.dtd">
<svg version="1.0" xmlns="http://www.w3.org/2000/svg"
 width="200.000000pt" height="200.000000pt" viewBox="0 0 200.000000 200.000000"
 preserveAspectRatio="xMidYMid meet">
<metadata>
Created by potrace 1.15, written by Peter Selinger 2001-2017
</metadata>
<g transform="translate(0.000000,200.000000) scale(0.100000,-0.100000)"
fill="#000000" stroke="none">
<path d="M0 1000 l0 -1000 1000 0 1000 0 0 870 c0 479 -2 870 -4 870 -3 0 -58
-49 -123 -110 l-118 -110 -112 0 -112 0 106 103 c57 56 112 106 120 111 12 7
-11 35 -113 137 l-129 129 -177 0 c-98 0 -178 -3 -178 -6 0 -3 54 -58 120
-121 66 -63 120 -119 120 -123 0 -4 -55 -58 -122 -119 l-121 -111 -136 0 -136
0 120 114 120 114 -125 126 -125 126 -182 0 c-105 0 -183 -4 -183 -9 0 -5 54
-60 120 -122 66 -62 120 -115 120 -119 0 -3 -54 -56 -121 -118 l-121 -112
-114 0 -115 0 83 78 c46 43 101 95 123 114 l40 37 -130 125 -130 125 -132 0
-133 1 0 -1000z m1740 -135 l0 -125 -730 0 -730 0 0 125 0 125 730 0 730 0 0
-125z m0 -480 l0 -125 -730 0 -730 0 0 125 0 125 730 0 730 0 0 -125z"/>
<path d="M1760 1992 c0 -7 173 -180 218 -216 l22 -19 0 121 0 122 -120 0 c-66
0 -120 -3 -120 -8z"/>
</g>
</svg>
