<?xml version="1.0" encoding="utf-8"?>
<!-- Generator: Adobe Illustrator 21.0.0, SVG Export Plug-In . SVG Version: 6.00 Build 0)  -->
<svg version="1.1" id="Layer_1" xmlns="http://www.w3.org/2000/svg" xmlns:xlink="http://www.w3.org/1999/xlink" x="0px" y="0px"
	 viewBox="0 0 600 600" style="enable-background:new 0 0 600 600;" xml:space="preserve">
<style type="text/css">
	.st0{fill:#262424;}
</style>
<g>
	<path class="st0" d="M370.5,340.8H238.3l-54-54c-4.9-4.9-4.9-12.8,0-17.7c4.9-4.9,12.8-4.9,17.7,0l46.7,46.7h111.4l47.5-47.5
		c4.9-4.9,12.8-4.9,17.7,0c4.9,4.9,4.9,12.8,0,17.7L370.5,340.8z"/>
</g>
<g>
	<path class="st0" d="M243.6,562.5c-0.9,0-1.8-0.1-2.6-0.3c-6.8-1.5-11.1-8.1-9.6-14.9L253.5,444l71.4-24.3l-29.5-87.5
		c-2.2-6.6,1.3-13.7,7.9-15.9c6.6-2.2,13.7,1.3,15.9,7.9l37.5,111.2l-81.6,27.8l-19.2,89.4C254.6,558.5,249.4,562.5,243.6,562.5z"/>
</g>
<g>
	<path class="st0" d="M349.7,591c-6.7,0-12.2-5.3-12.5-12l-5.9-140.7c-0.3-6.9,5.1-12.8,12-13.1c6.8-0.3,12.8,5.1,13.1,12l5.9,140.7
		c0.3,6.9-5.1,12.8-12,13.1C350.1,591,349.9,591,349.7,591z"/>
</g>
<g>
	<path class="st0" d="M299.9,298.9c-31.6,0-57.2-25.7-57.2-57.2c0-31.5,25.7-57.2,57.2-57.2c31.5,0,57.2,25.7,57.2,57.2
		C357.1,273.3,331.4,298.9,299.9,298.9z M299.9,209.6c-17.7,0-32.1,14.4-32.1,32.1s14.4,32.1,32.1,32.1c17.7,0,32.1-14.4,32.1-32.1
		S317.6,209.6,299.9,209.6z"/>
</g>
<g>
	<path class="st0" d="M194,152.1c-3.2,0-6.4-1.2-8.9-3.7c-4.9-4.9-4.9-12.8,0-17.7l12.3-12.3c4.9-4.9,12.8-4.9,17.7,0
		c4.9,4.9,4.9,12.8,0,17.7l-12.3,12.3C200.4,150.9,197.2,152.1,194,152.1z"/>
</g>
<g>
	<path class="st0" d="M143.3,202.9c-3.2,0-6.4-1.2-8.9-3.7c-4.9-4.9-4.9-12.8,0-17.7l12.3-12.3c4.9-4.9,12.8-4.9,17.7,0
		c4.9,4.9,4.9,12.8,0,17.7l-12.3,12.3C149.7,201.7,146.5,202.9,143.3,202.9z"/>
</g>
<g>
	<path class="st0" d="M206.3,202.9c-3.2,0-6.4-1.2-8.9-3.7l-12.3-12.3c-4.9-4.9-4.9-12.8,0-17.7c4.9-4.9,12.8-4.9,17.7,0l12.3,12.3
		c4.9,4.9,4.9,12.8,0,17.7C212.8,201.7,209.6,202.9,206.3,202.9z"/>
</g>
<g>
	<path class="st0" d="M155.6,152.1c-3.2,0-6.4-1.2-8.9-3.7l-12.3-12.3c-4.9-4.9-4.9-12.8,0-17.7c4.9-4.9,12.8-4.9,17.7,0l12.3,12.3
		c4.9,4.9,4.9,12.8,0,17.7C162,150.9,158.8,152.1,155.6,152.1z"/>
</g>
<g>
	<path class="st0" d="M444.1,146.1c-3.2,0-6.4-1.2-8.9-3.7c-4.9-4.9-4.9-12.8,0-17.7l12.3-12.3c4.9-4.9,12.8-4.9,17.7,0
		c4.9,4.9,4.9,12.8,0,17.7L453,142.4C450.5,144.9,447.3,146.1,444.1,146.1z"/>
</g>
<g>
	<path class="st0" d="M393.3,196.8c-3.2,0-6.4-1.2-8.9-3.7c-4.9-4.9-4.9-12.8,0-17.7l12.3-12.3c4.9-4.9,12.8-4.9,17.7,0
		c4.9,4.9,4.9,12.8,0,17.7l-12.3,12.3C399.8,195.6,396.6,196.8,393.3,196.8z"/>
</g>
<g>
	<path class="st0" d="M456.4,196.8c-3.2,0-6.4-1.2-8.9-3.7l-12.3-12.3c-4.9-4.9-4.9-12.8,0-17.7c4.9-4.9,12.8-4.9,17.7,0l12.3,12.3
		c4.9,4.9,4.9,12.8,0,17.7C462.8,195.6,459.6,196.8,456.4,196.8z"/>
</g>
<g>
	<path class="st0" d="M405.7,146.1c-3.2,0-6.4-1.2-8.9-3.7l-12.3-12.3c-4.9-4.9-4.9-12.8,0-17.7c4.9-4.9,12.8-4.9,17.7,0l12.3,12.3
		c4.9,4.9,4.9,12.8,0,17.7C412.1,144.9,408.9,146.1,405.7,146.1z"/>
</g>
<g>
	<path class="st0" d="M340.5,78.7h-17.4c-6.9,0-12.5-5.6-12.5-12.5c0-6.9,5.6-12.5,12.5-12.5h17.4c6.9,0,12.5,5.6,12.5,12.5
		C353,73.1,347.4,78.7,340.5,78.7z"/>
</g>
<g>
	<path class="st0" d="M268.7,78.7h-17.4c-6.9,0-12.5-5.6-12.5-12.5c0-6.9,5.6-12.5,12.5-12.5h17.4c6.9,0,12.5,5.6,12.5,12.5
		C281.2,73.1,275.6,78.7,268.7,78.7z"/>
</g>
<g>
	<path class="st0" d="M295.9,123.3c-6.9,0-12.5-5.6-12.5-12.5V93.3c0-6.9,5.6-12.5,12.5-12.5s12.5,5.6,12.5,12.5v17.4
		C308.4,117.7,302.8,123.3,295.9,123.3z"/>
</g>
<g>
	<path class="st0" d="M295.9,51.5c-6.9,0-12.5-5.6-12.5-12.5V21.5c0-6.9,5.6-12.5,12.5-12.5s12.5,5.6,12.5,12.5V39
		C308.4,45.9,302.8,51.5,295.9,51.5z"/>
</g>
</svg>
