<?xml version="1.0" standalone="no"?>
<!DOCTYPE svg PUBLIC "-//W3C//DTD SVG 20010904//EN"
 "http://www.w3.org/TR/2001/REC-SVG-20010904/DTD/svg10.dtd">
<svg version="1.0" xmlns="http://www.w3.org/2000/svg"
 width="200.000000pt" height="200.000000pt" viewBox="0 0 200.000000 200.000000"
 preserveAspectRatio="xMidYMid meet">
<metadata>
Created by potrace 1.15, written by Peter Selinger 2001-2017
</metadata>
<g transform="translate(0.000000,200.000000) scale(0.100000,-0.100000)"
fill="#000000" stroke="none">
<path d="M125 1981 c-22 -10 -52 -31 -67 -47 -60 -65 -58 -26 -58 -936 0 -789
1 -835 19 -873 10 -22 31 -52 47 -67 65 -60 26 -58 934 -58 908 0 869 -2 934
58 16 15 37 45 47 67 18 38 19 84 19 873 0 910 2 871 -58 936 -15 16 -45 37
-67 47 -38 18 -83 19 -875 19 -792 0 -837 -1 -875 -19z m1036 -441 c29 -6 72
-19 95 -31 63 -30 139 -110 158 -166 54 -155 13 -334 -94 -408 -86 -60 -127
-68 -357 -73 l-213 -4 0 -204 0 -204 -95 0 -95 0 0 550 0 550 274 0 c150 0
297 -5 327 -10z"/>
<path d="M750 1200 l0 -200 172 0 c202 0 240 11 282 83 48 83 46 153 -6 232
-50 75 -80 85 -280 85 l-168 0 0 -200z"/>
</g>
</svg>
