<?xml version="1.0" encoding="utf-8"?>
<!-- Generator: Adobe Illustrator 21.0.0, SVG Export Plug-In . SVG Version: 6.00 Build 0)  -->
<svg version="1.1" id="Layer_1" xmlns="http://www.w3.org/2000/svg" xmlns:xlink="http://www.w3.org/1999/xlink" x="0px" y="0px"
	 width="260px" height="200px" viewBox="0 0 260 200" style="enable-background:new 0 0 260 200;" xml:space="preserve">
<g transform="translate(0.000000,200.000000) scale(0.100000,-0.100000)">
	<path d="M719.2,1834.1c-50.5-10.9-117.8-48.8-143.9-83.3c-18.5-25.2-22.7-38.7-25.2-99.3l-2.5-69.8h85h85v42.1v42.1h757.1h757.1
		v-500.6V664.8h-84.1h-84.1V1024v358.4l-21,36.2c-13.5,22.7-37,45.4-61.4,59.7l-39.5,23.6h-774c-845.5,0-817.7,0.8-888.4-49.6
		c-69.8-51.3-66.5-16-66.5-636.8V266.8l21-36.2c11.8-19.3,33.7-43.7,49.6-53c27.8-17.7,31.1-17.7,853.9-17.7h825.3l35.3,32
		c61.4,54.7,65.6,72.3,65.6,281.8v182.6h42.1h42.1v-84.1v-84.1h63.1c71.5,0,95.1,9.3,136.3,52.2c54.7,57.2,53,34.5,53,634.3v544.3
		l-21,36.2c-13.5,22.7-37,45.4-61.4,59.7l-39.5,23.6l-761.3,1.7C1097.7,1840,739.4,1837.5,719.2,1834.1z M1895.2,828.8V328.3h-757.1
		H381v500.6v500.6h757.1h757.1V828.8z"/>
</g>
</svg>
