<?xml version="1.0" standalone="no"?>
<!DOCTYPE svg PUBLIC "-//W3C//DTD SVG 20010904//EN"
 "http://www.w3.org/TR/2001/REC-SVG-20010904/DTD/svg10.dtd">
<svg version="1.0" xmlns="http://www.w3.org/2000/svg"
 width="259.000000pt" height="259.000000pt" viewBox="0 0 259.000000 259.000000"
 preserveAspectRatio="xMidYMid meet">
<metadata>
Created by potrace 1.15, written by Peter Selinger 2001-2017
</metadata>
<g transform="translate(0.000000,259.000000) scale(0.100000,-0.100000)"
fill="#000000" stroke="none">
<path d="M194 2579 c-59 -17 -126 -71 -158 -129 l-31 -55 0 -1100 0 -1100 31
-55 c33 -60 99 -112 162 -130 51 -14 2143 -14 2194 0 63 18 129 70 162 130
l31 55 0 1100 0 1100 -31 55 c-33 60 -99 112 -162 130 -47 13 -2153 12 -2198
-1z m2213 -172 l38 -37 3 -648 2 -647 -262 263 c-244 242 -266 262 -298 262
-33 0 -60 -25 -417 -382 l-383 -383 -207 207 c-205 203 -235 228 -269 228 -10
0 -121 -102 -246 -227 l-228 -228 2 777 3 777 30 31 c17 18 39 36 50 40 11 5
498 8 1082 7 l1063 -2 37 -38z m-234 -1255 l278 -278 -3 -327 -3 -327 -38 -37
-37 -38 -1075 0 -1075 0 -37 38 -38 37 -3 198 -3 197 241 240 240 240 207
-207 c115 -113 218 -211 230 -217 13 -6 33 -9 46 -6 13 4 194 177 403 386 208
208 381 379 384 379 3 0 130 -125 283 -278z"/>
<path d="M710 2201 c-90 -29 -174 -104 -213 -189 -30 -65 -30 -197 0 -264 28
-62 96 -134 158 -166 44 -24 61 -27 150 -27 89 0 105 3 151 27 67 35 138 115
161 181 25 73 23 187 -5 249 -28 63 -95 134 -157 166 -40 20 -67 26 -135 28
-47 2 -96 0 -110 -5z m207 -167 c106 -85 107 -221 1 -307 -65 -52 -171 -50
-235 6 -89 78 -95 196 -15 281 41 43 79 57 149 53 52 -2 69 -8 100 -33z"/>
</g>
</svg>
