<?xml version="1.0" encoding="utf-8"?>
<!-- Generator: Adobe Illustrator 21.0.0, SVG Export Plug-In . SVG Version: 6.00 Build 0)  -->
<svg version="1.1" id="Layer_1" xmlns="http://www.w3.org/2000/svg" xmlns:xlink="http://www.w3.org/1999/xlink" x="0px" y="0px"
	 viewBox="0 0 500 500" style="enable-background:new 0 0 500 500;" xml:space="preserve">
<style type="text/css">
	.st0{fill:#000000;}
</style>
<path class="st0" d="M468,250.2c-0.8-25.4-22-45.5-47.4-44.8l-92.8,3L228.3,23.9h-48.1c-5.2,0-9.5,4.2-9.5,9.5c0,0,0,0,0,0
	l51.7,178.5l-94.5,3.7c-7.7,0-15.3,1.2-22.6,3.7l-35.7-60.5h-30c-4,0-7.2,3.2-7.2,7.2l26,79.7v9.6l-26.2,79.6c0,4,3.2,7.2,7.2,7.2
	l0,0h29.9l36.4-61.5c7.1,2.4,14.5,3.6,22,3.6l94.9,3.9l-52.5,179.6c0,5.3,4.3,9.5,9.5,9.5h48.1l100.6-185.5l92.1,3.2
	C446,295.6,467.2,275.6,468,250.2z"/>
</svg>
