<?xml version="1.0" encoding="utf-8"?>
<!-- Generator: Adobe Illustrator 21.0.0, SVG Export Plug-In . SVG Version: 6.00 Build 0)  -->
<svg version="1.1" id="Layer_1" xmlns="http://www.w3.org/2000/svg" xmlns:xlink="http://www.w3.org/1999/xlink" x="0px" y="0px"
	 viewBox="0 0 230 290" style="enable-background:new 0 0 230 290;" xml:space="preserve">
<g transform="translate(0.000000,290.000000) scale(0.100000,-0.100000)">
	<path d="M983.9,2653.7c-202.1-52.4-361.8-212.9-420.9-420c-24.1-85.7-25.8-238.7-4.2-320.2c45.7-170.5,165.5-320.2,316.9-394.3
		c90.7-44.1,153-58.2,262.8-58.2s172.2,14.1,262.8,58.2c151.4,74,271.2,223.7,316.9,394.3c21.6,81.5,20,234.6-4.2,320.2
		c-59.9,209.6-220.4,368.5-424.2,420.9C1206.8,2675.3,1066.3,2675.3,983.9,2653.7z M1242.6,2475.7c69.9-18.3,130.6-54.9,188-112.3
		c225.4-226.2,132.3-601.4-175.5-704.5c-29.9-10-69.9-15-116.4-15c-229.6,0-415.9,189.6-415.9,423.4c0,184.7,123.9,351,303.6,407.6
		C1071.3,2489,1191,2489.8,1242.6,2475.7z"/>
	<path d="M1030.5,1317.9c-11.6-1.7-43.3-7.5-70.7-12.5c-184.7-31.6-384.3-141.4-515.7-284.5c-161.4-173-248.7-377.6-259.5-604.7
		l-5-104l23.3-27.4l22.5-26.6h913.3h913.3l22.5,26.6l23.3,27.4l-5,104c-20,429.2-330.2,792.7-758.6,886.7
		C1278.4,1315.4,1073.8,1325.4,1030.5,1317.9z M1284.2,1124.1c268.7-54.9,486.6-241.2,582.2-494.9c20-53.2,45.7-157.2,45.7-184.7
		c0-10-107.3-11.6-773.5-11.6s-773.5,1.7-773.5,11.6c0,27.4,25.8,131.4,45.7,184.7C544.8,985.2,922.4,1198.9,1284.2,1124.1z"/>
</g>
</svg>
