<?xml version="1.0" encoding="utf-8"?>
<!-- Generator: Adobe Illustrator 21.0.0, SVG Export Plug-In . SVG Version: 6.00 Build 0)  -->
<svg version="1.1" id="Layer_1" xmlns="http://www.w3.org/2000/svg" xmlns:xlink="http://www.w3.org/1999/xlink" x="0px" y="0px"
	 viewBox="0 0 400 400" style="enable-background:new 0 0 400 400;" xml:space="preserve">
<style type="text/css">
	.st0{fill:#262424;}
</style>
<g>
	<path class="st0" d="M231.6,232.4c-1.7,0-3.4-0.5-4.9-1.6L193.7,207c-3.8-2.7-4.6-8-1.9-11.7c2.7-3.8,7.9-4.6,11.7-1.9l28.2,20.3
		l28-19.1c3.8-2.6,9.1-1.6,11.7,2.2c2.6,3.8,1.6,9.1-2.2,11.7l-32.9,22.4C234.9,231.9,233.2,232.4,231.6,232.4z"/>
</g>
<g>
	<path class="st0" d="M232.2,347c-0.6,0-1.3-0.1-2-0.2c-4.5-1.1-7.3-5.6-6.2-10.1l16.8-70.3c0.2-0.7,0.4-1.4,0.7-2l14.4-27.2v-65
		c0-4.6,3.8-8.4,8.4-8.4s8.4,3.8,8.4,8.4v67.1c0,1.4-0.3,2.7-1,3.9l-14.9,28.1l-16.6,69.2C239.5,344.4,236,347,232.2,347z"/>
</g>
<g>
	<path class="st0" d="M298,347c-3.8,0-7.2-2.6-8.2-6.4l-16.5-69.1l-16.2-27.9c-2.3-4-0.9-9.1,3.1-11.5c4-2.3,9.1-0.9,11.5,3.1
		l16.8,29c0.4,0.7,0.7,1.5,0.9,2.2l16.8,70.3c1.1,4.5-1.7,9-6.2,10.1C299.3,346.9,298.6,347,298,347z"/>
</g>
<g>
	<path class="st0" d="M264.6,180.6c-21.1,0-38.3-17.2-38.3-38.3c0-21.1,17.2-38.3,38.3-38.3s38.3,17.2,38.3,38.3
		C302.9,163.4,285.7,180.6,264.6,180.6z M264.6,120.8c-11.9,0-21.5,9.6-21.5,21.5c0,11.9,9.6,21.5,21.5,21.5
		c11.9,0,21.5-9.6,21.5-21.5C286.1,130.5,276.5,120.8,264.6,120.8z"/>
</g>
<g>
	<path class="st0" d="M317.6,268.7c-3,0-5.9-1.6-7.4-4.4l-15.9-29.8l-34.9-26.2c-3.7-2.8-4.5-8-1.7-11.8c2.8-3.7,8.1-4.5,11.8-1.7
		l36.4,27.3c1,0.7,1.8,1.7,2.4,2.8l16.8,31.4c2.2,4.1,0.6,9.2-3.5,11.4C320.3,268.4,318.9,268.7,317.6,268.7z"/>
</g>
<g>
	<path class="st0" d="M206.9,181.1H81.8c-4.6,0-8.4-3.8-8.4-8.4V67.5c0-4.6,3.8-8.4,8.4-8.4h125.1c4.6,0,8.4,3.8,8.4,8.4v105.2
		C215.3,177.3,211.5,181.1,206.9,181.1z M90.2,164.3h108.3V75.9H90.2V164.3z"/>
</g>
<g>
	<path class="st0" d="M114.7,110.7h-2.2c-4.6,0-8.4-3.8-8.4-8.4c0-4.6,3.8-8.4,8.4-8.4h2.2c4.6,0,8.4,3.8,8.4,8.4
		C123,106.9,119.3,110.7,114.7,110.7z"/>
</g>
<g>
	<path class="st0" d="M147.1,110.7h-2.2c-4.6,0-8.4-3.8-8.4-8.4c0-4.6,3.8-8.4,8.4-8.4h2.2c4.6,0,8.4,3.8,8.4,8.4
		C155.5,106.9,151.7,110.7,147.1,110.7z"/>
</g>
<g>
	<path class="st0" d="M179.5,110.7h-2.2c-4.6,0-8.4-3.8-8.4-8.4c0-4.6,3.8-8.4,8.4-8.4h2.2c4.6,0,8.4,3.8,8.4,8.4
		C187.9,106.9,184.2,110.7,179.5,110.7z"/>
</g>
<g>
	<path class="st0" d="M114.7,133.1h-2.2c-4.6,0-8.4-3.8-8.4-8.4c0-4.6,3.8-8.4,8.4-8.4h2.2c4.6,0,8.4,3.8,8.4,8.4
		C123,129.4,119.3,133.1,114.7,133.1z"/>
</g>
<g>
	<path class="st0" d="M147.1,133.1h-2.2c-4.6,0-8.4-3.8-8.4-8.4c0-4.6,3.8-8.4,8.4-8.4h2.2c4.6,0,8.4,3.8,8.4,8.4
		C155.5,129.4,151.7,133.1,147.1,133.1z"/>
</g>
<g>
	<path class="st0" d="M179.5,133.1h-2.2c-4.6,0-8.4-3.8-8.4-8.4c0-4.6,3.8-8.4,8.4-8.4h2.2c4.6,0,8.4,3.8,8.4,8.4
		C187.9,129.4,184.2,133.1,179.5,133.1z"/>
</g>
<g>
	<path class="st0" d="M114.7,155.6h-2.2c-4.6,0-8.4-3.8-8.4-8.4c0-4.6,3.8-8.4,8.4-8.4h2.2c4.6,0,8.4,3.8,8.4,8.4
		C123,151.8,119.3,155.6,114.7,155.6z"/>
</g>
<g>
	<path class="st0" d="M147.1,155.6h-2.2c-4.6,0-8.4-3.8-8.4-8.4c0-4.6,3.8-8.4,8.4-8.4h2.2c4.6,0,8.4,3.8,8.4,8.4
		C155.5,151.8,151.7,155.6,147.1,155.6z"/>
</g>
<g>
	<path class="st0" d="M179.5,155.6h-2.2c-4.6,0-8.4-3.8-8.4-8.4c0-4.6,3.8-8.4,8.4-8.4h2.2c4.6,0,8.4,3.8,8.4,8.4
		C187.9,151.8,184.2,155.6,179.5,155.6z"/>
</g>
<g>
	<path class="st0" d="M113.6,84.4c-4.6,0-8.4-3.8-8.4-8.4V55.4c0-4.6,3.8-8.4,8.4-8.4c4.6,0,8.4,3.8,8.4,8.4V76
		C121.9,80.6,118.2,84.4,113.6,84.4z"/>
</g>
<g>
	<path class="st0" d="M175.1,84.4c-4.6,0-8.4-3.8-8.4-8.4V55.4c0-4.6,3.8-8.4,8.4-8.4s8.4,3.8,8.4,8.4V76
		C183.5,80.6,179.7,84.4,175.1,84.4z"/>
</g>
</svg>
