<?xml version="1.0" standalone="no"?>
<!DOCTYPE svg PUBLIC "-//W3C//DTD SVG 20010904//EN"
 "http://www.w3.org/TR/2001/REC-SVG-20010904/DTD/svg10.dtd">
<svg version="1.0" xmlns="http://www.w3.org/2000/svg"
 width="284.000000pt" height="243.000000pt" viewBox="0 0 284.000000 243.000000"
 preserveAspectRatio="xMidYMid meet">
<metadata>
Created by potrace 1.15, written by Peter Selinger 2001-2017
</metadata>
<g transform="translate(0.000000,243.000000) scale(0.100000,-0.100000)"
fill="#000000" stroke="none">
<path d="M31 2411 c-11 -11 -23 -35 -26 -53 -3 -18 -4 -431 -3 -916 l3 -884
28 -24 28 -24 305 0 304 0 0 -222 c0 -159 4 -230 13 -248 15 -29 54 -45 88
-37 13 3 139 119 281 257 l256 250 736 0 735 0 28 24 28 24 3 884 c1 485 0
898 -3 916 -3 18 -15 42 -26 53 -19 19 -45 19 -1389 19 -1344 0 -1370 0 -1389
-19z m2649 -941 l0 -800 -716 0 -717 0 -91 -87 c-50 -48 -144 -139 -208 -203
l-118 -115 0 178 c0 176 0 178 -25 202 l-24 25 -311 0 -310 0 0 800 0 800
1260 0 1260 0 0 -800z"/>
<path d="M476 1819 c-43 -51 -32 -115 24 -144 25 -13 145 -15 920 -15 775 0
895 2 920 15 56 29 67 93 24 144 l-26 31 -918 0 -918 0 -26 -31z"/>
<path d="M479 1371 c-21 -22 -29 -39 -29 -66 0 -27 8 -44 29 -66 l29 -29 912
0 912 0 29 29 c21 22 29 39 29 66 0 27 -8 44 -29 66 l-29 29 -912 0 -912 0
-29 -29z"/>
</g>
</svg>
