<?xml version="1.0" standalone="no"?>
<!DOCTYPE svg PUBLIC "-//W3C//DTD SVG 20010904//EN"
 "http://www.w3.org/TR/2001/REC-SVG-20010904/DTD/svg10.dtd">
<svg version="1.0" xmlns="http://www.w3.org/2000/svg"
 width="170.000000pt" height="200.000000pt" viewBox="0 0 170.000000 200.000000"
 preserveAspectRatio="xMidYMid meet">
<metadata>
Created by potrace 1.15, written by Peter Selinger 2001-2017
</metadata>
<g transform="translate(0.000000,200.000000) scale(0.100000,-0.100000)"
fill="#000000" stroke="none">
<path d="M532 1989 c-207 -24 -358 -84 -440 -174 -88 -96 -86 -75 -90 -690 -4
-577 0 -629 44 -717 51 -101 161 -179 273 -195 l55 -8 -77 -69 c-67 -60 -77
-74 -77 -103 l0 -33 122 0 121 0 108 105 108 105 193 0 193 0 105 -105 105
-105 112 0 113 0 0 33 c0 29 -10 43 -77 103 l-77 69 55 8 c113 16 222 94 273
196 l26 50 0 626 0 626 -25 48 c-63 126 -219 201 -480 231 -106 12 -558 11
-663 -1z m218 -624 l0 -205 -260 0 -260 0 0 205 0 205 260 0 260 0 0 -205z
m740 0 l0 -205 -260 0 -260 0 0 205 0 205 260 0 260 0 0 -205z m-1022 -662
c118 -88 59 -273 -87 -273 -158 0 -210 212 -69 284 42 21 120 16 156 -11z
m939 11 c141 -68 91 -284 -67 -284 -129 0 -198 143 -118 245 41 53 120 69 185
39z"/>
</g>
</svg>
