<?xml version="1.0" standalone="no"?>
<!DOCTYPE svg PUBLIC "-//W3C//DTD SVG 20010904//EN"
 "http://www.w3.org/TR/2001/REC-SVG-20010904/DTD/svg10.dtd">
<svg version="1.0" xmlns="http://www.w3.org/2000/svg"
 width="330.000000pt" height="270.000000pt" viewBox="0 0 330.000000 270.000000"
 preserveAspectRatio="xMidYMid meet">
<metadata>
Created by potrace 1.15, written by Peter Selinger 2001-2017
</metadata>
<g transform="translate(0.000000,270.000000) scale(0.100000,-0.100000)"
fill="#000000" stroke="none">
<path d="M1597 2683 c-8 -10 -50 -123 -92 -250 l-76 -233 -247 0 c-266 0 -289
-4 -306 -51 -19 -54 -5 -69 209 -223 137 -98 205 -153 201 -162 -28 -72 -146
-453 -146 -470 0 -43 37 -69 91 -65 9 0 107 66 218 146 l201 144 201 -144
c111 -80 209 -146 218 -146 54 -4 91 22 91 65 0 17 -118 398 -146 470 -4 9 64
64 201 162 214 154 228 169 209 223 -17 47 -40 51 -306 51 l-247 0 -76 233
c-42 127 -84 240 -92 250 -10 10 -31 17 -53 17 -22 0 -43 -7 -53 -17z m106
-457 c26 -79 56 -151 65 -159 15 -14 48 -17 184 -19 l166 -3 -131 -95 c-128
-93 -132 -97 -135 -135 -2 -27 12 -84 43 -174 24 -74 44 -136 42 -137 -1 -1
-58 38 -126 87 -69 49 -135 92 -147 95 -28 7 -56 -8 -189 -104 -60 -44 -111
-79 -112 -78 -1 1 20 68 46 150 35 106 47 155 42 174 -5 20 -44 54 -138 122
l-131 95 166 3 c136 2 169 5 184 19 9 8 39 80 65 159 26 79 50 144 53 144 3 0
27 -65 53 -144z"/>
<path d="M752 1472 c-12 -2 -29 -13 -36 -25 -8 -12 -47 -124 -87 -249 l-73
-228 -248 0 c-262 0 -294 -5 -304 -46 -16 -64 -10 -71 207 -228 l206 -148 -78
-237 c-47 -141 -76 -244 -73 -256 11 -36 36 -55 72 -55 29 0 68 23 226 137
105 75 196 140 202 144 6 5 89 -49 210 -136 169 -123 204 -145 236 -145 38 0
62 16 73 49 3 12 -25 115 -70 253 -41 128 -75 238 -74 243 0 6 89 73 197 151
108 78 203 152 211 166 12 21 12 31 2 56 -7 17 -20 34 -29 39 -10 4 -131 10
-271 13 l-254 5 -78 233 c-43 129 -83 240 -89 247 -12 15 -45 22 -78 17z m138
-636 c7 -7 74 -13 182 -16 l172 -5 -124 -90 c-134 -96 -149 -110 -150 -139 0
-10 20 -82 45 -159 25 -77 44 -142 41 -144 -2 -2 -61 37 -131 87 -71 50 -137
90 -150 90 -13 0 -78 -40 -150 -91 -69 -50 -128 -89 -131 -87 -2 3 16 65 41
138 25 74 45 147 45 162 0 35 -10 45 -154 148 l-119 85 170 5 c110 3 175 9
184 17 8 7 37 81 64 166 l50 155 52 -155 c28 -86 56 -160 63 -167z"/>
<path d="M2503 1472 c-12 -2 -27 -9 -33 -17 -6 -7 -46 -118 -89 -247 l-78
-233 -254 -5 c-140 -3 -261 -9 -271 -13 -9 -5 -22 -22 -29 -39 -10 -25 -10
-35 2 -56 8 -14 103 -88 211 -166 108 -78 197 -145 197 -151 1 -5 -33 -115
-74 -243 -45 -138 -73 -241 -70 -253 11 -33 35 -49 73 -49 32 0 67 22 236 145
121 87 204 141 210 136 6 -4 97 -69 202 -144 158 -114 197 -137 226 -137 36 0
61 19 72 55 3 12 -26 115 -73 256 l-78 237 206 148 c217 157 223 164 207 228
-10 41 -42 46 -304 46 l-248 0 -73 228 c-40 125 -79 237 -86 248 -14 22 -44
32 -82 26z m133 -632 c12 -12 52 -16 186 -20 l171 -5 -119 -85 c-144 -103
-154 -113 -154 -148 0 -15 20 -88 45 -162 25 -73 43 -135 41 -138 -3 -2 -62
37 -131 87 -72 51 -137 91 -150 91 -13 0 -79 -40 -150 -90 -70 -50 -129 -89
-131 -87 -3 2 16 67 41 144 25 77 45 149 45 159 -1 29 -16 43 -150 139 l-124
90 173 5 c148 4 174 7 185 22 7 10 34 85 61 167 l48 149 50 -151 c27 -84 55
-159 63 -167z"/>
</g>
</svg>
