<?xml version="1.0" encoding="utf-8"?>
<!-- Generator: Adobe Illustrator 21.0.0, SVG Export Plug-In . SVG Version: 6.00 Build 0)  -->
<svg version="1.1" id="Layer_1" xmlns="http://www.w3.org/2000/svg" xmlns:xlink="http://www.w3.org/1999/xlink" x="0px" y="0px"
	 viewBox="0 0 220 250" style="enable-background:new 0 0 220 250;" xml:space="preserve">
<g transform="translate(0.000000,250.000000) scale(0.100000,-0.100000)">
	<path d="M1028.9,2263.8c-36.7-21.2-144.2-52.1-215-61.1c-84.7-10.6-154.8-0.8-238.6,32.6c-49.7,19.5-62.7,22-83.1,15.5
		c-15.5-5.7-77.4-64.3-159.6-150.7l-134.4-141.7v-39.1c0-21.2,7.3-74.9,15.5-119.7c41.5-212.6,52.9-449.6,27.7-564.4
		c-17.1-79-17.1-199.6,0.8-272.9c70-292.4,319.3-530.2,718.4-686.6c118.1-46.4,153.9-47.2,258.2-6.5
		c389.3,152.3,623.9,362.5,718.4,642.6c30.1,88.8,36.7,209.3,16.3,310.3c-25.2,126.2-15.5,352.7,24.4,568.5
		c6.5,35,12.2,88,12.2,118.1v54.6l-129.5,137.7c-158,168.6-162.9,170.2-243.5,135.2c-114.8-50.5-238.6-48.9-388.5,4.9
		C1135.6,2274.4,1060.7,2283.3,1028.9,2263.8z M1309.9,2043.9c94.5-17.9,231.3-13,299.7,9.8l47.2,16.3l79-80.6
		c43.2-44.8,81.5-85.5,84.7-91.2c2.4-4.9-3.3-60.3-13.8-123c-40.7-238.6-45.6-453.7-15.5-593.8c23.6-106.7-0.8-226.4-70.9-344.5
		c-45.6-75.7-162.9-192.2-258.2-255.8c-87.2-58.6-225.6-129.5-316-162.1l-49.7-17.9l-72.5,28.5C743,537.8,532,704.8,445.7,887.3
		c-52.9,111.6-64.3,204.4-39.1,321.7c9.8,43.2,13,101,13,195.5c0,142.5-7.3,217.5-35,384.4l-17.9,103.4l83.1,88.8l83.1,89.6
		l50.5-16.3c79.8-25.2,210.1-28.5,313.6-7.3c45.6,9.8,110,27.7,140.9,40.7l57.8,22.8l70-26.9
		C1204.8,2069.1,1270,2051.2,1309.9,2043.9z"/>
	<path d="M1069.6,1936.3c-34.2-12.2-48.1-40.7-101.8-210.1l-56.2-174.3l-190.6-2.4l-190.6-2.4l-19.5-22.8
		c-10.6-12.2-22-31.8-24.4-43.2c-10.6-41.5,10.6-65.2,158.8-175.1c79-58.6,144.2-110,145.8-114c1.6-3.3-21.2-83.1-50.5-175.9
		c-29.3-93.7-53.8-175.9-53.8-183.3c0-25.2,19.5-56.2,41.5-68.4c47.2-24.4,62.7-17.1,219.9,97.7l148.2,109.1l45.6-33.4
		c25.2-17.9,86.3-63.5,136-100.2c49.7-36.7,97.7-70.9,107.5-75.7c42.4-22.8,95.3-0.8,114.8,47.2c9,21.2,4.9,41.5-44,197.1
		c-30.1,96.1-56.2,176.7-57.8,180c-1.6,2.4,61.9,53.8,140.9,113.2c79.8,59.5,147.4,111.6,151.5,116.5
		c25.2,36.7,14.7,97.7-21.2,118.9c-23.6,14.7-42.4,16.3-206.9,16.3h-180.8l-57.8,179.2c-53.8,167-59.5,180.8-83.9,195.5
		C1114.4,1942,1093.2,1945.3,1069.6,1936.3z M1177.9,1401.2c18.7-13.8,39.1-17.9,105.1-21.2l82.3-4.1l-66-47.2
		c-92.9-66.8-95.3-75.7-55.4-202.8c10.6-35,17.9-63.5,15.5-63.5s-28.5,17.9-58.6,39.9c-99.4,73.3-110.8,73.3-202.8,4.1
		c-32.6-25.2-61.9-44-63.5-41.5c-2.4,1.6,7.3,39.1,21.2,81.5c23.6,73.3,24.4,79.8,13,106.7c-7.3,18.7-32.6,44-74.9,75.7l-63.5,47.2
		l83.1,4.9c112.4,5.7,119.7,11.4,155.6,122.2l27.7,84.7l29.3-84.7C1147.8,1438.7,1160.8,1414.3,1177.9,1401.2z"/>
</g>
</svg>
