<?xml version="1.0" encoding="utf-8"?>
<!-- Generator: Adobe Illustrator 21.0.0, SVG Export Plug-In . SVG Version: 6.00 Build 0)  -->
<svg version="1.1" id="Layer_1" xmlns="http://www.w3.org/2000/svg" xmlns:xlink="http://www.w3.org/1999/xlink" x="0px" y="0px"
	 width="55px" height="55px" viewBox="0 0 55 55" enable-background="new 0 0 55 55" xml:space="preserve">
<path fill="#000200" d="M49.781,45.391L38.14,33.75c2.189-3.011,3.484-6.715,3.484-10.715c0-10.065-8.189-18.255-18.257-18.255
	c-10.065,0-18.255,8.189-18.255,18.255c0,10.067,8.189,18.255,18.255,18.255c3.816,0,7.36-1.176,10.294-3.186l11.703,11.703
	L49.781,45.391z M10.467,23.035c0-7.114,5.788-12.902,12.902-12.902s12.902,5.788,12.902,12.902s-5.788,12.902-12.902,12.902
	C16.253,35.938,10.467,30.15,10.467,23.035z"/>
</svg>
