<?xml version="1.0" standalone="no"?>
<!DOCTYPE svg PUBLIC "-//W3C//DTD SVG 20010904//EN"
 "http://www.w3.org/TR/2001/REC-SVG-20010904/DTD/svg10.dtd">
<svg version="1.0" xmlns="http://www.w3.org/2000/svg"
 width="500.000000pt" height="593.000000pt" viewBox="0 0 500.000000 593.000000"
 preserveAspectRatio="xMidYMid meet">
<metadata>
Created by potrace 1.15, written by Peter Selinger 2001-2017
</metadata>
<g transform="translate(0.000000,593.000000) scale(0.100000,-0.100000)"
fill="#000000" stroke="none">
<path d="M2230 5923 c-553 -59 -1072 -303 -1474 -693 -419 -406 -675 -925
-742 -1506 -20 -169 -14 -507 10 -654 69 -409 204 -742 430 -1060 425 -599
1539 -1737 1933 -1975 48 -29 68 -35 114 -35 49 0 63 5 125 46 365 245 1340
1221 1817 1818 297 373 476 778 541 1227 19 125 22 543 6 666 -75 561 -323
1060 -724 1458 -394 390 -881 627 -1439 700 -109 14 -493 19 -597 8z m385
-1403 c137 -16 239 -46 360 -105 683 -332 825 -1221 279 -1745 -329 -316 -796
-393 -1203 -199 -218 103 -377 255 -496 471 -222 407 -142 930 195 1268 169
169 402 281 640 309 106 12 124 12 225 1z"/>
</g>
</svg>
