<?xml version="1.0" encoding="utf-8"?>
<!-- Generator: Adobe Illustrator 21.0.0, SVG Export Plug-In . SVG Version: 6.00 Build 0)  -->
<svg version="1.1" id="Layer_1" xmlns="http://www.w3.org/2000/svg" xmlns:xlink="http://www.w3.org/1999/xlink" x="0px" y="0px"
	 viewBox="0 0 116 138" style="enable-background:new 0 0 116 138;" xml:space="preserve">
<g id="Layer_2">
	<g transform="translate(0.000000,138.000000) scale(0.100000,-0.100000)">
		<path d="M726,1220.1c-81.5-40.8-128.7-127.1-118.3-215.8l4.8-42.4l-72.7-47.2l-73.5-48l-35.2,16C279.2,950,116.9,850,116.9,689.4
			c0-161.5,162.3-260.6,314.1-193.4l36,16l72.7-47.2l72.7-46.4l-4.8-43.2c-10.4-89.5,36.8-175.9,118.3-216.6
			c33.6-16.8,52.8-20.8,97.5-20.8c67.1,0.8,103.9,12.8,147.1,47.2c48,37.6,73.5,95.1,73.5,163.9c0,66.3-16,107.9-56.8,147.9
			c-60,60-156.7,80.7-240.6,52l-36.8-12l-79.1,50.4l-78.3,51.2v52v51.2l77.5,50.4l78.3,51.2l37.6-12.8c84.7-28.8,181.5-8,241.4,52
			c40.8,40,56.8,81.5,56.8,147.9c0,68.7-25.6,126.3-73.5,163.9c-43.2,34.4-79.9,46.4-147.1,47.2
			C778.8,1240.9,759.6,1236.9,726,1220.1z"/>
	</g>
</g>
</svg>
