<?xml version="1.0" encoding="utf-8"?>
<!-- Generator: Adobe Illustrator 21.0.0, SVG Export Plug-In . SVG Version: 6.00 Build 0)  -->
<svg version="1.1" id="Layer_1" xmlns="http://www.w3.org/2000/svg" xmlns:xlink="http://www.w3.org/1999/xlink" x="0px" y="0px"
	 viewBox="0 0 500 500" style="enable-background:new 0 0 500 500;" xml:space="preserve">
<path d="M370.2,308.6c-22.8,0-44.2,10.6-58.1,28.6l-112.7-63c2.7-7.8,4.1-16,4.1-24.2c0-8.3-1.4-16.5-4.2-24.3l112.6-62.9
	c24.7,32.1,70.7,38.1,102.8,13.5c32.1-24.7,38.1-70.7,13.5-102.8c-24.7-32.1-70.7-38.1-102.8-13.5c-18.1,13.9-28.7,35.4-28.6,58.2
	c0,8.3,1.4,16.5,4.2,24.3l-112.5,62.9c-24.7-32.1-70.7-38.2-102.8-13.5c-32.1,24.6-38.2,70.7-13.5,102.8s70.7,38.2,102.8,13.5
	c5.2-4,9.8-8.6,13.7-13.8l112.6,63c-13.5,38.2,6.6,80.1,44.8,93.5c38.2,13.5,80.1-6.6,93.5-44.8c13.5-38.2-6.6-80.1-44.8-93.5
	C386.9,310,378.6,308.6,370.2,308.6z M370.2,68c27.8,0,50.4,22.5,50.4,50.3s-22.5,50.4-50.3,50.4s-50.4-22.5-50.4-50.3
	c0,0,0,0,0-0.1C319.9,90.6,342.5,68,370.2,68L370.2,68z M130.3,300.4c-27.8,0-50.4-22.5-50.4-50.3s22.5-50.4,50.3-50.4
	s50.4,22.5,50.4,50.3c0,0,0,0,0,0C180.7,277.9,158.1,300.4,130.3,300.4z M370.2,432.2c-27.8,0-50.4-22.5-50.4-50.3
	c0-27.8,22.5-50.4,50.4-50.4s50.4,22.5,50.4,50.3c0,0,0,0,0,0C420.6,409.7,398.1,432.2,370.2,432.2L370.2,432.2z"/>
</svg>
