<?xml version="1.0" standalone="no"?>
<!DOCTYPE svg PUBLIC "-//W3C//DTD SVG 20010904//EN"
 "http://www.w3.org/TR/2001/REC-SVG-20010904/DTD/svg10.dtd">
<svg version="1.0" xmlns="http://www.w3.org/2000/svg"
 width="257.000000pt" height="248.000000pt" viewBox="0 0 257.000000 248.000000"
 preserveAspectRatio="xMidYMid meet">
<metadata>
Created by potrace 1.15, written by Peter Selinger 2001-2017
</metadata>
<g transform="translate(0.000000,248.000000) scale(0.100000,-0.100000)"
fill="#000000" stroke="none">
<path d="M1165 2465 c-72 -39 -95 -80 -95 -170 l0 -65 -83 0 c-77 0 -85 -2
-108 -26 -23 -24 -24 -34 -27 -164 l-4 -138 -40 -5 c-70 -9 -136 -71 -158
-148 -6 -19 -10 -140 -10 -270 l0 -235 -116 -54 c-128 -59 -154 -85 -154 -152
0 -24 55 -171 165 -442 91 -222 165 -407 165 -410 0 -3 -17 -6 -39 -6 -24 0
-51 -9 -75 -25 -20 -14 -39 -25 -42 -25 -3 0 -22 11 -42 25 -42 29 -103 33
-142 10 -67 -38 -64 -38 -105 -11 -43 30 -100 34 -144 12 -28 -15 -111 -99
-111 -114 0 -18 33 -52 51 -52 11 0 42 21 70 47 47 43 52 46 72 33 78 -49 118
-52 186 -14 l46 26 39 -26 c52 -35 110 -35 161 0 41 27 38 27 105 -11 46 -27
97 -19 166 25 19 12 25 10 54 -10 50 -36 108 -38 167 -5 l48 27 39 -26 c52
-35 110 -35 161 0 41 27 40 27 105 -12 35 -21 109 -13 150 16 29 20 35 22 54
10 69 -44 120 -52 166 -25 67 38 64 38 105 11 51 -35 109 -35 161 0 l39 26 46
-26 c68 -38 108 -35 186 14 20 13 25 10 72 -33 55 -52 82 -58 105 -25 22 31
21 33 -26 84 -74 81 -136 95 -216 48 l-44 -26 -31 23 c-20 14 -50 24 -82 27
-41 3 -56 -1 -88 -22 -21 -14 -40 -26 -43 -26 -3 0 -22 11 -42 25 -23 16 -51
25 -75 25 -34 0 -38 2 -32 20 3 11 78 196 166 412 103 254 159 404 159 427 0
66 -26 92 -154 151 l-116 54 0 235 c0 142 -5 252 -11 276 -16 57 -92 131 -144
140 -22 4 -46 8 -52 10 -10 3 -13 41 -13 143 0 132 -1 140 -23 160 -20 19 -35
22 -105 22 l-82 0 0 60 c0 77 -18 120 -66 156 -35 27 -45 29 -138 32 -78 2
-108 -1 -131 -13z m216 -104 c24 -25 29 -37 29 -80 l0 -51 -125 0 -125 0 0 51
c0 43 5 55 29 80 27 26 36 29 96 29 60 0 69 -3 96 -29z m137 -310 c8 -4 12
-19 10 -32 l-3 -24 -237 -3 c-226 -2 -238 -1 -248 17 -7 15 -6 23 6 35 13 14
49 16 237 16 122 0 228 -4 235 -9z m-203 -896 l0 -270 -30 0 -30 0 -3 260 c-1
143 0 266 3 273 3 8 16 12 32 10 l28 -3 0 -270z m-168 -21 c3 -9 2 -23 -3 -31
-10 -17 -616 -216 -625 -205 -3 4 -10 18 -16 32 l-10 25 296 97 c163 53 309
97 324 97 17 1 30 -5 34 -15z m628 -81 l302 -98 -10 -25 c-6 -14 -13 -28 -16
-32 -9 -11 -614 187 -625 204 -13 22 0 48 25 48 11 0 157 -44 324 -97z"/>
</g>
</svg>
