<?xml version="1.0" standalone="no"?>
<!DOCTYPE svg PUBLIC "-//W3C//DTD SVG 20010904//EN"
 "http://www.w3.org/TR/2001/REC-SVG-20010904/DTD/svg10.dtd">
<svg version="1.0" xmlns="http://www.w3.org/2000/svg"
 width="220.000000pt" height="210.000000pt" viewBox="0 0 220.000000 210.000000"
 preserveAspectRatio="xMidYMid meet">
<metadata>
Created by potrace 1.15, written by Peter Selinger 2001-2017
</metadata>
<g transform="translate(0.000000,210.000000) scale(0.100000,-0.100000)"
fill="#000000" stroke="none">
<path d="M53 2080 c-35 -21 -53 -67 -45 -118 8 -57 38 -77 196 -127 112 -35
146 -50 146 -63 0 -9 20 -215 44 -457 l45 -440 -30 -155 c-39 -207 -38 -233 5
-276 l34 -34 752 0 c534 0 758 3 773 11 39 20 57 51 57 103 0 41 -5 53 -34 82
l-34 34 -662 0 -662 0 5 23 c3 12 9 43 12 69 l7 48 679 0 c732 0 729 0 762 52
22 34 97 477 97 574 0 79 -5 95 -41 122 -12 9 -1488 182 -1554 182 -7 0 -16
40 -22 105 -12 109 -25 145 -64 165 -44 24 -364 120 -398 120 -20 0 -50 -9
-68 -20z"/>
<path d="M581 333 c-78 -39 -112 -152 -71 -237 31 -64 70 -89 146 -94 77 -5
126 16 161 70 58 86 34 203 -51 253 -51 30 -133 33 -185 8z"/>
<path d="M1625 336 c-42 -18 -83 -69 -91 -112 -24 -129 47 -224 168 -224 67 0
104 16 142 60 70 84 50 204 -43 267 -39 27 -126 31 -176 9z"/>
</g>
</svg>
