<?xml version="1.0" encoding="utf-8"?>
<!-- Generator: Adobe Illustrator 21.0.0, SVG Export Plug-In . SVG Version: 6.00 Build 0)  -->
<svg version="1.1" id="Layer_1" xmlns="http://www.w3.org/2000/svg" xmlns:xlink="http://www.w3.org/1999/xlink" x="0px" y="0px"
	 viewBox="0 0 400 400" style="enable-background:new 0 0 400 400;" xml:space="preserve">
<style type="text/css">
	.st0{fill:#262424;}
</style>
<g>
	<path class="st0" d="M263,287.9c-3.5,0-6.8-2.1-8.3-5.4l-18.5-42l-27-16.6c-4.3-2.7-5.6-8.2-3-12.5c2.7-4.3,8.2-5.6,12.5-3
		l31.8,19.6l20.7,47.2c2.1,4.5-0.1,9.9-4.6,11.9C265.4,287.6,264.2,287.9,263,287.9z"/>
</g>
<g>
	<path class="st0" d="M248.7,373c-4.1,0-7.8-2.8-8.8-6.9l-17.9-74.7l-17.1-32.3v-74.7c0-5,4-9.1,9.1-9.1c5,0,9.1,4,9.1,9.1v70.1
		l16.4,31.4l18.2,75.8c1.2,4.9-1.8,9.8-6.7,10.9C250,372.9,249.3,373,248.7,373z"/>
</g>
<g>
	<path class="st0" d="M177.7,373c-0.7,0-1.4-0.1-2.1-0.3c-4.9-1.2-7.9-6.1-6.7-10.9l18.4-77.1l18.8-32.5c2.5-4.4,8.1-5.8,12.3-3.3
		c4.4,2.5,5.8,8.1,3.3,12.3l-17.5,30.1L186.5,366C185.5,370.2,181.9,373,177.7,373z"/>
</g>
<g>
	<path class="st0" d="M213.7,193.5c-22.8,0-41.3-18.5-41.3-41.3s18.5-41.3,41.3-41.3s41.3,18.5,41.3,41.3S236.5,193.5,213.7,193.5z
		 M213.7,129c-12.8,0-23.2,10.4-23.2,23.2c0,12.8,10.4,23.2,23.2,23.2c12.8,0,23.2-10.4,23.2-23.2C236.9,139.4,226.6,129,213.7,129z
		"/>
</g>
<g>
	<path class="st0" d="M169.4,242.9l-44.9-8.9c-4.9-0.9-8.1-5.7-7.1-10.6c0.9-4.9,5.7-8.1,10.6-7.1l39.7,7.9l42.8-16.4
		c4.7-1.8,9.9,0.5,11.7,5.2c1.8,4.7-0.5,9.9-5.2,11.7L169.4,242.9z"/>
</g>
<g>
	<path class="st0" d="M106.4,158.2c-24.9,0-45.2-20.3-45.2-45.2V87.4h90.4V113C151.5,137.9,131.3,158.2,106.4,158.2z M79.3,105.5
		v7.5c0,14.9,12.2,27.1,27.1,27.1s27.1-12.2,27.1-27.1v-7.5H79.3z"/>
</g>
<g>
	<path class="st0" d="M127.6,97.2c-5,0-9.1-4-9.1-9.1V48.1c0-5,4-9.1,9.1-9.1c5,0,9.1,4,9.1,9.1v40.1
		C136.7,93.1,132.7,97.2,127.6,97.2z"/>
</g>
<g>
	<path class="st0" d="M83.4,97.2c-5,0-9.1-4-9.1-9.1V48.1c0-5.1,4-9.1,9.1-9.1c5.1,0,9.1,4,9.1,9.1v40.1
		C92.5,93.1,88.4,97.2,83.4,97.2z"/>
</g>
<g>
	<path class="st0" d="M106,330.1c-2.1,0-4.3-0.8-6.1-2.3c-3.7-3.3-4-9.1-0.7-12.8c28.2-31.4,25.4-73.1,10.1-100.3
		c-14.5-25.9-12.2-64.6-12.1-66.2c0.3-5,4.7-8.7,9.6-8.5c5,0.3,8.7,4.6,8.5,9.6c0,0.3-2.1,35,9.8,56.2
		c18.4,32.9,21.8,83.1-12.4,121.2C110.9,329.1,108.5,330.1,106,330.1z"/>
</g>
<g>
	<path class="st0" d="M298.2,121.4c-5,0-9.1-4-9.1-9.1c0-5,4-9.1,9.1-9.1c11.9,0,21.6-9.7,21.6-21.6s-9.7-21.6-21.6-21.6
		c-11.9,0-21.6,9.7-21.6,21.6c0,5-4,9.1-9.1,9.1c-5,0-9.1-4-9.1-9.1c0-21.8,17.8-39.7,39.7-39.7s39.7,17.8,39.7,39.7
		S320.1,121.4,298.2,121.4z"/>
</g>
<g>
	<path class="st0" d="M298.2,143.8c-5,0-9.1-4-9.1-9.1v-22.4c0-5,4-9.1,9.1-9.1c5,0,9.1,4,9.1,9.1v22.4
		C307.2,139.8,303.2,143.8,298.2,143.8z"/>
</g>
<g>
	<path class="st0" d="M298.2,184.4c-5,0-9.1-4-9.1-9.1v-6.9c0-5,4-9.1,9.1-9.1c5,0,9.1,4,9.1,9.1v6.9
		C307.2,180.4,303.2,184.4,298.2,184.4z"/>
</g>
</svg>
