<?xml version="1.0" standalone="no"?>
<!DOCTYPE svg PUBLIC "-//W3C//DTD SVG 20010904//EN"
 "http://www.w3.org/TR/2001/REC-SVG-20010904/DTD/svg10.dtd">
<svg version="1.0" xmlns="http://www.w3.org/2000/svg"
 width="210.000000pt" height="215.000000pt" viewBox="0 0 210.000000 215.000000"
 preserveAspectRatio="xMidYMid meet">
<metadata>
Created by potrace 1.15, written by Peter Selinger 2001-2017
</metadata>
<g transform="translate(0.000000,215.000000) scale(0.100000,-0.100000)"
fill="#000000" stroke="none">
<path d="M1965 2141 c-11 -5 -59 -49 -106 -98 l-86 -89 -64 31 c-60 28 -72 30
-179 30 -108 0 -119 -2 -182 -32 -72 -34 -172 -124 -321 -287 -72 -78 -82 -93
-82 -126 0 -46 -1 -45 306 -357 306 -313 263 -306 481 -84 134 137 162 171
195 238 38 77 38 77 38 202 0 118 -2 130 -29 189 l-29 63 91 92 c100 102 114
131 88 183 -22 47 -71 65 -121 45z m-330 -331 c49 -21 99 -69 128 -124 31 -60
31 -174 -2 -236 -20 -39 -215 -250 -230 -250 -3 0 -87 84 -185 186 l-179 186
104 104 c57 58 118 114 136 125 64 40 149 43 228 9z"/>
<path d="M784 1198 l-94 -92 -33 31 c-46 45 -80 56 -120 39 -18 -7 -98 -81
-178 -163 -123 -126 -153 -163 -184 -227 -34 -69 -39 -86 -43 -175 -4 -81 -1
-111 16 -167 12 -38 28 -78 36 -89 14 -19 10 -25 -75 -110 -51 -52 -93 -103
-97 -120 -13 -46 4 -92 39 -111 56 -28 87 -13 186 89 l90 93 64 -31 c60 -28
72 -30 179 -30 109 0 119 2 185 33 61 28 90 53 232 198 126 128 164 173 169
198 7 38 -10 78 -50 115 l-25 24 89 98 c96 105 104 124 75 179 -18 34 -71 55
-106 41 -13 -5 -62 -48 -109 -95 l-84 -86 -58 57 c-32 32 -58 61 -58 66 0 5
38 50 85 99 77 82 85 94 85 130 0 52 -43 98 -91 98 -27 0 -47 -15 -125 -92z
m-32 -429 c95 -99 174 -183 176 -188 1 -4 -51 -59 -115 -122 -128 -124 -154
-139 -252 -139 -183 0 -306 212 -221 381 21 40 214 249 231 249 4 0 85 -81
181 -181z"/>
</g>
</svg>
