<?xml version="1.0" standalone="no"?>
<!DOCTYPE svg PUBLIC "-//W3C//DTD SVG 20010904//EN"
 "http://www.w3.org/TR/2001/REC-SVG-20010904/DTD/svg10.dtd">
<svg version="1.0" xmlns="http://www.w3.org/2000/svg"
 width="160.000000pt" height="220.000000pt" viewBox="0 0 160.000000 220.000000"
 preserveAspectRatio="xMidYMid meet">
<metadata>
Created by potrace 1.15, written by Peter Selinger 2001-2017
</metadata>
<g transform="translate(0.000000,220.000000) scale(0.100000,-0.100000)"
fill="#000000" stroke="none">
<path d="M512 1792 l-283 -407 95 -3 c53 -1 96 -5 96 -7 0 -3 -72 -108 -160
-234 -88 -125 -160 -231 -160 -234 0 -4 45 -8 101 -9 l100 -3 -147 -210 c-80
-115 -149 -215 -151 -222 -4 -10 55 -13 281 -13 l286 0 0 -225 0 -225 210 0
210 0 0 225 0 225 306 0 c242 0 305 3 301 13 -2 7 -71 107 -151 222 l-147 210
100 3 c56 1 101 5 101 9 0 3 -72 109 -160 234 -88 126 -160 231 -160 234 0 2
43 6 96 7 l95 3 -283 407 c-156 224 -285 407 -288 407 -3 0 -132 -183 -288
-407z"/>
</g>
</svg>
