<?xml version="1.0" standalone="no"?>
<!DOCTYPE svg PUBLIC "-//W3C//DTD SVG 20010904//EN"
 "http://www.w3.org/TR/2001/REC-SVG-20010904/DTD/svg10.dtd">
<svg version="1.0" xmlns="http://www.w3.org/2000/svg"
 width="200.000000pt" height="200.000000pt" viewBox="0 0 200.000000 200.000000"
 preserveAspectRatio="xMidYMid meet">
<metadata>
Created by potrace 1.15, written by Peter Selinger 2001-2017
</metadata>
<g transform="translate(0.000000,200.000000) scale(0.100000,-0.100000)"
fill="#000000" stroke="none">
<path d="M800 1986 c-306 -64 -563 -263 -700 -541 -79 -159 -95 -236 -95 -445
0 -209 16 -286 95 -445 97 -197 258 -358 455 -455 159 -79 236 -95 445 -95
209 0 286 16 445 95 197 97 358 258 455 455 79 159 95 236 95 445 0 209 -16
286 -95 445 -125 253 -367 453 -635 526 -102 27 -364 36 -465 15z m244 -563
c22 -87 43 -173 48 -190 l9 -33 196 -2 196 -3 -142 -94 c-78 -52 -144 -97
-146 -101 -2 -3 18 -92 44 -198 27 -106 46 -192 42 -192 -3 0 -70 64 -148 142
l-143 143 -143 -143 c-78 -78 -145 -142 -148 -142 -4 0 15 86 42 192 26 106
46 195 44 198 -2 4 -68 49 -146 101 l-142 94 196 3 196 2 9 33 c5 17 26 103
48 190 21 86 41 157 44 157 3 0 23 -71 44 -157z"/>
</g>
</svg>
