<?xml version="1.0" encoding="utf-8"?>
<!-- Generator: Adobe Illustrator 21.0.0, SVG Export Plug-In . SVG Version: 6.00 Build 0)  -->
<svg version="1.1" id="Layer_1" xmlns="http://www.w3.org/2000/svg" xmlns:xlink="http://www.w3.org/1999/xlink" x="0px" y="0px"
	 viewBox="0 0 500 500" style="enable-background:new 0 0 500 500;" xml:space="preserve">
<path id="Rounded_Rectangle_1121_copy" d="M74.6,20.3h163.9c15.1,0,27.3,12.2,27.3,27.3v136.6c0,15.1-12.2,27.3-27.3,27.3H74.6
	c-15.1,0-27.3-12.2-27.3-27.3V47.6C47.2,32.5,59.5,20.3,74.6,20.3z M265.8,293.4h163.9c15.1,0,27.3,12.2,27.3,27.3v136.6
	c0,15.1-12.2,27.3-27.3,27.3H265.8c-15.1,0-27.3-12.2-27.3-27.3V320.8C238.5,305.7,250.7,293.4,265.8,293.4z M293.1,47.3V20H457
	v27.3H293.1z M293.1,102V74.6H457V102H293.1z M293.1,156.6v-27.3H457v27.3H293.1z M47.2,320.5v-27.3h163.9v27.3H47.2z M47.2,375.1
	v-27.3h163.9v27.3H47.2z M47.2,429.8v-27.3h163.9v27.3H47.2z M47.2,265.9v-27.3H457v27.3H47.2z M293.1,211.2v-27.3H457v27.3H293.1z
	 M47.2,484.4v-27.3h163.9v27.3H47.2z"/>
</svg>
