<?xml version="1.0" encoding="utf-8"?>
<!-- Generator: Adobe Illustrator 21.0.0, SVG Export Plug-In . SVG Version: 6.00 Build 0)  -->
<svg version="1.1" id="Layer_1" xmlns="http://www.w3.org/2000/svg" xmlns:xlink="http://www.w3.org/1999/xlink" x="0px" y="0px"
	 viewBox="0 0 179.4 213.1" style="enable-background:new 0 0 179.4 213.1;" xml:space="preserve">
<path id="Forma_1" d="M88.6,18.1c-40.4,0-73.4,4.6-73.4,36.7V142c0.2,17.6,14.5,31.9,32.1,32.1l-13.7,13.8v4.6h110v-4.6l-13.7-13.8
	c17.6-0.2,31.9-14.5,32.1-32.1V54.8C162,22.7,129,18.1,88.6,18.1z M47.4,155.8c-7.6,0-13.8-6.1-13.8-13.7s6.1-13.8,13.7-13.8
	c7.6,0,13.8,6.1,13.8,13.7c0,0,0,0,0,0C61,149.5,54.9,155.6,47.4,155.8L47.4,155.8z M79.5,100.7H33.7V54.8h45.8V100.7z M129.9,155.8
	c-7.6,0-13.8-6.1-13.8-13.7c0-7.6,6.1-13.8,13.7-13.8c7.6,0,13.8,6.1,13.8,13.7c0,0,0,0,0,0C143.5,149.5,137.4,155.6,129.9,155.8
	L129.9,155.8z M143.6,100.7H97.8V54.8h45.8V100.7z"/>
</svg>
