<?xml version="1.0" standalone="no"?>
<!DOCTYPE svg PUBLIC "-//W3C//DTD SVG 20010904//EN"
 "http://www.w3.org/TR/2001/REC-SVG-20010904/DTD/svg10.dtd">
<svg version="1.0" xmlns="http://www.w3.org/2000/svg"
 width="130.000000pt" height="130.000000pt" viewBox="0 0 130.000000 130.000000"
 preserveAspectRatio="xMidYMid meet">
<metadata>
Created by potrace 1.15, written by Peter Selinger 2001-2017
</metadata>
<g transform="translate(0.000000,130.000000) scale(0.100000,-0.100000)"
fill="#000000" stroke="none">
<path d="M124 1286 c-44 -19 -102 -83 -115 -125 -6 -23 -9 -159 -7 -378 l3
-341 30 -43 c20 -28 49 -52 82 -69 l52 -25 0 -152 1 -153 50 0 c47 0 63 8 283
147 l232 148 205 5 c195 5 207 6 250 30 24 14 58 45 75 68 l30 44 0 363 0 363
-31 43 c-18 24 -51 54 -75 66 -42 23 -43 23 -538 23 -393 -1 -502 -4 -527 -14z"/>
</g>
</svg>
