<?xml version="1.0" standalone="no"?>
<!DOCTYPE svg PUBLIC "-//W3C//DTD SVG 20010904//EN"
 "http://www.w3.org/TR/2001/REC-SVG-20010904/DTD/svg10.dtd">
<svg version="1.0" xmlns="http://www.w3.org/2000/svg"
 width="297.000000pt" height="297.000000pt" viewBox="0 0 297.000000 297.000000"
 preserveAspectRatio="xMidYMid meet">
<metadata>
Created by potrace 1.15, written by Peter Selinger 2001-2017
</metadata>
<g transform="translate(0.000000,297.000000) scale(0.100000,-0.100000)"
fill="#000000" stroke="none">
<path d="M1315 2963 c-249 -32 -475 -117 -680 -257 -116 -78 -293 -255 -371
-371 -114 -168 -191 -345 -236 -546 -20 -90 -23 -131 -23 -304 0 -173 3 -214
23 -304 67 -297 197 -537 407 -746 210 -211 454 -343 748 -407 148 -32 456
-32 604 0 294 64 538 196 748 407 210 209 340 449 407 746 20 90 23 130 23
304 -1 168 -4 216 -23 302 -71 326 -246 622 -489 828 l-64 55 140 0 141 0 0
100 0 100 -375 0 -375 0 0 -380 0 -380 95 0 95 0 0 251 c0 288 -11 267 104
192 96 -64 280 -249 345 -348 97 -149 172 -335 202 -505 17 -96 17 -334 0
-430 -71 -399 -330 -750 -691 -934 -376 -192 -794 -192 -1170 0 -374 191 -633
551 -694 966 -20 134 -20 232 0 366 94 637 647 1112 1293 1112 l91 0 0 28 c0
15 3 57 7 95 l6 67 -129 -1 c-71 -1 -142 -4 -159 -6z"/>
<path d="M1175 1800 c-79 -17 -175 -68 -175 -94 0 -7 20 -31 44 -55 l44 -43
34 25 c42 32 96 47 128 35 30 -11 40 -25 40 -59 0 -40 -35 -76 -111 -115 -133
-66 -179 -133 -179 -256 l0 -58 230 0 230 0 0 70 0 70 -131 0 -131 0 14 23 c8
12 39 36 69 54 149 87 174 118 174 217 0 61 -4 78 -25 109 -14 21 -43 46 -65
57 -47 23 -134 32 -190 20z"/>
<path d="M1653 1619 l-143 -181 0 -64 0 -64 120 0 120 0 0 -65 0 -65 75 0 75
0 0 65 0 65 35 0 35 0 0 65 0 65 -35 0 -35 0 0 180 0 180 -52 0 -53 0 -142
-181z"/>
</g>
</svg>
