<?xml version="1.0" standalone="no"?>
<!DOCTYPE svg PUBLIC "-//W3C//DTD SVG 20010904//EN"
 "http://www.w3.org/TR/2001/REC-SVG-20010904/DTD/svg10.dtd">
<svg version="1.0" xmlns="http://www.w3.org/2000/svg"
 width="267.000000pt" height="280.000000pt" viewBox="0 0 267.000000 280.000000"
 preserveAspectRatio="xMidYMid meet">
<metadata>
Created by potrace 1.15, written by Peter Selinger 2001-2017
</metadata>
<g transform="translate(0.000000,280.000000) scale(0.100000,-0.100000)"
fill="#000000" stroke="none">
<path d="M1665 2654 c-137 -80 -259 -154 -270 -165 -14 -14 -20 -32 -19 -62 1
-35 25 -84 151 -302 130 -224 155 -261 183 -273 41 -17 81 -8 111 24 43 45 33
81 -69 259 -50 87 -90 160 -88 162 1 2 32 -6 67 -18 342 -110 608 -390 705
-741 32 -116 43 -318 24 -435 -57 -356 -292 -667 -615 -814 -274 -124 -602
-122 -872 6 -121 57 -192 105 -282 190 -190 180 -303 405 -333 670 -11 87 -15
104 -39 128 -20 19 -37 27 -64 27 -85 0 -107 -43 -94 -177 58 -569 484 -1024
1049 -1118 145 -25 367 -17 501 18 246 64 447 181 613 358 211 224 327 498
342 809 28 544 -286 1036 -790 1239 -53 21 -99 40 -101 43 -2 2 50 35 117 73
66 39 129 81 139 94 27 34 24 83 -7 120 -21 26 -33 31 -67 31 -36 0 -80 -22
-292 -146z"/>
<path d="M801 2703 c-8 -3 -82 -66 -165 -140 -167 -148 -187 -178 -162 -236
12 -29 409 -487 458 -529 12 -11 37 -18 63 -18 41 0 50 6 200 141 86 77 161
152 167 165 23 50 1 83 -231 346 -123 139 -233 258 -245 265 -22 13 -61 15
-85 6z m267 -626 c-34 -32 -64 -56 -68 -55 -3 2 -62 66 -130 143 -68 77 -134
151 -146 165 l-23 25 65 57 65 58 149 -168 149 -167 -61 -58z"/>
<path d="M247 2113 c-15 -10 -77 -94 -137 -187 -95 -146 -110 -175 -110 -211
0 -32 6 -47 28 -67 15 -15 151 -108 302 -207 287 -189 309 -199 357 -166 28
19 233 329 246 371 20 65 2 83 -310 287 -166 110 -299 191 -317 193 -20 3 -41
-2 -59 -13z m283 -356 c91 -60 166 -111 168 -112 4 -3 -88 -145 -94 -145 -2 0
-87 55 -188 123 l-184 123 45 72 c53 85 23 92 253 -61z"/>
</g>
</svg>
