<?xml version="1.0" standalone="no"?>
<!DOCTYPE svg PUBLIC "-//W3C//DTD SVG 20010904//EN"
 "http://www.w3.org/TR/2001/REC-SVG-20010904/DTD/svg10.dtd">
<svg version="1.0" xmlns="http://www.w3.org/2000/svg"
 width="500.000000pt" height="477.000000pt" viewBox="0 0 500.000000 477.000000"
 preserveAspectRatio="xMidYMid meet">
<metadata>
Created by potrace 1.15, written by Peter Selinger 2001-2017
</metadata>
<g transform="translate(0.000000,477.000000) scale(0.100000,-0.100000)"
fill="#000000" stroke="none">
<path d="M2640 4763 c-72 -11 -222 -48 -279 -70 -290 -109 -556 -335 -665
-566 l-37 -77 -31 16 c-25 13 -51 15 -122 12 -286 -16 -537 -212 -632 -493
-49 -147 -45 -357 12 -575 31 -119 126 -314 193 -397 50 -62 50 -63 28 -74
-12 -7 -81 -29 -152 -50 -319 -91 -507 -209 -629 -392 -72 -109 -79 -126 -212
-521 -122 -365 -130 -404 -94 -464 37 -60 51 -62 446 -62 335 0 356 -1 351
-17 -74 -238 -247 -857 -247 -886 0 -55 31 -101 83 -123 40 -17 128 -18 1682
-22 1875 -4 2541 4 2593 32 42 22 72 71 72 118 0 37 -111 431 -135 478 -7 14
-36 106 -64 205 -84 291 -178 462 -344 624 -158 155 -324 250 -547 311 -136
37 -176 25 -289 -83 -124 -118 -225 -178 -374 -221 -134 -39 -260 -49 -541
-43 -205 4 -267 9 -340 26 -173 40 -310 115 -425 232 -85 85 -120 103 -196
103 -120 -2 -345 -90 -494 -195 -84 -58 -193 -160 -236 -218 l-30 -41 -327 0
c-181 0 -328 1 -328 3 0 20 177 522 197 561 15 28 57 81 93 117 52 53 86 76
170 117 94 45 317 122 356 122 8 0 38 -12 66 -26 176 -89 368 19 368 208 0
103 -36 159 -148 231 -182 115 -312 399 -312 682 0 191 90 336 257 416 77 37
180 52 170 26 -3 -9 -14 -67 -23 -129 -39 -266 12 -669 122 -967 50 -134 152
-329 232 -441 83 -117 241 -277 345 -348 96 -66 237 -133 342 -164 70 -20 102
-23 250 -23 200 0 265 14 430 94 274 134 506 381 671 718 167 343 248 800 198
1131 -40 272 -158 512 -350 711 -196 204 -445 338 -718 386 -81 14 -336 19
-406 8z m290 -273 c364 -45 683 -277 829 -604 33 -73 66 -175 58 -182 -2 -2
-60 -7 -128 -10 -115 -6 -130 -4 -206 20 -57 18 -105 43 -160 82 -79 57 -126
73 -177 60 -14 -3 -67 -48 -119 -100 -82 -82 -106 -100 -198 -145 -185 -90
-398 -129 -654 -118 -77 4 -181 13 -231 21 -63 11 -101 13 -124 6 l-33 -9 7
67 c9 88 42 217 69 268 12 22 46 87 76 143 137 261 436 459 756 500 99 12 139
12 235 1z m350 -995 c104 -52 199 -76 330 -82 82 -4 133 -1 178 10 l62 14 0
-48 c0 -83 -29 -274 -60 -393 -162 -629 -623 -1069 -1054 -1006 -183 26 -340
112 -496 269 -195 197 -334 468 -403 782 -14 63 -28 137 -32 165 l-6 50 73
-12 c158 -28 363 -38 522 -25 334 26 591 118 776 280 19 16 36 30 38 31 1 0
34 -16 72 -35z m-1491 -2057 c152 -143 342 -231 586 -274 123 -22 517 -30 681
-15 297 28 508 114 715 293 69 59 70 59 107 47 245 -78 451 -252 560 -473 24
-48 67 -170 103 -292 34 -115 66 -218 72 -229 6 -11 23 -61 37 -111 l27 -91
-141 -6 c-78 -4 -930 -7 -1894 -7 -1665 0 -1753 1 -1748 18 3 9 44 152 91 317
88 303 123 395 188 497 75 118 224 251 357 318 42 22 165 68 184 69 5 1 38
-27 75 -61z"/>
</g>
</svg>
