<?xml version="1.0" standalone="no"?>
<!DOCTYPE svg PUBLIC "-//W3C//DTD SVG 20010904//EN"
 "http://www.w3.org/TR/2001/REC-SVG-20010904/DTD/svg10.dtd">
<svg version="1.0" xmlns="http://www.w3.org/2000/svg"
 width="270.000000pt" height="262.000000pt" viewBox="0 0 270.000000 262.000000"
 preserveAspectRatio="xMidYMid meet">
<metadata>
Created by potrace 1.15, written by Peter Selinger 2001-2017
</metadata>
<g transform="translate(0.000000,262.000000) scale(0.100000,-0.100000)"
fill="#000000" stroke="none">
<path d="M1145 2606 c-501 -83 -902 -411 -1069 -874 -89 -247 -92 -560 -10
-817 130 -401 445 -713 857 -850 162 -53 278 -68 485 -62 155 4 192 8 295 35
490 128 851 484 974 961 23 91 24 108 20 336 -3 227 -5 245 -30 330 -15 50
-54 144 -87 210 -183 370 -521 629 -940 720 -102 22 -389 29 -495 11z m125
-301 c0 -131 1 -137 25 -160 35 -36 88 -34 126 4 l29 29 0 131 c0 72 4 131 9
131 32 0 194 -34 263 -56 99 -31 257 -110 336 -168 261 -192 423 -467 466
-788 l5 -38 -140 0 c-135 0 -141 -1 -164 -25 -15 -15 -25 -36 -25 -54 0 -77
30 -91 198 -91 l129 0 -9 -62 c-39 -287 -205 -564 -447 -746 -137 -103 -321
-184 -491 -216 -141 -27 -130 -36 -130 104 0 162 -14 190 -96 190 -24 0 -43
-8 -59 -25 -24 -23 -25 -29 -25 -155 l0 -130 -26 0 c-55 0 -233 43 -319 77
-396 156 -675 505 -730 911 l-7 52 131 0 c74 0 141 5 154 11 50 23 62 95 22
134 -23 24 -29 25 -165 25 -162 0 -149 -12 -124 120 40 215 141 405 302 572
193 200 481 338 745 357 15 1 17 -12 17 -134z"/>
<path d="M843 1850 c-34 -14 -56 -55 -49 -93 4 -25 41 -66 167 -187 l162 -156
-13 -38 c-40 -122 45 -272 174 -307 35 -10 111 -8 167 3 11 2 81 -58 183 -155
148 -141 169 -157 200 -157 51 0 90 37 90 84 0 34 -12 48 -162 199 l-163 163
11 49 c33 146 -69 283 -222 301 -30 4 -72 1 -97 -6 l-44 -12 -131 129 c-203
200 -213 207 -273 183z m572 -495 c33 -32 31 -60 -4 -96 -32 -31 -50 -35 -84
-17 -50 26 -60 69 -26 112 28 35 80 36 114 1z"/>
</g>
</svg>
