<?xml version="1.0" encoding="utf-8"?>
<!-- Generator: Adobe Illustrator 21.0.0, SVG Export Plug-In . SVG Version: 6.00 Build 0)  -->
<svg version="1.1" id="Layer_1" xmlns="http://www.w3.org/2000/svg" xmlns:xlink="http://www.w3.org/1999/xlink" x="0px" y="0px"
	 viewBox="0 0 400 400" style="enable-background:new 0 0 400 400;" xml:space="preserve">
<g transform="translate(0.000000,100.000000) scale(0.100000,-0.100000)">
	<path d="M2356.5-89.4v-227.6h371.1l368.8-2.3l-466.7-453c-257.2-250.4-473.5-450.7-482.6-448.5c-9.1,2.3-175.3,154.8-368.8,341.5
		c-193.5,184.4-359.7,334.6-368.8,334.6C1370.8-544.7,80-1771.7,80-1808.1c0-29.6,323.3-330.1,352.9-330.1
		c9.1,0,232.2,207.2,494,459.8l475.8,457.6l209.4-204.9c248.1-241.3,525.9-484.9,553.2-484.9c11.4,0,311.9,282.3,669.3,623.8
		l648.8,623.8l6.8-396.1l4.6-396.1h227.6H3950v796.8v796.8h-796.8h-796.8V-89.4z"/>
</g>
</svg>
