<?xml version="1.0" standalone="no"?>
<!DOCTYPE svg PUBLIC "-//W3C//DTD SVG 20010904//EN"
 "http://www.w3.org/TR/2001/REC-SVG-20010904/DTD/svg10.dtd">
<svg version="1.0" xmlns="http://www.w3.org/2000/svg"
 width="286.000000pt" height="309.000000pt" viewBox="0 0 286.000000 309.000000"
 preserveAspectRatio="xMidYMid meet">
<metadata>
Created by potrace 1.15, written by Peter Selinger 2001-2017
</metadata>
<g transform="translate(0.000000,309.000000) scale(0.100000,-0.100000)"
fill="#000000" stroke="none">
<path d="M462 3074 c-153 -41 -269 -175 -293 -337 -12 -87 -11 -1006 1 -1087
21 -132 106 -247 225 -306 l60 -29 310 -3 310 -3 115 -113 c132 -131 163 -150
240 -150 77 0 108 19 240 150 l115 113 310 3 310 3 60 29 c119 59 204 174 225
306 13 84 13 1002 0 1093 -17 118 -95 232 -201 295 -87 52 -83 52 -1064 51
-756 0 -919 -3 -963 -15z m1903 -213 c58 -26 101 -80 115 -143 8 -37 11 -200
8 -553 -3 -499 -3 -500 -26 -543 -14 -27 -41 -54 -69 -73 l-47 -29 -325 0
-326 0 -132 -132 -133 -133 -133 133 -132 132 -326 0 -325 0 -47 29 c-28 19
-55 46 -69 73 -23 43 -23 44 -26 543 -4 552 -1 582 51 642 68 77 4 73 1007 73
844 0 897 -1 935 -19z"/>
<path d="M370 889 c-79 -13 -173 -63 -235 -124 -209 -210 -157 -572 103 -708
306 -161 661 51 662 394 0 216 -160 404 -376 439 -67 11 -78 11 -154 -1z m146
-214 c128 -38 199 -169 163 -299 -15 -53 -79 -119 -141 -146 -131 -56 -287 28
-317 170 -27 124 55 249 184 281 46 11 57 10 111 -6z"/>
<path d="M1350 889 c-131 -22 -259 -118 -319 -240 -160 -326 110 -697 467
-642 192 30 341 179 374 376 28 167 -52 346 -196 439 -95 61 -215 86 -326 67z
m180 -227 c19 -9 51 -34 72 -55 79 -81 85 -207 14 -300 -48 -63 -107 -92 -186
-92 -112 1 -194 64 -227 174 -55 189 147 357 327 273z"/>
<path d="M2326 890 c-83 -15 -188 -73 -246 -136 -92 -101 -125 -197 -117 -337
4 -75 10 -99 40 -161 116 -233 388 -321 619 -199 292 153 313 578 37 762 -95
63 -223 91 -333 71z m184 -230 c99 -50 151 -156 129 -260 -31 -143 -186 -226
-317 -170 -130 56 -185 193 -128 316 56 121 200 173 316 114z"/>
</g>
</svg>
