<?xml version="1.0" standalone="no"?>
<!DOCTYPE svg PUBLIC "-//W3C//DTD SVG 20010904//EN"
 "http://www.w3.org/TR/2001/REC-SVG-20010904/DTD/svg10.dtd">
<svg version="1.0" xmlns="http://www.w3.org/2000/svg"
 width="270.000000pt" height="270.000000pt" viewBox="0 0 270.000000 270.000000"
 preserveAspectRatio="xMidYMid meet">
<metadata>
Created by potrace 1.15, written by Peter Selinger 2001-2017
</metadata>
<g transform="translate(0.000000,270.000000) scale(0.100000,-0.100000)"
fill="#000000" stroke="none">
<path d="M2128 2678 c-117 -47 -209 -138 -249 -248 l-21 -59 -582 -3 c-580 -3
-581 -3 -646 -26 -280 -101 -432 -376 -365 -660 33 -138 133 -272 259 -346 53
-31 66 -44 66 -63 0 -98 74 -285 155 -392 98 -128 273 -240 432 -275 92 -20
254 -20 346 0 159 35 334 147 432 275 51 68 118 201 130 259 13 65 18 66 73
12 27 -28 63 -77 79 -109 25 -52 28 -68 28 -158 0 -91 -3 -105 -29 -158 -37
-72 -118 -150 -193 -185 l-58 -27 -572 -3 -572 -3 -7 28 c-23 97 -120 215
-216 262 -192 96 -411 46 -540 -124 -59 -78 -81 -157 -76 -274 3 -86 7 -106
37 -166 44 -89 113 -158 199 -198 57 -27 81 -32 164 -35 82 -4 108 -1 161 18
120 42 216 136 258 250 l21 59 582 3 c580 3 581 3 646 26 280 101 432 376 365
661 -34 141 -137 277 -268 351 -45 25 -57 37 -57 56 0 106 -84 308 -173 415
-101 121 -260 219 -414 253 -92 21 -254 21 -346 0 -154 -34 -313 -132 -414
-253 -56 -68 -136 -219 -148 -281 -13 -65 -18 -66 -72 -12 -28 28 -64 77 -80
109 -25 52 -28 68 -28 158 0 91 3 105 29 158 37 72 118 150 193 185 l58 27
572 3 572 3 7 -28 c22 -95 123 -217 220 -266 229 -116 513 0 595 241 17 53 21
81 17 161 -3 86 -7 105 -38 167 -42 86 -109 153 -197 196 -61 30 -76 33 -173
35 -89 3 -113 0 -162 -19z m252 -159 c172 -78 213 -295 80 -427 -146 -147
-395 -68 -439 139 -43 197 174 372 359 288z m-850 -615 c188 -59 336 -218 387
-416 17 -64 17 -69 0 -97 -21 -36 -22 -65 -1 -101 16 -26 15 -32 -6 -101 -76
-255 -298 -421 -560 -421 -264 0 -486 168 -561 425 -22 74 -22 79 -6 106 21
36 22 90 1 119 -14 21 -14 28 6 95 54 180 187 322 360 385 129 47 245 48 380
6z m-993 -1250 c161 -77 196 -292 69 -416 -50 -49 -99 -71 -169 -76 -192 -15
-334 189 -253 363 67 145 210 197 353 129z"/>
<path d="M1090 1767 c-19 -7 -44 -27 -57 -46 -47 -69 -17 -172 57 -198 37 -13
91 -9 119 9 14 8 37 -3 119 -57 l102 -68 0 -57 0 -57 -102 -68 c-82 -54 -105
-65 -119 -57 -28 18 -82 22 -119 9 -74 -26 -104 -129 -57 -198 66 -99 237 -52
237 65 0 21 18 38 106 97 l106 71 39 -16 c130 -52 254 23 254 154 0 130 -125
206 -254 154 l-39 -16 -106 71 c-88 59 -106 76 -106 97 0 83 -94 142 -180 111z"/>
</g>
</svg>
