<?xml version="1.0" standalone="no"?>
<!DOCTYPE svg PUBLIC "-//W3C//DTD SVG 20010904//EN"
 "http://www.w3.org/TR/2001/REC-SVG-20010904/DTD/svg10.dtd">
<svg version="1.0" xmlns="http://www.w3.org/2000/svg"
 width="270.000000pt" height="270.000000pt" viewBox="0 0 270.000000 270.000000"
 preserveAspectRatio="xMidYMid meet">
<metadata>
Created by potrace 1.15, written by Peter Selinger 2001-2017
</metadata>
<g transform="translate(0.000000,270.000000) scale(0.100000,-0.100000)"
fill="#000000" stroke="none">
<path d="M2128 2678 c-117 -47 -209 -138 -249 -248 l-21 -59 -582 -3 c-580 -3
-581 -3 -646 -26 -235 -85 -379 -286 -380 -531 0 -186 94 -358 253 -462 89
-58 172 -82 310 -88 l119 -6 18 -52 c66 -189 269 -308 467 -273 158 27 282
129 333 273 l19 52 108 0 c101 0 113 -2 175 -32 81 -38 146 -102 185 -181 25
-51 28 -68 28 -157 0 -91 -3 -105 -29 -158 -37 -72 -118 -150 -193 -185 l-58
-27 -572 -3 -572 -3 -7 28 c-23 97 -120 215 -216 262 -192 96 -411 46 -540
-124 -59 -78 -81 -157 -76 -274 3 -86 7 -106 37 -166 44 -89 113 -158 199
-198 57 -27 81 -32 164 -35 82 -4 108 -1 161 18 120 42 216 136 258 250 l21
59 582 3 c580 3 581 3 646 26 235 85 379 286 380 531 0 186 -94 358 -253 462
-89 58 -172 82 -310 88 l-119 6 -18 52 c-51 146 -178 249 -338 273 -200 31
-396 -84 -462 -273 l-19 -52 -108 0 c-101 0 -113 2 -175 32 -81 38 -146 102
-185 181 -25 51 -28 68 -28 157 0 91 3 105 29 158 37 72 118 150 193 185 l58
27 572 3 572 3 7 -28 c22 -95 123 -217 220 -266 229 -116 513 0 595 241 17 53
21 81 17 161 -3 86 -7 105 -38 167 -42 86 -109 153 -197 196 -61 30 -76 33
-173 35 -89 3 -113 0 -162 -19z m252 -159 c172 -78 213 -295 80 -427 -146
-147 -395 -68 -439 139 -43 197 174 372 359 288z m-916 -934 c194 -94 194
-374 0 -471 -54 -26 -174 -26 -228 0 -89 45 -146 136 -146 235 0 112 68 209
175 249 44 17 153 9 199 -13z m-927 -931 c161 -77 196 -292 69 -416 -50 -49
-99 -71 -169 -76 -192 -15 -334 189 -253 363 67 145 210 197 353 129z"/>
</g>
</svg>
