<?xml version="1.0" encoding="utf-8"?>
<!-- Generator: Adobe Illustrator 21.0.0, SVG Export Plug-In . SVG Version: 6.00 Build 0)  -->
<svg version="1.1" id="Layer_1" xmlns="http://www.w3.org/2000/svg" xmlns:xlink="http://www.w3.org/1999/xlink" x="0px" y="0px"
	 viewBox="0 0 290 240" style="enable-background:new 0 0 290 240;" xml:space="preserve">
<g transform="translate(0.000000,240.000000) scale(0.100000,-0.100000)">
	<path d="M1398.9,2218c-10.3-7.7-35.9-73.6-72.7-185.7l-56.5-174.5l-189.9-4.3c-206.2-4.3-217.3-7.7-229.3-55.6
		c-10.3-42.8,10.3-65.9,155.7-171.1c77.9-56.5,143.7-105.2,146.3-109.5c1.7-3.4-19.7-78.7-47.9-167.7
		c-29.1-89-52.2-175.4-52.2-191.6c0-51.3,56.5-81.3,105.2-56.5c10.3,6,79.6,53.9,154,107.8l134.3,98.4l135.2-98.4
		c73.6-53.9,142.9-101.8,153.1-107.8c48.8-24.8,105.2,5.1,105.2,56.5c0,16.3-23.1,102.7-52.2,191.6c-28.2,89-49.6,164.3-47.9,168.5
		c2.6,3.4,68.4,52.2,146.3,108.7c145.4,105.2,166,128.3,155.7,171.1c-12,47.9-23.1,51.3-229.3,55.6l-189.9,4.3l-56.5,174.5
		c-36.8,112.1-62.5,178-72.7,185.7c-8.6,6.8-29.9,12-47.1,12C1428.9,2230,1407.5,2224.9,1398.9,2218z M1478.5,1820.2
		c15.4-47.1,34.2-89.8,41.9-96.7c8.6-6.8,48.8-12.8,115.5-15.4l102.7-4.3l-52.2-36.8c-90.7-63.3-112.1-85.6-112.1-116.4
		c0-15.4,11.1-61.6,25.7-103.5c13.7-41.9,24.8-77,23.1-77.9c-1.7-1.7-29.1,16.3-62.5,40.2c-32.5,24-71.9,48.8-86.4,55.6
		c-35.1,15.4-59,6-142.9-55.6c-33.4-24-60.7-41.9-62.5-40.2c-1.7,0.9,9.4,35.9,23.1,77.9c14.5,41.9,25.7,88.1,25.7,103.5
		c0,30.8-21.4,53-112.1,116.4l-52.2,36.8l102.7,4.3c66.7,2.6,106.9,8.6,115.5,15.4c7.7,6.8,26.5,49.6,41.9,96.7
		c15.4,46.2,29.9,84.7,32.5,84.7S1463.1,1866.4,1478.5,1820.2z"/>
	<path d="M749.6,1294.9c-12.8-12.8-37.6-76.1-73.6-188.2l-54.8-168.5h-172c-178.8,0-219.9-6-235.3-34.2c-9.4-18-11.1-59.9-3.4-80.4
		c2.6-6.8,70.2-59.9,149.7-117.2s144.6-109.5,144.6-115.5c0-6.8-23.1-82.1-51.3-168.5c-28.2-87.3-51.3-167.7-51.3-178.8
		c0-12,7.7-31.7,18-44.5c13.7-18,24.8-22.2,53-22.2c32.5,0.9,51.3,12,180.5,106.1L798.3,388l145.4-105.2
		c118.9-87.3,150.6-106.1,174.5-106.1c39.4,0,58.2,11.1,70.2,41.9c9.4,22.2,5.1,42.8-46.2,201.9c-31.7,100.1-53.9,179.7-48.8,183.1
		c62.5,41.1,278.9,204.5,288.3,218.2c18.8,25.7,15.4,60.7-7.7,88.1l-20.5,24l-190.8,4.3l-189.9,4.3l-56.5,172.8
		c-37.6,116.4-62.5,177.1-73.6,185.7C817.1,1320.5,772.7,1318,749.6,1294.9z M873.6,804.6c13.7-12.8,35.9-16.3,112.9-20.5l95.8-4.3
		l-73.6-53c-41.1-29.9-77-59.9-79.6-67.6c-9.4-24.8-5.1-51.3,20.5-127.5c13.7-41.9,24-77,22.2-79.6c-2.6-1.7-35.9,20.5-74.4,48.8
		c-93.3,68.4-103.5,68.4-201.9-2.6c-41.1-29.9-76.1-53.9-77-53c-1.7,1.7,9.4,36.8,23.1,78.7c16.3,47.1,25.7,89,24,110.4
		c-2.6,32.5-6.8,37.6-77,89.8l-74.4,55.6l91.5,4.3c50.5,2.6,100.1,9.4,110.4,15.4c12.8,6.8,27.4,37.6,49.6,105.2l31.7,95l29.1-89
		C842.8,860.2,863.3,814,873.6,804.6z"/>
	<path d="M2049.2,1300.9c-11.1-8.6-35.9-69.3-73.6-185.7l-56.5-172.8l-189.9-4.3l-190.8-4.3l-20.5-24c-23.1-27.4-26.5-62.5-7.7-88.1
		c9.4-13.7,225-177.1,288.3-218.2c4.3-2.6-17.1-83.8-48.8-182.2c-51.3-160.8-56.5-179.7-47.1-202.8c12.8-30.8,31.7-41.9,71-41.9
		c24,0,55.6,18.8,174.5,106.1L2093.6,388l144.6-105.2c129.2-94.1,148-105.2,180.5-106.1c28.2,0,39.4,4.3,53,22.2
		c10.3,12.8,18,32.5,18,44.5c0,11.1-23.1,91.5-51.3,178.8c-28.2,86.4-51.3,161.7-51.3,168.5c0,6,65,58.2,144.6,115.5
		s147.2,110.4,149.7,117.2c7.7,20.5,6,62.5-3.4,80.4c-15.4,28.2-56.5,34.2-235.3,34.2h-172l-54.8,168.5
		c-35.9,112.1-60.7,175.4-73.6,188.2C2119.3,1318,2074.8,1320.5,2049.2,1300.9z M2126.2,903.9c22.2-66.7,36.8-97.5,49.6-104.4
		c10.3-6,59.9-12.8,110.4-15.4l91.5-4.3l-74.4-55.6c-70.2-52.2-74.4-57.3-77-89.8c-1.7-21.4,7.7-63.3,24-110.4
		c13.7-41.9,24.8-77,23.1-78.7c-0.9-0.9-35.9,23.1-77,53c-98.4,71-108.7,71-201.9,2.6c-38.5-28.2-71.9-50.5-74.4-48.8
		c-1.7,2.6,8.6,37.6,22.2,79.6c25.7,76.1,29.9,102.7,20.5,127.5c-2.6,7.7-38.5,37.6-79.6,67.6l-73.6,53l97.5,4.3
		c118.1,6,122.3,9.4,159.1,130.9c14.5,45.3,26.5,83,27.4,83C2094.5,998,2109,955.2,2126.2,903.9z"/>
</g>
</svg>
