<?xml version="1.0" encoding="utf-8"?>
<!-- Generator: Adobe Illustrator 21.0.0, SVG Export Plug-In . SVG Version: 6.00 Build 0)  -->
<svg version="1.1" id="Layer_1" xmlns="http://www.w3.org/2000/svg" xmlns:xlink="http://www.w3.org/1999/xlink" x="0px" y="0px"
	 viewBox="0 0 400 400" style="enable-background:new 0 0 400 400;" xml:space="preserve">
<g transform="translate(0.000000,130.000000) scale(0.100000,-0.100000)">
	<path d="M2530.7,409.3C2293.1,299.4,2154.9,14,2172.6-328.2c8.9-196.8,49.6-315.5,157.8-457.4c39-51.4,92.2-148.9,120.5-216.3
		c44.3-109.9,47.9-124.1,23-157.8c-31.9-47.9-127.6-95.7-320.9-163.1c-195-69.1-280.1-118.8-370.5-216.3
		c-60.3-65.6-147.1-239.3-147.1-296c0-10.6,425.5-17.7,1152.3-17.7c982.1,0,1152.3,3.5,1152.3,24.8c0,14.2-16,63.8-37.2,111.7
		c-86.9,207.4-182.6,283.6-482.2,393.5c-209.2,76.2-290.7,118.8-324.4,170.2c-19.5,30.1-14.2,51.4,35.5,159.5
		c31.9,69.1,86.9,166.6,122.3,216.3c179,262.4,200.3,609.8,56.7,904.1c-65.6,138.3-159.5,235.8-274.8,287.2
		C2915.4,469.6,2651.2,466,2530.7,409.3z"/>
	<path d="M571.8-159.8v-274.8H305.9H40v-177.3v-177.3h265.9h265.9V-1055v-265.9h177.3h177.3v265.9v265.9h274.8h274.8v177.3v177.3
		h-274.8H926.4v274.8V115H749.1H571.8V-159.8z"/>
</g>
</svg>
