<?xml version="1.0" encoding="utf-8"?>
<!-- Generator: Adobe Illustrator 21.0.0, SVG Export Plug-In . SVG Version: 6.00 Build 0)  -->
<svg version="1.1" id="Layer_1" xmlns="http://www.w3.org/2000/svg" xmlns:xlink="http://www.w3.org/1999/xlink" x="0px" y="0px"
	 width="230px" height="200px" viewBox="0 0 230 200" style="enable-background:new 0 0 230 200;" xml:space="preserve">
<g transform="translate(0.000000,200.000000) scale(0.100000,-0.100000)">
	<path d="M379,1814.2c-47.1-9.9-69.4-19.8-108.2-47.9c-65.3-47.9-61.1,3.3-61.1-787.4v-704l20.7-35.5c11.6-19,33-43,48.7-52.1
		C306.3,170,308.8,170,1159,170h851.9l34.7,30.6c68.6,62.8,64.4,8.3,64.4,799V1701l-20.7,35.5c-13.2,22.3-36.4,44.6-60.3,58.7
		l-38.8,23.1l-789.1,1.7C767.4,1820,397.2,1817.5,379,1814.2z M1944.8,992.1V335.2h-784.9H374.9v656.9V1649h784.9h784.9V992.1z"/>
	<path d="M880.6,1353.2c-8.3-5.8-9.9-85.1-8.3-370.2l2.5-362.7l23.1-2.5c13.2-1.7,35.5,0.8,49.6,6.6
		c32.2,10.7,584.2,354.5,584.2,363.5c0,8.3-549.4,351.2-580.8,362.7C923.5,1361.4,895.4,1362.3,880.6,1353.2z M1114.4,1027.6
		c38.8-19,70.2-37.2,70.2-39.7c0-4.1-136.3-74.4-144.6-74.4c-2.5,0-4.1,33.9-4.1,74.4c0,41.3,1.7,74.4,4.1,74.4
		C1042.5,1062.3,1075.6,1046.6,1114.4,1027.6z"/>
</g>
</svg>
