<?xml version="1.0" encoding="utf-8"?>
<!-- Generator: Adobe Illustrator 21.0.0, SVG Export Plug-In . SVG Version: 6.00 Build 0)  -->
<svg version="1.1" id="Layer_1" xmlns="http://www.w3.org/2000/svg" xmlns:xlink="http://www.w3.org/1999/xlink" x="0px" y="0px"
	 viewBox="0 0 500 500" style="enable-background:new 0 0 500 500;" xml:space="preserve">
<style type="text/css">
	.st0{fill:#FFFFFF;}
	.st1{fill:#262424;}
</style>
<g>
	<line class="st0" x1="324.5" y1="201.6" x2="470.6" y2="201.6"/>
	<path class="st1" d="M470.6,225.9H324.5c-13.4,0-24.3-10.9-24.3-24.3c0-13.4,10.9-24.4,24.3-24.4h146.1c13.4,0,24.4,10.9,24.4,24.4
		C495,215,484.1,225.9,470.6,225.9z"/>
</g>
<g>
	<line class="st0" x1="32.3" y1="201.6" x2="227.1" y2="201.6"/>
	<path class="st1" d="M227.1,225.9H32.3C18.9,225.9,8,215,8,201.6c0-13.4,10.9-24.4,24.3-24.4h194.8c13.4,0,24.4,10.9,24.4,24.4
		C251.5,215,240.6,225.9,227.1,225.9z"/>
</g>
<g>
	<line class="st0" x1="227.1" y1="299" x2="470.6" y2="299"/>
	<path class="st1" d="M470.6,323.4H227.1c-13.4,0-24.3-10.9-24.3-24.4s10.9-24.4,24.3-24.4h243.5c13.4,0,24.4,10.9,24.4,24.4
		S484.1,323.4,470.6,323.4z"/>
</g>
<g>
	<line class="st0" x1="227.1" y1="396.4" x2="470.6" y2="396.4"/>
	<path class="st1" d="M470.6,420.8H227.1c-13.4,0-24.3-10.9-24.3-24.4c0-13.4,10.9-24.4,24.3-24.4h243.5c13.4,0,24.4,10.9,24.4,24.4
		C495,409.8,484.1,420.8,470.6,420.8z"/>
</g>
<g>
	<line class="st0" x1="129.8" y1="104.2" x2="129.8" y2="299"/>
	<path class="st1" d="M129.8,323.4c-13.4,0-24.3-10.9-24.3-24.4V104.2c0-13.4,10.9-24.3,24.3-24.3s24.4,10.9,24.4,24.3V299
		C154.1,312.4,143.2,323.4,129.8,323.4z"/>
</g>
</svg>
