<?xml version="1.0" encoding="utf-8"?>
<!-- Generator: Adobe Illustrator 21.0.0, SVG Export Plug-In . SVG Version: 6.00 Build 0)  -->
<svg version="1.1" id="Layer_1" xmlns="http://www.w3.org/2000/svg" xmlns:xlink="http://www.w3.org/1999/xlink" x="0px" y="0px"
	 viewBox="0 0 400 400" style="enable-background:new 0 0 400 400;" xml:space="preserve">
<style type="text/css">
	.st0{fill:#262424;}
</style>
<g>
	<path class="st0" d="M290,244.8c-1.2,0-2.4-0.3-3.5-0.8l-39.4-17.2c-4.3-1.9-6.3-6.9-4.5-11.3c1.9-4.3,6.9-6.3,11.3-4.5l25.4,11.1
		L275,190c-0.7-4.7,2.6-9,7.4-9.7c4.6-0.7,9,2.6,9.7,7.4l6.4,47.3c0.4,3-0.8,6.2-3.3,8C293.7,244.2,291.9,244.8,290,244.8z"/>
</g>
<g>
	<path class="st0" d="M283.6,368c-3.9,0-7.4-2.6-8.4-6.6l-17-71L243,261.7c-0.7-1.3-1-2.6-1-4.1v-68.8c0-4.7,3.9-8.6,8.6-8.6
		s8.6,3.9,8.6,8.6v66.6l14.8,27.8c0.3,0.7,0.6,1.4,0.8,2l17.2,72c1.1,4.6-1.8,9.3-6.3,10.4C285,367.9,284.3,368,283.6,368z"/>
</g>
<g>
	<path class="st0" d="M216.3,368c-0.7,0-1.4-0.1-2-0.3c-4.6-1.1-7.4-5.7-6.3-10.4l17.2-72c0.2-0.8,0.5-1.6,0.9-2.3l17.2-29.8
		c2.4-4.1,7.6-5.5,11.7-3.1c4.1,2.4,5.5,7.6,3.1,11.7l-16.6,28.7l-16.9,70.8C223.6,365.4,220.1,368,216.3,368z"/>
</g>
<g>
	<path class="st0" d="M250.4,197.5c-21.6,0-39.2-17.6-39.2-39.2s17.6-39.2,39.2-39.2s39.2,17.6,39.2,39.2S272,197.5,250.4,197.5z
		 M250.4,136.3c-12.2,0-22.1,9.9-22.1,22.1c0,12.2,9.9,22.1,22.1,22.1c12.2,0,22.1-9.9,22.1-22.1
		C272.5,146.1,262.6,136.3,250.4,136.3z"/>
</g>
<g>
	<path class="st0" d="M196.1,287.8c-1.4,0-2.8-0.3-4.1-1c-4.2-2.3-5.7-7.4-3.5-11.7l17.2-32.2c0.6-1.1,1.4-2.1,2.5-2.8l37.3-28
		c3.8-2.9,9.2-2.1,12.1,1.7c2.9,3.8,2.1,9.2-1.7,12.1l-35.8,26.8l-16.3,30.5C202.1,286.1,199.2,287.8,196.1,287.8z"/>
</g>
<g>
	<path class="st0" d="M324.9,129c-4.7,0-8.6-3.9-8.6-8.6s3.9-8.6,8.6-8.6c11.3,0,20.5-9.2,20.5-20.5s-9.2-20.5-20.5-20.5
		c-11.2,0-20.5,9.2-20.5,20.5c0,4.7-3.9,8.6-8.6,8.6s-8.6-3.9-8.6-8.6c0-20.8,16.9-37.7,37.7-37.7c20.8,0,37.7,16.9,37.7,37.7
		S345.6,129,324.9,129z"/>
</g>
<g>
	<path class="st0" d="M324.9,150.3c-4.7,0-8.6-3.9-8.6-8.6v-21.3c0-4.7,3.9-8.6,8.6-8.6c4.7,0,8.6,3.9,8.6,8.6v21.3
		C333.5,146.5,329.7,150.3,324.9,150.3z"/>
</g>
<g>
	<path class="st0" d="M324.9,188.8c-4.7,0-8.6-3.9-8.6-8.6v-6.5c0-4.7,3.9-8.6,8.6-8.6c4.7,0,8.6,3.9,8.6,8.6v6.5
		C333.5,184.9,329.7,188.8,324.9,188.8z"/>
</g>
<g>
	<path class="st0" d="M66.8,177.4c-4.1,0-7.6-2.9-8.5-6.9L37.8,65.7c-0.4-2.3,0-4.6,1.3-6.4c1.3-1.9,3.2-3.2,5.5-3.6l73.7-14.5
		c4.6-0.9,9.2,2.1,10.1,6.8L149,152.7c0.4,2.3,0,4.6-1.3,6.4c-1.3,1.9-3.2,3.2-5.5,3.6l-73.7,14.5C67.9,177.4,67.3,177.4,66.8,177.4
		z M56.3,70.7l17.2,88l56.8-11.2l-17.2-88L56.3,70.7z"/>
</g>
<g>
	<path class="st0" d="M181.3,199.8c-0.2,0-0.4,0-0.6,0l-75-5.2c-4.7-0.3-8.3-4.5-7.9-9.2l1.8-25.4c0.3-4.7,4.5-8.3,9.2-7.9
		c4.7,0.3,8.3,4.5,7.9,9.2l-1.2,16.7l57.8,4.1l6.3-89.4l-54.2-3.8c-4.7-0.3-8.3-4.5-7.9-9.2s4.5-8.3,9.2-7.9l62.8,4.4
		c2.3,0.2,4.4,1.2,5.9,3c1.5,1.7,2.3,4,2.1,6.3l-7.4,106.6c-0.2,2.3-1.2,4.4-3,5.9C185.5,199.1,183.5,199.8,181.3,199.8z"/>
</g>
</svg>
