<?xml version="1.0" standalone="no"?>
<!DOCTYPE svg PUBLIC "-//W3C//DTD SVG 20010904//EN"
 "http://www.w3.org/TR/2001/REC-SVG-20010904/DTD/svg10.dtd">
<svg version="1.0" xmlns="http://www.w3.org/2000/svg"
 width="268.000000pt" height="350.000000pt" viewBox="0 0 268.000000 350.000000"
 preserveAspectRatio="xMidYMid meet">
<metadata>
Created by potrace 1.15, written by Peter Selinger 2001-2017
</metadata>
<g transform="translate(0.000000,350.000000) scale(0.100000,-0.100000)"
fill="#000000" stroke="none">
<path d="M197 3486 c-95 -34 -167 -115 -187 -209 -8 -37 -10 -483 -8 -1557 l3
-1505 21 -46 c28 -60 85 -116 148 -145 l51 -24 1115 0 1115 0 51 24 c63 29
120 85 148 145 21 46 21 48 24 1199 2 915 0 1157 -10 1176 -7 12 -231 233
-497 489 l-485 467 -725 0 c-585 -1 -733 -4 -764 -14z m1373 -459 c0 -370 4
-402 63 -478 17 -23 57 -56 87 -73 l55 -31 378 -3 377 -3 -2 -1092 c-3 -1078
-3 -1092 -23 -1127 -12 -19 -36 -43 -55 -55 -35 -20 -47 -20 -1110 -20 -1063
0 -1075 0 -1110 20 -19 12 -43 36 -55 55 -20 35 -20 47 -23 1508 -1 1004 1
1486 8 1513 6 21 21 50 33 64 46 54 50 54 740 55 l637 0 0 -333z m685 -291
l160 -156 -290 3 c-332 2 -341 4 -382 87 -22 43 -23 54 -23 313 l0 269 188
-180 c103 -99 259 -250 347 -336z"/>
<path d="M715 1725 c-34 -33 -33 -77 1 -104 26 -21 35 -21 624 -21 589 0 598
0 624 21 34 27 35 71 1 104 l-24 25 -601 0 -601 0 -24 -25z"/>
<path d="M716 1419 c-36 -28 -36 -80 0 -108 26 -21 35 -21 626 -21 l599 0 24
25 c34 33 33 77 -1 104 -26 21 -35 21 -624 21 -589 0 -598 0 -624 -21z"/>
<path d="M712 1107 c-29 -31 -28 -72 3 -102 l24 -25 601 0 601 0 24 25 c32 31
33 74 2 103 l-23 22 -605 0 -606 0 -21 -23z"/>
<path d="M712 797 c-27 -29 -28 -67 -3 -98 l19 -24 411 -3 c351 -2 415 0 440
13 40 20 50 68 23 104 l-19 26 -425 3 -424 2 -22 -23z"/>
</g>
</svg>
