<?xml version="1.0" encoding="utf-8"?>
<!-- Generator: Adobe Illustrator 21.0.0, SVG Export Plug-In . SVG Version: 6.00 Build 0)  -->
<svg version="1.1" id="Layer_1" xmlns="http://www.w3.org/2000/svg" xmlns:xlink="http://www.w3.org/1999/xlink" x="0px" y="0px"
	 viewBox="0 0 142.7 239.6" style="enable-background:new 0 0 142.7 239.6;" xml:space="preserve">
<path id="Forma_1" d="M85.1,50.8c9.3,0,16.9-7.6,16.8-16.9c0-9.3-7.6-16.9-16.9-16.8c-9.3,0-16.8,7.6-16.8,16.9
	c0,9.3,7.5,16.8,16.8,16.9C85,50.8,85,50.8,85.1,50.8z M86,108.9h46V92.1H98.2L79.4,61.1c-3-5-8.3-8.1-14.1-8.4
	c-1.6-0.1-3.2,0.2-4.7,0.9L10,69.6v48.8h16.9V83.7l19.7-6.6L10,221.4h16.9l27.2-75.9l21.6,29v46.9h16.9v-60l-23.4-42.2l6.6-27.2
	L86,108.9z"/>
</svg>
