<?xml version="1.0" standalone="no"?>
<!DOCTYPE svg PUBLIC "-//W3C//DTD SVG 20010904//EN"
 "http://www.w3.org/TR/2001/REC-SVG-20010904/DTD/svg10.dtd">
<svg version="1.0" xmlns="http://www.w3.org/2000/svg"
 width="174.000000pt" height="271.000000pt" viewBox="0 0 174.000000 271.000000"
 preserveAspectRatio="xMidYMid meet">
<metadata>
Created by potrace 1.15, written by Peter Selinger 2001-2017
</metadata>
<g transform="translate(0.000000,271.000000) scale(0.100000,-0.100000)"
fill="#000000" stroke="none">
<path d="M986 2700 c-44 -14 -94 -51 -124 -94 -24 -35 -27 -48 -27 -122 0 -75
3 -86 30 -126 69 -98 211 -129 326 -70 76 38 112 92 117 176 5 82 -9 125 -59
175 -62 62 -173 88 -263 61z"/>
<path d="M372 2127 l-372 -111 0 -328 0 -328 125 0 125 0 2 232 3 231 124 38
c69 21 127 37 129 34 3 -3 -452 -1695 -504 -1878 -5 -16 4 -17 122 -15 l127 3
187 488 c103 269 190 488 194 488 4 0 73 -81 152 -180 l144 -181 0 -310 0
-310 125 0 125 0 0 401 0 400 -165 277 -165 278 43 167 c23 92 44 167 47 167
3 0 34 -45 70 -100 l65 -100 333 0 332 0 0 115 0 115 -242 2 -242 3 -132 205
c-77 118 -152 222 -177 246 -49 44 -102 65 -163 63 -22 -1 -207 -51 -412 -112z"/>
</g>
</svg>
