<?xml version="1.0" encoding="utf-8"?>
<!-- Generator: Adobe Illustrator 21.0.0, SVG Export Plug-In . SVG Version: 6.00 Build 0)  -->
<svg version="1.1" id="Layer_1" xmlns="http://www.w3.org/2000/svg" xmlns:xlink="http://www.w3.org/1999/xlink" x="0px" y="0px"
	 viewBox="0 0 246 196" style="enable-background:new 0 0 246 196;" xml:space="preserve">
<g transform="translate(0.000000,196.000000) scale(0.100000,-0.100000)">
	<path d="M662.7,1678.4c-114.1-29.6-219-113.4-273.3-218.3c-41.6-81.7-52.8-135.2-48.6-238.8c3.5-94.4,16.2-139.4,58.5-210.6
		l24.7-41.6l-15.5-43c-21.1-59.9-26.8-200.7-10.6-264.8c38-151.4,150-276.8,294.4-329.6l51.4-19l443.7-2.1
		c505-2.1,499.3-2.8,611.3,53.5c114.1,57,206.4,165.5,250,293.7c16.9,52.1,18.3,64.8,18.3,169s-1.4,116.9-19,165.5
		c-28.2,76.8-71.1,145.1-128.2,200.7c-59.9,58.5-109.9,89.4-188,116.9l-57.8,19.7l-15.5,43c-45.1,119-154.2,218.3-274,250
		c-86.6,21.8-209.2,10.6-283.1-27.5l-33.1-16.2l-31,23.9c-43.7,33.1-103.5,62-154.2,75.4C829.6,1692.5,715.5,1692.5,662.7,1678.4z
		 M888.1,1518.5c69.7-34.5,69-33.1,40.1-80.3c-28.2-46.5-50.7-109.2-57.8-161.3l-4.9-36.6l-60.6-2.8
		c-96.5-4.9-190.2-44.4-263.4-109.9l-25.4-23.2l-13.4,33.8c-9.9,25.4-12.7,52.8-12.7,111.3c0.7,68.3,2.8,81.7,18.3,116.2
		c35.2,73.2,91.6,128.2,166.2,159.2c35.9,15.5,49.3,16.9,107.8,14.8C838.1,1537.6,856.4,1534,888.1,1518.5z M1383.2,1464.3
		c81.7-38.7,139.4-119.7,154.9-217.6l7.7-50l24.7-3.5c81-12.7,107.8-19.7,154.9-43c188.7-93,256.4-334.5,145.1-520.5
		c-14.1-23.2-35.9-52.8-47.9-65.5c-35.2-36.6-100.7-77.5-152.1-94.4c-45.1-14.8-57-15.5-418.3-18.3c-235.2-1.4-394.4,0-433.1,4.9
		C652.1,476.9,535.9,605.8,534.5,772c0,114.1,51.4,209.9,145.8,271.2c85.2,54.9,162,62.7,281.7,26.8c41.6-12,76.8-20.4,78.9-18.3
		c2.1,2.1-2.8,40.1-12,84.5c-19,97.2-15.5,139.4,14.8,201.4C1108.5,1466.4,1259.2,1522.8,1383.2,1464.3z"/>
</g>
</svg>
