<?xml version="1.0" encoding="utf-8"?>
<!-- Generator: Adobe Illustrator 21.0.0, SVG Export Plug-In . SVG Version: 6.00 Build 0)  -->
<svg version="1.1" id="Layer_1" xmlns="http://www.w3.org/2000/svg" xmlns:xlink="http://www.w3.org/1999/xlink" x="0px" y="0px"
	 viewBox="0 0 480 640" style="enable-background:new 0 0 480 640;" xml:space="preserve">
<style type="text/css">
	.st0{fill:#262424;}
</style>
<g>
	<path class="st0" d="M330.8,428.4h-80.6L202.4,368c-4.3-5.5-3.4-13.4,2-17.7c5.5-4.3,13.4-3.4,17.7,2l40.3,50.8h68.4
		c7,0,12.6,5.6,12.6,12.6C343.4,422.8,337.8,428.4,330.8,428.4z"/>
</g>
<g>
	<path class="st0" d="M282.5,634c-1,0-2-0.1-2.9-0.3c-6.8-1.6-10.9-8.4-9.3-15.2l26.3-108.4l21.6-40.7v-97.5c0-7,5.6-12.6,12.6-12.6
		s12.6,5.6,12.6,12.6v103.8l-23.8,44.9l-24.8,103.9C293.4,630.1,288.2,634,282.5,634z"/>
</g>
<g>
	<path class="st0" d="M381.1,634c-5.7,0-10.9-3.9-12.2-9.7l-24.8-103.6l-24.2-41.9c-3.5-6-1.4-13.7,4.6-17.2
		c6-3.5,13.7-1.4,17.2,4.6l26.1,45.1l25.6,107.2c1.6,6.8-2.6,13.6-9.3,15.2C383.1,633.9,382.1,634,381.1,634z"/>
</g>
<g>
	<path class="st0" d="M331.1,384.4c-31.7,0-57.5-25.8-57.5-57.5c0-31.7,25.8-57.5,57.5-57.5s57.5,25.8,57.5,57.5
		C388.5,358.6,362.7,384.4,331.1,384.4z M331.1,294.7c-17.8,0-32.3,14.5-32.3,32.3s14.5,32.3,32.3,32.3s32.3-14.5,32.3-32.3
		S348.9,294.7,331.1,294.7z"/>
</g>
<g>
	<path class="st0" d="M402.2,508.2c-5.4,0-10.4-3.5-12.1-9l-15.1-50l-49.3-21.8c-6.4-2.8-9.2-10.3-6.4-16.6
		c2.8-6.4,10.2-9.2,16.6-6.4l59.9,26.5l18.5,61.1c2,6.7-1.8,13.7-8.4,15.7C404.6,508,403.4,508.2,402.2,508.2z"/>
</g>
<g>
	<path class="st0" d="M207,396.4c-7,0-12.6-5.6-12.6-12.6V245.6c0-7,5.6-12.6,12.6-12.6c7,0,12.6,5.6,12.6,12.6v138.3
		C219.6,390.8,213.9,396.4,207,396.4z"/>
</g>
<g>
	<path class="st0" d="M336.9,258.2c-7,0-12.6-5.6-12.6-12.6c0-64.7-52.6-117.3-117.3-117.3S89.7,180.9,89.7,245.6
		c0,7-5.6,12.6-12.6,12.6c-7,0-12.6-5.6-12.6-12.6c0-78.6,63.9-142.5,142.5-142.5S349.4,167,349.4,245.6
		C349.4,252.5,343.8,258.2,336.9,258.2z"/>
</g>
<g>
	<path class="st0" d="M336.9,258.2H77.1c-7,0-12.6-5.6-12.6-12.6c0-7,5.6-12.6,12.6-12.6h259.8c7,0,12.6,5.6,12.6,12.6
		C349.4,252.5,343.8,258.2,336.9,258.2z"/>
</g>
<g>
	<path class="st0" d="M77.1,99.6c-7,0-12.6-5.6-12.6-12.6V64.6c0-7,5.6-12.6,12.6-12.6c7,0,12.6,5.6,12.6,12.6V87
		C89.7,93.9,84.1,99.6,77.1,99.6z"/>
</g>
<g>
	<path class="st0" d="M129,57.6c-7,0-12.6-5.6-12.6-12.6V22.6c0-7,5.6-12.6,12.6-12.6c7,0,12.6,5.6,12.6,12.6V45
		C141.6,51.9,136,57.6,129,57.6z"/>
</g>
<g>
	<path class="st0" d="M181,91.2c-7,0-12.6-5.6-12.6-12.6V56.2c0-7,5.6-12.6,12.6-12.6s12.6,5.6,12.6,12.6v22.4
		C193.6,85.5,188,91.2,181,91.2z"/>
</g>
<g>
	<path class="st0" d="M232.9,57.6c-7,0-12.6-5.6-12.6-12.6V22.6c0-7,5.6-12.6,12.6-12.6s12.6,5.6,12.6,12.6V45
		C245.5,51.9,239.9,57.6,232.9,57.6z"/>
</g>
<g>
	<path class="st0" d="M284.9,99.6c-7,0-12.6-5.6-12.6-12.6V64.6c0-7,5.6-12.6,12.6-12.6c7,0,12.6,5.6,12.6,12.6V87
		C297.5,93.9,291.9,99.6,284.9,99.6z"/>
</g>
<g>
	<path class="st0" d="M336.9,57.6c-7,0-12.6-5.6-12.6-12.6V22.6c0-7,5.6-12.6,12.6-12.6c7,0,12.6,5.6,12.6,12.6V45
		C349.4,51.9,343.8,57.6,336.9,57.6z"/>
</g>
</svg>
