<svg xmlns="http://www.w3.org/2000/svg" width="197.847" height="117.454" viewBox="0 0 28.688 17.031">
  <defs>
    <style>
      .cls-1 {
        fill: #ccc;
        fill-rule: evenodd;
      }
    </style>
  </defs>
  <path id="Forma_1" data-name="Forma 1" class="cls-1" d="M310.82,517.174q0.035-.364.034-0.734a7.92,7.92,0,0,0-14.218-4.808,6.4,6.4,0,0,0-7.121,5.526,4.2,4.2,0,0,0,.449,8.38h20.272A4.2,4.2,0,0,0,310.82,517.174Zm-0.584,6.684H289.964a2.522,2.522,0,0,1,0-5.043H290.3a0.84,0.84,0,0,0,.84-0.84,4.714,4.714,0,0,1,5.7-4.606,0.846,0.846,0,0,0,.877-0.361,6.241,6.241,0,0,1,11.456,3.432,6.361,6.361,0,0,1-.147,1.355,0.84,0.84,0,0,0,.82,1.02h0.389A2.522,2.522,0,0,1,310.236,523.858Z" transform="translate(-285.75 -508.5)"/>
</svg>
