<svg xmlns="http://www.w3.org/2000/svg" width="197.847" height="197.84" viewBox="0 0 28.688 28.687">
  <defs>
    <style>
      .cls-1 {
        fill: #ffcf68;
        fill-rule: evenodd;
      }
    </style>
  </defs>
  <path id="Forma_1" data-name="Forma 1" class="cls-1" d="M301.1,605.69a0.841,0.841,0,0,0-.84.841v3.588a0.84,0.84,0,0,0,1.68,0v-3.588A0.841,0.841,0,0,0,301.1,605.69Zm0,23.4a0.84,0.84,0,0,0-.84.84v3.587a0.84,0.84,0,1,0,1.68,0v-3.587A0.84,0.84,0,0,0,301.1,629.1Zm-7.125-3.131L295,624.942a7.822,7.822,0,0,1,0-9.83l-1.022-1.023c-0.328-.326-1.255-1.253-1.583-1.582l-1.429-1.429a0.84,0.84,0,0,1,1.188-1.189l1.429,1.431c0.328,0.327,1.255,1.253,1.583,1.582l1.022,1.022a7.819,7.819,0,0,1,9.83,0l1.021-1.022c0.329-.329,1.256-1.257,1.584-1.582l1.429-1.431a0.84,0.84,0,0,1,1.188,1.189l-1.429,1.429c-0.328.329-1.256,1.256-1.584,1.582l-1.021,1.023a7.822,7.822,0,0,1,0,9.83l1.021,1.022,1.584,1.583,1.429,1.43a0.839,0.839,0,0,1-1.188,1.186l-1.429-1.428-1.584-1.585-1.021-1.02a7.826,7.826,0,0,1-9.83,0l-1.022,1.02c-0.328.33-1.255,1.256-1.583,1.585l-1.429,1.428a0.839,0.839,0,0,1-1.188-1.186l1.429-1.43Zm-2.783-6.776H287.6a0.84,0.84,0,1,0,0,1.679h3.588A0.84,0.84,0,1,0,291.192,619.188Zm23.4,0h-3.589a0.84,0.84,0,1,0,0,1.679H314.6A0.84,0.84,0,1,0,314.6,619.188Zm-13.5,7a6.16,6.16,0,1,1,6.16-6.161A6.168,6.168,0,0,1,301.1,626.187Z" transform="translate(-286.75 -605.688)"/>
</svg>
